M48
; DRILL file KiCad 10.0.0 date 2026-09-21T21:12:29
; FORMAT={-:-/ absolute / metric / decimal}
; #@! TF.CreationDate,2026-09-21T21:12:29-04:00
; #@! TF.GenerationSoftware,Kicad,Pcbnew,10.0.0
; #@! TF.FileFunction,Plated,1,2,PTH
FMAT,2
METRIC
; #@! TA.AperFunction,Plated,PTH,ViaDrill
T1C0.300
; #@! TA.AperFunction,Plated,PTH,ComponentDrill
T2C0.460
; #@! TA.AperFunction,Plated,PTH,ComponentDrill
T3C0.700
; #@! TA.AperFunction,Plated,PTH,ComponentDrill
T4C1.000
%
G90
G05
T1
X32.203Y-90.385
X32.203Y-91.385
X32.203Y-92.385
X32.603Y-25.185
X32.603Y-26.185
X32.603Y-27.185
X32.603Y-28.185
X32.603Y-29.185
X32.603Y-30.185
X32.603Y-31.185
X32.603Y-32.185
X32.603Y-33.185
X32.603Y-34.185
X32.603Y-35.185
X32.603Y-36.185
X32.603Y-37.185
X33.203Y-91.385
X33.203Y-92.385
X33.603Y-26.185
X33.603Y-27.185
X33.603Y-28.185
X33.603Y-29.185
X33.603Y-30.185
X33.603Y-31.185
X33.603Y-32.185
X33.603Y-33.185
X33.603Y-34.185
X33.603Y-35.185
X33.603Y-36.185
X34.203Y-91.385
X34.603Y-27.185
X34.603Y-28.185
X34.603Y-29.185
X34.603Y-30.185
X34.603Y-31.185
X34.603Y-32.185
X34.603Y-33.185
X34.603Y-34.185
X34.603Y-35.185
X35.025Y-65.937
X35.203Y-91.385
X35.603Y-27.185
X35.603Y-28.185
X35.603Y-29.185
X35.603Y-30.185
X35.603Y-31.185
X35.975Y-50.225
X36.203Y-91.385
X36.35Y-44.137
X36.45Y-46.427
X36.603Y-27.185
X36.603Y-28.185
X36.603Y-29.185
X36.603Y-30.185
X36.677Y-48.477
X37.203Y-91.385
X37.203Y-92.385
X37.603Y-26.185
X37.603Y-27.185
X37.603Y-28.185
X37.603Y-29.185
X37.603Y-30.185
X38.203Y-91.385
X38.203Y-92.385
X38.603Y-26.185
X38.603Y-27.185
X38.603Y-28.185
X38.603Y-29.185
X38.603Y-30.185
X39.203Y-91.385
X39.203Y-92.385
X39.203Y-93.385
X39.203Y-94.385
X39.603Y-19.185
X39.603Y-20.185
X39.603Y-21.185
X39.603Y-22.185
X39.603Y-23.185
X39.603Y-24.185
X39.603Y-25.185
X39.603Y-26.185
X39.603Y-27.185
X39.603Y-28.185
X39.603Y-29.185
X39.603Y-30.185
X40.203Y-90.385
X40.203Y-91.385
X40.203Y-92.385
X40.203Y-93.385
X40.203Y-94.385
X40.203Y-95.385
X40.203Y-96.385
X40.203Y-97.385
X40.203Y-98.385
X40.203Y-99.385
X40.603Y-19.185
X40.603Y-20.185
X40.603Y-21.185
X40.603Y-22.185
X40.603Y-23.185
X40.603Y-24.185
X40.603Y-25.185
X40.603Y-26.185
X40.603Y-27.185
X40.603Y-28.185
X40.603Y-29.185
X40.603Y-30.185
X41.203Y-89.385
X41.203Y-90.385
X41.203Y-91.385
X41.203Y-92.385
X41.203Y-93.385
X41.203Y-94.385
X41.203Y-95.385
X41.203Y-96.385
X41.203Y-97.385
X41.203Y-98.385
X41.203Y-99.385
X41.55Y-56.387
X41.603Y-19.185
X41.603Y-20.185
X41.603Y-21.185
X41.603Y-22.185
X41.603Y-23.185
X41.603Y-24.185
X41.603Y-25.185
X41.603Y-26.185
X41.603Y-27.185
X41.603Y-28.185
X41.603Y-29.185
X41.603Y-30.185
X42.203Y-88.385
X42.203Y-89.385
X42.203Y-90.385
X42.203Y-91.385
X42.203Y-92.385
X42.203Y-93.385
X42.203Y-94.385
X42.203Y-95.385
X42.203Y-96.385
X42.203Y-97.385
X42.203Y-98.385
X42.203Y-99.385
X42.603Y-19.185
X42.603Y-20.185
X42.603Y-21.185
X42.603Y-22.185
X42.603Y-23.185
X42.603Y-24.185
X42.603Y-25.185
X42.603Y-26.185
X42.603Y-27.185
X42.603Y-28.185
X42.603Y-29.185
X42.603Y-30.185
X42.603Y-31.185
X42.603Y-32.185
X42.93Y-34.937
X43.203Y-88.385
X43.203Y-89.385
X43.203Y-90.385
X43.203Y-91.385
X43.203Y-92.385
X43.203Y-93.385
X43.203Y-94.385
X43.203Y-95.385
X43.203Y-96.385
X43.203Y-97.385
X43.203Y-98.385
X43.203Y-99.385
X43.603Y-19.185
X43.603Y-20.185
X43.603Y-21.185
X43.603Y-22.185
X43.603Y-23.185
X43.603Y-24.185
X43.603Y-25.185
X43.603Y-26.185
X43.603Y-27.185
X43.603Y-28.185
X43.603Y-29.185
X43.603Y-30.185
X43.603Y-31.185
X43.603Y-32.185
X43.603Y-33.185
X43.603Y-34.185
X43.603Y-35.185
X43.603Y-36.185
X44.203Y-88.385
X44.203Y-89.385
X44.203Y-90.385
X44.203Y-91.385
X44.203Y-92.385
X44.203Y-93.385
X44.203Y-94.385
X44.203Y-95.385
X44.203Y-96.385
X44.203Y-97.385
X44.203Y-98.385
X44.203Y-99.385
X44.6Y-68.737
X44.603Y-19.185
X44.603Y-20.185
X44.603Y-21.185
X44.603Y-22.185
X44.603Y-23.185
X44.603Y-24.185
X44.603Y-25.185
X44.603Y-26.185
X44.603Y-27.185
X44.603Y-28.185
X44.603Y-29.185
X44.603Y-30.185
X44.603Y-31.185
X44.603Y-32.185
X44.603Y-33.185
X44.603Y-34.185
X44.603Y-35.185
X44.603Y-36.185
X44.603Y-37.185
X45.203Y-88.385
X45.203Y-89.385
X45.203Y-90.385
X45.203Y-91.385
X45.203Y-92.385
X45.203Y-93.385
X45.203Y-94.385
X45.203Y-95.385
X45.203Y-96.385
X45.203Y-97.385
X45.203Y-98.385
X45.203Y-99.385
X45.6Y-55.937
X45.603Y-19.185
X45.603Y-20.185
X45.603Y-21.185
X45.603Y-22.185
X45.603Y-23.185
X45.603Y-24.185
X45.603Y-25.185
X45.603Y-26.185
X45.603Y-27.185
X45.603Y-28.185
X45.603Y-29.185
X45.603Y-30.185
X45.603Y-31.185
X45.603Y-32.185
X45.603Y-33.185
X45.603Y-34.185
X45.603Y-35.185
X45.603Y-36.185
X45.603Y-37.185
X45.603Y-38.185
X46.2Y-47.362
X46.203Y-88.385
X46.203Y-89.385
X46.203Y-90.385
X46.203Y-91.385
X46.203Y-92.385
X46.203Y-93.385
X46.203Y-94.385
X46.203Y-95.385
X46.203Y-96.385
X46.203Y-97.385
X46.203Y-98.385
X46.203Y-99.385
X46.603Y-19.185
X46.603Y-20.185
X46.603Y-21.185
X46.603Y-22.185
X46.603Y-23.185
X46.603Y-24.185
X46.603Y-25.185
X46.603Y-26.185
X46.603Y-27.185
X46.603Y-28.185
X46.603Y-29.185
X46.603Y-30.185
X46.603Y-31.185
X46.603Y-32.185
X46.603Y-33.185
X46.603Y-34.185
X46.603Y-35.185
X46.603Y-36.185
X46.603Y-37.185
X46.603Y-38.185
X46.603Y-39.185
X46.8Y-62.6
X47.203Y-88.385
X47.203Y-89.385
X47.203Y-90.385
X47.203Y-91.385
X47.203Y-92.385
X47.203Y-93.385
X47.203Y-94.385
X47.203Y-95.385
X47.203Y-96.385
X47.203Y-97.385
X47.203Y-98.385
X47.203Y-99.385
X47.603Y-19.185
X47.603Y-20.185
X47.603Y-21.185
X47.603Y-22.185
X47.603Y-23.185
X47.603Y-24.185
X47.603Y-25.185
X47.603Y-26.185
X47.603Y-27.185
X47.603Y-28.185
X47.603Y-29.185
X47.603Y-30.185
X47.603Y-31.185
X47.603Y-32.185
X47.603Y-33.185
X47.603Y-34.185
X47.603Y-35.185
X47.603Y-36.185
X47.603Y-37.185
X47.603Y-38.185
X47.603Y-39.185
X47.603Y-40.185
X47.779Y-62.0
X48.203Y-88.385
X48.203Y-89.385
X48.203Y-90.385
X48.203Y-91.385
X48.203Y-92.385
X48.203Y-93.385
X48.203Y-94.385
X48.203Y-95.385
X48.203Y-96.385
X48.203Y-97.385
X48.203Y-98.385
X48.203Y-99.385
X48.603Y-19.185
X48.603Y-20.185
X48.603Y-21.185
X48.603Y-22.185
X48.603Y-23.185
X48.603Y-24.185
X48.603Y-25.185
X48.603Y-26.185
X48.603Y-27.185
X48.603Y-28.185
X48.603Y-29.185
X48.603Y-30.185
X48.603Y-31.185
X48.603Y-32.185
X48.603Y-33.185
X48.603Y-34.185
X48.603Y-35.185
X48.603Y-36.185
X48.603Y-37.185
X48.603Y-38.185
X48.603Y-39.185
X48.603Y-40.185
X48.603Y-41.185
X48.603Y-42.185
X48.603Y-43.185
X48.603Y-44.185
X48.603Y-45.185
X49.2Y-60.737
X49.203Y-88.385
X49.203Y-89.385
X49.203Y-90.385
X49.203Y-91.385
X49.203Y-92.385
X49.203Y-93.385
X49.203Y-94.385
X49.203Y-95.385
X49.203Y-96.385
X49.203Y-97.385
X49.203Y-98.385
X49.203Y-99.385
X49.4Y-70.0
X49.603Y-19.185
X49.603Y-20.185
X49.603Y-21.185
X49.603Y-22.185
X49.603Y-23.185
X49.603Y-24.185
X49.603Y-25.185
X49.603Y-26.185
X49.603Y-27.185
X49.603Y-28.185
X49.603Y-29.185
X49.603Y-30.185
X49.603Y-31.185
X49.603Y-32.185
X49.603Y-33.185
X49.603Y-34.185
X49.603Y-35.185
X49.603Y-36.185
X49.603Y-37.185
X49.603Y-38.185
X49.603Y-39.185
X49.603Y-40.185
X49.603Y-41.185
X49.603Y-42.185
X49.603Y-43.185
X49.603Y-44.185
X49.603Y-45.185
X50.203Y-88.385
X50.203Y-89.385
X50.203Y-90.385
X50.203Y-91.385
X50.203Y-92.385
X50.203Y-93.385
X50.203Y-94.385
X50.203Y-95.385
X50.203Y-96.385
X50.203Y-97.385
X50.203Y-98.385
X50.203Y-99.385
X50.603Y-19.185
X50.603Y-20.185
X50.603Y-21.185
X50.603Y-22.185
X50.603Y-23.185
X50.603Y-24.185
X50.603Y-25.185
X50.603Y-26.185
X50.603Y-27.185
X50.603Y-28.185
X50.603Y-29.185
X50.603Y-30.185
X50.603Y-31.185
X50.603Y-32.185
X50.603Y-33.185
X50.603Y-34.185
X50.603Y-35.185
X50.603Y-36.185
X50.603Y-37.185
X50.603Y-38.185
X50.603Y-39.185
X50.603Y-40.185
X50.603Y-41.185
X50.603Y-42.185
X50.603Y-43.185
X50.603Y-44.185
X50.603Y-45.185
X50.725Y-61.71
X51.203Y-88.385
X51.203Y-89.385
X51.203Y-90.385
X51.203Y-91.385
X51.203Y-92.385
X51.203Y-93.385
X51.203Y-94.385
X51.203Y-95.385
X51.203Y-96.385
X51.203Y-97.385
X51.203Y-98.385
X51.203Y-99.385
X51.603Y-19.185
X51.603Y-20.185
X51.603Y-21.185
X51.603Y-22.185
X51.603Y-23.185
X51.603Y-24.185
X51.603Y-25.185
X51.603Y-26.185
X51.603Y-27.185
X51.603Y-28.185
X51.603Y-29.185
X51.603Y-30.185
X51.603Y-31.185
X51.603Y-32.185
X51.603Y-33.185
X51.603Y-34.185
X51.603Y-35.185
X51.603Y-36.185
X51.603Y-37.185
X51.603Y-38.185
X51.603Y-39.185
X51.603Y-40.185
X51.603Y-41.185
X51.603Y-42.185
X51.603Y-43.185
X51.603Y-44.185
X51.603Y-45.185
X51.8Y-46.538
X52.2Y-60.737
X52.203Y-87.385
X52.203Y-88.385
X52.203Y-89.385
X52.203Y-90.385
X52.203Y-91.385
X52.203Y-92.385
X52.203Y-93.385
X52.203Y-94.385
X52.203Y-95.385
X52.203Y-96.385
X52.203Y-97.385
X52.203Y-98.385
X52.203Y-99.385
X52.603Y-19.185
X52.603Y-20.185
X52.603Y-21.185
X52.603Y-22.185
X52.603Y-23.185
X52.603Y-24.185
X52.603Y-25.185
X52.603Y-26.185
X52.603Y-27.185
X52.603Y-28.185
X52.603Y-29.185
X52.603Y-30.185
X52.603Y-31.185
X52.603Y-32.185
X52.603Y-33.185
X52.603Y-34.185
X52.603Y-35.185
X52.603Y-36.185
X52.603Y-37.185
X52.603Y-38.185
X52.603Y-39.185
X52.603Y-40.185
X52.603Y-41.185
X52.603Y-42.185
X52.603Y-43.185
X52.603Y-44.185
X52.603Y-45.185
X53.203Y-87.385
X53.203Y-88.385
X53.203Y-89.385
X53.203Y-90.385
X53.203Y-91.385
X53.203Y-92.385
X53.203Y-93.385
X53.203Y-94.385
X53.203Y-95.385
X53.203Y-96.385
X53.203Y-97.385
X53.203Y-98.385
X53.203Y-99.385
X53.603Y-19.185
X53.603Y-20.185
X53.603Y-21.185
X53.603Y-22.185
X53.603Y-23.185
X53.603Y-24.185
X53.603Y-25.185
X53.603Y-26.185
X53.603Y-27.185
X53.603Y-28.185
X53.603Y-29.185
X53.603Y-30.185
X53.603Y-31.185
X53.603Y-32.185
X53.603Y-33.185
X53.603Y-34.185
X53.603Y-35.185
X53.603Y-36.185
X53.603Y-37.185
X53.603Y-38.185
X53.603Y-39.185
X53.603Y-40.185
X53.603Y-41.185
X53.603Y-42.185
X53.603Y-43.185
X53.603Y-44.185
X53.603Y-45.185
X54.203Y-85.385
X54.203Y-86.385
X54.203Y-87.385
X54.203Y-88.385
X54.203Y-89.385
X54.203Y-90.385
X54.203Y-91.385
X54.203Y-92.385
X54.203Y-93.385
X54.203Y-94.385
X54.203Y-95.385
X54.203Y-96.385
X54.203Y-97.385
X54.203Y-98.385
X54.203Y-99.385
X54.603Y-19.185
X54.603Y-20.185
X54.603Y-21.185
X54.603Y-22.185
X54.603Y-23.185
X54.603Y-24.185
X54.603Y-25.185
X54.603Y-26.185
X54.603Y-27.185
X54.603Y-28.185
X54.603Y-29.185
X54.603Y-30.185
X54.603Y-31.185
X54.603Y-32.185
X54.603Y-33.185
X54.603Y-34.185
X54.603Y-35.185
X54.603Y-36.185
X54.603Y-37.185
X54.603Y-38.185
X54.603Y-39.185
X54.603Y-40.185
X54.603Y-41.185
X54.603Y-42.185
X54.603Y-43.185
X54.603Y-44.185
X54.603Y-45.185
X55.203Y-85.385
X55.203Y-86.385
X55.203Y-87.385
X55.203Y-88.385
X55.203Y-89.385
X55.203Y-90.385
X55.203Y-91.385
X55.203Y-92.385
X55.203Y-93.385
X55.203Y-94.385
X55.203Y-95.385
X55.203Y-96.385
X55.203Y-97.385
X55.203Y-98.385
X55.203Y-99.385
X55.603Y-19.185
X55.603Y-20.185
X55.603Y-21.185
X55.603Y-22.185
X55.603Y-23.185
X55.603Y-24.185
X55.603Y-25.185
X55.603Y-26.185
X55.603Y-27.185
X55.603Y-28.185
X55.603Y-29.185
X55.603Y-30.185
X55.603Y-31.185
X55.603Y-32.185
X55.603Y-33.185
X55.603Y-34.185
X55.603Y-35.185
X55.603Y-36.185
X55.603Y-37.185
X55.603Y-38.185
X55.603Y-39.185
X55.603Y-40.185
X55.603Y-41.185
X55.603Y-42.185
X55.603Y-43.185
X55.603Y-44.185
X55.603Y-45.185
X55.603Y-46.185
X55.603Y-47.185
X55.603Y-48.185
X55.603Y-49.185
X55.603Y-50.185
X55.603Y-51.185
X56.203Y-83.385
X56.203Y-84.385
X56.203Y-85.385
X56.203Y-86.385
X56.203Y-87.385
X56.203Y-88.385
X56.203Y-89.385
X56.203Y-90.385
X56.203Y-91.385
X56.203Y-92.385
X56.203Y-93.385
X56.203Y-94.385
X56.203Y-95.385
X56.203Y-96.385
X56.203Y-97.385
X56.203Y-98.385
X56.203Y-99.385
X56.603Y-19.185
X56.603Y-20.185
X56.603Y-21.185
X56.603Y-22.185
X56.603Y-23.185
X56.603Y-24.185
X56.603Y-25.185
X56.603Y-26.185
X56.603Y-27.185
X56.603Y-28.185
X56.603Y-29.185
X56.603Y-30.185
X56.603Y-31.185
X56.603Y-32.185
X56.603Y-33.185
X56.603Y-34.185
X56.603Y-35.185
X56.603Y-36.185
X56.603Y-37.185
X56.603Y-38.185
X56.603Y-39.185
X56.603Y-40.185
X56.603Y-41.185
X56.603Y-42.185
X56.603Y-43.185
X56.603Y-44.185
X56.603Y-45.185
X56.603Y-46.185
X56.603Y-47.185
X56.603Y-48.185
X56.603Y-49.185
X56.603Y-50.185
X56.603Y-51.185
X56.603Y-52.185
X57.2Y-66.662
X57.203Y-82.385
X57.203Y-83.385
X57.203Y-84.385
X57.203Y-85.385
X57.203Y-86.385
X57.203Y-87.385
X57.203Y-88.385
X57.203Y-89.385
X57.203Y-90.385
X57.203Y-91.385
X57.203Y-92.385
X57.203Y-93.385
X57.203Y-94.385
X57.203Y-95.385
X57.203Y-96.385
X57.203Y-97.385
X57.203Y-98.385
X57.203Y-99.385
X57.603Y-19.185
X57.603Y-20.185
X57.603Y-21.185
X57.603Y-22.185
X57.603Y-23.185
X57.603Y-24.185
X57.603Y-25.185
X57.603Y-26.185
X57.603Y-27.185
X57.603Y-28.185
X57.603Y-29.185
X57.603Y-30.185
X57.603Y-31.185
X57.603Y-32.185
X57.603Y-33.185
X57.603Y-34.185
X57.603Y-35.185
X57.603Y-36.185
X57.603Y-37.185
X57.603Y-38.185
X57.603Y-39.185
X57.603Y-40.185
X57.603Y-41.185
X57.603Y-42.185
X57.603Y-43.185
X57.603Y-44.185
X57.603Y-45.185
X57.603Y-46.185
X57.603Y-47.185
X57.603Y-48.185
X57.603Y-49.185
X57.603Y-50.185
X57.603Y-51.185
X57.603Y-52.185
X57.803Y-53.185
X57.803Y-54.185
X57.803Y-55.185
X57.803Y-56.185
X58.203Y-82.385
X58.203Y-83.385
X58.203Y-84.385
X58.203Y-85.385
X58.203Y-86.385
X58.203Y-87.385
X58.203Y-88.385
X58.203Y-89.385
X58.203Y-90.385
X58.203Y-91.385
X58.203Y-92.385
X58.203Y-93.385
X58.203Y-94.385
X58.203Y-95.385
X58.203Y-96.385
X58.203Y-97.385
X58.203Y-98.385
X58.203Y-99.385
X58.603Y-19.185
X58.603Y-20.185
X58.603Y-21.185
X58.603Y-22.185
X58.603Y-23.185
X58.603Y-24.185
X58.603Y-25.185
X58.603Y-26.185
X58.603Y-27.185
X58.603Y-28.185
X58.603Y-29.185
X58.603Y-30.185
X58.603Y-31.185
X58.603Y-32.185
X58.603Y-33.185
X58.603Y-34.185
X58.603Y-35.185
X58.603Y-36.185
X58.603Y-37.185
X58.603Y-38.185
X58.603Y-39.185
X58.603Y-40.185
X58.603Y-41.185
X58.603Y-42.185
X58.603Y-43.185
X59.203Y-80.385
X59.203Y-81.385
X59.203Y-82.385
X59.203Y-83.385
X59.203Y-84.385
X59.203Y-85.385
X59.203Y-86.385
X59.203Y-87.385
X59.203Y-88.385
X59.203Y-89.385
X59.203Y-90.385
X59.203Y-91.385
X59.203Y-92.385
X59.203Y-93.385
X59.203Y-94.385
X59.203Y-95.385
X59.203Y-96.385
X59.203Y-97.385
X59.203Y-98.385
X59.203Y-99.385
X59.603Y-19.185
X59.603Y-20.185
X59.603Y-21.185
X59.603Y-22.185
X59.603Y-23.185
X59.603Y-24.185
X59.603Y-25.185
X59.603Y-26.185
X59.603Y-27.185
X59.603Y-28.185
X59.603Y-29.185
X59.603Y-30.185
X59.603Y-31.185
X59.603Y-32.185
X59.603Y-33.185
X59.603Y-34.185
X59.603Y-35.185
X59.603Y-36.185
X59.603Y-37.185
X59.603Y-38.185
X59.603Y-39.185
X59.603Y-40.185
X59.603Y-41.185
X59.603Y-42.185
X60.203Y-79.385
X60.203Y-80.385
X60.203Y-81.385
X60.203Y-82.385
X60.203Y-83.385
X60.203Y-84.385
X60.203Y-85.385
X60.203Y-86.385
X60.203Y-87.385
X60.203Y-88.385
X60.203Y-89.385
X60.203Y-90.385
X60.203Y-91.385
X60.203Y-92.385
X60.203Y-93.385
X60.203Y-94.385
X60.203Y-95.385
X60.203Y-96.385
X60.203Y-97.385
X60.203Y-98.385
X60.203Y-99.385
X60.603Y-19.185
X60.603Y-20.185
X60.603Y-21.185
X60.603Y-22.185
X60.603Y-23.185
X60.603Y-24.185
X60.603Y-25.185
X60.603Y-26.185
X60.603Y-27.185
X60.603Y-28.185
X60.603Y-29.185
X60.603Y-30.185
X60.603Y-31.185
X60.603Y-32.185
X60.603Y-33.185
X60.603Y-34.185
X60.603Y-35.185
X60.603Y-36.185
X60.603Y-37.185
X60.603Y-38.185
X60.603Y-39.185
X60.603Y-40.185
X60.603Y-41.185
X60.8Y-69.337
X61.203Y-78.385
X61.203Y-79.385
X61.203Y-80.385
X61.203Y-81.385
X61.203Y-82.385
X61.203Y-83.385
X61.203Y-84.385
X61.203Y-85.385
X61.203Y-86.385
X61.203Y-87.385
X61.203Y-88.385
X61.203Y-89.385
X61.203Y-90.385
X61.203Y-91.385
X61.203Y-92.385
X61.203Y-93.385
X61.203Y-94.385
X61.203Y-95.385
X61.203Y-96.385
X61.203Y-97.385
X61.203Y-98.385
X61.203Y-99.385
X61.328Y-59.937
X61.378Y-61.637
X61.603Y-19.185
X61.603Y-20.185
X61.603Y-21.185
X61.603Y-22.185
X61.603Y-23.185
X61.603Y-24.185
X61.603Y-25.185
X61.603Y-26.185
X61.603Y-27.185
X61.603Y-28.185
X61.603Y-29.185
X61.603Y-30.185
X61.603Y-31.185
X62.203Y-78.385
X62.203Y-79.385
X62.203Y-80.385
X62.203Y-81.385
X62.203Y-82.385
X62.203Y-83.385
X62.203Y-84.385
X62.203Y-85.385
X62.203Y-86.385
X62.203Y-87.385
X62.203Y-88.385
X62.203Y-89.385
X62.203Y-90.385
X62.203Y-91.385
X62.203Y-92.385
X62.203Y-93.385
X62.203Y-94.385
X62.203Y-95.385
X62.203Y-96.385
X62.203Y-97.385
X62.203Y-98.385
X62.203Y-99.385
X62.603Y-19.185
X62.603Y-20.185
X62.603Y-21.185
X62.603Y-22.185
X62.603Y-23.185
X62.603Y-24.185
X62.603Y-25.185
X62.603Y-26.185
X62.603Y-27.185
X62.603Y-28.185
X62.603Y-29.185
X62.603Y-30.185
X63.203Y-78.385
X63.203Y-79.385
X63.203Y-80.385
X63.203Y-81.385
X63.203Y-82.385
X63.203Y-83.385
X63.203Y-84.385
X63.203Y-85.385
X63.203Y-86.385
X63.203Y-87.385
X63.203Y-88.385
X63.203Y-89.385
X63.203Y-90.385
X63.203Y-91.385
X63.203Y-92.385
X63.203Y-93.385
X63.203Y-94.385
X63.203Y-95.385
X63.203Y-96.385
X63.203Y-97.385
X63.203Y-98.385
X63.203Y-99.385
X63.4Y-66.737
X63.603Y-19.185
X63.603Y-20.185
X63.603Y-21.185
X63.603Y-22.185
X63.603Y-23.185
X63.603Y-24.185
X63.603Y-25.185
X63.603Y-26.185
X63.603Y-27.185
X63.603Y-28.185
X63.603Y-29.185
X64.203Y-78.385
X64.203Y-79.385
X64.203Y-80.385
X64.203Y-81.385
X64.203Y-82.385
X64.203Y-83.385
X64.203Y-84.385
X64.203Y-85.385
X64.203Y-86.385
X64.203Y-87.385
X64.203Y-88.385
X64.203Y-89.385
X64.203Y-90.385
X64.203Y-91.385
X64.203Y-92.385
X64.203Y-93.385
X64.203Y-94.385
X64.203Y-95.385
X64.203Y-96.385
X64.203Y-97.385
X64.203Y-98.385
X64.203Y-99.385
X64.603Y-19.185
X64.603Y-20.185
X64.603Y-21.185
X64.603Y-22.185
X64.603Y-23.185
X64.603Y-24.185
X64.603Y-25.185
X64.603Y-26.185
X64.603Y-27.185
X64.603Y-28.185
X65.203Y-78.385
X65.203Y-79.385
X65.203Y-80.385
X65.203Y-81.385
X65.203Y-82.385
X65.203Y-83.385
X65.203Y-84.385
X65.203Y-85.385
X65.203Y-86.385
X65.203Y-87.385
X65.203Y-88.385
X65.203Y-89.385
X65.203Y-90.385
X65.203Y-91.385
X65.203Y-92.385
X65.203Y-93.385
X65.203Y-94.385
X65.203Y-95.385
X65.203Y-96.385
X65.203Y-97.385
X65.203Y-98.385
X65.203Y-99.385
X65.4Y-39.4
X65.4Y-45.0
X65.603Y-19.185
X65.603Y-20.185
X65.603Y-21.185
X65.603Y-22.185
X65.603Y-23.185
X65.603Y-24.185
X65.603Y-25.185
X65.603Y-26.185
X65.603Y-27.185
X66.203Y-78.385
X66.203Y-79.385
X66.203Y-80.385
X66.203Y-81.385
X66.203Y-82.385
X66.203Y-83.385
X66.203Y-84.385
X66.203Y-85.385
X66.203Y-86.385
X66.203Y-87.385
X66.203Y-88.385
X66.203Y-89.385
X66.203Y-90.385
X66.203Y-91.385
X66.203Y-92.385
X66.203Y-93.385
X66.203Y-94.385
X66.203Y-95.385
X66.203Y-96.385
X66.203Y-97.385
X66.203Y-98.385
X66.203Y-99.385
X66.603Y-19.185
X66.603Y-20.185
X66.603Y-21.185
X66.603Y-22.185
X66.603Y-23.185
X66.603Y-24.185
X66.603Y-25.185
X66.603Y-26.185
X66.975Y-56.025
X67.2Y-75.6
X67.203Y-68.385
X67.203Y-69.385
X67.203Y-70.385
X67.203Y-76.385
X67.203Y-77.185
X67.203Y-78.185
X67.203Y-79.185
X67.203Y-80.385
X67.203Y-81.385
X67.203Y-82.385
X67.203Y-83.385
X67.203Y-84.385
X67.203Y-85.385
X67.203Y-86.385
X67.203Y-87.385
X67.203Y-88.385
X67.203Y-89.385
X67.203Y-90.385
X67.203Y-91.385
X67.203Y-92.385
X67.203Y-93.385
X67.203Y-94.385
X67.203Y-95.385
X67.203Y-96.385
X67.203Y-97.385
X67.203Y-98.385
X67.203Y-99.385
X67.296Y-71.104
X67.603Y-19.185
X67.603Y-20.185
X67.603Y-21.185
X67.603Y-22.185
X67.603Y-23.185
X67.603Y-24.185
X67.603Y-25.185
X68.003Y-35.185
X68.003Y-36.185
X68.203Y-68.385
X68.203Y-69.385
X68.203Y-70.185
X68.203Y-77.185
X68.203Y-78.185
X68.203Y-79.185
X68.203Y-80.385
X68.203Y-81.385
X68.203Y-82.385
X68.203Y-83.385
X68.203Y-84.385
X68.203Y-85.385
X68.203Y-86.385
X68.203Y-87.385
X68.203Y-88.385
X68.203Y-89.385
X68.203Y-90.385
X68.203Y-91.385
X68.203Y-92.385
X68.203Y-93.385
X68.203Y-94.385
X68.203Y-95.385
X68.203Y-96.385
X68.203Y-97.385
X68.203Y-98.385
X68.203Y-99.385
X68.526Y-70.785
X68.526Y-76.385
X68.603Y-19.185
X68.603Y-20.185
X68.603Y-21.185
X68.603Y-22.185
X68.603Y-23.185
X68.99Y-37.585
X69.003Y-35.185
X69.003Y-36.185
X69.112Y-65.912
X69.203Y-68.385
X69.203Y-69.385
X69.203Y-70.385
X69.203Y-77.185
X69.203Y-78.185
X69.203Y-79.185
X69.203Y-80.385
X69.203Y-81.385
X69.203Y-82.385
X69.203Y-83.385
X69.203Y-84.385
X69.203Y-85.385
X69.203Y-86.385
X69.203Y-87.385
X69.203Y-88.385
X69.203Y-89.385
X69.203Y-90.385
X69.203Y-91.385
X69.203Y-92.385
X69.203Y-93.385
X69.203Y-94.385
X69.203Y-95.385
X69.203Y-96.385
X69.203Y-97.385
X69.203Y-98.385
X69.203Y-99.385
X69.212Y-57.4
X69.603Y-19.185
X69.603Y-20.185
X69.603Y-21.185
X69.603Y-22.185
X69.603Y-23.185
X69.8Y-43.2
X69.8Y-71.754
X69.8Y-75.574
X69.803Y-76.385
X70.003Y-35.185
X70.003Y-36.185
X70.003Y-37.185
X70.003Y-43.985
X70.003Y-44.785
X70.003Y-45.785
X70.203Y-38.367
X70.203Y-68.385
X70.203Y-69.385
X70.203Y-70.385
X70.203Y-77.185
X70.203Y-78.185
X70.203Y-79.185
X70.203Y-80.385
X70.203Y-81.385
X70.203Y-82.385
X70.203Y-83.385
X70.203Y-84.385
X70.203Y-85.385
X70.203Y-86.385
X70.203Y-87.385
X70.203Y-88.385
X70.203Y-89.385
X70.203Y-90.385
X70.203Y-91.385
X70.203Y-92.385
X70.203Y-93.385
X70.203Y-94.385
X70.203Y-95.385
X70.203Y-96.385
X70.203Y-97.385
X70.203Y-98.385
X70.203Y-99.385
X70.33Y-42.187
X70.603Y-19.185
X70.603Y-20.185
X70.603Y-21.185
X70.603Y-22.185
X70.603Y-23.185
X70.603Y-71.785
X70.603Y-72.785
X70.603Y-73.785
X70.603Y-74.785
X70.603Y-75.785
X70.803Y-43.185
X70.803Y-46.785
X71.003Y-35.185
X71.003Y-36.185
X71.003Y-37.185
X71.003Y-38.585
X71.003Y-39.585
X71.003Y-40.585
X71.003Y-41.585
X71.003Y-45.785
X71.203Y-34.185
X71.203Y-43.985
X71.203Y-44.785
X71.203Y-68.385
X71.203Y-70.385
X71.203Y-80.385
X71.203Y-81.385
X71.203Y-82.385
X71.203Y-83.385
X71.203Y-84.385
X71.203Y-85.385
X71.203Y-86.385
X71.203Y-87.385
X71.203Y-88.385
X71.203Y-89.385
X71.203Y-90.385
X71.203Y-91.385
X71.203Y-92.385
X71.203Y-93.385
X71.203Y-94.385
X71.203Y-95.385
X71.203Y-96.385
X71.203Y-97.385
X71.203Y-98.385
X71.203Y-99.385
X71.403Y-76.785
X71.403Y-79.185
X71.521Y-77.729
X71.591Y-69.599
X71.603Y-19.185
X71.603Y-20.185
X71.603Y-21.185
X71.603Y-22.185
X71.603Y-23.185
X71.603Y-42.385
X71.603Y-71.785
X71.603Y-72.785
X71.603Y-73.785
X71.603Y-74.785
X71.603Y-75.785
X71.8Y-62.2
X71.803Y-43.185
X71.803Y-46.785
X71.803Y-47.785
X72.003Y-35.185
X72.003Y-36.185
X72.003Y-37.185
X72.003Y-38.585
X72.003Y-39.585
X72.003Y-40.585
X72.003Y-41.585
X72.003Y-45.785
X72.2Y-44.342
X72.203Y-33.185
X72.203Y-34.185
X72.203Y-80.385
X72.203Y-81.385
X72.203Y-82.385
X72.203Y-83.385
X72.203Y-84.385
X72.203Y-85.385
X72.203Y-86.385
X72.203Y-87.385
X72.203Y-88.385
X72.203Y-89.385
X72.203Y-90.385
X72.203Y-91.385
X72.203Y-92.385
X72.203Y-93.385
X72.203Y-94.385
X72.203Y-95.385
X72.203Y-96.385
X72.203Y-97.385
X72.203Y-98.385
X72.203Y-99.385
X72.591Y-70.949
X72.591Y-76.299
X72.591Y-79.079
X72.6Y-68.2
X72.603Y-19.185
X72.603Y-20.185
X72.603Y-21.185
X72.603Y-22.185
X72.603Y-23.185
X72.603Y-42.385
X72.603Y-71.785
X72.603Y-72.785
X72.603Y-73.785
X72.603Y-74.785
X72.603Y-75.585
X72.803Y-46.785
X72.803Y-47.785
X72.803Y-48.785
X73.003Y-38.585
X73.003Y-39.585
X73.003Y-40.585
X73.003Y-41.585
X73.055Y-37.6
X73.055Y-43.0
X73.055Y-45.692
X73.2Y-33.0
X73.203Y-34.185
X73.203Y-80.385
X73.203Y-81.385
X73.203Y-82.385
X73.203Y-83.385
X73.203Y-84.385
X73.203Y-85.385
X73.203Y-86.385
X73.203Y-87.385
X73.203Y-88.385
X73.203Y-89.385
X73.203Y-90.385
X73.203Y-91.385
X73.203Y-92.385
X73.203Y-93.385
X73.203Y-94.385
X73.203Y-95.385
X73.203Y-96.385
X73.203Y-97.385
X73.203Y-98.385
X73.203Y-99.385
X73.603Y-19.185
X73.603Y-20.185
X73.603Y-21.185
X73.603Y-22.185
X73.603Y-23.185
X73.603Y-42.385
X73.603Y-71.785
X73.603Y-72.785
X73.603Y-73.785
X73.603Y-74.785
X73.603Y-75.785
X73.603Y-76.785
X73.603Y-79.185
X73.691Y-69.599
X73.791Y-77.729
X73.803Y-46.785
X73.803Y-47.785
X73.803Y-48.785
X73.803Y-49.785
X73.803Y-68.385
X73.803Y-70.385
X74.003Y-38.585
X74.003Y-39.585
X74.003Y-40.585
X74.003Y-41.585
X74.003Y-45.785
X74.025Y-44.342
X74.203Y-33.185
X74.203Y-34.185
X74.203Y-35.185
X74.203Y-36.185
X74.203Y-37.185
X74.203Y-43.185
X74.203Y-80.385
X74.203Y-81.385
X74.203Y-82.385
X74.203Y-83.385
X74.203Y-84.385
X74.203Y-85.385
X74.203Y-86.385
X74.203Y-87.385
X74.203Y-88.385
X74.203Y-89.385
X74.203Y-90.385
X74.203Y-91.385
X74.203Y-92.385
X74.203Y-93.385
X74.203Y-94.385
X74.203Y-95.385
X74.203Y-96.385
X74.203Y-97.385
X74.203Y-98.385
X74.203Y-99.385
X74.603Y-19.185
X74.603Y-20.185
X74.603Y-21.185
X74.603Y-22.185
X74.603Y-23.185
X74.603Y-42.385
X74.603Y-71.785
X74.603Y-72.785
X74.603Y-73.785
X74.603Y-74.785
X74.603Y-75.785
X74.803Y-43.785
X74.803Y-44.785
X74.803Y-45.785
X74.803Y-46.785
X74.803Y-47.785
X74.803Y-48.785
X74.803Y-49.785
X74.803Y-50.785
X74.803Y-68.385
X74.803Y-69.385
X74.803Y-70.385
X74.803Y-76.985
X74.803Y-78.185
X74.803Y-79.185
X75.003Y-38.585
X75.003Y-39.585
X75.003Y-40.585
X75.003Y-41.585
X75.203Y-34.185
X75.203Y-35.185
X75.203Y-36.185
X75.203Y-37.185
X75.203Y-80.385
X75.203Y-81.385
X75.203Y-82.385
X75.203Y-83.385
X75.203Y-84.385
X75.203Y-85.385
X75.203Y-86.385
X75.203Y-87.385
X75.203Y-88.385
X75.203Y-89.385
X75.203Y-90.385
X75.203Y-91.385
X75.203Y-92.385
X75.203Y-93.385
X75.203Y-94.385
X75.203Y-95.385
X75.203Y-96.385
X75.203Y-97.385
X75.203Y-98.385
X75.203Y-99.385
X75.316Y-71.754
X75.403Y-42.985
X75.403Y-75.574
X75.603Y-19.185
X75.603Y-20.185
X75.603Y-21.185
X75.603Y-22.185
X75.603Y-23.185
X75.68Y-42.187
X75.8Y-76.8
X75.803Y-43.785
X75.803Y-44.785
X75.803Y-45.785
X75.803Y-46.785
X75.803Y-47.785
X75.803Y-48.785
X75.803Y-49.785
X75.803Y-50.785
X75.803Y-51.785
X75.803Y-52.785
X75.803Y-68.385
X75.803Y-69.385
X75.803Y-70.385
X75.803Y-78.185
X75.803Y-79.185
X76.003Y-38.367
X76.203Y-35.185
X76.203Y-36.185
X76.203Y-37.185
X76.203Y-80.385
X76.203Y-81.385
X76.203Y-82.385
X76.203Y-83.385
X76.203Y-84.385
X76.203Y-85.385
X76.203Y-86.385
X76.203Y-87.385
X76.203Y-88.385
X76.203Y-89.385
X76.203Y-90.385
X76.203Y-91.385
X76.203Y-92.385
X76.203Y-93.385
X76.203Y-94.385
X76.203Y-95.385
X76.203Y-96.385
X76.203Y-97.385
X76.203Y-98.385
X76.203Y-99.385
X76.403Y-77.385
X76.6Y-43.4
X76.603Y-19.185
X76.603Y-20.185
X76.603Y-21.185
X76.603Y-22.185
X76.603Y-23.185
X76.656Y-70.985
X76.803Y-44.785
X76.803Y-45.785
X76.803Y-46.785
X76.803Y-47.785
X76.803Y-48.785
X76.803Y-49.785
X76.803Y-50.785
X76.803Y-51.785
X76.803Y-52.785
X76.803Y-68.385
X76.803Y-69.385
X76.803Y-70.385
X76.803Y-78.185
X76.803Y-79.185
X77.12Y-37.585
X77.203Y-35.185
X77.203Y-36.185
X77.203Y-80.385
X77.203Y-81.385
X77.203Y-82.385
X77.203Y-83.385
X77.203Y-84.385
X77.203Y-85.385
X77.203Y-86.385
X77.203Y-87.385
X77.203Y-88.385
X77.203Y-89.385
X77.203Y-90.385
X77.203Y-91.385
X77.203Y-92.385
X77.203Y-93.385
X77.203Y-94.385
X77.203Y-95.385
X77.203Y-96.385
X77.203Y-97.385
X77.203Y-98.385
X77.203Y-99.385
X77.603Y-19.185
X77.603Y-20.185
X77.603Y-21.185
X77.603Y-22.185
X77.603Y-23.185
X77.603Y-24.185
X77.603Y-66.385
X77.603Y-67.385
X77.8Y-68.4
X77.803Y-47.785
X77.803Y-48.785
X77.803Y-49.785
X77.803Y-50.785
X77.803Y-51.785
X77.803Y-52.785
X77.803Y-53.785
X77.803Y-69.385
X77.803Y-70.385
X77.996Y-71.754
X78.203Y-35.185
X78.203Y-36.185
X78.203Y-37.185
X78.203Y-80.385
X78.203Y-81.385
X78.203Y-82.385
X78.203Y-83.385
X78.203Y-84.385
X78.203Y-85.385
X78.203Y-86.385
X78.203Y-87.385
X78.203Y-88.385
X78.203Y-89.385
X78.203Y-90.385
X78.203Y-91.385
X78.203Y-92.385
X78.203Y-93.385
X78.203Y-94.385
X78.203Y-95.385
X78.203Y-96.385
X78.203Y-97.385
X78.203Y-98.385
X78.203Y-99.385
X78.4Y-38.4
X78.603Y-19.185
X78.603Y-20.185
X78.603Y-21.185
X78.603Y-22.185
X78.603Y-23.185
X78.603Y-24.185
X78.603Y-25.185
X78.603Y-65.385
X78.603Y-66.385
X78.603Y-67.385
X78.803Y-47.785
X78.803Y-48.785
X78.803Y-49.785
X78.803Y-50.785
X78.803Y-51.785
X78.803Y-52.785
X78.803Y-53.785
X78.803Y-54.785
X78.803Y-55.785
X79.203Y-68.385
X79.203Y-69.385
X79.203Y-80.385
X79.203Y-81.385
X79.203Y-82.385
X79.203Y-83.385
X79.203Y-84.385
X79.203Y-85.385
X79.203Y-86.385
X79.203Y-87.385
X79.203Y-88.385
X79.203Y-89.385
X79.203Y-90.385
X79.203Y-91.385
X79.203Y-92.385
X79.203Y-93.385
X79.203Y-94.385
X79.203Y-95.385
X79.203Y-96.385
X79.203Y-97.385
X79.203Y-98.385
X79.203Y-99.385
X79.603Y-19.185
X79.603Y-20.185
X79.603Y-21.185
X79.603Y-22.185
X79.603Y-23.185
X79.603Y-24.185
X79.603Y-25.185
X79.603Y-26.185
X79.603Y-64.385
X79.603Y-65.385
X79.603Y-66.385
X79.603Y-67.385
X79.803Y-47.785
X79.803Y-48.785
X79.803Y-49.785
X79.803Y-50.785
X79.803Y-51.785
X79.803Y-52.785
X79.803Y-53.785
X79.803Y-54.785
X79.803Y-55.785
X80.203Y-68.385
X80.203Y-69.385
X80.203Y-80.385
X80.203Y-81.385
X80.203Y-82.385
X80.203Y-83.385
X80.203Y-84.385
X80.203Y-85.385
X80.203Y-86.385
X80.203Y-87.385
X80.203Y-88.385
X80.203Y-89.385
X80.203Y-90.385
X80.203Y-91.385
X80.203Y-92.385
X80.203Y-93.385
X80.203Y-94.385
X80.203Y-95.385
X80.203Y-96.385
X80.203Y-97.385
X80.203Y-98.385
X80.203Y-99.385
X80.603Y-19.185
X80.603Y-20.185
X80.603Y-21.185
X80.603Y-22.185
X80.603Y-23.185
X80.603Y-24.185
X80.603Y-25.185
X80.603Y-26.185
X80.603Y-27.185
X80.603Y-64.385
X80.603Y-65.385
X80.603Y-66.385
X80.603Y-67.385
X80.803Y-47.785
X80.803Y-48.785
X80.803Y-49.785
X80.803Y-50.785
X80.803Y-51.785
X80.803Y-52.785
X80.803Y-53.785
X80.803Y-54.785
X80.803Y-55.785
X81.203Y-68.385
X81.203Y-69.385
X81.203Y-80.385
X81.203Y-81.385
X81.203Y-82.385
X81.203Y-83.385
X81.203Y-84.385
X81.203Y-85.385
X81.203Y-86.385
X81.203Y-87.385
X81.203Y-88.385
X81.203Y-89.385
X81.203Y-90.385
X81.203Y-91.385
X81.203Y-92.385
X81.203Y-93.385
X81.203Y-94.385
X81.203Y-95.385
X81.203Y-96.385
X81.203Y-97.385
X81.203Y-98.385
X81.203Y-99.385
X81.603Y-19.185
X81.603Y-20.185
X81.603Y-21.185
X81.603Y-22.185
X81.603Y-23.185
X81.603Y-24.185
X81.603Y-25.185
X81.603Y-26.185
X81.603Y-27.185
X81.603Y-28.185
X81.603Y-64.385
X81.603Y-65.385
X81.603Y-66.385
X81.603Y-67.385
X81.803Y-47.785
X81.803Y-48.785
X81.803Y-49.785
X81.803Y-50.785
X81.803Y-51.785
X81.803Y-52.785
X81.803Y-53.785
X81.803Y-54.785
X81.803Y-55.785
X82.203Y-68.385
X82.203Y-69.385
X82.203Y-80.385
X82.203Y-81.385
X82.203Y-82.385
X82.203Y-83.385
X82.203Y-84.385
X82.203Y-85.385
X82.203Y-86.385
X82.203Y-87.385
X82.203Y-88.385
X82.203Y-89.385
X82.203Y-90.385
X82.203Y-91.385
X82.203Y-92.385
X82.203Y-93.385
X82.203Y-94.385
X82.203Y-95.385
X82.203Y-96.385
X82.203Y-97.385
X82.203Y-98.385
X82.203Y-99.385
X82.438Y-34.524
X82.603Y-19.185
X82.603Y-20.185
X82.603Y-21.185
X82.603Y-22.185
X82.603Y-23.185
X82.603Y-24.185
X82.603Y-25.185
X82.603Y-26.185
X82.603Y-27.185
X82.603Y-28.185
X82.603Y-29.185
X82.803Y-47.785
X82.803Y-48.785
X82.803Y-49.785
X82.803Y-50.785
X82.803Y-51.785
X82.803Y-52.785
X82.803Y-53.785
X82.803Y-54.785
X82.803Y-55.785
X83.169Y-66.2
X83.203Y-69.385
X83.203Y-80.385
X83.203Y-81.385
X83.203Y-82.385
X83.203Y-83.385
X83.203Y-84.385
X83.203Y-85.385
X83.203Y-86.385
X83.203Y-87.385
X83.203Y-88.385
X83.203Y-89.385
X83.203Y-90.385
X83.203Y-91.385
X83.203Y-92.385
X83.203Y-93.385
X83.203Y-94.385
X83.203Y-95.385
X83.203Y-96.385
X83.203Y-97.385
X83.203Y-98.385
X83.203Y-99.385
X83.603Y-19.185
X83.603Y-20.185
X83.603Y-21.185
X83.603Y-22.185
X83.603Y-23.185
X83.603Y-24.185
X83.603Y-25.185
X83.603Y-26.185
X83.603Y-27.185
X83.603Y-28.185
X83.603Y-29.185
X83.603Y-30.185
X83.803Y-47.785
X83.803Y-48.785
X83.803Y-49.785
X83.803Y-50.785
X83.803Y-51.785
X83.803Y-52.785
X83.803Y-53.785
X83.803Y-54.785
X83.803Y-55.785
X84.003Y-69.785
X84.203Y-78.385
X84.203Y-79.385
X84.203Y-80.385
X84.203Y-81.385
X84.203Y-82.385
X84.203Y-83.385
X84.203Y-84.385
X84.203Y-85.385
X84.203Y-86.385
X84.203Y-87.385
X84.203Y-88.385
X84.203Y-89.385
X84.203Y-90.385
X84.203Y-91.385
X84.203Y-92.385
X84.203Y-93.385
X84.203Y-94.385
X84.203Y-95.385
X84.203Y-96.385
X84.203Y-97.385
X84.203Y-98.385
X84.203Y-99.385
X84.603Y-19.185
X84.603Y-20.185
X84.603Y-21.185
X84.603Y-22.185
X84.603Y-23.185
X84.603Y-24.185
X84.603Y-25.185
X84.603Y-26.185
X84.603Y-27.185
X84.603Y-28.185
X84.603Y-29.185
X84.603Y-30.185
X84.603Y-31.185
X84.603Y-32.185
X84.603Y-33.185
X84.912Y-75.312
X85.0Y-34.812
X85.203Y-78.385
X85.203Y-79.385
X85.203Y-80.385
X85.203Y-81.385
X85.203Y-82.385
X85.203Y-83.385
X85.203Y-84.385
X85.203Y-85.385
X85.203Y-86.385
X85.203Y-87.385
X85.203Y-88.385
X85.203Y-89.385
X85.203Y-90.385
X85.203Y-91.385
X85.203Y-92.385
X85.203Y-93.385
X85.203Y-94.385
X85.203Y-95.385
X85.203Y-96.385
X85.203Y-97.385
X85.203Y-98.385
X85.203Y-99.385
X85.603Y-19.185
X85.603Y-20.185
X85.603Y-21.185
X85.603Y-22.185
X85.603Y-23.185
X85.603Y-24.185
X85.603Y-25.185
X85.603Y-26.185
X85.603Y-27.185
X85.603Y-28.185
X85.603Y-29.185
X85.603Y-30.185
X85.603Y-31.185
X85.603Y-32.185
X85.603Y-33.185
X86.203Y-78.385
X86.203Y-79.385
X86.203Y-80.385
X86.203Y-81.385
X86.203Y-82.385
X86.203Y-83.385
X86.203Y-84.385
X86.203Y-85.385
X86.203Y-86.385
X86.203Y-87.385
X86.203Y-88.385
X86.203Y-89.385
X86.203Y-90.385
X86.203Y-91.385
X86.203Y-92.385
X86.203Y-93.385
X86.203Y-94.385
X86.203Y-95.385
X86.203Y-96.385
X86.203Y-97.385
X86.203Y-98.385
X86.203Y-99.385
X86.603Y-19.185
X86.603Y-20.185
X86.603Y-21.185
X86.603Y-22.185
X86.603Y-23.185
X86.603Y-24.185
X86.603Y-25.185
X86.603Y-26.185
X86.603Y-27.185
X86.603Y-28.185
X86.603Y-29.185
X86.603Y-30.185
X86.603Y-31.185
X86.603Y-32.185
X86.603Y-33.185
X87.203Y-78.385
X87.203Y-79.385
X87.203Y-80.385
X87.203Y-81.385
X87.203Y-82.385
X87.203Y-83.385
X87.203Y-84.385
X87.203Y-85.385
X87.203Y-86.385
X87.203Y-87.385
X87.203Y-88.385
X87.203Y-89.385
X87.203Y-90.385
X87.203Y-91.385
X87.203Y-92.385
X87.203Y-93.385
X87.203Y-94.385
X87.203Y-95.385
X87.203Y-96.385
X87.203Y-97.385
X87.203Y-98.385
X87.203Y-99.385
X87.603Y-19.185
X87.603Y-20.185
X87.603Y-21.185
X87.603Y-22.185
X87.603Y-23.185
X87.603Y-24.185
X87.603Y-25.185
X87.603Y-26.185
X87.603Y-27.185
X87.603Y-28.185
X87.603Y-29.185
X87.603Y-30.185
X87.603Y-31.185
X87.603Y-32.185
X87.603Y-33.185
X88.13Y-61.537
X88.2Y-42.6
X88.2Y-58.737
X88.203Y-78.385
X88.203Y-79.385
X88.203Y-80.385
X88.203Y-81.385
X88.203Y-82.385
X88.203Y-83.385
X88.203Y-84.385
X88.203Y-85.385
X88.203Y-86.385
X88.203Y-87.385
X88.203Y-88.385
X88.203Y-89.385
X88.203Y-90.385
X88.203Y-91.385
X88.203Y-92.385
X88.203Y-93.385
X88.203Y-94.385
X88.203Y-95.385
X88.203Y-96.385
X88.203Y-97.385
X88.203Y-98.385
X88.203Y-99.385
X88.603Y-19.185
X88.603Y-20.185
X88.603Y-21.185
X88.603Y-22.185
X88.603Y-23.185
X88.603Y-24.185
X88.603Y-25.185
X88.603Y-26.185
X88.603Y-27.185
X88.603Y-28.185
X88.603Y-29.185
X88.603Y-30.185
X88.603Y-31.185
X88.603Y-32.185
X88.603Y-33.185
X89.203Y-78.385
X89.203Y-79.385
X89.203Y-80.385
X89.203Y-81.385
X89.203Y-82.385
X89.203Y-83.385
X89.203Y-84.385
X89.203Y-85.385
X89.203Y-86.385
X89.203Y-87.385
X89.203Y-88.385
X89.203Y-89.385
X89.203Y-90.385
X89.203Y-91.385
X89.203Y-92.385
X89.203Y-93.385
X89.203Y-94.385
X89.203Y-95.385
X89.203Y-96.385
X89.203Y-97.385
X89.203Y-98.385
X89.203Y-99.385
X89.603Y-19.185
X89.603Y-20.185
X89.603Y-21.185
X89.603Y-22.185
X89.603Y-23.185
X89.603Y-24.185
X89.603Y-25.185
X89.603Y-26.185
X89.603Y-27.185
X89.603Y-28.185
X89.603Y-29.185
X89.603Y-30.185
X89.603Y-31.185
X89.603Y-32.185
X89.603Y-33.185
X90.203Y-78.385
X90.203Y-79.385
X90.203Y-80.385
X90.203Y-81.385
X90.203Y-82.385
X90.203Y-83.385
X90.203Y-84.385
X90.203Y-85.385
X90.203Y-86.385
X90.203Y-87.385
X90.203Y-88.385
X90.203Y-89.385
X90.203Y-90.385
X90.203Y-91.385
X90.203Y-92.385
X90.203Y-93.385
X90.203Y-94.385
X90.203Y-95.385
X90.203Y-96.385
X90.203Y-97.385
X90.203Y-98.385
X90.203Y-99.385
X90.603Y-19.185
X90.603Y-20.185
X90.603Y-21.185
X90.603Y-22.185
X90.603Y-23.185
X90.603Y-24.185
X90.603Y-25.185
X90.603Y-26.185
X90.603Y-27.185
X90.603Y-28.185
X90.603Y-29.185
X90.603Y-30.185
X90.603Y-31.185
X90.603Y-32.185
X90.603Y-33.185
X90.85Y-37.487
X90.93Y-73.537
X91.203Y-78.385
X91.203Y-79.385
X91.203Y-80.385
X91.203Y-81.385
X91.203Y-82.385
X91.203Y-83.385
X91.203Y-84.385
X91.203Y-85.385
X91.203Y-86.385
X91.203Y-87.385
X91.203Y-88.385
X91.203Y-89.385
X91.203Y-90.385
X91.203Y-91.385
X91.203Y-92.385
X91.203Y-93.385
X91.203Y-94.385
X91.203Y-95.385
X91.203Y-96.385
X91.203Y-97.385
X91.203Y-98.385
X91.203Y-99.385
X91.603Y-19.185
X91.603Y-20.185
X91.603Y-21.185
X91.603Y-22.185
X91.603Y-23.185
X91.603Y-24.185
X91.603Y-25.185
X91.603Y-26.185
X91.603Y-27.185
X91.603Y-28.185
X91.603Y-29.185
X91.603Y-30.185
X91.603Y-31.185
X91.603Y-32.185
X91.603Y-33.185
X91.88Y-75.287
X92.203Y-78.385
X92.203Y-79.385
X92.203Y-80.385
X92.203Y-81.385
X92.203Y-82.385
X92.203Y-83.385
X92.203Y-84.385
X92.203Y-85.385
X92.203Y-86.385
X92.203Y-87.385
X92.203Y-88.385
X92.203Y-89.385
X92.203Y-90.385
X92.203Y-91.385
X92.203Y-92.385
X92.203Y-93.385
X92.203Y-94.385
X92.203Y-95.385
X92.203Y-96.385
X92.203Y-97.385
X92.203Y-98.385
X92.203Y-99.385
X92.403Y-44.585
X92.403Y-45.585
X92.43Y-76.087
X92.603Y-19.185
X92.603Y-20.185
X92.603Y-21.185
X92.603Y-22.185
X92.603Y-23.185
X92.603Y-24.185
X92.603Y-25.185
X92.603Y-26.185
X92.603Y-27.185
X92.603Y-28.185
X92.603Y-29.185
X92.603Y-30.185
X92.603Y-31.185
X92.603Y-32.185
X92.98Y-76.537
X93.2Y-71.0
X93.203Y-78.385
X93.203Y-79.385
X93.203Y-80.385
X93.203Y-81.385
X93.203Y-82.385
X93.203Y-83.385
X93.203Y-84.385
X93.203Y-85.385
X93.203Y-86.385
X93.203Y-87.385
X93.203Y-88.385
X93.203Y-89.385
X93.203Y-90.385
X93.203Y-91.385
X93.203Y-92.385
X93.203Y-93.385
X93.203Y-94.385
X93.203Y-95.385
X93.203Y-96.385
X93.203Y-97.385
X93.203Y-98.385
X93.203Y-99.385
X93.403Y-44.585
X93.403Y-45.585
X93.403Y-46.585
X93.6Y-62.762
X93.603Y-19.185
X93.603Y-20.185
X93.603Y-21.185
X93.603Y-22.185
X93.603Y-23.185
X93.603Y-24.185
X93.603Y-25.185
X93.603Y-26.185
X93.603Y-27.185
X93.603Y-28.185
X93.603Y-29.185
X93.603Y-30.185
X93.603Y-31.185
X93.603Y-32.185
X93.681Y-76.659
X94.0Y-48.374
X94.203Y-78.385
X94.203Y-79.385
X94.203Y-80.385
X94.203Y-81.385
X94.203Y-82.385
X94.203Y-83.385
X94.203Y-84.385
X94.203Y-85.385
X94.203Y-86.385
X94.203Y-87.385
X94.203Y-88.385
X94.203Y-89.385
X94.203Y-90.385
X94.203Y-91.385
X94.203Y-92.385
X94.203Y-93.385
X94.203Y-94.385
X94.203Y-95.385
X94.203Y-96.385
X94.203Y-97.385
X94.203Y-98.385
X94.203Y-99.385
X94.263Y-71.137
X94.305Y-76.362
X94.403Y-44.585
X94.403Y-45.585
X94.403Y-46.585
X94.603Y-19.185
X94.603Y-20.185
X94.603Y-21.185
X94.603Y-22.185
X94.603Y-23.185
X94.603Y-24.185
X94.603Y-25.185
X94.603Y-26.185
X94.603Y-27.185
X94.603Y-28.185
X94.603Y-29.185
X94.603Y-30.185
X94.603Y-31.185
X94.603Y-32.185
X94.8Y-58.2
X94.921Y-75.357
X95.203Y-79.385
X95.203Y-80.385
X95.203Y-81.385
X95.203Y-82.385
X95.203Y-83.385
X95.203Y-84.385
X95.203Y-85.385
X95.203Y-86.385
X95.203Y-87.385
X95.203Y-88.385
X95.203Y-89.385
X95.203Y-90.385
X95.203Y-91.385
X95.203Y-92.385
X95.203Y-93.385
X95.203Y-94.385
X95.203Y-95.385
X95.203Y-96.385
X95.203Y-97.385
X95.203Y-98.385
X95.203Y-99.385
X95.403Y-44.585
X95.403Y-45.585
X95.403Y-46.585
X95.603Y-19.185
X95.603Y-20.185
X95.603Y-21.185
X95.603Y-22.185
X95.603Y-23.185
X95.603Y-24.185
X95.603Y-25.185
X95.603Y-26.185
X95.603Y-27.185
X95.603Y-28.185
X95.603Y-29.185
X95.603Y-30.185
X95.603Y-31.185
X95.603Y-32.185
X95.8Y-38.0
X95.8Y-73.6
X96.1Y-43.137
X96.203Y-79.385
X96.203Y-80.385
X96.203Y-81.385
X96.203Y-82.385
X96.203Y-83.385
X96.203Y-84.385
X96.203Y-85.385
X96.203Y-86.385
X96.203Y-87.385
X96.203Y-88.385
X96.203Y-89.385
X96.203Y-90.385
X96.203Y-91.385
X96.203Y-92.385
X96.203Y-93.385
X96.203Y-94.385
X96.203Y-95.385
X96.203Y-96.385
X96.203Y-97.385
X96.203Y-98.385
X96.203Y-99.385
X96.403Y-44.585
X96.403Y-45.585
X96.403Y-46.585
X96.403Y-47.585
X96.603Y-19.185
X96.603Y-20.185
X96.603Y-21.185
X96.603Y-22.185
X96.603Y-23.185
X96.603Y-24.185
X96.603Y-25.185
X96.603Y-26.185
X96.603Y-27.185
X96.603Y-28.185
X96.603Y-29.185
X96.603Y-30.185
X96.603Y-31.185
X96.603Y-32.185
X96.75Y-37.987
X96.75Y-43.637
X97.175Y-50.425
X97.203Y-79.385
X97.203Y-80.385
X97.203Y-81.385
X97.203Y-82.385
X97.203Y-83.385
X97.203Y-84.385
X97.203Y-85.385
X97.203Y-86.385
X97.203Y-87.385
X97.203Y-88.385
X97.203Y-89.385
X97.203Y-90.385
X97.203Y-91.385
X97.203Y-92.385
X97.203Y-93.385
X97.203Y-94.385
X97.203Y-95.385
X97.203Y-96.385
X97.203Y-97.385
X97.203Y-98.385
X97.203Y-99.385
X97.4Y-43.287
X97.403Y-44.585
X97.403Y-45.585
X97.403Y-46.585
X97.403Y-47.585
X97.6Y-37.997
X97.603Y-19.185
X97.603Y-20.185
X97.603Y-21.185
X97.603Y-22.185
X97.603Y-23.185
X97.603Y-24.185
X97.603Y-25.185
X97.603Y-26.185
X97.603Y-27.185
X97.603Y-28.185
X97.603Y-29.185
X97.603Y-30.185
X97.603Y-31.185
X97.603Y-32.185
X97.603Y-48.585
X97.95Y-55.297
X97.95Y-57.487
X98.15Y-39.287
X98.15Y-42.237
X98.203Y-79.385
X98.203Y-80.385
X98.203Y-81.385
X98.203Y-82.385
X98.203Y-83.385
X98.203Y-84.385
X98.203Y-85.385
X98.203Y-86.385
X98.203Y-87.385
X98.203Y-88.385
X98.203Y-89.385
X98.203Y-90.385
X98.203Y-91.385
X98.203Y-92.385
X98.203Y-93.385
X98.203Y-94.385
X98.203Y-95.385
X98.203Y-96.385
X98.203Y-97.385
X98.203Y-98.385
X98.203Y-99.385
X98.603Y-19.185
X98.603Y-20.185
X98.603Y-21.185
X98.603Y-22.185
X98.603Y-23.185
X98.603Y-24.185
X98.603Y-25.185
X98.603Y-26.185
X98.603Y-27.185
X98.603Y-28.185
X98.603Y-29.185
X98.603Y-30.185
X98.603Y-31.185
X98.603Y-32.185
X98.89Y-54.0
X98.89Y-59.137
X99.203Y-79.385
X99.203Y-80.385
X99.203Y-81.385
X99.203Y-82.385
X99.203Y-83.385
X99.203Y-84.385
X99.203Y-85.385
X99.203Y-86.385
X99.203Y-87.385
X99.203Y-88.385
X99.203Y-89.385
X99.203Y-90.385
X99.203Y-91.385
X99.203Y-92.385
X99.203Y-93.385
X99.203Y-94.385
X99.203Y-95.385
X99.203Y-96.385
X99.203Y-97.385
X99.203Y-98.385
X99.203Y-99.385
X99.6Y-41.8
X99.603Y-19.185
X99.603Y-20.185
X99.603Y-21.185
X99.603Y-22.185
X99.603Y-23.185
X99.603Y-24.185
X99.603Y-25.185
X99.603Y-26.185
X99.603Y-27.185
X99.603Y-28.185
X99.603Y-29.185
X99.603Y-30.185
X99.603Y-31.185
X99.603Y-32.185
X99.8Y-40.8
X100.203Y-79.385
X100.203Y-80.385
X100.203Y-81.385
X100.203Y-82.385
X100.203Y-83.385
X100.203Y-84.385
X100.203Y-85.385
X100.203Y-86.385
X100.203Y-87.385
X100.203Y-88.385
X100.203Y-89.385
X100.203Y-90.385
X100.203Y-91.385
X100.203Y-92.385
X100.203Y-93.385
X100.203Y-94.385
X100.203Y-95.385
X100.203Y-96.385
X100.203Y-97.385
X100.203Y-98.385
X100.203Y-99.385
X100.603Y-19.185
X100.603Y-20.185
X100.603Y-21.185
X100.603Y-22.185
X100.603Y-23.185
X100.603Y-24.185
X100.603Y-25.185
X100.603Y-26.185
X100.603Y-27.185
X100.603Y-28.185
X100.603Y-29.185
X100.603Y-30.185
X100.603Y-31.185
X100.603Y-32.185
X101.203Y-79.385
X101.203Y-80.385
X101.203Y-81.385
X101.203Y-82.385
X101.203Y-83.385
X101.203Y-84.385
X101.203Y-85.385
X101.203Y-86.385
X101.203Y-87.385
X101.203Y-88.385
X101.203Y-89.385
X101.203Y-90.385
X101.203Y-91.385
X101.203Y-92.385
X101.203Y-93.385
X101.203Y-94.385
X101.203Y-95.385
X101.203Y-96.385
X101.203Y-97.385
X101.203Y-98.385
X101.203Y-99.385
X101.487Y-70.412
X101.6Y-50.8
X101.6Y-57.8
X101.603Y-19.185
X101.603Y-20.185
X101.603Y-21.185
X101.603Y-22.185
X101.603Y-23.185
X101.603Y-24.185
X101.603Y-25.185
X101.603Y-26.185
X101.603Y-27.185
X101.603Y-28.185
X101.603Y-29.185
X101.603Y-30.185
X101.603Y-31.185
X101.603Y-32.185
X101.603Y-33.185
X102.203Y-79.385
X102.203Y-80.385
X102.203Y-81.385
X102.203Y-82.385
X102.203Y-83.385
X102.203Y-84.385
X102.203Y-85.385
X102.203Y-86.385
X102.203Y-87.385
X102.203Y-88.385
X102.203Y-89.385
X102.203Y-90.385
X102.203Y-91.385
X102.203Y-92.385
X102.203Y-93.385
X102.203Y-94.385
X102.203Y-95.385
X102.203Y-96.385
X102.203Y-97.385
X102.203Y-98.385
X102.203Y-99.385
X102.603Y-19.185
X102.603Y-20.185
X102.603Y-21.185
X102.603Y-22.185
X102.603Y-23.185
X102.603Y-24.185
X102.603Y-25.185
X102.603Y-26.185
X102.603Y-27.185
X102.603Y-28.185
X102.603Y-29.185
X102.603Y-30.185
X102.603Y-31.185
X102.603Y-32.185
X102.603Y-33.185
X102.603Y-34.185
X103.203Y-79.385
X103.203Y-80.385
X103.203Y-81.385
X103.203Y-82.385
X103.203Y-83.385
X103.203Y-84.385
X103.203Y-85.385
X103.203Y-86.385
X103.203Y-87.385
X103.203Y-88.385
X103.203Y-89.385
X103.203Y-90.385
X103.203Y-91.385
X103.203Y-92.385
X103.203Y-93.385
X103.203Y-94.385
X103.203Y-95.385
X103.203Y-96.385
X103.203Y-97.385
X103.203Y-98.385
X103.203Y-99.385
X103.287Y-70.387
X103.603Y-19.185
X103.603Y-20.185
X103.603Y-21.185
X103.603Y-22.185
X103.603Y-23.185
X103.603Y-24.185
X103.603Y-25.185
X103.603Y-26.185
X103.603Y-27.185
X103.603Y-28.185
X103.603Y-29.185
X103.603Y-30.185
X103.603Y-31.185
X103.603Y-32.185
X103.603Y-33.185
X103.603Y-34.185
X103.603Y-35.185
X104.203Y-79.385
X104.203Y-80.385
X104.203Y-81.385
X104.203Y-82.385
X104.203Y-83.385
X104.203Y-84.385
X104.203Y-85.385
X104.203Y-86.385
X104.203Y-87.385
X104.203Y-88.385
X104.203Y-89.385
X104.203Y-90.385
X104.203Y-91.385
X104.203Y-92.385
X104.203Y-93.385
X104.203Y-94.385
X104.203Y-95.385
X104.203Y-96.385
X104.203Y-97.385
X104.203Y-98.385
X104.203Y-99.385
X104.603Y-19.185
X104.603Y-20.185
X104.603Y-21.185
X104.603Y-22.185
X104.603Y-23.185
X104.603Y-24.185
X104.603Y-25.185
X104.603Y-26.185
X104.603Y-27.185
X104.603Y-28.185
X104.603Y-29.185
X104.603Y-30.185
X104.603Y-31.185
X104.603Y-32.185
X104.603Y-33.185
X104.603Y-34.185
X104.603Y-35.185
X104.603Y-36.185
X104.9Y-78.062
X105.203Y-79.385
X105.203Y-80.385
X105.203Y-81.385
X105.203Y-82.385
X105.203Y-83.385
X105.203Y-84.385
X105.203Y-85.385
X105.203Y-86.385
X105.203Y-87.385
X105.203Y-88.385
X105.203Y-89.385
X105.203Y-90.385
X105.203Y-91.385
X105.203Y-92.385
X105.203Y-93.385
X105.603Y-26.185
X105.603Y-27.185
X105.603Y-28.185
X105.603Y-29.185
X105.603Y-30.185
X105.603Y-31.185
X105.603Y-32.185
X105.603Y-33.185
X105.603Y-34.185
X105.603Y-35.185
X105.603Y-36.185
X105.603Y-37.185
X105.603Y-38.185
X105.603Y-39.185
X105.603Y-40.185
X105.603Y-41.185
X105.603Y-42.185
X106.203Y-79.385
X106.203Y-80.385
X106.203Y-81.385
X106.203Y-82.385
X106.203Y-83.385
X106.203Y-84.385
X106.203Y-85.385
X106.203Y-86.385
X106.203Y-87.385
X106.203Y-88.385
X106.203Y-89.385
X106.203Y-90.385
X106.203Y-91.385
X106.203Y-92.385
X106.603Y-26.185
X106.603Y-27.185
X106.603Y-28.185
X106.603Y-29.185
X106.603Y-30.185
X106.603Y-31.185
X106.603Y-32.185
X106.603Y-33.185
X106.603Y-34.185
X106.603Y-35.185
X106.603Y-36.185
X106.603Y-37.185
X106.603Y-38.185
X106.603Y-39.185
X106.603Y-40.185
X106.603Y-41.185
X106.603Y-42.185
X106.8Y-44.4
X107.0Y-77.911
X107.203Y-79.385
X107.203Y-80.385
X107.203Y-81.385
X107.203Y-82.385
X107.203Y-83.385
X107.203Y-84.385
X107.203Y-85.385
X107.203Y-86.385
X107.203Y-87.385
X107.203Y-88.385
X107.203Y-89.385
X107.203Y-90.385
X107.203Y-91.385
X107.603Y-27.185
X107.603Y-28.185
X107.603Y-29.185
X107.603Y-30.185
X107.603Y-31.185
X107.603Y-32.185
X107.603Y-33.185
X107.603Y-34.185
X107.603Y-35.185
X107.603Y-36.185
X107.603Y-37.185
X107.603Y-38.185
X107.603Y-39.185
X107.603Y-40.185
X107.603Y-41.185
X107.603Y-42.185
X107.603Y-43.185
X108.203Y-44.185
X108.203Y-62.785
X108.203Y-79.385
X108.203Y-80.385
X108.203Y-81.385
X108.203Y-82.385
X108.203Y-83.385
X108.203Y-84.385
X108.203Y-85.385
X108.203Y-86.385
X108.203Y-87.385
X108.203Y-88.385
X108.203Y-89.385
X108.203Y-90.385
X108.203Y-91.385
X108.603Y-27.185
X108.603Y-28.185
X108.603Y-29.185
X108.603Y-30.185
X108.603Y-31.185
X108.603Y-32.185
X108.603Y-33.185
X108.603Y-34.185
X108.603Y-35.185
X108.603Y-36.185
X108.603Y-37.185
X108.603Y-38.185
X108.603Y-39.185
X108.603Y-40.185
X108.603Y-41.185
X108.603Y-42.185
X108.603Y-43.185
X109.003Y-45.185
X109.003Y-46.185
X109.003Y-47.185
X109.003Y-48.185
X109.003Y-49.185
X109.203Y-44.185
X109.203Y-62.785
X109.203Y-79.385
X109.203Y-80.385
X109.203Y-81.385
X109.203Y-82.385
X109.203Y-83.385
X109.203Y-84.385
X109.203Y-85.385
X109.203Y-86.385
X109.203Y-87.385
X109.203Y-88.385
X109.203Y-89.385
X109.203Y-90.385
X109.203Y-91.385
X109.603Y-27.185
X109.603Y-28.185
X109.603Y-29.185
X109.603Y-30.185
X109.603Y-31.185
X109.603Y-32.185
X109.603Y-33.185
X109.603Y-34.185
X109.603Y-35.185
X109.603Y-36.185
X109.603Y-37.185
X109.603Y-38.185
X109.603Y-39.185
X109.603Y-40.185
X109.603Y-41.185
X109.603Y-42.185
X109.603Y-43.185
X110.003Y-45.185
X110.003Y-46.185
X110.003Y-47.185
X110.003Y-48.185
X110.003Y-49.185
X110.203Y-44.185
X110.203Y-62.785
X110.203Y-63.585
X110.203Y-64.385
X110.203Y-78.385
X110.203Y-79.385
X110.203Y-80.385
X110.203Y-81.385
X110.203Y-82.385
X110.203Y-83.385
X110.203Y-84.385
X110.203Y-85.385
X110.203Y-86.385
X110.203Y-87.385
X110.203Y-88.385
X110.203Y-89.385
X110.203Y-90.385
X110.203Y-91.385
X110.603Y-26.185
X110.603Y-27.185
X110.603Y-28.185
X110.603Y-29.185
X110.603Y-30.185
X110.603Y-31.185
X110.603Y-32.185
X110.603Y-33.185
X110.603Y-34.185
X110.603Y-35.185
X110.603Y-36.185
X110.603Y-37.185
X110.603Y-38.185
X110.603Y-39.185
X110.603Y-40.185
X110.603Y-41.185
X110.603Y-42.185
X110.603Y-43.185
X111.003Y-45.185
X111.003Y-46.185
X111.003Y-47.185
X111.003Y-48.185
X111.003Y-49.185
X111.203Y-44.185
X111.203Y-62.785
X111.203Y-63.585
X111.203Y-64.385
X111.203Y-65.385
X111.203Y-66.385
X111.203Y-67.385
X111.203Y-68.385
X111.203Y-69.385
X111.203Y-70.385
X111.203Y-71.385
X111.203Y-72.385
X111.203Y-73.385
X111.203Y-74.385
X111.203Y-75.385
X111.203Y-76.385
X111.203Y-77.385
X111.203Y-78.385
X111.203Y-79.385
X111.203Y-80.385
X111.203Y-81.385
X111.203Y-82.385
X111.203Y-83.385
X111.203Y-84.385
X111.203Y-85.385
X111.203Y-86.385
X111.203Y-87.385
X111.203Y-88.385
X111.203Y-89.385
X111.203Y-90.385
X111.203Y-91.385
X111.603Y-26.185
X111.603Y-27.185
X111.603Y-28.185
X111.603Y-29.185
X111.603Y-30.185
X111.603Y-31.185
X111.603Y-32.185
X111.603Y-33.185
X111.603Y-34.185
X111.603Y-35.185
X111.603Y-36.185
X111.603Y-37.185
X111.603Y-38.185
X111.603Y-39.185
X111.603Y-40.185
X111.603Y-41.185
X111.603Y-42.185
X111.603Y-43.185
X112.003Y-45.185
X112.003Y-46.185
X112.003Y-47.185
X112.003Y-48.185
X112.003Y-49.185
X112.203Y-44.185
X112.203Y-62.785
X112.203Y-63.585
X112.203Y-64.385
X112.203Y-65.385
X112.203Y-66.385
X112.203Y-67.385
X112.203Y-68.385
X112.203Y-69.385
X112.203Y-70.385
X112.203Y-71.385
X112.203Y-72.385
X112.203Y-73.385
X112.203Y-74.385
X112.203Y-75.385
X112.203Y-76.385
X112.203Y-77.385
X112.203Y-78.385
X112.203Y-79.385
X112.203Y-80.385
X112.203Y-81.385
X112.203Y-82.385
X112.203Y-83.385
X112.203Y-84.385
X112.203Y-85.385
X112.203Y-86.385
X112.203Y-87.385
X112.203Y-88.385
X112.203Y-89.385
X112.203Y-90.385
X112.203Y-91.385
T2
X106.28Y-51.939
X106.28Y-60.699
T3
X36.8Y-54.537
X41.475Y-46.212
X48.6Y-51.737
X53.6Y-55.4
X53.8Y-71.337
X55.0Y-63.137
X62.2Y-45.937
X62.2Y-74.4
X74.623Y-57.377
X80.53Y-75.937
X81.0Y-43.6
X103.0Y-62.4
X104.6Y-48.4
X106.4Y-66.8
T4
X34.868Y-86.58
X37.4Y-71.257
X37.4Y-73.797
X37.4Y-76.337
X37.4Y-78.877
X37.4Y-81.417
X37.408Y-86.58
X39.06Y-34.937
X41.6Y-34.937
X73.2Y-27.997
X73.2Y-30.537
M30
