%TF.GenerationSoftware,KiCad,Pcbnew,10.0.0*%
%TF.CreationDate,2026-10-05T11:34:41-04:00*%
%TF.ProjectId,Unified UHF,556e6966-6965-4642-9055-48462e6b6963,2026-08-14*%
%TF.SameCoordinates,Original*%
%TF.FileFunction,Legend,Top*%
%TF.FilePolarity,Positive*%
%FSLAX46Y46*%
G04 Gerber Fmt 4.6, Leading zero omitted, Abs format (unit mm)*
G04 Created by KiCad (PCBNEW 10.0.0) date 2026-10-05 11:34:41*
%MOMM*%
%LPD*%
G01*
G04 APERTURE LIST*
%ADD10C,0.150000*%
%ADD11C,0.254000*%
%ADD12C,0.300000*%
%ADD13C,0.400000*%
%ADD14C,0.100000*%
%ADD15C,0.152400*%
%ADD16C,0.000000*%
%ADD17C,0.120000*%
%ADD18C,0.250000*%
%ADD19C,0.120273*%
%ADD20C,0.159289*%
%ADD21C,0.571310*%
%ADD22C,0.200000*%
%ADD23C,0.255000*%
%ADD24C,0.263500*%
G04 APERTURE END LIST*
D10*
X32232049Y-82190120D02*
X32232049Y-81190120D01*
X32232049Y-81190120D02*
X32565382Y-81904405D01*
X32565382Y-81904405D02*
X32898715Y-81190120D01*
X32898715Y-81190120D02*
X32898715Y-82190120D01*
X33565382Y-81190120D02*
X33755858Y-81190120D01*
X33755858Y-81190120D02*
X33851096Y-81237739D01*
X33851096Y-81237739D02*
X33946334Y-81332977D01*
X33946334Y-81332977D02*
X33993953Y-81523453D01*
X33993953Y-81523453D02*
X33993953Y-81856786D01*
X33993953Y-81856786D02*
X33946334Y-82047262D01*
X33946334Y-82047262D02*
X33851096Y-82142501D01*
X33851096Y-82142501D02*
X33755858Y-82190120D01*
X33755858Y-82190120D02*
X33565382Y-82190120D01*
X33565382Y-82190120D02*
X33470144Y-82142501D01*
X33470144Y-82142501D02*
X33374906Y-82047262D01*
X33374906Y-82047262D02*
X33327287Y-81856786D01*
X33327287Y-81856786D02*
X33327287Y-81523453D01*
X33327287Y-81523453D02*
X33374906Y-81332977D01*
X33374906Y-81332977D02*
X33470144Y-81237739D01*
X33470144Y-81237739D02*
X33565382Y-81190120D01*
X34374906Y-82142501D02*
X34517763Y-82190120D01*
X34517763Y-82190120D02*
X34755858Y-82190120D01*
X34755858Y-82190120D02*
X34851096Y-82142501D01*
X34851096Y-82142501D02*
X34898715Y-82094881D01*
X34898715Y-82094881D02*
X34946334Y-81999643D01*
X34946334Y-81999643D02*
X34946334Y-81904405D01*
X34946334Y-81904405D02*
X34898715Y-81809167D01*
X34898715Y-81809167D02*
X34851096Y-81761548D01*
X34851096Y-81761548D02*
X34755858Y-81713929D01*
X34755858Y-81713929D02*
X34565382Y-81666310D01*
X34565382Y-81666310D02*
X34470144Y-81618691D01*
X34470144Y-81618691D02*
X34422525Y-81571072D01*
X34422525Y-81571072D02*
X34374906Y-81475834D01*
X34374906Y-81475834D02*
X34374906Y-81380596D01*
X34374906Y-81380596D02*
X34422525Y-81285358D01*
X34422525Y-81285358D02*
X34470144Y-81237739D01*
X34470144Y-81237739D02*
X34565382Y-81190120D01*
X34565382Y-81190120D02*
X34803477Y-81190120D01*
X34803477Y-81190120D02*
X34946334Y-81237739D01*
X35374906Y-82190120D02*
X35374906Y-81190120D01*
X32232049Y-84740120D02*
X32232049Y-83740120D01*
X32232049Y-83740120D02*
X32565382Y-84454405D01*
X32565382Y-84454405D02*
X32898715Y-83740120D01*
X32898715Y-83740120D02*
X32898715Y-84740120D01*
X33374906Y-84740120D02*
X33374906Y-83740120D01*
X33803477Y-84692501D02*
X33946334Y-84740120D01*
X33946334Y-84740120D02*
X34184429Y-84740120D01*
X34184429Y-84740120D02*
X34279667Y-84692501D01*
X34279667Y-84692501D02*
X34327286Y-84644881D01*
X34327286Y-84644881D02*
X34374905Y-84549643D01*
X34374905Y-84549643D02*
X34374905Y-84454405D01*
X34374905Y-84454405D02*
X34327286Y-84359167D01*
X34327286Y-84359167D02*
X34279667Y-84311548D01*
X34279667Y-84311548D02*
X34184429Y-84263929D01*
X34184429Y-84263929D02*
X33993953Y-84216310D01*
X33993953Y-84216310D02*
X33898715Y-84168691D01*
X33898715Y-84168691D02*
X33851096Y-84121072D01*
X33851096Y-84121072D02*
X33803477Y-84025834D01*
X33803477Y-84025834D02*
X33803477Y-83930596D01*
X33803477Y-83930596D02*
X33851096Y-83835358D01*
X33851096Y-83835358D02*
X33898715Y-83787739D01*
X33898715Y-83787739D02*
X33993953Y-83740120D01*
X33993953Y-83740120D02*
X34232048Y-83740120D01*
X34232048Y-83740120D02*
X34374905Y-83787739D01*
X34993953Y-83740120D02*
X35184429Y-83740120D01*
X35184429Y-83740120D02*
X35279667Y-83787739D01*
X35279667Y-83787739D02*
X35374905Y-83882977D01*
X35374905Y-83882977D02*
X35422524Y-84073453D01*
X35422524Y-84073453D02*
X35422524Y-84406786D01*
X35422524Y-84406786D02*
X35374905Y-84597262D01*
X35374905Y-84597262D02*
X35279667Y-84692501D01*
X35279667Y-84692501D02*
X35184429Y-84740120D01*
X35184429Y-84740120D02*
X34993953Y-84740120D01*
X34993953Y-84740120D02*
X34898715Y-84692501D01*
X34898715Y-84692501D02*
X34803477Y-84597262D01*
X34803477Y-84597262D02*
X34755858Y-84406786D01*
X34755858Y-84406786D02*
X34755858Y-84073453D01*
X34755858Y-84073453D02*
X34803477Y-83882977D01*
X34803477Y-83882977D02*
X34898715Y-83787739D01*
X34898715Y-83787739D02*
X34993953Y-83740120D01*
X32851096Y-76792501D02*
X32993953Y-76840120D01*
X32993953Y-76840120D02*
X33232048Y-76840120D01*
X33232048Y-76840120D02*
X33327286Y-76792501D01*
X33327286Y-76792501D02*
X33374905Y-76744881D01*
X33374905Y-76744881D02*
X33422524Y-76649643D01*
X33422524Y-76649643D02*
X33422524Y-76554405D01*
X33422524Y-76554405D02*
X33374905Y-76459167D01*
X33374905Y-76459167D02*
X33327286Y-76411548D01*
X33327286Y-76411548D02*
X33232048Y-76363929D01*
X33232048Y-76363929D02*
X33041572Y-76316310D01*
X33041572Y-76316310D02*
X32946334Y-76268691D01*
X32946334Y-76268691D02*
X32898715Y-76221072D01*
X32898715Y-76221072D02*
X32851096Y-76125834D01*
X32851096Y-76125834D02*
X32851096Y-76030596D01*
X32851096Y-76030596D02*
X32898715Y-75935358D01*
X32898715Y-75935358D02*
X32946334Y-75887739D01*
X32946334Y-75887739D02*
X33041572Y-75840120D01*
X33041572Y-75840120D02*
X33279667Y-75840120D01*
X33279667Y-75840120D02*
X33422524Y-75887739D01*
X34422524Y-76744881D02*
X34374905Y-76792501D01*
X34374905Y-76792501D02*
X34232048Y-76840120D01*
X34232048Y-76840120D02*
X34136810Y-76840120D01*
X34136810Y-76840120D02*
X33993953Y-76792501D01*
X33993953Y-76792501D02*
X33898715Y-76697262D01*
X33898715Y-76697262D02*
X33851096Y-76602024D01*
X33851096Y-76602024D02*
X33803477Y-76411548D01*
X33803477Y-76411548D02*
X33803477Y-76268691D01*
X33803477Y-76268691D02*
X33851096Y-76078215D01*
X33851096Y-76078215D02*
X33898715Y-75982977D01*
X33898715Y-75982977D02*
X33993953Y-75887739D01*
X33993953Y-75887739D02*
X34136810Y-75840120D01*
X34136810Y-75840120D02*
X34232048Y-75840120D01*
X34232048Y-75840120D02*
X34374905Y-75887739D01*
X34374905Y-75887739D02*
X34422524Y-75935358D01*
X34851096Y-76840120D02*
X34851096Y-75840120D01*
X35422524Y-76840120D02*
X34993953Y-76268691D01*
X35422524Y-75840120D02*
X34851096Y-76411548D01*
X33708238Y-87090120D02*
X33374905Y-86613929D01*
X33136810Y-87090120D02*
X33136810Y-86090120D01*
X33136810Y-86090120D02*
X33517762Y-86090120D01*
X33517762Y-86090120D02*
X33613000Y-86137739D01*
X33613000Y-86137739D02*
X33660619Y-86185358D01*
X33660619Y-86185358D02*
X33708238Y-86280596D01*
X33708238Y-86280596D02*
X33708238Y-86423453D01*
X33708238Y-86423453D02*
X33660619Y-86518691D01*
X33660619Y-86518691D02*
X33613000Y-86566310D01*
X33613000Y-86566310D02*
X33517762Y-86613929D01*
X33517762Y-86613929D02*
X33136810Y-86613929D01*
X34089191Y-87042501D02*
X34232048Y-87090120D01*
X34232048Y-87090120D02*
X34470143Y-87090120D01*
X34470143Y-87090120D02*
X34565381Y-87042501D01*
X34565381Y-87042501D02*
X34613000Y-86994881D01*
X34613000Y-86994881D02*
X34660619Y-86899643D01*
X34660619Y-86899643D02*
X34660619Y-86804405D01*
X34660619Y-86804405D02*
X34613000Y-86709167D01*
X34613000Y-86709167D02*
X34565381Y-86661548D01*
X34565381Y-86661548D02*
X34470143Y-86613929D01*
X34470143Y-86613929D02*
X34279667Y-86566310D01*
X34279667Y-86566310D02*
X34184429Y-86518691D01*
X34184429Y-86518691D02*
X34136810Y-86471072D01*
X34136810Y-86471072D02*
X34089191Y-86375834D01*
X34089191Y-86375834D02*
X34089191Y-86280596D01*
X34089191Y-86280596D02*
X34136810Y-86185358D01*
X34136810Y-86185358D02*
X34184429Y-86137739D01*
X34184429Y-86137739D02*
X34279667Y-86090120D01*
X34279667Y-86090120D02*
X34517762Y-86090120D01*
X34517762Y-86090120D02*
X34660619Y-86137739D01*
X34946334Y-86090120D02*
X35517762Y-86090120D01*
X35232048Y-87090120D02*
X35232048Y-86090120D01*
X32998715Y-85812501D02*
X35513001Y-85812501D01*
X34470143Y-79644881D02*
X34422524Y-79692501D01*
X34422524Y-79692501D02*
X34279667Y-79740120D01*
X34279667Y-79740120D02*
X34184429Y-79740120D01*
X34184429Y-79740120D02*
X34041572Y-79692501D01*
X34041572Y-79692501D02*
X33946334Y-79597262D01*
X33946334Y-79597262D02*
X33898715Y-79502024D01*
X33898715Y-79502024D02*
X33851096Y-79311548D01*
X33851096Y-79311548D02*
X33851096Y-79168691D01*
X33851096Y-79168691D02*
X33898715Y-78978215D01*
X33898715Y-78978215D02*
X33946334Y-78882977D01*
X33946334Y-78882977D02*
X34041572Y-78787739D01*
X34041572Y-78787739D02*
X34184429Y-78740120D01*
X34184429Y-78740120D02*
X34279667Y-78740120D01*
X34279667Y-78740120D02*
X34422524Y-78787739D01*
X34422524Y-78787739D02*
X34470143Y-78835358D01*
X34851096Y-79692501D02*
X34993953Y-79740120D01*
X34993953Y-79740120D02*
X35232048Y-79740120D01*
X35232048Y-79740120D02*
X35327286Y-79692501D01*
X35327286Y-79692501D02*
X35374905Y-79644881D01*
X35374905Y-79644881D02*
X35422524Y-79549643D01*
X35422524Y-79549643D02*
X35422524Y-79454405D01*
X35422524Y-79454405D02*
X35374905Y-79359167D01*
X35374905Y-79359167D02*
X35327286Y-79311548D01*
X35327286Y-79311548D02*
X35232048Y-79263929D01*
X35232048Y-79263929D02*
X35041572Y-79216310D01*
X35041572Y-79216310D02*
X34946334Y-79168691D01*
X34946334Y-79168691D02*
X34898715Y-79121072D01*
X34898715Y-79121072D02*
X34851096Y-79025834D01*
X34851096Y-79025834D02*
X34851096Y-78930596D01*
X34851096Y-78930596D02*
X34898715Y-78835358D01*
X34898715Y-78835358D02*
X34946334Y-78787739D01*
X34946334Y-78787739D02*
X35041572Y-78740120D01*
X35041572Y-78740120D02*
X35279667Y-78740120D01*
X35279667Y-78740120D02*
X35422524Y-78787739D01*
X33760620Y-78462501D02*
X35513001Y-78462501D01*
X37565382Y-30440120D02*
X38184429Y-30440120D01*
X38184429Y-30440120D02*
X37851096Y-30821072D01*
X37851096Y-30821072D02*
X37993953Y-30821072D01*
X37993953Y-30821072D02*
X38089191Y-30868691D01*
X38089191Y-30868691D02*
X38136810Y-30916310D01*
X38136810Y-30916310D02*
X38184429Y-31011548D01*
X38184429Y-31011548D02*
X38184429Y-31249643D01*
X38184429Y-31249643D02*
X38136810Y-31344881D01*
X38136810Y-31344881D02*
X38089191Y-31392501D01*
X38089191Y-31392501D02*
X37993953Y-31440120D01*
X37993953Y-31440120D02*
X37708239Y-31440120D01*
X37708239Y-31440120D02*
X37613001Y-31392501D01*
X37613001Y-31392501D02*
X37565382Y-31344881D01*
X38470144Y-30440120D02*
X38803477Y-31440120D01*
X38803477Y-31440120D02*
X39136810Y-30440120D01*
X39374906Y-30440120D02*
X39993953Y-30440120D01*
X39993953Y-30440120D02*
X39660620Y-30821072D01*
X39660620Y-30821072D02*
X39803477Y-30821072D01*
X39803477Y-30821072D02*
X39898715Y-30868691D01*
X39898715Y-30868691D02*
X39946334Y-30916310D01*
X39946334Y-30916310D02*
X39993953Y-31011548D01*
X39993953Y-31011548D02*
X39993953Y-31249643D01*
X39993953Y-31249643D02*
X39946334Y-31344881D01*
X39946334Y-31344881D02*
X39898715Y-31392501D01*
X39898715Y-31392501D02*
X39803477Y-31440120D01*
X39803477Y-31440120D02*
X39517763Y-31440120D01*
X39517763Y-31440120D02*
X39422525Y-31392501D01*
X39422525Y-31392501D02*
X39374906Y-31344881D01*
X41241572Y-30487739D02*
X41146334Y-30440120D01*
X41146334Y-30440120D02*
X41003477Y-30440120D01*
X41003477Y-30440120D02*
X40860620Y-30487739D01*
X40860620Y-30487739D02*
X40765382Y-30582977D01*
X40765382Y-30582977D02*
X40717763Y-30678215D01*
X40717763Y-30678215D02*
X40670144Y-30868691D01*
X40670144Y-30868691D02*
X40670144Y-31011548D01*
X40670144Y-31011548D02*
X40717763Y-31202024D01*
X40717763Y-31202024D02*
X40765382Y-31297262D01*
X40765382Y-31297262D02*
X40860620Y-31392501D01*
X40860620Y-31392501D02*
X41003477Y-31440120D01*
X41003477Y-31440120D02*
X41098715Y-31440120D01*
X41098715Y-31440120D02*
X41241572Y-31392501D01*
X41241572Y-31392501D02*
X41289191Y-31344881D01*
X41289191Y-31344881D02*
X41289191Y-31011548D01*
X41289191Y-31011548D02*
X41098715Y-31011548D01*
X41717763Y-31440120D02*
X41717763Y-30440120D01*
X41717763Y-30440120D02*
X42289191Y-31440120D01*
X42289191Y-31440120D02*
X42289191Y-30440120D01*
X42765382Y-31440120D02*
X42765382Y-30440120D01*
X42765382Y-30440120D02*
X43003477Y-30440120D01*
X43003477Y-30440120D02*
X43146334Y-30487739D01*
X43146334Y-30487739D02*
X43241572Y-30582977D01*
X43241572Y-30582977D02*
X43289191Y-30678215D01*
X43289191Y-30678215D02*
X43336810Y-30868691D01*
X43336810Y-30868691D02*
X43336810Y-31011548D01*
X43336810Y-31011548D02*
X43289191Y-31202024D01*
X43289191Y-31202024D02*
X43241572Y-31297262D01*
X43241572Y-31297262D02*
X43146334Y-31392501D01*
X43146334Y-31392501D02*
X43003477Y-31440120D01*
X43003477Y-31440120D02*
X42765382Y-31440120D01*
X50641572Y-61640120D02*
X50641572Y-62449643D01*
X50641572Y-62449643D02*
X50689191Y-62544881D01*
X50689191Y-62544881D02*
X50736810Y-62592501D01*
X50736810Y-62592501D02*
X50832048Y-62640120D01*
X50832048Y-62640120D02*
X51022524Y-62640120D01*
X51022524Y-62640120D02*
X51117762Y-62592501D01*
X51117762Y-62592501D02*
X51165381Y-62544881D01*
X51165381Y-62544881D02*
X51213000Y-62449643D01*
X51213000Y-62449643D02*
X51213000Y-61640120D01*
X51641572Y-61735358D02*
X51689191Y-61687739D01*
X51689191Y-61687739D02*
X51784429Y-61640120D01*
X51784429Y-61640120D02*
X52022524Y-61640120D01*
X52022524Y-61640120D02*
X52117762Y-61687739D01*
X52117762Y-61687739D02*
X52165381Y-61735358D01*
X52165381Y-61735358D02*
X52213000Y-61830596D01*
X52213000Y-61830596D02*
X52213000Y-61925834D01*
X52213000Y-61925834D02*
X52165381Y-62068691D01*
X52165381Y-62068691D02*
X51593953Y-62640120D01*
X51593953Y-62640120D02*
X52213000Y-62640120D01*
X73013000Y-25040120D02*
X72536810Y-25040120D01*
X72536810Y-25040120D02*
X72489191Y-25516310D01*
X72489191Y-25516310D02*
X72536810Y-25468691D01*
X72536810Y-25468691D02*
X72632048Y-25421072D01*
X72632048Y-25421072D02*
X72870143Y-25421072D01*
X72870143Y-25421072D02*
X72965381Y-25468691D01*
X72965381Y-25468691D02*
X73013000Y-25516310D01*
X73013000Y-25516310D02*
X73060619Y-25611548D01*
X73060619Y-25611548D02*
X73060619Y-25849643D01*
X73060619Y-25849643D02*
X73013000Y-25944881D01*
X73013000Y-25944881D02*
X72965381Y-25992501D01*
X72965381Y-25992501D02*
X72870143Y-26040120D01*
X72870143Y-26040120D02*
X72632048Y-26040120D01*
X72632048Y-26040120D02*
X72536810Y-25992501D01*
X72536810Y-25992501D02*
X72489191Y-25944881D01*
X73346334Y-25040120D02*
X73679667Y-26040120D01*
X73679667Y-26040120D02*
X74013000Y-25040120D01*
X72641572Y-32687739D02*
X72546334Y-32640120D01*
X72546334Y-32640120D02*
X72403477Y-32640120D01*
X72403477Y-32640120D02*
X72260620Y-32687739D01*
X72260620Y-32687739D02*
X72165382Y-32782977D01*
X72165382Y-32782977D02*
X72117763Y-32878215D01*
X72117763Y-32878215D02*
X72070144Y-33068691D01*
X72070144Y-33068691D02*
X72070144Y-33211548D01*
X72070144Y-33211548D02*
X72117763Y-33402024D01*
X72117763Y-33402024D02*
X72165382Y-33497262D01*
X72165382Y-33497262D02*
X72260620Y-33592501D01*
X72260620Y-33592501D02*
X72403477Y-33640120D01*
X72403477Y-33640120D02*
X72498715Y-33640120D01*
X72498715Y-33640120D02*
X72641572Y-33592501D01*
X72641572Y-33592501D02*
X72689191Y-33544881D01*
X72689191Y-33544881D02*
X72689191Y-33211548D01*
X72689191Y-33211548D02*
X72498715Y-33211548D01*
X73117763Y-33640120D02*
X73117763Y-32640120D01*
X73117763Y-32640120D02*
X73689191Y-33640120D01*
X73689191Y-33640120D02*
X73689191Y-32640120D01*
X74165382Y-33640120D02*
X74165382Y-32640120D01*
X74165382Y-32640120D02*
X74403477Y-32640120D01*
X74403477Y-32640120D02*
X74546334Y-32687739D01*
X74546334Y-32687739D02*
X74641572Y-32782977D01*
X74641572Y-32782977D02*
X74689191Y-32878215D01*
X74689191Y-32878215D02*
X74736810Y-33068691D01*
X74736810Y-33068691D02*
X74736810Y-33211548D01*
X74736810Y-33211548D02*
X74689191Y-33402024D01*
X74689191Y-33402024D02*
X74641572Y-33497262D01*
X74641572Y-33497262D02*
X74546334Y-33592501D01*
X74546334Y-33592501D02*
X74403477Y-33640120D01*
X74403477Y-33640120D02*
X74165382Y-33640120D01*
D11*
X61160237Y-63759619D02*
X61160237Y-62489619D01*
X62490714Y-63638666D02*
X62430238Y-63699143D01*
X62430238Y-63699143D02*
X62248809Y-63759619D01*
X62248809Y-63759619D02*
X62127857Y-63759619D01*
X62127857Y-63759619D02*
X61946428Y-63699143D01*
X61946428Y-63699143D02*
X61825476Y-63578190D01*
X61825476Y-63578190D02*
X61764999Y-63457238D01*
X61764999Y-63457238D02*
X61704523Y-63215333D01*
X61704523Y-63215333D02*
X61704523Y-63033904D01*
X61704523Y-63033904D02*
X61764999Y-62792000D01*
X61764999Y-62792000D02*
X61825476Y-62671047D01*
X61825476Y-62671047D02*
X61946428Y-62550095D01*
X61946428Y-62550095D02*
X62127857Y-62489619D01*
X62127857Y-62489619D02*
X62248809Y-62489619D01*
X62248809Y-62489619D02*
X62430238Y-62550095D01*
X62430238Y-62550095D02*
X62490714Y-62610571D01*
X63700238Y-63759619D02*
X62974523Y-63759619D01*
X63337380Y-63759619D02*
X63337380Y-62489619D01*
X63337380Y-62489619D02*
X63216428Y-62671047D01*
X63216428Y-62671047D02*
X63095476Y-62792000D01*
X63095476Y-62792000D02*
X62974523Y-62852476D01*
D12*
X68940225Y-82286129D02*
X69797368Y-82286129D01*
X69368796Y-83786129D02*
X69368796Y-82286129D01*
X70154510Y-82286129D02*
X71154510Y-83786129D01*
X71154510Y-82286129D02*
X70154510Y-83786129D01*
X73368795Y-83000415D02*
X73583081Y-83071843D01*
X73583081Y-83071843D02*
X73654510Y-83143272D01*
X73654510Y-83143272D02*
X73725938Y-83286129D01*
X73725938Y-83286129D02*
X73725938Y-83500415D01*
X73725938Y-83500415D02*
X73654510Y-83643272D01*
X73654510Y-83643272D02*
X73583081Y-83714701D01*
X73583081Y-83714701D02*
X73440224Y-83786129D01*
X73440224Y-83786129D02*
X72868795Y-83786129D01*
X72868795Y-83786129D02*
X72868795Y-82286129D01*
X72868795Y-82286129D02*
X73368795Y-82286129D01*
X73368795Y-82286129D02*
X73511653Y-82357558D01*
X73511653Y-82357558D02*
X73583081Y-82428986D01*
X73583081Y-82428986D02*
X73654510Y-82571843D01*
X73654510Y-82571843D02*
X73654510Y-82714701D01*
X73654510Y-82714701D02*
X73583081Y-82857558D01*
X73583081Y-82857558D02*
X73511653Y-82928986D01*
X73511653Y-82928986D02*
X73368795Y-83000415D01*
X73368795Y-83000415D02*
X72868795Y-83000415D01*
X74368795Y-83786129D02*
X74368795Y-82286129D01*
X74368795Y-82286129D02*
X74940224Y-82286129D01*
X74940224Y-82286129D02*
X75083081Y-82357558D01*
X75083081Y-82357558D02*
X75154510Y-82428986D01*
X75154510Y-82428986D02*
X75225938Y-82571843D01*
X75225938Y-82571843D02*
X75225938Y-82786129D01*
X75225938Y-82786129D02*
X75154510Y-82928986D01*
X75154510Y-82928986D02*
X75083081Y-83000415D01*
X75083081Y-83000415D02*
X74940224Y-83071843D01*
X74940224Y-83071843D02*
X74368795Y-83071843D01*
X76368795Y-83000415D02*
X75868795Y-83000415D01*
X75868795Y-83786129D02*
X75868795Y-82286129D01*
X75868795Y-82286129D02*
X76583081Y-82286129D01*
X86867179Y-79086129D02*
X87724322Y-79086129D01*
X87295750Y-80586129D02*
X87295750Y-79086129D01*
X88081464Y-79086129D02*
X89081464Y-80586129D01*
X89081464Y-79086129D02*
X88081464Y-80586129D01*
X90795749Y-80586129D02*
X90795749Y-79086129D01*
X90795749Y-79086129D02*
X91367178Y-79086129D01*
X91367178Y-79086129D02*
X91510035Y-79157558D01*
X91510035Y-79157558D02*
X91581464Y-79228986D01*
X91581464Y-79228986D02*
X91652892Y-79371843D01*
X91652892Y-79371843D02*
X91652892Y-79586129D01*
X91652892Y-79586129D02*
X91581464Y-79728986D01*
X91581464Y-79728986D02*
X91510035Y-79800415D01*
X91510035Y-79800415D02*
X91367178Y-79871843D01*
X91367178Y-79871843D02*
X90795749Y-79871843D01*
X92224321Y-80157558D02*
X92938607Y-80157558D01*
X92081464Y-80586129D02*
X92581464Y-79086129D01*
X92581464Y-79086129D02*
X93081464Y-80586129D01*
X94415130Y-33386129D02*
X93915130Y-32671843D01*
X93557987Y-33386129D02*
X93557987Y-31886129D01*
X93557987Y-31886129D02*
X94129416Y-31886129D01*
X94129416Y-31886129D02*
X94272273Y-31957558D01*
X94272273Y-31957558D02*
X94343702Y-32028986D01*
X94343702Y-32028986D02*
X94415130Y-32171843D01*
X94415130Y-32171843D02*
X94415130Y-32386129D01*
X94415130Y-32386129D02*
X94343702Y-32528986D01*
X94343702Y-32528986D02*
X94272273Y-32600415D01*
X94272273Y-32600415D02*
X94129416Y-32671843D01*
X94129416Y-32671843D02*
X93557987Y-32671843D01*
X94915130Y-31886129D02*
X95915130Y-33386129D01*
X95915130Y-31886129D02*
X94915130Y-33386129D01*
X98343701Y-33386129D02*
X97629415Y-33386129D01*
X97629415Y-33386129D02*
X97629415Y-31886129D01*
X98843701Y-33386129D02*
X98843701Y-31886129D01*
X98843701Y-31886129D02*
X99700844Y-33386129D01*
X99700844Y-33386129D02*
X99700844Y-31886129D01*
X100343702Y-32957558D02*
X101057988Y-32957558D01*
X100200845Y-33386129D02*
X100700845Y-31886129D01*
X100700845Y-31886129D02*
X101200845Y-33386129D01*
D13*
X47142824Y-96919739D02*
X47142824Y-94919739D01*
X47142824Y-94919739D02*
X47904729Y-94919739D01*
X47904729Y-94919739D02*
X48095205Y-95014977D01*
X48095205Y-95014977D02*
X48190443Y-95110215D01*
X48190443Y-95110215D02*
X48285681Y-95300691D01*
X48285681Y-95300691D02*
X48285681Y-95586405D01*
X48285681Y-95586405D02*
X48190443Y-95776881D01*
X48190443Y-95776881D02*
X48095205Y-95872120D01*
X48095205Y-95872120D02*
X47904729Y-95967358D01*
X47904729Y-95967358D02*
X47142824Y-95967358D01*
X48857110Y-94919739D02*
X49523776Y-96919739D01*
X49523776Y-96919739D02*
X50190443Y-94919739D01*
X50857110Y-96919739D02*
X50857110Y-94919739D01*
X50857110Y-94919739D02*
X51333300Y-94919739D01*
X51333300Y-94919739D02*
X51619015Y-95014977D01*
X51619015Y-95014977D02*
X51809491Y-95205453D01*
X51809491Y-95205453D02*
X51904729Y-95395929D01*
X51904729Y-95395929D02*
X51999967Y-95776881D01*
X51999967Y-95776881D02*
X51999967Y-96062596D01*
X51999967Y-96062596D02*
X51904729Y-96443548D01*
X51904729Y-96443548D02*
X51809491Y-96634024D01*
X51809491Y-96634024D02*
X51619015Y-96824501D01*
X51619015Y-96824501D02*
X51333300Y-96919739D01*
X51333300Y-96919739D02*
X50857110Y-96919739D01*
X52666634Y-94919739D02*
X53999967Y-96919739D01*
X53999967Y-94919739D02*
X52666634Y-96919739D01*
X56285682Y-94919739D02*
X56285682Y-96538786D01*
X56285682Y-96538786D02*
X56380920Y-96729262D01*
X56380920Y-96729262D02*
X56476158Y-96824501D01*
X56476158Y-96824501D02*
X56666634Y-96919739D01*
X56666634Y-96919739D02*
X57047587Y-96919739D01*
X57047587Y-96919739D02*
X57238063Y-96824501D01*
X57238063Y-96824501D02*
X57333301Y-96729262D01*
X57333301Y-96729262D02*
X57428539Y-96538786D01*
X57428539Y-96538786D02*
X57428539Y-94919739D01*
X58380920Y-96919739D02*
X58380920Y-94919739D01*
X58380920Y-95872120D02*
X59523777Y-95872120D01*
X59523777Y-96919739D02*
X59523777Y-94919739D01*
X61142825Y-95872120D02*
X60476158Y-95872120D01*
X60476158Y-96919739D02*
X60476158Y-94919739D01*
X60476158Y-94919739D02*
X61428539Y-94919739D01*
X64380921Y-95872120D02*
X64666635Y-95967358D01*
X64666635Y-95967358D02*
X64761873Y-96062596D01*
X64761873Y-96062596D02*
X64857111Y-96253072D01*
X64857111Y-96253072D02*
X64857111Y-96538786D01*
X64857111Y-96538786D02*
X64761873Y-96729262D01*
X64761873Y-96729262D02*
X64666635Y-96824501D01*
X64666635Y-96824501D02*
X64476159Y-96919739D01*
X64476159Y-96919739D02*
X63714254Y-96919739D01*
X63714254Y-96919739D02*
X63714254Y-94919739D01*
X63714254Y-94919739D02*
X64380921Y-94919739D01*
X64380921Y-94919739D02*
X64571397Y-95014977D01*
X64571397Y-95014977D02*
X64666635Y-95110215D01*
X64666635Y-95110215D02*
X64761873Y-95300691D01*
X64761873Y-95300691D02*
X64761873Y-95491167D01*
X64761873Y-95491167D02*
X64666635Y-95681643D01*
X64666635Y-95681643D02*
X64571397Y-95776881D01*
X64571397Y-95776881D02*
X64380921Y-95872120D01*
X64380921Y-95872120D02*
X63714254Y-95872120D01*
X66095206Y-94919739D02*
X66476159Y-94919739D01*
X66476159Y-94919739D02*
X66666635Y-95014977D01*
X66666635Y-95014977D02*
X66857111Y-95205453D01*
X66857111Y-95205453D02*
X66952349Y-95586405D01*
X66952349Y-95586405D02*
X66952349Y-96253072D01*
X66952349Y-96253072D02*
X66857111Y-96634024D01*
X66857111Y-96634024D02*
X66666635Y-96824501D01*
X66666635Y-96824501D02*
X66476159Y-96919739D01*
X66476159Y-96919739D02*
X66095206Y-96919739D01*
X66095206Y-96919739D02*
X65904730Y-96824501D01*
X65904730Y-96824501D02*
X65714254Y-96634024D01*
X65714254Y-96634024D02*
X65619016Y-96253072D01*
X65619016Y-96253072D02*
X65619016Y-95586405D01*
X65619016Y-95586405D02*
X65714254Y-95205453D01*
X65714254Y-95205453D02*
X65904730Y-95014977D01*
X65904730Y-95014977D02*
X66095206Y-94919739D01*
X67714254Y-96348310D02*
X68666635Y-96348310D01*
X67523778Y-96919739D02*
X68190444Y-94919739D01*
X68190444Y-94919739D02*
X68857111Y-96919739D01*
X70666635Y-96919739D02*
X69999968Y-95967358D01*
X69523778Y-96919739D02*
X69523778Y-94919739D01*
X69523778Y-94919739D02*
X70285683Y-94919739D01*
X70285683Y-94919739D02*
X70476159Y-95014977D01*
X70476159Y-95014977D02*
X70571397Y-95110215D01*
X70571397Y-95110215D02*
X70666635Y-95300691D01*
X70666635Y-95300691D02*
X70666635Y-95586405D01*
X70666635Y-95586405D02*
X70571397Y-95776881D01*
X70571397Y-95776881D02*
X70476159Y-95872120D01*
X70476159Y-95872120D02*
X70285683Y-95967358D01*
X70285683Y-95967358D02*
X69523778Y-95967358D01*
X71523778Y-96919739D02*
X71523778Y-94919739D01*
X71523778Y-94919739D02*
X71999968Y-94919739D01*
X71999968Y-94919739D02*
X72285683Y-95014977D01*
X72285683Y-95014977D02*
X72476159Y-95205453D01*
X72476159Y-95205453D02*
X72571397Y-95395929D01*
X72571397Y-95395929D02*
X72666635Y-95776881D01*
X72666635Y-95776881D02*
X72666635Y-96062596D01*
X72666635Y-96062596D02*
X72571397Y-96443548D01*
X72571397Y-96443548D02*
X72476159Y-96634024D01*
X72476159Y-96634024D02*
X72285683Y-96824501D01*
X72285683Y-96824501D02*
X71999968Y-96919739D01*
X71999968Y-96919739D02*
X71523778Y-96919739D01*
D10*
X41641572Y-65440120D02*
X41641572Y-66249643D01*
X41641572Y-66249643D02*
X41689191Y-66344881D01*
X41689191Y-66344881D02*
X41736810Y-66392501D01*
X41736810Y-66392501D02*
X41832048Y-66440120D01*
X41832048Y-66440120D02*
X42022524Y-66440120D01*
X42022524Y-66440120D02*
X42117762Y-66392501D01*
X42117762Y-66392501D02*
X42165381Y-66344881D01*
X42165381Y-66344881D02*
X42213000Y-66249643D01*
X42213000Y-66249643D02*
X42213000Y-65440120D01*
X43213000Y-66440120D02*
X42641572Y-66440120D01*
X42927286Y-66440120D02*
X42927286Y-65440120D01*
X42927286Y-65440120D02*
X42832048Y-65582977D01*
X42832048Y-65582977D02*
X42736810Y-65678215D01*
X42736810Y-65678215D02*
X42641572Y-65725834D01*
X33436810Y-64744881D02*
X33389191Y-64792501D01*
X33389191Y-64792501D02*
X33246334Y-64840120D01*
X33246334Y-64840120D02*
X33151096Y-64840120D01*
X33151096Y-64840120D02*
X33008239Y-64792501D01*
X33008239Y-64792501D02*
X32913001Y-64697262D01*
X32913001Y-64697262D02*
X32865382Y-64602024D01*
X32865382Y-64602024D02*
X32817763Y-64411548D01*
X32817763Y-64411548D02*
X32817763Y-64268691D01*
X32817763Y-64268691D02*
X32865382Y-64078215D01*
X32865382Y-64078215D02*
X32913001Y-63982977D01*
X32913001Y-63982977D02*
X33008239Y-63887739D01*
X33008239Y-63887739D02*
X33151096Y-63840120D01*
X33151096Y-63840120D02*
X33246334Y-63840120D01*
X33246334Y-63840120D02*
X33389191Y-63887739D01*
X33389191Y-63887739D02*
X33436810Y-63935358D01*
X34293953Y-63840120D02*
X34103477Y-63840120D01*
X34103477Y-63840120D02*
X34008239Y-63887739D01*
X34008239Y-63887739D02*
X33960620Y-63935358D01*
X33960620Y-63935358D02*
X33865382Y-64078215D01*
X33865382Y-64078215D02*
X33817763Y-64268691D01*
X33817763Y-64268691D02*
X33817763Y-64649643D01*
X33817763Y-64649643D02*
X33865382Y-64744881D01*
X33865382Y-64744881D02*
X33913001Y-64792501D01*
X33913001Y-64792501D02*
X34008239Y-64840120D01*
X34008239Y-64840120D02*
X34198715Y-64840120D01*
X34198715Y-64840120D02*
X34293953Y-64792501D01*
X34293953Y-64792501D02*
X34341572Y-64744881D01*
X34341572Y-64744881D02*
X34389191Y-64649643D01*
X34389191Y-64649643D02*
X34389191Y-64411548D01*
X34389191Y-64411548D02*
X34341572Y-64316310D01*
X34341572Y-64316310D02*
X34293953Y-64268691D01*
X34293953Y-64268691D02*
X34198715Y-64221072D01*
X34198715Y-64221072D02*
X34008239Y-64221072D01*
X34008239Y-64221072D02*
X33913001Y-64268691D01*
X33913001Y-64268691D02*
X33865382Y-64316310D01*
X33865382Y-64316310D02*
X33817763Y-64411548D01*
X69163057Y-64228158D02*
X69210677Y-64275777D01*
X69210677Y-64275777D02*
X69258296Y-64418634D01*
X69258296Y-64418634D02*
X69258296Y-64513872D01*
X69258296Y-64513872D02*
X69210677Y-64656729D01*
X69210677Y-64656729D02*
X69115438Y-64751967D01*
X69115438Y-64751967D02*
X69020200Y-64799586D01*
X69020200Y-64799586D02*
X68829724Y-64847205D01*
X68829724Y-64847205D02*
X68686867Y-64847205D01*
X68686867Y-64847205D02*
X68496391Y-64799586D01*
X68496391Y-64799586D02*
X68401153Y-64751967D01*
X68401153Y-64751967D02*
X68305915Y-64656729D01*
X68305915Y-64656729D02*
X68258296Y-64513872D01*
X68258296Y-64513872D02*
X68258296Y-64418634D01*
X68258296Y-64418634D02*
X68305915Y-64275777D01*
X68305915Y-64275777D02*
X68353534Y-64228158D01*
X69258296Y-63275777D02*
X69258296Y-63847205D01*
X69258296Y-63561491D02*
X68258296Y-63561491D01*
X68258296Y-63561491D02*
X68401153Y-63656729D01*
X68401153Y-63656729D02*
X68496391Y-63751967D01*
X68496391Y-63751967D02*
X68544010Y-63847205D01*
X68258296Y-62942443D02*
X68258296Y-62323396D01*
X68258296Y-62323396D02*
X68639248Y-62656729D01*
X68639248Y-62656729D02*
X68639248Y-62513872D01*
X68639248Y-62513872D02*
X68686867Y-62418634D01*
X68686867Y-62418634D02*
X68734486Y-62371015D01*
X68734486Y-62371015D02*
X68829724Y-62323396D01*
X68829724Y-62323396D02*
X69067819Y-62323396D01*
X69067819Y-62323396D02*
X69163057Y-62371015D01*
X69163057Y-62371015D02*
X69210677Y-62418634D01*
X69210677Y-62418634D02*
X69258296Y-62513872D01*
X69258296Y-62513872D02*
X69258296Y-62799586D01*
X69258296Y-62799586D02*
X69210677Y-62894824D01*
X69210677Y-62894824D02*
X69163057Y-62942443D01*
X34163057Y-60751967D02*
X34210677Y-60799586D01*
X34210677Y-60799586D02*
X34258296Y-60942443D01*
X34258296Y-60942443D02*
X34258296Y-61037681D01*
X34258296Y-61037681D02*
X34210677Y-61180538D01*
X34210677Y-61180538D02*
X34115438Y-61275776D01*
X34115438Y-61275776D02*
X34020200Y-61323395D01*
X34020200Y-61323395D02*
X33829724Y-61371014D01*
X33829724Y-61371014D02*
X33686867Y-61371014D01*
X33686867Y-61371014D02*
X33496391Y-61323395D01*
X33496391Y-61323395D02*
X33401153Y-61275776D01*
X33401153Y-61275776D02*
X33305915Y-61180538D01*
X33305915Y-61180538D02*
X33258296Y-61037681D01*
X33258296Y-61037681D02*
X33258296Y-60942443D01*
X33258296Y-60942443D02*
X33305915Y-60799586D01*
X33305915Y-60799586D02*
X33353534Y-60751967D01*
X33258296Y-59847205D02*
X33258296Y-60323395D01*
X33258296Y-60323395D02*
X33734486Y-60371014D01*
X33734486Y-60371014D02*
X33686867Y-60323395D01*
X33686867Y-60323395D02*
X33639248Y-60228157D01*
X33639248Y-60228157D02*
X33639248Y-59990062D01*
X33639248Y-59990062D02*
X33686867Y-59894824D01*
X33686867Y-59894824D02*
X33734486Y-59847205D01*
X33734486Y-59847205D02*
X33829724Y-59799586D01*
X33829724Y-59799586D02*
X34067819Y-59799586D01*
X34067819Y-59799586D02*
X34163057Y-59847205D01*
X34163057Y-59847205D02*
X34210677Y-59894824D01*
X34210677Y-59894824D02*
X34258296Y-59990062D01*
X34258296Y-59990062D02*
X34258296Y-60228157D01*
X34258296Y-60228157D02*
X34210677Y-60323395D01*
X34210677Y-60323395D02*
X34163057Y-60371014D01*
X90486534Y-64828158D02*
X90534154Y-64875777D01*
X90534154Y-64875777D02*
X90581773Y-65018634D01*
X90581773Y-65018634D02*
X90581773Y-65113872D01*
X90581773Y-65113872D02*
X90534154Y-65256729D01*
X90534154Y-65256729D02*
X90438915Y-65351967D01*
X90438915Y-65351967D02*
X90343677Y-65399586D01*
X90343677Y-65399586D02*
X90153201Y-65447205D01*
X90153201Y-65447205D02*
X90010344Y-65447205D01*
X90010344Y-65447205D02*
X89819868Y-65399586D01*
X89819868Y-65399586D02*
X89724630Y-65351967D01*
X89724630Y-65351967D02*
X89629392Y-65256729D01*
X89629392Y-65256729D02*
X89581773Y-65113872D01*
X89581773Y-65113872D02*
X89581773Y-65018634D01*
X89581773Y-65018634D02*
X89629392Y-64875777D01*
X89629392Y-64875777D02*
X89677011Y-64828158D01*
X90581773Y-63875777D02*
X90581773Y-64447205D01*
X90581773Y-64161491D02*
X89581773Y-64161491D01*
X89581773Y-64161491D02*
X89724630Y-64256729D01*
X89724630Y-64256729D02*
X89819868Y-64351967D01*
X89819868Y-64351967D02*
X89867487Y-64447205D01*
X90581773Y-63399586D02*
X90581773Y-63209110D01*
X90581773Y-63209110D02*
X90534154Y-63113872D01*
X90534154Y-63113872D02*
X90486534Y-63066253D01*
X90486534Y-63066253D02*
X90343677Y-62971015D01*
X90343677Y-62971015D02*
X90153201Y-62923396D01*
X90153201Y-62923396D02*
X89772249Y-62923396D01*
X89772249Y-62923396D02*
X89677011Y-62971015D01*
X89677011Y-62971015D02*
X89629392Y-63018634D01*
X89629392Y-63018634D02*
X89581773Y-63113872D01*
X89581773Y-63113872D02*
X89581773Y-63304348D01*
X89581773Y-63304348D02*
X89629392Y-63399586D01*
X89629392Y-63399586D02*
X89677011Y-63447205D01*
X89677011Y-63447205D02*
X89772249Y-63494824D01*
X89772249Y-63494824D02*
X90010344Y-63494824D01*
X90010344Y-63494824D02*
X90105582Y-63447205D01*
X90105582Y-63447205D02*
X90153201Y-63399586D01*
X90153201Y-63399586D02*
X90200820Y-63304348D01*
X90200820Y-63304348D02*
X90200820Y-63113872D01*
X90200820Y-63113872D02*
X90153201Y-63018634D01*
X90153201Y-63018634D02*
X90105582Y-62971015D01*
X90105582Y-62971015D02*
X90010344Y-62923396D01*
X82410619Y-75759580D02*
X82363000Y-75807200D01*
X82363000Y-75807200D02*
X82220143Y-75854819D01*
X82220143Y-75854819D02*
X82124905Y-75854819D01*
X82124905Y-75854819D02*
X81982048Y-75807200D01*
X81982048Y-75807200D02*
X81886810Y-75711961D01*
X81886810Y-75711961D02*
X81839191Y-75616723D01*
X81839191Y-75616723D02*
X81791572Y-75426247D01*
X81791572Y-75426247D02*
X81791572Y-75283390D01*
X81791572Y-75283390D02*
X81839191Y-75092914D01*
X81839191Y-75092914D02*
X81886810Y-74997676D01*
X81886810Y-74997676D02*
X81982048Y-74902438D01*
X81982048Y-74902438D02*
X82124905Y-74854819D01*
X82124905Y-74854819D02*
X82220143Y-74854819D01*
X82220143Y-74854819D02*
X82363000Y-74902438D01*
X82363000Y-74902438D02*
X82410619Y-74950057D01*
X83363000Y-75854819D02*
X82791572Y-75854819D01*
X83077286Y-75854819D02*
X83077286Y-74854819D01*
X83077286Y-74854819D02*
X82982048Y-74997676D01*
X82982048Y-74997676D02*
X82886810Y-75092914D01*
X82886810Y-75092914D02*
X82791572Y-75140533D01*
X84267762Y-74854819D02*
X83791572Y-74854819D01*
X83791572Y-74854819D02*
X83743953Y-75331009D01*
X83743953Y-75331009D02*
X83791572Y-75283390D01*
X83791572Y-75283390D02*
X83886810Y-75235771D01*
X83886810Y-75235771D02*
X84124905Y-75235771D01*
X84124905Y-75235771D02*
X84220143Y-75283390D01*
X84220143Y-75283390D02*
X84267762Y-75331009D01*
X84267762Y-75331009D02*
X84315381Y-75426247D01*
X84315381Y-75426247D02*
X84315381Y-75664342D01*
X84315381Y-75664342D02*
X84267762Y-75759580D01*
X84267762Y-75759580D02*
X84220143Y-75807200D01*
X84220143Y-75807200D02*
X84124905Y-75854819D01*
X84124905Y-75854819D02*
X83886810Y-75854819D01*
X83886810Y-75854819D02*
X83791572Y-75807200D01*
X83791572Y-75807200D02*
X83743953Y-75759580D01*
D11*
X88487191Y-78159619D02*
X88487191Y-76889619D01*
X89817668Y-78038666D02*
X89757192Y-78099143D01*
X89757192Y-78099143D02*
X89575763Y-78159619D01*
X89575763Y-78159619D02*
X89454811Y-78159619D01*
X89454811Y-78159619D02*
X89273382Y-78099143D01*
X89273382Y-78099143D02*
X89152430Y-77978190D01*
X89152430Y-77978190D02*
X89091953Y-77857238D01*
X89091953Y-77857238D02*
X89031477Y-77615333D01*
X89031477Y-77615333D02*
X89031477Y-77433904D01*
X89031477Y-77433904D02*
X89091953Y-77192000D01*
X89091953Y-77192000D02*
X89152430Y-77071047D01*
X89152430Y-77071047D02*
X89273382Y-76950095D01*
X89273382Y-76950095D02*
X89454811Y-76889619D01*
X89454811Y-76889619D02*
X89575763Y-76889619D01*
X89575763Y-76889619D02*
X89757192Y-76950095D01*
X89757192Y-76950095D02*
X89817668Y-77010571D01*
X90301477Y-77010571D02*
X90361953Y-76950095D01*
X90361953Y-76950095D02*
X90482906Y-76889619D01*
X90482906Y-76889619D02*
X90785287Y-76889619D01*
X90785287Y-76889619D02*
X90906239Y-76950095D01*
X90906239Y-76950095D02*
X90966715Y-77010571D01*
X90966715Y-77010571D02*
X91027192Y-77131523D01*
X91027192Y-77131523D02*
X91027192Y-77252476D01*
X91027192Y-77252476D02*
X90966715Y-77433904D01*
X90966715Y-77433904D02*
X90241001Y-78159619D01*
X90241001Y-78159619D02*
X91027192Y-78159619D01*
D10*
X67236810Y-52040120D02*
X66903477Y-51563929D01*
X66665382Y-52040120D02*
X66665382Y-51040120D01*
X66665382Y-51040120D02*
X67046334Y-51040120D01*
X67046334Y-51040120D02*
X67141572Y-51087739D01*
X67141572Y-51087739D02*
X67189191Y-51135358D01*
X67189191Y-51135358D02*
X67236810Y-51230596D01*
X67236810Y-51230596D02*
X67236810Y-51373453D01*
X67236810Y-51373453D02*
X67189191Y-51468691D01*
X67189191Y-51468691D02*
X67141572Y-51516310D01*
X67141572Y-51516310D02*
X67046334Y-51563929D01*
X67046334Y-51563929D02*
X66665382Y-51563929D01*
X68093953Y-51040120D02*
X67903477Y-51040120D01*
X67903477Y-51040120D02*
X67808239Y-51087739D01*
X67808239Y-51087739D02*
X67760620Y-51135358D01*
X67760620Y-51135358D02*
X67665382Y-51278215D01*
X67665382Y-51278215D02*
X67617763Y-51468691D01*
X67617763Y-51468691D02*
X67617763Y-51849643D01*
X67617763Y-51849643D02*
X67665382Y-51944881D01*
X67665382Y-51944881D02*
X67713001Y-51992501D01*
X67713001Y-51992501D02*
X67808239Y-52040120D01*
X67808239Y-52040120D02*
X67998715Y-52040120D01*
X67998715Y-52040120D02*
X68093953Y-51992501D01*
X68093953Y-51992501D02*
X68141572Y-51944881D01*
X68141572Y-51944881D02*
X68189191Y-51849643D01*
X68189191Y-51849643D02*
X68189191Y-51611548D01*
X68189191Y-51611548D02*
X68141572Y-51516310D01*
X68141572Y-51516310D02*
X68093953Y-51468691D01*
X68093953Y-51468691D02*
X67998715Y-51421072D01*
X67998715Y-51421072D02*
X67808239Y-51421072D01*
X67808239Y-51421072D02*
X67713001Y-51468691D01*
X67713001Y-51468691D02*
X67665382Y-51516310D01*
X67665382Y-51516310D02*
X67617763Y-51611548D01*
X88033333Y-36254819D02*
X87557143Y-36254819D01*
X87557143Y-36254819D02*
X87557143Y-35254819D01*
X88319048Y-35350057D02*
X88366667Y-35302438D01*
X88366667Y-35302438D02*
X88461905Y-35254819D01*
X88461905Y-35254819D02*
X88700000Y-35254819D01*
X88700000Y-35254819D02*
X88795238Y-35302438D01*
X88795238Y-35302438D02*
X88842857Y-35350057D01*
X88842857Y-35350057D02*
X88890476Y-35445295D01*
X88890476Y-35445295D02*
X88890476Y-35540533D01*
X88890476Y-35540533D02*
X88842857Y-35683390D01*
X88842857Y-35683390D02*
X88271429Y-36254819D01*
X88271429Y-36254819D02*
X88890476Y-36254819D01*
X97960619Y-35159580D02*
X97913000Y-35207200D01*
X97913000Y-35207200D02*
X97770143Y-35254819D01*
X97770143Y-35254819D02*
X97674905Y-35254819D01*
X97674905Y-35254819D02*
X97532048Y-35207200D01*
X97532048Y-35207200D02*
X97436810Y-35111961D01*
X97436810Y-35111961D02*
X97389191Y-35016723D01*
X97389191Y-35016723D02*
X97341572Y-34826247D01*
X97341572Y-34826247D02*
X97341572Y-34683390D01*
X97341572Y-34683390D02*
X97389191Y-34492914D01*
X97389191Y-34492914D02*
X97436810Y-34397676D01*
X97436810Y-34397676D02*
X97532048Y-34302438D01*
X97532048Y-34302438D02*
X97674905Y-34254819D01*
X97674905Y-34254819D02*
X97770143Y-34254819D01*
X97770143Y-34254819D02*
X97913000Y-34302438D01*
X97913000Y-34302438D02*
X97960619Y-34350057D01*
X98341572Y-34350057D02*
X98389191Y-34302438D01*
X98389191Y-34302438D02*
X98484429Y-34254819D01*
X98484429Y-34254819D02*
X98722524Y-34254819D01*
X98722524Y-34254819D02*
X98817762Y-34302438D01*
X98817762Y-34302438D02*
X98865381Y-34350057D01*
X98865381Y-34350057D02*
X98913000Y-34445295D01*
X98913000Y-34445295D02*
X98913000Y-34540533D01*
X98913000Y-34540533D02*
X98865381Y-34683390D01*
X98865381Y-34683390D02*
X98293953Y-35254819D01*
X98293953Y-35254819D02*
X98913000Y-35254819D01*
X99293953Y-34350057D02*
X99341572Y-34302438D01*
X99341572Y-34302438D02*
X99436810Y-34254819D01*
X99436810Y-34254819D02*
X99674905Y-34254819D01*
X99674905Y-34254819D02*
X99770143Y-34302438D01*
X99770143Y-34302438D02*
X99817762Y-34350057D01*
X99817762Y-34350057D02*
X99865381Y-34445295D01*
X99865381Y-34445295D02*
X99865381Y-34540533D01*
X99865381Y-34540533D02*
X99817762Y-34683390D01*
X99817762Y-34683390D02*
X99246334Y-35254819D01*
X99246334Y-35254819D02*
X99865381Y-35254819D01*
X94560619Y-35254819D02*
X94227286Y-34778628D01*
X93989191Y-35254819D02*
X93989191Y-34254819D01*
X93989191Y-34254819D02*
X94370143Y-34254819D01*
X94370143Y-34254819D02*
X94465381Y-34302438D01*
X94465381Y-34302438D02*
X94513000Y-34350057D01*
X94513000Y-34350057D02*
X94560619Y-34445295D01*
X94560619Y-34445295D02*
X94560619Y-34588152D01*
X94560619Y-34588152D02*
X94513000Y-34683390D01*
X94513000Y-34683390D02*
X94465381Y-34731009D01*
X94465381Y-34731009D02*
X94370143Y-34778628D01*
X94370143Y-34778628D02*
X93989191Y-34778628D01*
X95513000Y-35254819D02*
X94941572Y-35254819D01*
X95227286Y-35254819D02*
X95227286Y-34254819D01*
X95227286Y-34254819D02*
X95132048Y-34397676D01*
X95132048Y-34397676D02*
X95036810Y-34492914D01*
X95036810Y-34492914D02*
X94941572Y-34540533D01*
X96132048Y-34254819D02*
X96227286Y-34254819D01*
X96227286Y-34254819D02*
X96322524Y-34302438D01*
X96322524Y-34302438D02*
X96370143Y-34350057D01*
X96370143Y-34350057D02*
X96417762Y-34445295D01*
X96417762Y-34445295D02*
X96465381Y-34635771D01*
X96465381Y-34635771D02*
X96465381Y-34873866D01*
X96465381Y-34873866D02*
X96417762Y-35064342D01*
X96417762Y-35064342D02*
X96370143Y-35159580D01*
X96370143Y-35159580D02*
X96322524Y-35207200D01*
X96322524Y-35207200D02*
X96227286Y-35254819D01*
X96227286Y-35254819D02*
X96132048Y-35254819D01*
X96132048Y-35254819D02*
X96036810Y-35207200D01*
X96036810Y-35207200D02*
X95989191Y-35159580D01*
X95989191Y-35159580D02*
X95941572Y-35064342D01*
X95941572Y-35064342D02*
X95893953Y-34873866D01*
X95893953Y-34873866D02*
X95893953Y-34635771D01*
X95893953Y-34635771D02*
X95941572Y-34445295D01*
X95941572Y-34445295D02*
X95989191Y-34350057D01*
X95989191Y-34350057D02*
X96036810Y-34302438D01*
X96036810Y-34302438D02*
X96132048Y-34254819D01*
X93284096Y-66144881D02*
X93236477Y-66192501D01*
X93236477Y-66192501D02*
X93093620Y-66240120D01*
X93093620Y-66240120D02*
X92998382Y-66240120D01*
X92998382Y-66240120D02*
X92855525Y-66192501D01*
X92855525Y-66192501D02*
X92760287Y-66097262D01*
X92760287Y-66097262D02*
X92712668Y-66002024D01*
X92712668Y-66002024D02*
X92665049Y-65811548D01*
X92665049Y-65811548D02*
X92665049Y-65668691D01*
X92665049Y-65668691D02*
X92712668Y-65478215D01*
X92712668Y-65478215D02*
X92760287Y-65382977D01*
X92760287Y-65382977D02*
X92855525Y-65287739D01*
X92855525Y-65287739D02*
X92998382Y-65240120D01*
X92998382Y-65240120D02*
X93093620Y-65240120D01*
X93093620Y-65240120D02*
X93236477Y-65287739D01*
X93236477Y-65287739D02*
X93284096Y-65335358D01*
X93665049Y-65335358D02*
X93712668Y-65287739D01*
X93712668Y-65287739D02*
X93807906Y-65240120D01*
X93807906Y-65240120D02*
X94046001Y-65240120D01*
X94046001Y-65240120D02*
X94141239Y-65287739D01*
X94141239Y-65287739D02*
X94188858Y-65335358D01*
X94188858Y-65335358D02*
X94236477Y-65430596D01*
X94236477Y-65430596D02*
X94236477Y-65525834D01*
X94236477Y-65525834D02*
X94188858Y-65668691D01*
X94188858Y-65668691D02*
X93617430Y-66240120D01*
X93617430Y-66240120D02*
X94236477Y-66240120D01*
X94855525Y-65240120D02*
X94950763Y-65240120D01*
X94950763Y-65240120D02*
X95046001Y-65287739D01*
X95046001Y-65287739D02*
X95093620Y-65335358D01*
X95093620Y-65335358D02*
X95141239Y-65430596D01*
X95141239Y-65430596D02*
X95188858Y-65621072D01*
X95188858Y-65621072D02*
X95188858Y-65859167D01*
X95188858Y-65859167D02*
X95141239Y-66049643D01*
X95141239Y-66049643D02*
X95093620Y-66144881D01*
X95093620Y-66144881D02*
X95046001Y-66192501D01*
X95046001Y-66192501D02*
X94950763Y-66240120D01*
X94950763Y-66240120D02*
X94855525Y-66240120D01*
X94855525Y-66240120D02*
X94760287Y-66192501D01*
X94760287Y-66192501D02*
X94712668Y-66144881D01*
X94712668Y-66144881D02*
X94665049Y-66049643D01*
X94665049Y-66049643D02*
X94617430Y-65859167D01*
X94617430Y-65859167D02*
X94617430Y-65621072D01*
X94617430Y-65621072D02*
X94665049Y-65430596D01*
X94665049Y-65430596D02*
X94712668Y-65335358D01*
X94712668Y-65335358D02*
X94760287Y-65287739D01*
X94760287Y-65287739D02*
X94855525Y-65240120D01*
D11*
X93887191Y-59559619D02*
X93887191Y-58289619D01*
X95217668Y-59438666D02*
X95157192Y-59499143D01*
X95157192Y-59499143D02*
X94975763Y-59559619D01*
X94975763Y-59559619D02*
X94854811Y-59559619D01*
X94854811Y-59559619D02*
X94673382Y-59499143D01*
X94673382Y-59499143D02*
X94552430Y-59378190D01*
X94552430Y-59378190D02*
X94491953Y-59257238D01*
X94491953Y-59257238D02*
X94431477Y-59015333D01*
X94431477Y-59015333D02*
X94431477Y-58833904D01*
X94431477Y-58833904D02*
X94491953Y-58592000D01*
X94491953Y-58592000D02*
X94552430Y-58471047D01*
X94552430Y-58471047D02*
X94673382Y-58350095D01*
X94673382Y-58350095D02*
X94854811Y-58289619D01*
X94854811Y-58289619D02*
X94975763Y-58289619D01*
X94975763Y-58289619D02*
X95157192Y-58350095D01*
X95157192Y-58350095D02*
X95217668Y-58410571D01*
X96306239Y-58712952D02*
X96306239Y-59559619D01*
X96003858Y-58229143D02*
X95701477Y-59136285D01*
X95701477Y-59136285D02*
X96487668Y-59136285D01*
D10*
X79956810Y-77440120D02*
X79480620Y-77440120D01*
X79480620Y-77440120D02*
X79480620Y-76440120D01*
X80813953Y-77440120D02*
X80242525Y-77440120D01*
X80528239Y-77440120D02*
X80528239Y-76440120D01*
X80528239Y-76440120D02*
X80433001Y-76582977D01*
X80433001Y-76582977D02*
X80337763Y-76678215D01*
X80337763Y-76678215D02*
X80242525Y-76725834D01*
X86578296Y-70054957D02*
X86102105Y-70388290D01*
X86578296Y-70626385D02*
X85578296Y-70626385D01*
X85578296Y-70626385D02*
X85578296Y-70245433D01*
X85578296Y-70245433D02*
X85625915Y-70150195D01*
X85625915Y-70150195D02*
X85673534Y-70102576D01*
X85673534Y-70102576D02*
X85768772Y-70054957D01*
X85768772Y-70054957D02*
X85911629Y-70054957D01*
X85911629Y-70054957D02*
X86006867Y-70102576D01*
X86006867Y-70102576D02*
X86054486Y-70150195D01*
X86054486Y-70150195D02*
X86102105Y-70245433D01*
X86102105Y-70245433D02*
X86102105Y-70626385D01*
X86006867Y-69483528D02*
X85959248Y-69578766D01*
X85959248Y-69578766D02*
X85911629Y-69626385D01*
X85911629Y-69626385D02*
X85816391Y-69674004D01*
X85816391Y-69674004D02*
X85768772Y-69674004D01*
X85768772Y-69674004D02*
X85673534Y-69626385D01*
X85673534Y-69626385D02*
X85625915Y-69578766D01*
X85625915Y-69578766D02*
X85578296Y-69483528D01*
X85578296Y-69483528D02*
X85578296Y-69293052D01*
X85578296Y-69293052D02*
X85625915Y-69197814D01*
X85625915Y-69197814D02*
X85673534Y-69150195D01*
X85673534Y-69150195D02*
X85768772Y-69102576D01*
X85768772Y-69102576D02*
X85816391Y-69102576D01*
X85816391Y-69102576D02*
X85911629Y-69150195D01*
X85911629Y-69150195D02*
X85959248Y-69197814D01*
X85959248Y-69197814D02*
X86006867Y-69293052D01*
X86006867Y-69293052D02*
X86006867Y-69483528D01*
X86006867Y-69483528D02*
X86054486Y-69578766D01*
X86054486Y-69578766D02*
X86102105Y-69626385D01*
X86102105Y-69626385D02*
X86197343Y-69674004D01*
X86197343Y-69674004D02*
X86387819Y-69674004D01*
X86387819Y-69674004D02*
X86483057Y-69626385D01*
X86483057Y-69626385D02*
X86530677Y-69578766D01*
X86530677Y-69578766D02*
X86578296Y-69483528D01*
X86578296Y-69483528D02*
X86578296Y-69293052D01*
X86578296Y-69293052D02*
X86530677Y-69197814D01*
X86530677Y-69197814D02*
X86483057Y-69150195D01*
X86483057Y-69150195D02*
X86387819Y-69102576D01*
X86387819Y-69102576D02*
X86197343Y-69102576D01*
X86197343Y-69102576D02*
X86102105Y-69150195D01*
X86102105Y-69150195D02*
X86054486Y-69197814D01*
X86054486Y-69197814D02*
X86006867Y-69293052D01*
X34791572Y-27840120D02*
X34791572Y-26840120D01*
X34791572Y-27316310D02*
X35363000Y-27316310D01*
X35363000Y-27840120D02*
X35363000Y-26840120D01*
X36363000Y-27840120D02*
X35791572Y-27840120D01*
X36077286Y-27840120D02*
X36077286Y-26840120D01*
X36077286Y-26840120D02*
X35982048Y-26982977D01*
X35982048Y-26982977D02*
X35886810Y-27078215D01*
X35886810Y-27078215D02*
X35791572Y-27125834D01*
X93855287Y-77353411D02*
X93379097Y-77353411D01*
X93379097Y-77353411D02*
X93379097Y-76353411D01*
X94617192Y-76686744D02*
X94617192Y-77353411D01*
X94379097Y-76305792D02*
X94141002Y-77020077D01*
X94141002Y-77020077D02*
X94760049Y-77020077D01*
X85160287Y-66240120D02*
X84826954Y-65763929D01*
X84588859Y-66240120D02*
X84588859Y-65240120D01*
X84588859Y-65240120D02*
X84969811Y-65240120D01*
X84969811Y-65240120D02*
X85065049Y-65287739D01*
X85065049Y-65287739D02*
X85112668Y-65335358D01*
X85112668Y-65335358D02*
X85160287Y-65430596D01*
X85160287Y-65430596D02*
X85160287Y-65573453D01*
X85160287Y-65573453D02*
X85112668Y-65668691D01*
X85112668Y-65668691D02*
X85065049Y-65716310D01*
X85065049Y-65716310D02*
X84969811Y-65763929D01*
X84969811Y-65763929D02*
X84588859Y-65763929D01*
X85636478Y-66240120D02*
X85826954Y-66240120D01*
X85826954Y-66240120D02*
X85922192Y-66192501D01*
X85922192Y-66192501D02*
X85969811Y-66144881D01*
X85969811Y-66144881D02*
X86065049Y-66002024D01*
X86065049Y-66002024D02*
X86112668Y-65811548D01*
X86112668Y-65811548D02*
X86112668Y-65430596D01*
X86112668Y-65430596D02*
X86065049Y-65335358D01*
X86065049Y-65335358D02*
X86017430Y-65287739D01*
X86017430Y-65287739D02*
X85922192Y-65240120D01*
X85922192Y-65240120D02*
X85731716Y-65240120D01*
X85731716Y-65240120D02*
X85636478Y-65287739D01*
X85636478Y-65287739D02*
X85588859Y-65335358D01*
X85588859Y-65335358D02*
X85541240Y-65430596D01*
X85541240Y-65430596D02*
X85541240Y-65668691D01*
X85541240Y-65668691D02*
X85588859Y-65763929D01*
X85588859Y-65763929D02*
X85636478Y-65811548D01*
X85636478Y-65811548D02*
X85731716Y-65859167D01*
X85731716Y-65859167D02*
X85922192Y-65859167D01*
X85922192Y-65859167D02*
X86017430Y-65811548D01*
X86017430Y-65811548D02*
X86065049Y-65763929D01*
X86065049Y-65763929D02*
X86112668Y-65668691D01*
X60458296Y-69356413D02*
X59982105Y-69689746D01*
X60458296Y-69927841D02*
X59458296Y-69927841D01*
X59458296Y-69927841D02*
X59458296Y-69546889D01*
X59458296Y-69546889D02*
X59505915Y-69451651D01*
X59505915Y-69451651D02*
X59553534Y-69404032D01*
X59553534Y-69404032D02*
X59648772Y-69356413D01*
X59648772Y-69356413D02*
X59791629Y-69356413D01*
X59791629Y-69356413D02*
X59886867Y-69404032D01*
X59886867Y-69404032D02*
X59934486Y-69451651D01*
X59934486Y-69451651D02*
X59982105Y-69546889D01*
X59982105Y-69546889D02*
X59982105Y-69927841D01*
X59458296Y-68451651D02*
X59458296Y-68927841D01*
X59458296Y-68927841D02*
X59934486Y-68975460D01*
X59934486Y-68975460D02*
X59886867Y-68927841D01*
X59886867Y-68927841D02*
X59839248Y-68832603D01*
X59839248Y-68832603D02*
X59839248Y-68594508D01*
X59839248Y-68594508D02*
X59886867Y-68499270D01*
X59886867Y-68499270D02*
X59934486Y-68451651D01*
X59934486Y-68451651D02*
X60029724Y-68404032D01*
X60029724Y-68404032D02*
X60267819Y-68404032D01*
X60267819Y-68404032D02*
X60363057Y-68451651D01*
X60363057Y-68451651D02*
X60410677Y-68499270D01*
X60410677Y-68499270D02*
X60458296Y-68594508D01*
X60458296Y-68594508D02*
X60458296Y-68832603D01*
X60458296Y-68832603D02*
X60410677Y-68927841D01*
X60410677Y-68927841D02*
X60363057Y-68975460D01*
X35036810Y-66544881D02*
X34989191Y-66592501D01*
X34989191Y-66592501D02*
X34846334Y-66640120D01*
X34846334Y-66640120D02*
X34751096Y-66640120D01*
X34751096Y-66640120D02*
X34608239Y-66592501D01*
X34608239Y-66592501D02*
X34513001Y-66497262D01*
X34513001Y-66497262D02*
X34465382Y-66402024D01*
X34465382Y-66402024D02*
X34417763Y-66211548D01*
X34417763Y-66211548D02*
X34417763Y-66068691D01*
X34417763Y-66068691D02*
X34465382Y-65878215D01*
X34465382Y-65878215D02*
X34513001Y-65782977D01*
X34513001Y-65782977D02*
X34608239Y-65687739D01*
X34608239Y-65687739D02*
X34751096Y-65640120D01*
X34751096Y-65640120D02*
X34846334Y-65640120D01*
X34846334Y-65640120D02*
X34989191Y-65687739D01*
X34989191Y-65687739D02*
X35036810Y-65735358D01*
X35893953Y-65973453D02*
X35893953Y-66640120D01*
X35655858Y-65592501D02*
X35417763Y-66306786D01*
X35417763Y-66306786D02*
X36036810Y-66306786D01*
D11*
X71653478Y-80894381D02*
X71230144Y-80894381D01*
X71230144Y-81559619D02*
X71230144Y-80289619D01*
X71230144Y-80289619D02*
X71834906Y-80289619D01*
X72923477Y-81559619D02*
X72318715Y-81559619D01*
X72318715Y-81559619D02*
X72318715Y-80289619D01*
X74012049Y-81559619D02*
X73286334Y-81559619D01*
X73649191Y-81559619D02*
X73649191Y-80289619D01*
X73649191Y-80289619D02*
X73528239Y-80471047D01*
X73528239Y-80471047D02*
X73407287Y-80592000D01*
X73407287Y-80592000D02*
X73286334Y-80652476D01*
D10*
X107791572Y-28240120D02*
X107791572Y-27240120D01*
X107791572Y-27716310D02*
X108363000Y-27716310D01*
X108363000Y-28240120D02*
X108363000Y-27240120D01*
X108791572Y-27335358D02*
X108839191Y-27287739D01*
X108839191Y-27287739D02*
X108934429Y-27240120D01*
X108934429Y-27240120D02*
X109172524Y-27240120D01*
X109172524Y-27240120D02*
X109267762Y-27287739D01*
X109267762Y-27287739D02*
X109315381Y-27335358D01*
X109315381Y-27335358D02*
X109363000Y-27430596D01*
X109363000Y-27430596D02*
X109363000Y-27525834D01*
X109363000Y-27525834D02*
X109315381Y-27668691D01*
X109315381Y-27668691D02*
X108743953Y-28240120D01*
X108743953Y-28240120D02*
X109363000Y-28240120D01*
X55163057Y-61828158D02*
X55210677Y-61875777D01*
X55210677Y-61875777D02*
X55258296Y-62018634D01*
X55258296Y-62018634D02*
X55258296Y-62113872D01*
X55258296Y-62113872D02*
X55210677Y-62256729D01*
X55210677Y-62256729D02*
X55115438Y-62351967D01*
X55115438Y-62351967D02*
X55020200Y-62399586D01*
X55020200Y-62399586D02*
X54829724Y-62447205D01*
X54829724Y-62447205D02*
X54686867Y-62447205D01*
X54686867Y-62447205D02*
X54496391Y-62399586D01*
X54496391Y-62399586D02*
X54401153Y-62351967D01*
X54401153Y-62351967D02*
X54305915Y-62256729D01*
X54305915Y-62256729D02*
X54258296Y-62113872D01*
X54258296Y-62113872D02*
X54258296Y-62018634D01*
X54258296Y-62018634D02*
X54305915Y-61875777D01*
X54305915Y-61875777D02*
X54353534Y-61828158D01*
X55258296Y-60875777D02*
X55258296Y-61447205D01*
X55258296Y-61161491D02*
X54258296Y-61161491D01*
X54258296Y-61161491D02*
X54401153Y-61256729D01*
X54401153Y-61256729D02*
X54496391Y-61351967D01*
X54496391Y-61351967D02*
X54544010Y-61447205D01*
X55258296Y-59923396D02*
X55258296Y-60494824D01*
X55258296Y-60209110D02*
X54258296Y-60209110D01*
X54258296Y-60209110D02*
X54401153Y-60304348D01*
X54401153Y-60304348D02*
X54496391Y-60399586D01*
X54496391Y-60399586D02*
X54544010Y-60494824D01*
X65560619Y-55744881D02*
X65513000Y-55792501D01*
X65513000Y-55792501D02*
X65370143Y-55840120D01*
X65370143Y-55840120D02*
X65274905Y-55840120D01*
X65274905Y-55840120D02*
X65132048Y-55792501D01*
X65132048Y-55792501D02*
X65036810Y-55697262D01*
X65036810Y-55697262D02*
X64989191Y-55602024D01*
X64989191Y-55602024D02*
X64941572Y-55411548D01*
X64941572Y-55411548D02*
X64941572Y-55268691D01*
X64941572Y-55268691D02*
X64989191Y-55078215D01*
X64989191Y-55078215D02*
X65036810Y-54982977D01*
X65036810Y-54982977D02*
X65132048Y-54887739D01*
X65132048Y-54887739D02*
X65274905Y-54840120D01*
X65274905Y-54840120D02*
X65370143Y-54840120D01*
X65370143Y-54840120D02*
X65513000Y-54887739D01*
X65513000Y-54887739D02*
X65560619Y-54935358D01*
X66513000Y-55840120D02*
X65941572Y-55840120D01*
X66227286Y-55840120D02*
X66227286Y-54840120D01*
X66227286Y-54840120D02*
X66132048Y-54982977D01*
X66132048Y-54982977D02*
X66036810Y-55078215D01*
X66036810Y-55078215D02*
X65941572Y-55125834D01*
X66893953Y-54935358D02*
X66941572Y-54887739D01*
X66941572Y-54887739D02*
X67036810Y-54840120D01*
X67036810Y-54840120D02*
X67274905Y-54840120D01*
X67274905Y-54840120D02*
X67370143Y-54887739D01*
X67370143Y-54887739D02*
X67417762Y-54935358D01*
X67417762Y-54935358D02*
X67465381Y-55030596D01*
X67465381Y-55030596D02*
X67465381Y-55125834D01*
X67465381Y-55125834D02*
X67417762Y-55268691D01*
X67417762Y-55268691D02*
X66846334Y-55840120D01*
X66846334Y-55840120D02*
X67465381Y-55840120D01*
X96596391Y-77312747D02*
X96120201Y-77312747D01*
X96120201Y-77312747D02*
X96120201Y-76312747D01*
X97405915Y-76312747D02*
X96929725Y-76312747D01*
X96929725Y-76312747D02*
X96882106Y-76788937D01*
X96882106Y-76788937D02*
X96929725Y-76741318D01*
X96929725Y-76741318D02*
X97024963Y-76693699D01*
X97024963Y-76693699D02*
X97263058Y-76693699D01*
X97263058Y-76693699D02*
X97358296Y-76741318D01*
X97358296Y-76741318D02*
X97405915Y-76788937D01*
X97405915Y-76788937D02*
X97453534Y-76884175D01*
X97453534Y-76884175D02*
X97453534Y-77122270D01*
X97453534Y-77122270D02*
X97405915Y-77217508D01*
X97405915Y-77217508D02*
X97358296Y-77265128D01*
X97358296Y-77265128D02*
X97263058Y-77312747D01*
X97263058Y-77312747D02*
X97024963Y-77312747D01*
X97024963Y-77312747D02*
X96929725Y-77265128D01*
X96929725Y-77265128D02*
X96882106Y-77217508D01*
X40141572Y-46688120D02*
X40713000Y-46688120D01*
X40427286Y-47688120D02*
X40427286Y-46688120D01*
X41046334Y-47688120D02*
X41046334Y-46688120D01*
X41046334Y-46688120D02*
X41427286Y-46688120D01*
X41427286Y-46688120D02*
X41522524Y-46735739D01*
X41522524Y-46735739D02*
X41570143Y-46783358D01*
X41570143Y-46783358D02*
X41617762Y-46878596D01*
X41617762Y-46878596D02*
X41617762Y-47021453D01*
X41617762Y-47021453D02*
X41570143Y-47116691D01*
X41570143Y-47116691D02*
X41522524Y-47164310D01*
X41522524Y-47164310D02*
X41427286Y-47211929D01*
X41427286Y-47211929D02*
X41046334Y-47211929D01*
X42570143Y-47688120D02*
X41998715Y-47688120D01*
X42284429Y-47688120D02*
X42284429Y-46688120D01*
X42284429Y-46688120D02*
X42189191Y-46830977D01*
X42189191Y-46830977D02*
X42093953Y-46926215D01*
X42093953Y-46926215D02*
X41998715Y-46973834D01*
X60458296Y-64351967D02*
X59982105Y-64685300D01*
X60458296Y-64923395D02*
X59458296Y-64923395D01*
X59458296Y-64923395D02*
X59458296Y-64542443D01*
X59458296Y-64542443D02*
X59505915Y-64447205D01*
X59505915Y-64447205D02*
X59553534Y-64399586D01*
X59553534Y-64399586D02*
X59648772Y-64351967D01*
X59648772Y-64351967D02*
X59791629Y-64351967D01*
X59791629Y-64351967D02*
X59886867Y-64399586D01*
X59886867Y-64399586D02*
X59934486Y-64447205D01*
X59934486Y-64447205D02*
X59982105Y-64542443D01*
X59982105Y-64542443D02*
X59982105Y-64923395D01*
X59791629Y-63494824D02*
X60458296Y-63494824D01*
X59410677Y-63732919D02*
X60124962Y-63971014D01*
X60124962Y-63971014D02*
X60124962Y-63351967D01*
X63541572Y-30240120D02*
X64113000Y-30240120D01*
X63827286Y-31240120D02*
X63827286Y-30240120D01*
X64446334Y-31240120D02*
X64446334Y-30240120D01*
X64446334Y-30240120D02*
X64827286Y-30240120D01*
X64827286Y-30240120D02*
X64922524Y-30287739D01*
X64922524Y-30287739D02*
X64970143Y-30335358D01*
X64970143Y-30335358D02*
X65017762Y-30430596D01*
X65017762Y-30430596D02*
X65017762Y-30573453D01*
X65017762Y-30573453D02*
X64970143Y-30668691D01*
X64970143Y-30668691D02*
X64922524Y-30716310D01*
X64922524Y-30716310D02*
X64827286Y-30763929D01*
X64827286Y-30763929D02*
X64446334Y-30763929D01*
X65922524Y-30240120D02*
X65446334Y-30240120D01*
X65446334Y-30240120D02*
X65398715Y-30716310D01*
X65398715Y-30716310D02*
X65446334Y-30668691D01*
X65446334Y-30668691D02*
X65541572Y-30621072D01*
X65541572Y-30621072D02*
X65779667Y-30621072D01*
X65779667Y-30621072D02*
X65874905Y-30668691D01*
X65874905Y-30668691D02*
X65922524Y-30716310D01*
X65922524Y-30716310D02*
X65970143Y-30811548D01*
X65970143Y-30811548D02*
X65970143Y-31049643D01*
X65970143Y-31049643D02*
X65922524Y-31144881D01*
X65922524Y-31144881D02*
X65874905Y-31192501D01*
X65874905Y-31192501D02*
X65779667Y-31240120D01*
X65779667Y-31240120D02*
X65541572Y-31240120D01*
X65541572Y-31240120D02*
X65446334Y-31192501D01*
X65446334Y-31192501D02*
X65398715Y-31144881D01*
X89931773Y-68551967D02*
X89931773Y-69028157D01*
X89931773Y-69028157D02*
X88931773Y-69028157D01*
X88931773Y-68313871D02*
X88931773Y-67694824D01*
X88931773Y-67694824D02*
X89312725Y-68028157D01*
X89312725Y-68028157D02*
X89312725Y-67885300D01*
X89312725Y-67885300D02*
X89360344Y-67790062D01*
X89360344Y-67790062D02*
X89407963Y-67742443D01*
X89407963Y-67742443D02*
X89503201Y-67694824D01*
X89503201Y-67694824D02*
X89741296Y-67694824D01*
X89741296Y-67694824D02*
X89836534Y-67742443D01*
X89836534Y-67742443D02*
X89884154Y-67790062D01*
X89884154Y-67790062D02*
X89931773Y-67885300D01*
X89931773Y-67885300D02*
X89931773Y-68171014D01*
X89931773Y-68171014D02*
X89884154Y-68266252D01*
X89884154Y-68266252D02*
X89836534Y-68313871D01*
X86057142Y-33659580D02*
X86009523Y-33707200D01*
X86009523Y-33707200D02*
X85866666Y-33754819D01*
X85866666Y-33754819D02*
X85771428Y-33754819D01*
X85771428Y-33754819D02*
X85628571Y-33707200D01*
X85628571Y-33707200D02*
X85533333Y-33611961D01*
X85533333Y-33611961D02*
X85485714Y-33516723D01*
X85485714Y-33516723D02*
X85438095Y-33326247D01*
X85438095Y-33326247D02*
X85438095Y-33183390D01*
X85438095Y-33183390D02*
X85485714Y-32992914D01*
X85485714Y-32992914D02*
X85533333Y-32897676D01*
X85533333Y-32897676D02*
X85628571Y-32802438D01*
X85628571Y-32802438D02*
X85771428Y-32754819D01*
X85771428Y-32754819D02*
X85866666Y-32754819D01*
X85866666Y-32754819D02*
X86009523Y-32802438D01*
X86009523Y-32802438D02*
X86057142Y-32850057D01*
X87009523Y-33754819D02*
X86438095Y-33754819D01*
X86723809Y-33754819D02*
X86723809Y-32754819D01*
X86723809Y-32754819D02*
X86628571Y-32897676D01*
X86628571Y-32897676D02*
X86533333Y-32992914D01*
X86533333Y-32992914D02*
X86438095Y-33040533D01*
X87580952Y-33183390D02*
X87485714Y-33135771D01*
X87485714Y-33135771D02*
X87438095Y-33088152D01*
X87438095Y-33088152D02*
X87390476Y-32992914D01*
X87390476Y-32992914D02*
X87390476Y-32945295D01*
X87390476Y-32945295D02*
X87438095Y-32850057D01*
X87438095Y-32850057D02*
X87485714Y-32802438D01*
X87485714Y-32802438D02*
X87580952Y-32754819D01*
X87580952Y-32754819D02*
X87771428Y-32754819D01*
X87771428Y-32754819D02*
X87866666Y-32802438D01*
X87866666Y-32802438D02*
X87914285Y-32850057D01*
X87914285Y-32850057D02*
X87961904Y-32945295D01*
X87961904Y-32945295D02*
X87961904Y-32992914D01*
X87961904Y-32992914D02*
X87914285Y-33088152D01*
X87914285Y-33088152D02*
X87866666Y-33135771D01*
X87866666Y-33135771D02*
X87771428Y-33183390D01*
X87771428Y-33183390D02*
X87580952Y-33183390D01*
X87580952Y-33183390D02*
X87485714Y-33231009D01*
X87485714Y-33231009D02*
X87438095Y-33278628D01*
X87438095Y-33278628D02*
X87390476Y-33373866D01*
X87390476Y-33373866D02*
X87390476Y-33564342D01*
X87390476Y-33564342D02*
X87438095Y-33659580D01*
X87438095Y-33659580D02*
X87485714Y-33707200D01*
X87485714Y-33707200D02*
X87580952Y-33754819D01*
X87580952Y-33754819D02*
X87771428Y-33754819D01*
X87771428Y-33754819D02*
X87866666Y-33707200D01*
X87866666Y-33707200D02*
X87914285Y-33659580D01*
X87914285Y-33659580D02*
X87961904Y-33564342D01*
X87961904Y-33564342D02*
X87961904Y-33373866D01*
X87961904Y-33373866D02*
X87914285Y-33278628D01*
X87914285Y-33278628D02*
X87866666Y-33231009D01*
X87866666Y-33231009D02*
X87771428Y-33183390D01*
X71636810Y-60840120D02*
X71303477Y-60363929D01*
X71065382Y-60840120D02*
X71065382Y-59840120D01*
X71065382Y-59840120D02*
X71446334Y-59840120D01*
X71446334Y-59840120D02*
X71541572Y-59887739D01*
X71541572Y-59887739D02*
X71589191Y-59935358D01*
X71589191Y-59935358D02*
X71636810Y-60030596D01*
X71636810Y-60030596D02*
X71636810Y-60173453D01*
X71636810Y-60173453D02*
X71589191Y-60268691D01*
X71589191Y-60268691D02*
X71541572Y-60316310D01*
X71541572Y-60316310D02*
X71446334Y-60363929D01*
X71446334Y-60363929D02*
X71065382Y-60363929D01*
X71970144Y-59840120D02*
X72636810Y-59840120D01*
X72636810Y-59840120D02*
X72208239Y-60840120D01*
X34341572Y-36840120D02*
X34913000Y-36840120D01*
X34627286Y-37840120D02*
X34627286Y-36840120D01*
X35246334Y-37840120D02*
X35246334Y-36840120D01*
X35246334Y-36840120D02*
X35627286Y-36840120D01*
X35627286Y-36840120D02*
X35722524Y-36887739D01*
X35722524Y-36887739D02*
X35770143Y-36935358D01*
X35770143Y-36935358D02*
X35817762Y-37030596D01*
X35817762Y-37030596D02*
X35817762Y-37173453D01*
X35817762Y-37173453D02*
X35770143Y-37268691D01*
X35770143Y-37268691D02*
X35722524Y-37316310D01*
X35722524Y-37316310D02*
X35627286Y-37363929D01*
X35627286Y-37363929D02*
X35246334Y-37363929D01*
X36674905Y-36840120D02*
X36484429Y-36840120D01*
X36484429Y-36840120D02*
X36389191Y-36887739D01*
X36389191Y-36887739D02*
X36341572Y-36935358D01*
X36341572Y-36935358D02*
X36246334Y-37078215D01*
X36246334Y-37078215D02*
X36198715Y-37268691D01*
X36198715Y-37268691D02*
X36198715Y-37649643D01*
X36198715Y-37649643D02*
X36246334Y-37744881D01*
X36246334Y-37744881D02*
X36293953Y-37792501D01*
X36293953Y-37792501D02*
X36389191Y-37840120D01*
X36389191Y-37840120D02*
X36579667Y-37840120D01*
X36579667Y-37840120D02*
X36674905Y-37792501D01*
X36674905Y-37792501D02*
X36722524Y-37744881D01*
X36722524Y-37744881D02*
X36770143Y-37649643D01*
X36770143Y-37649643D02*
X36770143Y-37411548D01*
X36770143Y-37411548D02*
X36722524Y-37316310D01*
X36722524Y-37316310D02*
X36674905Y-37268691D01*
X36674905Y-37268691D02*
X36579667Y-37221072D01*
X36579667Y-37221072D02*
X36389191Y-37221072D01*
X36389191Y-37221072D02*
X36293953Y-37268691D01*
X36293953Y-37268691D02*
X36246334Y-37316310D01*
X36246334Y-37316310D02*
X36198715Y-37411548D01*
X40911810Y-40544881D02*
X40864191Y-40592501D01*
X40864191Y-40592501D02*
X40721334Y-40640120D01*
X40721334Y-40640120D02*
X40626096Y-40640120D01*
X40626096Y-40640120D02*
X40483239Y-40592501D01*
X40483239Y-40592501D02*
X40388001Y-40497262D01*
X40388001Y-40497262D02*
X40340382Y-40402024D01*
X40340382Y-40402024D02*
X40292763Y-40211548D01*
X40292763Y-40211548D02*
X40292763Y-40068691D01*
X40292763Y-40068691D02*
X40340382Y-39878215D01*
X40340382Y-39878215D02*
X40388001Y-39782977D01*
X40388001Y-39782977D02*
X40483239Y-39687739D01*
X40483239Y-39687739D02*
X40626096Y-39640120D01*
X40626096Y-39640120D02*
X40721334Y-39640120D01*
X40721334Y-39640120D02*
X40864191Y-39687739D01*
X40864191Y-39687739D02*
X40911810Y-39735358D01*
X41864191Y-40640120D02*
X41292763Y-40640120D01*
X41578477Y-40640120D02*
X41578477Y-39640120D01*
X41578477Y-39640120D02*
X41483239Y-39782977D01*
X41483239Y-39782977D02*
X41388001Y-39878215D01*
X41388001Y-39878215D02*
X41292763Y-39925834D01*
X100284096Y-73544881D02*
X100236477Y-73592501D01*
X100236477Y-73592501D02*
X100093620Y-73640120D01*
X100093620Y-73640120D02*
X99998382Y-73640120D01*
X99998382Y-73640120D02*
X99855525Y-73592501D01*
X99855525Y-73592501D02*
X99760287Y-73497262D01*
X99760287Y-73497262D02*
X99712668Y-73402024D01*
X99712668Y-73402024D02*
X99665049Y-73211548D01*
X99665049Y-73211548D02*
X99665049Y-73068691D01*
X99665049Y-73068691D02*
X99712668Y-72878215D01*
X99712668Y-72878215D02*
X99760287Y-72782977D01*
X99760287Y-72782977D02*
X99855525Y-72687739D01*
X99855525Y-72687739D02*
X99998382Y-72640120D01*
X99998382Y-72640120D02*
X100093620Y-72640120D01*
X100093620Y-72640120D02*
X100236477Y-72687739D01*
X100236477Y-72687739D02*
X100284096Y-72735358D01*
X100665049Y-72735358D02*
X100712668Y-72687739D01*
X100712668Y-72687739D02*
X100807906Y-72640120D01*
X100807906Y-72640120D02*
X101046001Y-72640120D01*
X101046001Y-72640120D02*
X101141239Y-72687739D01*
X101141239Y-72687739D02*
X101188858Y-72735358D01*
X101188858Y-72735358D02*
X101236477Y-72830596D01*
X101236477Y-72830596D02*
X101236477Y-72925834D01*
X101236477Y-72925834D02*
X101188858Y-73068691D01*
X101188858Y-73068691D02*
X100617430Y-73640120D01*
X100617430Y-73640120D02*
X101236477Y-73640120D01*
X102093620Y-72973453D02*
X102093620Y-73640120D01*
X101855525Y-72592501D02*
X101617430Y-73306786D01*
X101617430Y-73306786D02*
X102236477Y-73306786D01*
X54254819Y-51591666D02*
X53778628Y-51924999D01*
X54254819Y-52163094D02*
X53254819Y-52163094D01*
X53254819Y-52163094D02*
X53254819Y-51782142D01*
X53254819Y-51782142D02*
X53302438Y-51686904D01*
X53302438Y-51686904D02*
X53350057Y-51639285D01*
X53350057Y-51639285D02*
X53445295Y-51591666D01*
X53445295Y-51591666D02*
X53588152Y-51591666D01*
X53588152Y-51591666D02*
X53683390Y-51639285D01*
X53683390Y-51639285D02*
X53731009Y-51686904D01*
X53731009Y-51686904D02*
X53778628Y-51782142D01*
X53778628Y-51782142D02*
X53778628Y-52163094D01*
X53254819Y-51258332D02*
X53254819Y-50639285D01*
X53254819Y-50639285D02*
X53635771Y-50972618D01*
X53635771Y-50972618D02*
X53635771Y-50829761D01*
X53635771Y-50829761D02*
X53683390Y-50734523D01*
X53683390Y-50734523D02*
X53731009Y-50686904D01*
X53731009Y-50686904D02*
X53826247Y-50639285D01*
X53826247Y-50639285D02*
X54064342Y-50639285D01*
X54064342Y-50639285D02*
X54159580Y-50686904D01*
X54159580Y-50686904D02*
X54207200Y-50734523D01*
X54207200Y-50734523D02*
X54254819Y-50829761D01*
X54254819Y-50829761D02*
X54254819Y-51115475D01*
X54254819Y-51115475D02*
X54207200Y-51210713D01*
X54207200Y-51210713D02*
X54159580Y-51258332D01*
X40858296Y-50751967D02*
X40382105Y-51085300D01*
X40858296Y-51323395D02*
X39858296Y-51323395D01*
X39858296Y-51323395D02*
X39858296Y-50942443D01*
X39858296Y-50942443D02*
X39905915Y-50847205D01*
X39905915Y-50847205D02*
X39953534Y-50799586D01*
X39953534Y-50799586D02*
X40048772Y-50751967D01*
X40048772Y-50751967D02*
X40191629Y-50751967D01*
X40191629Y-50751967D02*
X40286867Y-50799586D01*
X40286867Y-50799586D02*
X40334486Y-50847205D01*
X40334486Y-50847205D02*
X40382105Y-50942443D01*
X40382105Y-50942443D02*
X40382105Y-51323395D01*
X39953534Y-50371014D02*
X39905915Y-50323395D01*
X39905915Y-50323395D02*
X39858296Y-50228157D01*
X39858296Y-50228157D02*
X39858296Y-49990062D01*
X39858296Y-49990062D02*
X39905915Y-49894824D01*
X39905915Y-49894824D02*
X39953534Y-49847205D01*
X39953534Y-49847205D02*
X40048772Y-49799586D01*
X40048772Y-49799586D02*
X40144010Y-49799586D01*
X40144010Y-49799586D02*
X40286867Y-49847205D01*
X40286867Y-49847205D02*
X40858296Y-50418633D01*
X40858296Y-50418633D02*
X40858296Y-49799586D01*
X54054819Y-49088094D02*
X53054819Y-49088094D01*
X53054819Y-49088094D02*
X53054819Y-48849999D01*
X53054819Y-48849999D02*
X53102438Y-48707142D01*
X53102438Y-48707142D02*
X53197676Y-48611904D01*
X53197676Y-48611904D02*
X53292914Y-48564285D01*
X53292914Y-48564285D02*
X53483390Y-48516666D01*
X53483390Y-48516666D02*
X53626247Y-48516666D01*
X53626247Y-48516666D02*
X53816723Y-48564285D01*
X53816723Y-48564285D02*
X53911961Y-48611904D01*
X53911961Y-48611904D02*
X54007200Y-48707142D01*
X54007200Y-48707142D02*
X54054819Y-48849999D01*
X54054819Y-48849999D02*
X54054819Y-49088094D01*
X54054819Y-47564285D02*
X54054819Y-48135713D01*
X54054819Y-47849999D02*
X53054819Y-47849999D01*
X53054819Y-47849999D02*
X53197676Y-47945237D01*
X53197676Y-47945237D02*
X53292914Y-48040475D01*
X53292914Y-48040475D02*
X53340533Y-48135713D01*
X34791572Y-91840120D02*
X34791572Y-90840120D01*
X34791572Y-91316310D02*
X35363000Y-91316310D01*
X35363000Y-91840120D02*
X35363000Y-90840120D01*
X35743953Y-90840120D02*
X36363000Y-90840120D01*
X36363000Y-90840120D02*
X36029667Y-91221072D01*
X36029667Y-91221072D02*
X36172524Y-91221072D01*
X36172524Y-91221072D02*
X36267762Y-91268691D01*
X36267762Y-91268691D02*
X36315381Y-91316310D01*
X36315381Y-91316310D02*
X36363000Y-91411548D01*
X36363000Y-91411548D02*
X36363000Y-91649643D01*
X36363000Y-91649643D02*
X36315381Y-91744881D01*
X36315381Y-91744881D02*
X36267762Y-91792501D01*
X36267762Y-91792501D02*
X36172524Y-91840120D01*
X36172524Y-91840120D02*
X35886810Y-91840120D01*
X35886810Y-91840120D02*
X35791572Y-91792501D01*
X35791572Y-91792501D02*
X35743953Y-91744881D01*
X93486534Y-61628158D02*
X93534154Y-61675777D01*
X93534154Y-61675777D02*
X93581773Y-61818634D01*
X93581773Y-61818634D02*
X93581773Y-61913872D01*
X93581773Y-61913872D02*
X93534154Y-62056729D01*
X93534154Y-62056729D02*
X93438915Y-62151967D01*
X93438915Y-62151967D02*
X93343677Y-62199586D01*
X93343677Y-62199586D02*
X93153201Y-62247205D01*
X93153201Y-62247205D02*
X93010344Y-62247205D01*
X93010344Y-62247205D02*
X92819868Y-62199586D01*
X92819868Y-62199586D02*
X92724630Y-62151967D01*
X92724630Y-62151967D02*
X92629392Y-62056729D01*
X92629392Y-62056729D02*
X92581773Y-61913872D01*
X92581773Y-61913872D02*
X92581773Y-61818634D01*
X92581773Y-61818634D02*
X92629392Y-61675777D01*
X92629392Y-61675777D02*
X92677011Y-61628158D01*
X92581773Y-61294824D02*
X92581773Y-60675777D01*
X92581773Y-60675777D02*
X92962725Y-61009110D01*
X92962725Y-61009110D02*
X92962725Y-60866253D01*
X92962725Y-60866253D02*
X93010344Y-60771015D01*
X93010344Y-60771015D02*
X93057963Y-60723396D01*
X93057963Y-60723396D02*
X93153201Y-60675777D01*
X93153201Y-60675777D02*
X93391296Y-60675777D01*
X93391296Y-60675777D02*
X93486534Y-60723396D01*
X93486534Y-60723396D02*
X93534154Y-60771015D01*
X93534154Y-60771015D02*
X93581773Y-60866253D01*
X93581773Y-60866253D02*
X93581773Y-61151967D01*
X93581773Y-61151967D02*
X93534154Y-61247205D01*
X93534154Y-61247205D02*
X93486534Y-61294824D01*
X92581773Y-60056729D02*
X92581773Y-59961491D01*
X92581773Y-59961491D02*
X92629392Y-59866253D01*
X92629392Y-59866253D02*
X92677011Y-59818634D01*
X92677011Y-59818634D02*
X92772249Y-59771015D01*
X92772249Y-59771015D02*
X92962725Y-59723396D01*
X92962725Y-59723396D02*
X93200820Y-59723396D01*
X93200820Y-59723396D02*
X93391296Y-59771015D01*
X93391296Y-59771015D02*
X93486534Y-59818634D01*
X93486534Y-59818634D02*
X93534154Y-59866253D01*
X93534154Y-59866253D02*
X93581773Y-59961491D01*
X93581773Y-59961491D02*
X93581773Y-60056729D01*
X93581773Y-60056729D02*
X93534154Y-60151967D01*
X93534154Y-60151967D02*
X93486534Y-60199586D01*
X93486534Y-60199586D02*
X93391296Y-60247205D01*
X93391296Y-60247205D02*
X93200820Y-60294824D01*
X93200820Y-60294824D02*
X92962725Y-60294824D01*
X92962725Y-60294824D02*
X92772249Y-60247205D01*
X92772249Y-60247205D02*
X92677011Y-60199586D01*
X92677011Y-60199586D02*
X92629392Y-60151967D01*
X92629392Y-60151967D02*
X92581773Y-60056729D01*
X45763057Y-51351967D02*
X45810677Y-51399586D01*
X45810677Y-51399586D02*
X45858296Y-51542443D01*
X45858296Y-51542443D02*
X45858296Y-51637681D01*
X45858296Y-51637681D02*
X45810677Y-51780538D01*
X45810677Y-51780538D02*
X45715438Y-51875776D01*
X45715438Y-51875776D02*
X45620200Y-51923395D01*
X45620200Y-51923395D02*
X45429724Y-51971014D01*
X45429724Y-51971014D02*
X45286867Y-51971014D01*
X45286867Y-51971014D02*
X45096391Y-51923395D01*
X45096391Y-51923395D02*
X45001153Y-51875776D01*
X45001153Y-51875776D02*
X44905915Y-51780538D01*
X44905915Y-51780538D02*
X44858296Y-51637681D01*
X44858296Y-51637681D02*
X44858296Y-51542443D01*
X44858296Y-51542443D02*
X44905915Y-51399586D01*
X44905915Y-51399586D02*
X44953534Y-51351967D01*
X45286867Y-50780538D02*
X45239248Y-50875776D01*
X45239248Y-50875776D02*
X45191629Y-50923395D01*
X45191629Y-50923395D02*
X45096391Y-50971014D01*
X45096391Y-50971014D02*
X45048772Y-50971014D01*
X45048772Y-50971014D02*
X44953534Y-50923395D01*
X44953534Y-50923395D02*
X44905915Y-50875776D01*
X44905915Y-50875776D02*
X44858296Y-50780538D01*
X44858296Y-50780538D02*
X44858296Y-50590062D01*
X44858296Y-50590062D02*
X44905915Y-50494824D01*
X44905915Y-50494824D02*
X44953534Y-50447205D01*
X44953534Y-50447205D02*
X45048772Y-50399586D01*
X45048772Y-50399586D02*
X45096391Y-50399586D01*
X45096391Y-50399586D02*
X45191629Y-50447205D01*
X45191629Y-50447205D02*
X45239248Y-50494824D01*
X45239248Y-50494824D02*
X45286867Y-50590062D01*
X45286867Y-50590062D02*
X45286867Y-50780538D01*
X45286867Y-50780538D02*
X45334486Y-50875776D01*
X45334486Y-50875776D02*
X45382105Y-50923395D01*
X45382105Y-50923395D02*
X45477343Y-50971014D01*
X45477343Y-50971014D02*
X45667819Y-50971014D01*
X45667819Y-50971014D02*
X45763057Y-50923395D01*
X45763057Y-50923395D02*
X45810677Y-50875776D01*
X45810677Y-50875776D02*
X45858296Y-50780538D01*
X45858296Y-50780538D02*
X45858296Y-50590062D01*
X45858296Y-50590062D02*
X45810677Y-50494824D01*
X45810677Y-50494824D02*
X45763057Y-50447205D01*
X45763057Y-50447205D02*
X45667819Y-50399586D01*
X45667819Y-50399586D02*
X45477343Y-50399586D01*
X45477343Y-50399586D02*
X45382105Y-50447205D01*
X45382105Y-50447205D02*
X45334486Y-50494824D01*
X45334486Y-50494824D02*
X45286867Y-50590062D01*
X33741572Y-53240120D02*
X34313000Y-53240120D01*
X34027286Y-54240120D02*
X34027286Y-53240120D01*
X34646334Y-54240120D02*
X34646334Y-53240120D01*
X34646334Y-53240120D02*
X35027286Y-53240120D01*
X35027286Y-53240120D02*
X35122524Y-53287739D01*
X35122524Y-53287739D02*
X35170143Y-53335358D01*
X35170143Y-53335358D02*
X35217762Y-53430596D01*
X35217762Y-53430596D02*
X35217762Y-53573453D01*
X35217762Y-53573453D02*
X35170143Y-53668691D01*
X35170143Y-53668691D02*
X35122524Y-53716310D01*
X35122524Y-53716310D02*
X35027286Y-53763929D01*
X35027286Y-53763929D02*
X34646334Y-53763929D01*
X35598715Y-53335358D02*
X35646334Y-53287739D01*
X35646334Y-53287739D02*
X35741572Y-53240120D01*
X35741572Y-53240120D02*
X35979667Y-53240120D01*
X35979667Y-53240120D02*
X36074905Y-53287739D01*
X36074905Y-53287739D02*
X36122524Y-53335358D01*
X36122524Y-53335358D02*
X36170143Y-53430596D01*
X36170143Y-53430596D02*
X36170143Y-53525834D01*
X36170143Y-53525834D02*
X36122524Y-53668691D01*
X36122524Y-53668691D02*
X35551096Y-54240120D01*
X35551096Y-54240120D02*
X36170143Y-54240120D01*
X103654819Y-42579166D02*
X103654819Y-43055356D01*
X103654819Y-43055356D02*
X102654819Y-43055356D01*
X102654819Y-41817261D02*
X102654819Y-42007737D01*
X102654819Y-42007737D02*
X102702438Y-42102975D01*
X102702438Y-42102975D02*
X102750057Y-42150594D01*
X102750057Y-42150594D02*
X102892914Y-42245832D01*
X102892914Y-42245832D02*
X103083390Y-42293451D01*
X103083390Y-42293451D02*
X103464342Y-42293451D01*
X103464342Y-42293451D02*
X103559580Y-42245832D01*
X103559580Y-42245832D02*
X103607200Y-42198213D01*
X103607200Y-42198213D02*
X103654819Y-42102975D01*
X103654819Y-42102975D02*
X103654819Y-41912499D01*
X103654819Y-41912499D02*
X103607200Y-41817261D01*
X103607200Y-41817261D02*
X103559580Y-41769642D01*
X103559580Y-41769642D02*
X103464342Y-41722023D01*
X103464342Y-41722023D02*
X103226247Y-41722023D01*
X103226247Y-41722023D02*
X103131009Y-41769642D01*
X103131009Y-41769642D02*
X103083390Y-41817261D01*
X103083390Y-41817261D02*
X103035771Y-41912499D01*
X103035771Y-41912499D02*
X103035771Y-42102975D01*
X103035771Y-42102975D02*
X103083390Y-42198213D01*
X103083390Y-42198213D02*
X103131009Y-42245832D01*
X103131009Y-42245832D02*
X103226247Y-42293451D01*
X93284096Y-71544881D02*
X93236477Y-71592501D01*
X93236477Y-71592501D02*
X93093620Y-71640120D01*
X93093620Y-71640120D02*
X92998382Y-71640120D01*
X92998382Y-71640120D02*
X92855525Y-71592501D01*
X92855525Y-71592501D02*
X92760287Y-71497262D01*
X92760287Y-71497262D02*
X92712668Y-71402024D01*
X92712668Y-71402024D02*
X92665049Y-71211548D01*
X92665049Y-71211548D02*
X92665049Y-71068691D01*
X92665049Y-71068691D02*
X92712668Y-70878215D01*
X92712668Y-70878215D02*
X92760287Y-70782977D01*
X92760287Y-70782977D02*
X92855525Y-70687739D01*
X92855525Y-70687739D02*
X92998382Y-70640120D01*
X92998382Y-70640120D02*
X93093620Y-70640120D01*
X93093620Y-70640120D02*
X93236477Y-70687739D01*
X93236477Y-70687739D02*
X93284096Y-70735358D01*
X93665049Y-70735358D02*
X93712668Y-70687739D01*
X93712668Y-70687739D02*
X93807906Y-70640120D01*
X93807906Y-70640120D02*
X94046001Y-70640120D01*
X94046001Y-70640120D02*
X94141239Y-70687739D01*
X94141239Y-70687739D02*
X94188858Y-70735358D01*
X94188858Y-70735358D02*
X94236477Y-70830596D01*
X94236477Y-70830596D02*
X94236477Y-70925834D01*
X94236477Y-70925834D02*
X94188858Y-71068691D01*
X94188858Y-71068691D02*
X93617430Y-71640120D01*
X93617430Y-71640120D02*
X94236477Y-71640120D01*
X95188858Y-71640120D02*
X94617430Y-71640120D01*
X94903144Y-71640120D02*
X94903144Y-70640120D01*
X94903144Y-70640120D02*
X94807906Y-70782977D01*
X94807906Y-70782977D02*
X94712668Y-70878215D01*
X94712668Y-70878215D02*
X94617430Y-70925834D01*
X53941572Y-55040120D02*
X54513000Y-55040120D01*
X54227286Y-56040120D02*
X54227286Y-55040120D01*
X54846334Y-56040120D02*
X54846334Y-55040120D01*
X54846334Y-55040120D02*
X55227286Y-55040120D01*
X55227286Y-55040120D02*
X55322524Y-55087739D01*
X55322524Y-55087739D02*
X55370143Y-55135358D01*
X55370143Y-55135358D02*
X55417762Y-55230596D01*
X55417762Y-55230596D02*
X55417762Y-55373453D01*
X55417762Y-55373453D02*
X55370143Y-55468691D01*
X55370143Y-55468691D02*
X55322524Y-55516310D01*
X55322524Y-55516310D02*
X55227286Y-55563929D01*
X55227286Y-55563929D02*
X54846334Y-55563929D01*
X55751096Y-55040120D02*
X56370143Y-55040120D01*
X56370143Y-55040120D02*
X56036810Y-55421072D01*
X56036810Y-55421072D02*
X56179667Y-55421072D01*
X56179667Y-55421072D02*
X56274905Y-55468691D01*
X56274905Y-55468691D02*
X56322524Y-55516310D01*
X56322524Y-55516310D02*
X56370143Y-55611548D01*
X56370143Y-55611548D02*
X56370143Y-55849643D01*
X56370143Y-55849643D02*
X56322524Y-55944881D01*
X56322524Y-55944881D02*
X56274905Y-55992501D01*
X56274905Y-55992501D02*
X56179667Y-56040120D01*
X56179667Y-56040120D02*
X55893953Y-56040120D01*
X55893953Y-56040120D02*
X55798715Y-55992501D01*
X55798715Y-55992501D02*
X55751096Y-55944881D01*
X103584580Y-39970021D02*
X103632200Y-40017640D01*
X103632200Y-40017640D02*
X103679819Y-40160497D01*
X103679819Y-40160497D02*
X103679819Y-40255735D01*
X103679819Y-40255735D02*
X103632200Y-40398592D01*
X103632200Y-40398592D02*
X103536961Y-40493830D01*
X103536961Y-40493830D02*
X103441723Y-40541449D01*
X103441723Y-40541449D02*
X103251247Y-40589068D01*
X103251247Y-40589068D02*
X103108390Y-40589068D01*
X103108390Y-40589068D02*
X102917914Y-40541449D01*
X102917914Y-40541449D02*
X102822676Y-40493830D01*
X102822676Y-40493830D02*
X102727438Y-40398592D01*
X102727438Y-40398592D02*
X102679819Y-40255735D01*
X102679819Y-40255735D02*
X102679819Y-40160497D01*
X102679819Y-40160497D02*
X102727438Y-40017640D01*
X102727438Y-40017640D02*
X102775057Y-39970021D01*
X102775057Y-39589068D02*
X102727438Y-39541449D01*
X102727438Y-39541449D02*
X102679819Y-39446211D01*
X102679819Y-39446211D02*
X102679819Y-39208116D01*
X102679819Y-39208116D02*
X102727438Y-39112878D01*
X102727438Y-39112878D02*
X102775057Y-39065259D01*
X102775057Y-39065259D02*
X102870295Y-39017640D01*
X102870295Y-39017640D02*
X102965533Y-39017640D01*
X102965533Y-39017640D02*
X103108390Y-39065259D01*
X103108390Y-39065259D02*
X103679819Y-39636687D01*
X103679819Y-39636687D02*
X103679819Y-39017640D01*
X102679819Y-38684306D02*
X102679819Y-38065259D01*
X102679819Y-38065259D02*
X103060771Y-38398592D01*
X103060771Y-38398592D02*
X103060771Y-38255735D01*
X103060771Y-38255735D02*
X103108390Y-38160497D01*
X103108390Y-38160497D02*
X103156009Y-38112878D01*
X103156009Y-38112878D02*
X103251247Y-38065259D01*
X103251247Y-38065259D02*
X103489342Y-38065259D01*
X103489342Y-38065259D02*
X103584580Y-38112878D01*
X103584580Y-38112878D02*
X103632200Y-38160497D01*
X103632200Y-38160497D02*
X103679819Y-38255735D01*
X103679819Y-38255735D02*
X103679819Y-38541449D01*
X103679819Y-38541449D02*
X103632200Y-38636687D01*
X103632200Y-38636687D02*
X103584580Y-38684306D01*
X100284096Y-71544881D02*
X100236477Y-71592501D01*
X100236477Y-71592501D02*
X100093620Y-71640120D01*
X100093620Y-71640120D02*
X99998382Y-71640120D01*
X99998382Y-71640120D02*
X99855525Y-71592501D01*
X99855525Y-71592501D02*
X99760287Y-71497262D01*
X99760287Y-71497262D02*
X99712668Y-71402024D01*
X99712668Y-71402024D02*
X99665049Y-71211548D01*
X99665049Y-71211548D02*
X99665049Y-71068691D01*
X99665049Y-71068691D02*
X99712668Y-70878215D01*
X99712668Y-70878215D02*
X99760287Y-70782977D01*
X99760287Y-70782977D02*
X99855525Y-70687739D01*
X99855525Y-70687739D02*
X99998382Y-70640120D01*
X99998382Y-70640120D02*
X100093620Y-70640120D01*
X100093620Y-70640120D02*
X100236477Y-70687739D01*
X100236477Y-70687739D02*
X100284096Y-70735358D01*
X100665049Y-70735358D02*
X100712668Y-70687739D01*
X100712668Y-70687739D02*
X100807906Y-70640120D01*
X100807906Y-70640120D02*
X101046001Y-70640120D01*
X101046001Y-70640120D02*
X101141239Y-70687739D01*
X101141239Y-70687739D02*
X101188858Y-70735358D01*
X101188858Y-70735358D02*
X101236477Y-70830596D01*
X101236477Y-70830596D02*
X101236477Y-70925834D01*
X101236477Y-70925834D02*
X101188858Y-71068691D01*
X101188858Y-71068691D02*
X100617430Y-71640120D01*
X100617430Y-71640120D02*
X101236477Y-71640120D01*
X102141239Y-70640120D02*
X101665049Y-70640120D01*
X101665049Y-70640120D02*
X101617430Y-71116310D01*
X101617430Y-71116310D02*
X101665049Y-71068691D01*
X101665049Y-71068691D02*
X101760287Y-71021072D01*
X101760287Y-71021072D02*
X101998382Y-71021072D01*
X101998382Y-71021072D02*
X102093620Y-71068691D01*
X102093620Y-71068691D02*
X102141239Y-71116310D01*
X102141239Y-71116310D02*
X102188858Y-71211548D01*
X102188858Y-71211548D02*
X102188858Y-71449643D01*
X102188858Y-71449643D02*
X102141239Y-71544881D01*
X102141239Y-71544881D02*
X102093620Y-71592501D01*
X102093620Y-71592501D02*
X101998382Y-71640120D01*
X101998382Y-71640120D02*
X101760287Y-71640120D01*
X101760287Y-71640120D02*
X101665049Y-71592501D01*
X101665049Y-71592501D02*
X101617430Y-71544881D01*
X88671835Y-54824681D02*
X88719455Y-54872300D01*
X88719455Y-54872300D02*
X88767074Y-55015157D01*
X88767074Y-55015157D02*
X88767074Y-55110395D01*
X88767074Y-55110395D02*
X88719455Y-55253252D01*
X88719455Y-55253252D02*
X88624216Y-55348490D01*
X88624216Y-55348490D02*
X88528978Y-55396109D01*
X88528978Y-55396109D02*
X88338502Y-55443728D01*
X88338502Y-55443728D02*
X88195645Y-55443728D01*
X88195645Y-55443728D02*
X88005169Y-55396109D01*
X88005169Y-55396109D02*
X87909931Y-55348490D01*
X87909931Y-55348490D02*
X87814693Y-55253252D01*
X87814693Y-55253252D02*
X87767074Y-55110395D01*
X87767074Y-55110395D02*
X87767074Y-55015157D01*
X87767074Y-55015157D02*
X87814693Y-54872300D01*
X87814693Y-54872300D02*
X87862312Y-54824681D01*
X87862312Y-54443728D02*
X87814693Y-54396109D01*
X87814693Y-54396109D02*
X87767074Y-54300871D01*
X87767074Y-54300871D02*
X87767074Y-54062776D01*
X87767074Y-54062776D02*
X87814693Y-53967538D01*
X87814693Y-53967538D02*
X87862312Y-53919919D01*
X87862312Y-53919919D02*
X87957550Y-53872300D01*
X87957550Y-53872300D02*
X88052788Y-53872300D01*
X88052788Y-53872300D02*
X88195645Y-53919919D01*
X88195645Y-53919919D02*
X88767074Y-54491347D01*
X88767074Y-54491347D02*
X88767074Y-53872300D01*
X87767074Y-53015157D02*
X87767074Y-53205633D01*
X87767074Y-53205633D02*
X87814693Y-53300871D01*
X87814693Y-53300871D02*
X87862312Y-53348490D01*
X87862312Y-53348490D02*
X88005169Y-53443728D01*
X88005169Y-53443728D02*
X88195645Y-53491347D01*
X88195645Y-53491347D02*
X88576597Y-53491347D01*
X88576597Y-53491347D02*
X88671835Y-53443728D01*
X88671835Y-53443728D02*
X88719455Y-53396109D01*
X88719455Y-53396109D02*
X88767074Y-53300871D01*
X88767074Y-53300871D02*
X88767074Y-53110395D01*
X88767074Y-53110395D02*
X88719455Y-53015157D01*
X88719455Y-53015157D02*
X88671835Y-52967538D01*
X88671835Y-52967538D02*
X88576597Y-52919919D01*
X88576597Y-52919919D02*
X88338502Y-52919919D01*
X88338502Y-52919919D02*
X88243264Y-52967538D01*
X88243264Y-52967538D02*
X88195645Y-53015157D01*
X88195645Y-53015157D02*
X88148026Y-53110395D01*
X88148026Y-53110395D02*
X88148026Y-53300871D01*
X88148026Y-53300871D02*
X88195645Y-53396109D01*
X88195645Y-53396109D02*
X88243264Y-53443728D01*
X88243264Y-53443728D02*
X88338502Y-53491347D01*
X81757142Y-33659580D02*
X81709523Y-33707200D01*
X81709523Y-33707200D02*
X81566666Y-33754819D01*
X81566666Y-33754819D02*
X81471428Y-33754819D01*
X81471428Y-33754819D02*
X81328571Y-33707200D01*
X81328571Y-33707200D02*
X81233333Y-33611961D01*
X81233333Y-33611961D02*
X81185714Y-33516723D01*
X81185714Y-33516723D02*
X81138095Y-33326247D01*
X81138095Y-33326247D02*
X81138095Y-33183390D01*
X81138095Y-33183390D02*
X81185714Y-32992914D01*
X81185714Y-32992914D02*
X81233333Y-32897676D01*
X81233333Y-32897676D02*
X81328571Y-32802438D01*
X81328571Y-32802438D02*
X81471428Y-32754819D01*
X81471428Y-32754819D02*
X81566666Y-32754819D01*
X81566666Y-32754819D02*
X81709523Y-32802438D01*
X81709523Y-32802438D02*
X81757142Y-32850057D01*
X82709523Y-33754819D02*
X82138095Y-33754819D01*
X82423809Y-33754819D02*
X82423809Y-32754819D01*
X82423809Y-32754819D02*
X82328571Y-32897676D01*
X82328571Y-32897676D02*
X82233333Y-32992914D01*
X82233333Y-32992914D02*
X82138095Y-33040533D01*
X83042857Y-32754819D02*
X83709523Y-32754819D01*
X83709523Y-32754819D02*
X83280952Y-33754819D01*
X49786684Y-65944881D02*
X49739065Y-65992501D01*
X49739065Y-65992501D02*
X49596208Y-66040120D01*
X49596208Y-66040120D02*
X49500970Y-66040120D01*
X49500970Y-66040120D02*
X49358113Y-65992501D01*
X49358113Y-65992501D02*
X49262875Y-65897262D01*
X49262875Y-65897262D02*
X49215256Y-65802024D01*
X49215256Y-65802024D02*
X49167637Y-65611548D01*
X49167637Y-65611548D02*
X49167637Y-65468691D01*
X49167637Y-65468691D02*
X49215256Y-65278215D01*
X49215256Y-65278215D02*
X49262875Y-65182977D01*
X49262875Y-65182977D02*
X49358113Y-65087739D01*
X49358113Y-65087739D02*
X49500970Y-65040120D01*
X49500970Y-65040120D02*
X49596208Y-65040120D01*
X49596208Y-65040120D02*
X49739065Y-65087739D01*
X49739065Y-65087739D02*
X49786684Y-65135358D01*
X50739065Y-66040120D02*
X50167637Y-66040120D01*
X50453351Y-66040120D02*
X50453351Y-65040120D01*
X50453351Y-65040120D02*
X50358113Y-65182977D01*
X50358113Y-65182977D02*
X50262875Y-65278215D01*
X50262875Y-65278215D02*
X50167637Y-65325834D01*
X51358113Y-65040120D02*
X51453351Y-65040120D01*
X51453351Y-65040120D02*
X51548589Y-65087739D01*
X51548589Y-65087739D02*
X51596208Y-65135358D01*
X51596208Y-65135358D02*
X51643827Y-65230596D01*
X51643827Y-65230596D02*
X51691446Y-65421072D01*
X51691446Y-65421072D02*
X51691446Y-65659167D01*
X51691446Y-65659167D02*
X51643827Y-65849643D01*
X51643827Y-65849643D02*
X51596208Y-65944881D01*
X51596208Y-65944881D02*
X51548589Y-65992501D01*
X51548589Y-65992501D02*
X51453351Y-66040120D01*
X51453351Y-66040120D02*
X51358113Y-66040120D01*
X51358113Y-66040120D02*
X51262875Y-65992501D01*
X51262875Y-65992501D02*
X51215256Y-65944881D01*
X51215256Y-65944881D02*
X51167637Y-65849643D01*
X51167637Y-65849643D02*
X51120018Y-65659167D01*
X51120018Y-65659167D02*
X51120018Y-65421072D01*
X51120018Y-65421072D02*
X51167637Y-65230596D01*
X51167637Y-65230596D02*
X51215256Y-65135358D01*
X51215256Y-65135358D02*
X51262875Y-65087739D01*
X51262875Y-65087739D02*
X51358113Y-65040120D01*
D11*
X95563714Y-45159619D02*
X95563714Y-43889619D01*
X96894191Y-45038666D02*
X96833715Y-45099143D01*
X96833715Y-45099143D02*
X96652286Y-45159619D01*
X96652286Y-45159619D02*
X96531334Y-45159619D01*
X96531334Y-45159619D02*
X96349905Y-45099143D01*
X96349905Y-45099143D02*
X96228953Y-44978190D01*
X96228953Y-44978190D02*
X96168476Y-44857238D01*
X96168476Y-44857238D02*
X96108000Y-44615333D01*
X96108000Y-44615333D02*
X96108000Y-44433904D01*
X96108000Y-44433904D02*
X96168476Y-44192000D01*
X96168476Y-44192000D02*
X96228953Y-44071047D01*
X96228953Y-44071047D02*
X96349905Y-43950095D01*
X96349905Y-43950095D02*
X96531334Y-43889619D01*
X96531334Y-43889619D02*
X96652286Y-43889619D01*
X96652286Y-43889619D02*
X96833715Y-43950095D01*
X96833715Y-43950095D02*
X96894191Y-44010571D01*
X97317524Y-43889619D02*
X98103715Y-43889619D01*
X98103715Y-43889619D02*
X97680381Y-44373428D01*
X97680381Y-44373428D02*
X97861810Y-44373428D01*
X97861810Y-44373428D02*
X97982762Y-44433904D01*
X97982762Y-44433904D02*
X98043238Y-44494381D01*
X98043238Y-44494381D02*
X98103715Y-44615333D01*
X98103715Y-44615333D02*
X98103715Y-44917714D01*
X98103715Y-44917714D02*
X98043238Y-45038666D01*
X98043238Y-45038666D02*
X97982762Y-45099143D01*
X97982762Y-45099143D02*
X97861810Y-45159619D01*
X97861810Y-45159619D02*
X97498953Y-45159619D01*
X97498953Y-45159619D02*
X97378000Y-45099143D01*
X97378000Y-45099143D02*
X97317524Y-45038666D01*
D10*
X83357142Y-42159580D02*
X83309523Y-42207200D01*
X83309523Y-42207200D02*
X83166666Y-42254819D01*
X83166666Y-42254819D02*
X83071428Y-42254819D01*
X83071428Y-42254819D02*
X82928571Y-42207200D01*
X82928571Y-42207200D02*
X82833333Y-42111961D01*
X82833333Y-42111961D02*
X82785714Y-42016723D01*
X82785714Y-42016723D02*
X82738095Y-41826247D01*
X82738095Y-41826247D02*
X82738095Y-41683390D01*
X82738095Y-41683390D02*
X82785714Y-41492914D01*
X82785714Y-41492914D02*
X82833333Y-41397676D01*
X82833333Y-41397676D02*
X82928571Y-41302438D01*
X82928571Y-41302438D02*
X83071428Y-41254819D01*
X83071428Y-41254819D02*
X83166666Y-41254819D01*
X83166666Y-41254819D02*
X83309523Y-41302438D01*
X83309523Y-41302438D02*
X83357142Y-41350057D01*
X84309523Y-42254819D02*
X83738095Y-42254819D01*
X84023809Y-42254819D02*
X84023809Y-41254819D01*
X84023809Y-41254819D02*
X83928571Y-41397676D01*
X83928571Y-41397676D02*
X83833333Y-41492914D01*
X83833333Y-41492914D02*
X83738095Y-41540533D01*
X85166666Y-41254819D02*
X84976190Y-41254819D01*
X84976190Y-41254819D02*
X84880952Y-41302438D01*
X84880952Y-41302438D02*
X84833333Y-41350057D01*
X84833333Y-41350057D02*
X84738095Y-41492914D01*
X84738095Y-41492914D02*
X84690476Y-41683390D01*
X84690476Y-41683390D02*
X84690476Y-42064342D01*
X84690476Y-42064342D02*
X84738095Y-42159580D01*
X84738095Y-42159580D02*
X84785714Y-42207200D01*
X84785714Y-42207200D02*
X84880952Y-42254819D01*
X84880952Y-42254819D02*
X85071428Y-42254819D01*
X85071428Y-42254819D02*
X85166666Y-42207200D01*
X85166666Y-42207200D02*
X85214285Y-42159580D01*
X85214285Y-42159580D02*
X85261904Y-42064342D01*
X85261904Y-42064342D02*
X85261904Y-41826247D01*
X85261904Y-41826247D02*
X85214285Y-41731009D01*
X85214285Y-41731009D02*
X85166666Y-41683390D01*
X85166666Y-41683390D02*
X85071428Y-41635771D01*
X85071428Y-41635771D02*
X84880952Y-41635771D01*
X84880952Y-41635771D02*
X84785714Y-41683390D01*
X84785714Y-41683390D02*
X84738095Y-41731009D01*
X84738095Y-41731009D02*
X84690476Y-41826247D01*
X49786684Y-67744881D02*
X49739065Y-67792501D01*
X49739065Y-67792501D02*
X49596208Y-67840120D01*
X49596208Y-67840120D02*
X49500970Y-67840120D01*
X49500970Y-67840120D02*
X49358113Y-67792501D01*
X49358113Y-67792501D02*
X49262875Y-67697262D01*
X49262875Y-67697262D02*
X49215256Y-67602024D01*
X49215256Y-67602024D02*
X49167637Y-67411548D01*
X49167637Y-67411548D02*
X49167637Y-67268691D01*
X49167637Y-67268691D02*
X49215256Y-67078215D01*
X49215256Y-67078215D02*
X49262875Y-66982977D01*
X49262875Y-66982977D02*
X49358113Y-66887739D01*
X49358113Y-66887739D02*
X49500970Y-66840120D01*
X49500970Y-66840120D02*
X49596208Y-66840120D01*
X49596208Y-66840120D02*
X49739065Y-66887739D01*
X49739065Y-66887739D02*
X49786684Y-66935358D01*
X50120018Y-66840120D02*
X50786684Y-66840120D01*
X50786684Y-66840120D02*
X50358113Y-67840120D01*
X107791572Y-91840120D02*
X107791572Y-90840120D01*
X107791572Y-91316310D02*
X108363000Y-91316310D01*
X108363000Y-91840120D02*
X108363000Y-90840120D01*
X109267762Y-91173453D02*
X109267762Y-91840120D01*
X109029667Y-90792501D02*
X108791572Y-91506786D01*
X108791572Y-91506786D02*
X109410619Y-91506786D01*
X99086534Y-69102750D02*
X99134154Y-69150369D01*
X99134154Y-69150369D02*
X99181773Y-69293226D01*
X99181773Y-69293226D02*
X99181773Y-69388464D01*
X99181773Y-69388464D02*
X99134154Y-69531321D01*
X99134154Y-69531321D02*
X99038915Y-69626559D01*
X99038915Y-69626559D02*
X98943677Y-69674178D01*
X98943677Y-69674178D02*
X98753201Y-69721797D01*
X98753201Y-69721797D02*
X98610344Y-69721797D01*
X98610344Y-69721797D02*
X98419868Y-69674178D01*
X98419868Y-69674178D02*
X98324630Y-69626559D01*
X98324630Y-69626559D02*
X98229392Y-69531321D01*
X98229392Y-69531321D02*
X98181773Y-69388464D01*
X98181773Y-69388464D02*
X98181773Y-69293226D01*
X98181773Y-69293226D02*
X98229392Y-69150369D01*
X98229392Y-69150369D02*
X98277011Y-69102750D01*
X98277011Y-68721797D02*
X98229392Y-68674178D01*
X98229392Y-68674178D02*
X98181773Y-68578940D01*
X98181773Y-68578940D02*
X98181773Y-68340845D01*
X98181773Y-68340845D02*
X98229392Y-68245607D01*
X98229392Y-68245607D02*
X98277011Y-68197988D01*
X98277011Y-68197988D02*
X98372249Y-68150369D01*
X98372249Y-68150369D02*
X98467487Y-68150369D01*
X98467487Y-68150369D02*
X98610344Y-68197988D01*
X98610344Y-68197988D02*
X99181773Y-68769416D01*
X99181773Y-68769416D02*
X99181773Y-68150369D01*
X98610344Y-67578940D02*
X98562725Y-67674178D01*
X98562725Y-67674178D02*
X98515106Y-67721797D01*
X98515106Y-67721797D02*
X98419868Y-67769416D01*
X98419868Y-67769416D02*
X98372249Y-67769416D01*
X98372249Y-67769416D02*
X98277011Y-67721797D01*
X98277011Y-67721797D02*
X98229392Y-67674178D01*
X98229392Y-67674178D02*
X98181773Y-67578940D01*
X98181773Y-67578940D02*
X98181773Y-67388464D01*
X98181773Y-67388464D02*
X98229392Y-67293226D01*
X98229392Y-67293226D02*
X98277011Y-67245607D01*
X98277011Y-67245607D02*
X98372249Y-67197988D01*
X98372249Y-67197988D02*
X98419868Y-67197988D01*
X98419868Y-67197988D02*
X98515106Y-67245607D01*
X98515106Y-67245607D02*
X98562725Y-67293226D01*
X98562725Y-67293226D02*
X98610344Y-67388464D01*
X98610344Y-67388464D02*
X98610344Y-67578940D01*
X98610344Y-67578940D02*
X98657963Y-67674178D01*
X98657963Y-67674178D02*
X98705582Y-67721797D01*
X98705582Y-67721797D02*
X98800820Y-67769416D01*
X98800820Y-67769416D02*
X98991296Y-67769416D01*
X98991296Y-67769416D02*
X99086534Y-67721797D01*
X99086534Y-67721797D02*
X99134154Y-67674178D01*
X99134154Y-67674178D02*
X99181773Y-67578940D01*
X99181773Y-67578940D02*
X99181773Y-67388464D01*
X99181773Y-67388464D02*
X99134154Y-67293226D01*
X99134154Y-67293226D02*
X99086534Y-67245607D01*
X99086534Y-67245607D02*
X98991296Y-67197988D01*
X98991296Y-67197988D02*
X98800820Y-67197988D01*
X98800820Y-67197988D02*
X98705582Y-67245607D01*
X98705582Y-67245607D02*
X98657963Y-67293226D01*
X98657963Y-67293226D02*
X98610344Y-67388464D01*
D11*
X72062619Y-47294381D02*
X71639285Y-47294381D01*
X71639285Y-47959619D02*
X71639285Y-46689619D01*
X71639285Y-46689619D02*
X72244047Y-46689619D01*
X73332618Y-47959619D02*
X72727856Y-47959619D01*
X72727856Y-47959619D02*
X72727856Y-46689619D01*
X73695475Y-46810571D02*
X73755951Y-46750095D01*
X73755951Y-46750095D02*
X73876904Y-46689619D01*
X73876904Y-46689619D02*
X74179285Y-46689619D01*
X74179285Y-46689619D02*
X74300237Y-46750095D01*
X74300237Y-46750095D02*
X74360713Y-46810571D01*
X74360713Y-46810571D02*
X74421190Y-46931523D01*
X74421190Y-46931523D02*
X74421190Y-47052476D01*
X74421190Y-47052476D02*
X74360713Y-47233904D01*
X74360713Y-47233904D02*
X73634999Y-47959619D01*
X73634999Y-47959619D02*
X74421190Y-47959619D01*
D10*
X52013057Y-74376967D02*
X52060677Y-74424586D01*
X52060677Y-74424586D02*
X52108296Y-74567443D01*
X52108296Y-74567443D02*
X52108296Y-74662681D01*
X52108296Y-74662681D02*
X52060677Y-74805538D01*
X52060677Y-74805538D02*
X51965438Y-74900776D01*
X51965438Y-74900776D02*
X51870200Y-74948395D01*
X51870200Y-74948395D02*
X51679724Y-74996014D01*
X51679724Y-74996014D02*
X51536867Y-74996014D01*
X51536867Y-74996014D02*
X51346391Y-74948395D01*
X51346391Y-74948395D02*
X51251153Y-74900776D01*
X51251153Y-74900776D02*
X51155915Y-74805538D01*
X51155915Y-74805538D02*
X51108296Y-74662681D01*
X51108296Y-74662681D02*
X51108296Y-74567443D01*
X51108296Y-74567443D02*
X51155915Y-74424586D01*
X51155915Y-74424586D02*
X51203534Y-74376967D01*
X51203534Y-73996014D02*
X51155915Y-73948395D01*
X51155915Y-73948395D02*
X51108296Y-73853157D01*
X51108296Y-73853157D02*
X51108296Y-73615062D01*
X51108296Y-73615062D02*
X51155915Y-73519824D01*
X51155915Y-73519824D02*
X51203534Y-73472205D01*
X51203534Y-73472205D02*
X51298772Y-73424586D01*
X51298772Y-73424586D02*
X51394010Y-73424586D01*
X51394010Y-73424586D02*
X51536867Y-73472205D01*
X51536867Y-73472205D02*
X52108296Y-74043633D01*
X52108296Y-74043633D02*
X52108296Y-73424586D01*
X48141572Y-49092120D02*
X48713000Y-49092120D01*
X48427286Y-50092120D02*
X48427286Y-49092120D01*
X49046334Y-50092120D02*
X49046334Y-49092120D01*
X49046334Y-49092120D02*
X49427286Y-49092120D01*
X49427286Y-49092120D02*
X49522524Y-49139739D01*
X49522524Y-49139739D02*
X49570143Y-49187358D01*
X49570143Y-49187358D02*
X49617762Y-49282596D01*
X49617762Y-49282596D02*
X49617762Y-49425453D01*
X49617762Y-49425453D02*
X49570143Y-49520691D01*
X49570143Y-49520691D02*
X49522524Y-49568310D01*
X49522524Y-49568310D02*
X49427286Y-49615929D01*
X49427286Y-49615929D02*
X49046334Y-49615929D01*
X50474905Y-49425453D02*
X50474905Y-50092120D01*
X50236810Y-49044501D02*
X49998715Y-49758786D01*
X49998715Y-49758786D02*
X50617762Y-49758786D01*
X88686534Y-58028158D02*
X88734154Y-58075777D01*
X88734154Y-58075777D02*
X88781773Y-58218634D01*
X88781773Y-58218634D02*
X88781773Y-58313872D01*
X88781773Y-58313872D02*
X88734154Y-58456729D01*
X88734154Y-58456729D02*
X88638915Y-58551967D01*
X88638915Y-58551967D02*
X88543677Y-58599586D01*
X88543677Y-58599586D02*
X88353201Y-58647205D01*
X88353201Y-58647205D02*
X88210344Y-58647205D01*
X88210344Y-58647205D02*
X88019868Y-58599586D01*
X88019868Y-58599586D02*
X87924630Y-58551967D01*
X87924630Y-58551967D02*
X87829392Y-58456729D01*
X87829392Y-58456729D02*
X87781773Y-58313872D01*
X87781773Y-58313872D02*
X87781773Y-58218634D01*
X87781773Y-58218634D02*
X87829392Y-58075777D01*
X87829392Y-58075777D02*
X87877011Y-58028158D01*
X87877011Y-57647205D02*
X87829392Y-57599586D01*
X87829392Y-57599586D02*
X87781773Y-57504348D01*
X87781773Y-57504348D02*
X87781773Y-57266253D01*
X87781773Y-57266253D02*
X87829392Y-57171015D01*
X87829392Y-57171015D02*
X87877011Y-57123396D01*
X87877011Y-57123396D02*
X87972249Y-57075777D01*
X87972249Y-57075777D02*
X88067487Y-57075777D01*
X88067487Y-57075777D02*
X88210344Y-57123396D01*
X88210344Y-57123396D02*
X88781773Y-57694824D01*
X88781773Y-57694824D02*
X88781773Y-57075777D01*
X88781773Y-56599586D02*
X88781773Y-56409110D01*
X88781773Y-56409110D02*
X88734154Y-56313872D01*
X88734154Y-56313872D02*
X88686534Y-56266253D01*
X88686534Y-56266253D02*
X88543677Y-56171015D01*
X88543677Y-56171015D02*
X88353201Y-56123396D01*
X88353201Y-56123396D02*
X87972249Y-56123396D01*
X87972249Y-56123396D02*
X87877011Y-56171015D01*
X87877011Y-56171015D02*
X87829392Y-56218634D01*
X87829392Y-56218634D02*
X87781773Y-56313872D01*
X87781773Y-56313872D02*
X87781773Y-56504348D01*
X87781773Y-56504348D02*
X87829392Y-56599586D01*
X87829392Y-56599586D02*
X87877011Y-56647205D01*
X87877011Y-56647205D02*
X87972249Y-56694824D01*
X87972249Y-56694824D02*
X88210344Y-56694824D01*
X88210344Y-56694824D02*
X88305582Y-56647205D01*
X88305582Y-56647205D02*
X88353201Y-56599586D01*
X88353201Y-56599586D02*
X88400820Y-56504348D01*
X88400820Y-56504348D02*
X88400820Y-56313872D01*
X88400820Y-56313872D02*
X88353201Y-56218634D01*
X88353201Y-56218634D02*
X88305582Y-56171015D01*
X88305582Y-56171015D02*
X88210344Y-56123396D01*
X104760619Y-46344881D02*
X104713000Y-46392501D01*
X104713000Y-46392501D02*
X104570143Y-46440120D01*
X104570143Y-46440120D02*
X104474905Y-46440120D01*
X104474905Y-46440120D02*
X104332048Y-46392501D01*
X104332048Y-46392501D02*
X104236810Y-46297262D01*
X104236810Y-46297262D02*
X104189191Y-46202024D01*
X104189191Y-46202024D02*
X104141572Y-46011548D01*
X104141572Y-46011548D02*
X104141572Y-45868691D01*
X104141572Y-45868691D02*
X104189191Y-45678215D01*
X104189191Y-45678215D02*
X104236810Y-45582977D01*
X104236810Y-45582977D02*
X104332048Y-45487739D01*
X104332048Y-45487739D02*
X104474905Y-45440120D01*
X104474905Y-45440120D02*
X104570143Y-45440120D01*
X104570143Y-45440120D02*
X104713000Y-45487739D01*
X104713000Y-45487739D02*
X104760619Y-45535358D01*
X105141572Y-45535358D02*
X105189191Y-45487739D01*
X105189191Y-45487739D02*
X105284429Y-45440120D01*
X105284429Y-45440120D02*
X105522524Y-45440120D01*
X105522524Y-45440120D02*
X105617762Y-45487739D01*
X105617762Y-45487739D02*
X105665381Y-45535358D01*
X105665381Y-45535358D02*
X105713000Y-45630596D01*
X105713000Y-45630596D02*
X105713000Y-45725834D01*
X105713000Y-45725834D02*
X105665381Y-45868691D01*
X105665381Y-45868691D02*
X105093953Y-46440120D01*
X105093953Y-46440120D02*
X105713000Y-46440120D01*
X106046334Y-45440120D02*
X106713000Y-45440120D01*
X106713000Y-45440120D02*
X106284429Y-46440120D01*
X69160619Y-55944881D02*
X69113000Y-55992501D01*
X69113000Y-55992501D02*
X68970143Y-56040120D01*
X68970143Y-56040120D02*
X68874905Y-56040120D01*
X68874905Y-56040120D02*
X68732048Y-55992501D01*
X68732048Y-55992501D02*
X68636810Y-55897262D01*
X68636810Y-55897262D02*
X68589191Y-55802024D01*
X68589191Y-55802024D02*
X68541572Y-55611548D01*
X68541572Y-55611548D02*
X68541572Y-55468691D01*
X68541572Y-55468691D02*
X68589191Y-55278215D01*
X68589191Y-55278215D02*
X68636810Y-55182977D01*
X68636810Y-55182977D02*
X68732048Y-55087739D01*
X68732048Y-55087739D02*
X68874905Y-55040120D01*
X68874905Y-55040120D02*
X68970143Y-55040120D01*
X68970143Y-55040120D02*
X69113000Y-55087739D01*
X69113000Y-55087739D02*
X69160619Y-55135358D01*
X70113000Y-56040120D02*
X69541572Y-56040120D01*
X69827286Y-56040120D02*
X69827286Y-55040120D01*
X69827286Y-55040120D02*
X69732048Y-55182977D01*
X69732048Y-55182977D02*
X69636810Y-55278215D01*
X69636810Y-55278215D02*
X69541572Y-55325834D01*
X70970143Y-55373453D02*
X70970143Y-56040120D01*
X70732048Y-54992501D02*
X70493953Y-55706786D01*
X70493953Y-55706786D02*
X71113000Y-55706786D01*
X32828296Y-70028158D02*
X32352105Y-70361491D01*
X32828296Y-70599586D02*
X31828296Y-70599586D01*
X31828296Y-70599586D02*
X31828296Y-70218634D01*
X31828296Y-70218634D02*
X31875915Y-70123396D01*
X31875915Y-70123396D02*
X31923534Y-70075777D01*
X31923534Y-70075777D02*
X32018772Y-70028158D01*
X32018772Y-70028158D02*
X32161629Y-70028158D01*
X32161629Y-70028158D02*
X32256867Y-70075777D01*
X32256867Y-70075777D02*
X32304486Y-70123396D01*
X32304486Y-70123396D02*
X32352105Y-70218634D01*
X32352105Y-70218634D02*
X32352105Y-70599586D01*
X32828296Y-69075777D02*
X32828296Y-69647205D01*
X32828296Y-69361491D02*
X31828296Y-69361491D01*
X31828296Y-69361491D02*
X31971153Y-69456729D01*
X31971153Y-69456729D02*
X32066391Y-69551967D01*
X32066391Y-69551967D02*
X32114010Y-69647205D01*
X32828296Y-68123396D02*
X32828296Y-68694824D01*
X32828296Y-68409110D02*
X31828296Y-68409110D01*
X31828296Y-68409110D02*
X31971153Y-68504348D01*
X31971153Y-68504348D02*
X32066391Y-68599586D01*
X32066391Y-68599586D02*
X32114010Y-68694824D01*
X47563057Y-51351967D02*
X47610677Y-51399586D01*
X47610677Y-51399586D02*
X47658296Y-51542443D01*
X47658296Y-51542443D02*
X47658296Y-51637681D01*
X47658296Y-51637681D02*
X47610677Y-51780538D01*
X47610677Y-51780538D02*
X47515438Y-51875776D01*
X47515438Y-51875776D02*
X47420200Y-51923395D01*
X47420200Y-51923395D02*
X47229724Y-51971014D01*
X47229724Y-51971014D02*
X47086867Y-51971014D01*
X47086867Y-51971014D02*
X46896391Y-51923395D01*
X46896391Y-51923395D02*
X46801153Y-51875776D01*
X46801153Y-51875776D02*
X46705915Y-51780538D01*
X46705915Y-51780538D02*
X46658296Y-51637681D01*
X46658296Y-51637681D02*
X46658296Y-51542443D01*
X46658296Y-51542443D02*
X46705915Y-51399586D01*
X46705915Y-51399586D02*
X46753534Y-51351967D01*
X47658296Y-50875776D02*
X47658296Y-50685300D01*
X47658296Y-50685300D02*
X47610677Y-50590062D01*
X47610677Y-50590062D02*
X47563057Y-50542443D01*
X47563057Y-50542443D02*
X47420200Y-50447205D01*
X47420200Y-50447205D02*
X47229724Y-50399586D01*
X47229724Y-50399586D02*
X46848772Y-50399586D01*
X46848772Y-50399586D02*
X46753534Y-50447205D01*
X46753534Y-50447205D02*
X46705915Y-50494824D01*
X46705915Y-50494824D02*
X46658296Y-50590062D01*
X46658296Y-50590062D02*
X46658296Y-50780538D01*
X46658296Y-50780538D02*
X46705915Y-50875776D01*
X46705915Y-50875776D02*
X46753534Y-50923395D01*
X46753534Y-50923395D02*
X46848772Y-50971014D01*
X46848772Y-50971014D02*
X47086867Y-50971014D01*
X47086867Y-50971014D02*
X47182105Y-50923395D01*
X47182105Y-50923395D02*
X47229724Y-50875776D01*
X47229724Y-50875776D02*
X47277343Y-50780538D01*
X47277343Y-50780538D02*
X47277343Y-50590062D01*
X47277343Y-50590062D02*
X47229724Y-50494824D01*
X47229724Y-50494824D02*
X47182105Y-50447205D01*
X47182105Y-50447205D02*
X47086867Y-50399586D01*
D14*
X35393953Y-42242720D02*
X36060619Y-43242720D01*
X36060619Y-42242720D02*
X35393953Y-43242720D01*
X36965381Y-43242720D02*
X36393953Y-43242720D01*
X36679667Y-43242720D02*
X36679667Y-42242720D01*
X36679667Y-42242720D02*
X36584429Y-42385577D01*
X36584429Y-42385577D02*
X36489191Y-42480815D01*
X36489191Y-42480815D02*
X36393953Y-42528434D01*
D10*
X41341572Y-19992120D02*
X41913000Y-19992120D01*
X41627286Y-20992120D02*
X41627286Y-19992120D01*
X42246334Y-20992120D02*
X42246334Y-19992120D01*
X42246334Y-19992120D02*
X42627286Y-19992120D01*
X42627286Y-19992120D02*
X42722524Y-20039739D01*
X42722524Y-20039739D02*
X42770143Y-20087358D01*
X42770143Y-20087358D02*
X42817762Y-20182596D01*
X42817762Y-20182596D02*
X42817762Y-20325453D01*
X42817762Y-20325453D02*
X42770143Y-20420691D01*
X42770143Y-20420691D02*
X42722524Y-20468310D01*
X42722524Y-20468310D02*
X42627286Y-20515929D01*
X42627286Y-20515929D02*
X42246334Y-20515929D01*
X43151096Y-19992120D02*
X43817762Y-19992120D01*
X43817762Y-19992120D02*
X43389191Y-20992120D01*
X39363057Y-54551967D02*
X39410677Y-54599586D01*
X39410677Y-54599586D02*
X39458296Y-54742443D01*
X39458296Y-54742443D02*
X39458296Y-54837681D01*
X39458296Y-54837681D02*
X39410677Y-54980538D01*
X39410677Y-54980538D02*
X39315438Y-55075776D01*
X39315438Y-55075776D02*
X39220200Y-55123395D01*
X39220200Y-55123395D02*
X39029724Y-55171014D01*
X39029724Y-55171014D02*
X38886867Y-55171014D01*
X38886867Y-55171014D02*
X38696391Y-55123395D01*
X38696391Y-55123395D02*
X38601153Y-55075776D01*
X38601153Y-55075776D02*
X38505915Y-54980538D01*
X38505915Y-54980538D02*
X38458296Y-54837681D01*
X38458296Y-54837681D02*
X38458296Y-54742443D01*
X38458296Y-54742443D02*
X38505915Y-54599586D01*
X38505915Y-54599586D02*
X38553534Y-54551967D01*
X38458296Y-54218633D02*
X38458296Y-53599586D01*
X38458296Y-53599586D02*
X38839248Y-53932919D01*
X38839248Y-53932919D02*
X38839248Y-53790062D01*
X38839248Y-53790062D02*
X38886867Y-53694824D01*
X38886867Y-53694824D02*
X38934486Y-53647205D01*
X38934486Y-53647205D02*
X39029724Y-53599586D01*
X39029724Y-53599586D02*
X39267819Y-53599586D01*
X39267819Y-53599586D02*
X39363057Y-53647205D01*
X39363057Y-53647205D02*
X39410677Y-53694824D01*
X39410677Y-53694824D02*
X39458296Y-53790062D01*
X39458296Y-53790062D02*
X39458296Y-54075776D01*
X39458296Y-54075776D02*
X39410677Y-54171014D01*
X39410677Y-54171014D02*
X39363057Y-54218633D01*
X34017762Y-72290120D02*
X34017762Y-73004405D01*
X34017762Y-73004405D02*
X33970143Y-73147262D01*
X33970143Y-73147262D02*
X33874905Y-73242501D01*
X33874905Y-73242501D02*
X33732048Y-73290120D01*
X33732048Y-73290120D02*
X33636810Y-73290120D01*
X34922524Y-72623453D02*
X34922524Y-73290120D01*
X34684429Y-72242501D02*
X34446334Y-72956786D01*
X34446334Y-72956786D02*
X35065381Y-72956786D01*
X46878296Y-72926967D02*
X46402105Y-73260300D01*
X46878296Y-73498395D02*
X45878296Y-73498395D01*
X45878296Y-73498395D02*
X45878296Y-73117443D01*
X45878296Y-73117443D02*
X45925915Y-73022205D01*
X45925915Y-73022205D02*
X45973534Y-72974586D01*
X45973534Y-72974586D02*
X46068772Y-72926967D01*
X46068772Y-72926967D02*
X46211629Y-72926967D01*
X46211629Y-72926967D02*
X46306867Y-72974586D01*
X46306867Y-72974586D02*
X46354486Y-73022205D01*
X46354486Y-73022205D02*
X46402105Y-73117443D01*
X46402105Y-73117443D02*
X46402105Y-73498395D01*
X46878296Y-71974586D02*
X46878296Y-72546014D01*
X46878296Y-72260300D02*
X45878296Y-72260300D01*
X45878296Y-72260300D02*
X46021153Y-72355538D01*
X46021153Y-72355538D02*
X46116391Y-72450776D01*
X46116391Y-72450776D02*
X46164010Y-72546014D01*
%TO.C,U1*%
D15*
X45935676Y-64471101D02*
X45935676Y-64048641D01*
X45935676Y-57629161D02*
X45935676Y-57206701D01*
X45935676Y-57206701D02*
X45513216Y-57206701D01*
X45513216Y-64471101D02*
X45935676Y-64471101D01*
X39093736Y-57206701D02*
X38671276Y-57206701D01*
X38671276Y-64471101D02*
X39093736Y-64471101D01*
X38671276Y-64048641D02*
X38671276Y-64471101D01*
X38671276Y-57206701D02*
X38671276Y-57629161D01*
D12*
X46953476Y-63838901D02*
G75*
G02*
X46653476Y-63838901I-150000J0D01*
G01*
X46653476Y-63838901D02*
G75*
G02*
X46953476Y-63838901I150000J0D01*
G01*
D16*
G36*
X46621476Y-59279402D02*
G01*
X46367476Y-59279402D01*
X46367476Y-58898402D01*
X46621476Y-58898402D01*
X46621476Y-59279402D01*
G37*
G36*
X41743975Y-56774901D02*
G01*
X41362975Y-56774901D01*
X41362975Y-56520901D01*
X41743975Y-56520901D01*
X41743975Y-56774901D01*
G37*
G36*
X41243976Y-65156901D02*
G01*
X40862976Y-65156901D01*
X40862976Y-64902901D01*
X41243976Y-64902901D01*
X41243976Y-65156901D01*
G37*
G36*
X38239476Y-60779402D02*
G01*
X37985476Y-60779402D01*
X37985476Y-60398401D01*
X38239476Y-60398401D01*
X38239476Y-60779402D01*
G37*
%TO.C,C6*%
D17*
X35937897Y-63875301D02*
X36219057Y-63875301D01*
X35937897Y-64895301D02*
X36219057Y-64895301D01*
%TO.C,C13*%
X66493477Y-63725881D02*
X66493477Y-63444721D01*
X67513477Y-63725881D02*
X67513477Y-63444721D01*
%TO.C,C5*%
X34893477Y-60725881D02*
X34893477Y-60444721D01*
X35913477Y-60725881D02*
X35913477Y-60444721D01*
%TO.C,C19*%
X87872413Y-64077221D02*
X87872413Y-64358381D01*
X88892413Y-64077221D02*
X88892413Y-64358381D01*
%TO.C,C15*%
X82912897Y-73226709D02*
X83194057Y-73226709D01*
X82912897Y-74246709D02*
X83194057Y-74246709D01*
%TO.C,IC2*%
D18*
X88003477Y-72286709D02*
G75*
G02*
X87753477Y-72286709I-125000J0D01*
G01*
X87753477Y-72286709D02*
G75*
G02*
X88003477Y-72286709I125000J0D01*
G01*
%TO.C,R6*%
D17*
X66366219Y-52662801D02*
X66840735Y-52662801D01*
X66366219Y-53707801D02*
X66840735Y-53707801D01*
%TO.C,U2*%
D19*
D16*
X49793341Y-58836709D02*
X49793340Y-58836709D01*
X49793340Y-58836709D01*
X49793340Y-58836709D01*
X49793340Y-58836709D01*
X49793340Y-58836709D01*
X49793340Y-58836709D01*
X49793340Y-58836709D01*
X49793340Y-58836708D01*
X49793340Y-58836708D01*
X49793340Y-58836708D01*
X49793340Y-58836708D01*
X49793340Y-58836708D01*
X49793341Y-58836708D01*
X49793341Y-58836708D01*
X49793341Y-58836708D01*
X49793341Y-58836708D01*
X49793341Y-58836708D01*
X49793341Y-58836708D01*
X49793341Y-58836708D01*
X49793341Y-58836708D01*
X49793341Y-58836708D01*
X49793341Y-58836708D01*
X49793341Y-58836708D01*
X49793341Y-58836708D01*
X49793342Y-58836708D01*
X49793342Y-58836708D01*
X49793342Y-58836708D01*
X49793342Y-58836708D01*
X49793342Y-58836708D01*
X49793342Y-58836708D01*
X49793342Y-58836709D01*
X49793342Y-58836709D01*
X49793342Y-58836709D01*
X49793342Y-58836709D01*
X49793342Y-58836709D01*
X49793342Y-58836709D01*
X49793342Y-58836709D01*
X49793341Y-58836709D01*
X49793341Y-58836709D02*
X49793342Y-58836709D01*
X49793342Y-58836709D01*
X49793342Y-58836709D01*
X49793342Y-58836709D01*
X49793342Y-58836709D01*
X49793342Y-58836709D01*
X49793342Y-58836710D01*
X49793342Y-58836710D01*
X49793342Y-58836710D01*
X49793342Y-58836710D01*
X49793342Y-58836710D01*
X49793342Y-58836710D01*
X49793342Y-58836710D01*
X49793341Y-58836710D01*
X49793341Y-58836710D01*
X49793341Y-58836710D01*
X49793341Y-58836710D01*
X49793341Y-58836710D01*
X49793341Y-58836710D01*
X49793341Y-58836710D01*
X49793341Y-58836710D01*
X49793341Y-58836710D01*
X49793341Y-58836710D01*
X49793341Y-58836710D01*
X49793341Y-58836710D01*
X49793340Y-58836710D01*
X49793340Y-58836710D01*
X49793340Y-58836710D01*
X49793340Y-58836710D01*
X49793340Y-58836710D01*
X49793340Y-58836710D01*
X49793340Y-58836709D01*
X49793340Y-58836709D01*
X49793340Y-58836709D01*
X49793340Y-58836709D01*
X49793340Y-58836709D01*
X49793340Y-58836709D01*
X49793341Y-58836709D01*
D14*
D16*
X49903477Y-58836709D02*
X49903476Y-58836709D01*
X49903476Y-58836709D01*
X49903476Y-58836709D01*
X49903476Y-58836709D01*
X49903476Y-58836709D01*
X49903476Y-58836709D01*
X49903476Y-58836709D01*
X49903476Y-58836708D01*
X49903476Y-58836708D01*
X49903476Y-58836708D01*
X49903476Y-58836708D01*
X49903476Y-58836708D01*
X49903477Y-58836708D01*
X49903477Y-58836708D01*
X49903477Y-58836708D01*
X49903477Y-58836708D01*
X49903477Y-58836708D01*
X49903477Y-58836708D01*
X49903477Y-58836708D01*
X49903477Y-58836708D01*
X49903477Y-58836708D01*
X49903477Y-58836708D01*
X49903477Y-58836708D01*
X49903477Y-58836708D01*
X49903478Y-58836708D01*
X49903478Y-58836708D01*
X49903478Y-58836708D01*
X49903478Y-58836708D01*
X49903478Y-58836708D01*
X49903478Y-58836708D01*
X49903478Y-58836709D01*
X49903478Y-58836709D01*
X49903478Y-58836709D01*
X49903478Y-58836709D01*
X49903478Y-58836709D01*
X49903478Y-58836709D01*
X49903478Y-58836709D01*
X49903477Y-58836709D01*
X49903477Y-58836709D02*
X49903478Y-58836709D01*
X49903478Y-58836709D01*
X49903478Y-58836709D01*
X49903478Y-58836709D01*
X49903478Y-58836709D01*
X49903478Y-58836709D01*
X49903478Y-58836710D01*
X49903478Y-58836710D01*
X49903478Y-58836710D01*
X49903478Y-58836710D01*
X49903478Y-58836710D01*
X49903478Y-58836710D01*
X49903478Y-58836710D01*
X49903477Y-58836710D01*
X49903477Y-58836710D01*
X49903477Y-58836710D01*
X49903477Y-58836710D01*
X49903477Y-58836710D01*
X49903477Y-58836710D01*
X49903477Y-58836710D01*
X49903477Y-58836710D01*
X49903477Y-58836710D01*
X49903477Y-58836710D01*
X49903477Y-58836710D01*
X49903477Y-58836710D01*
X49903476Y-58836710D01*
X49903476Y-58836710D01*
X49903476Y-58836710D01*
X49903476Y-58836710D01*
X49903476Y-58836710D01*
X49903476Y-58836710D01*
X49903476Y-58836709D01*
X49903476Y-58836709D01*
X49903476Y-58836709D01*
X49903476Y-58836709D01*
X49903476Y-58836709D01*
X49903476Y-58836709D01*
X49903477Y-58836709D01*
D14*
X51328477Y-57686709D02*
X51478477Y-57686709D01*
X51478477Y-58336709D01*
X51328477Y-58336709D01*
X51328477Y-57686709D01*
G36*
X51328477Y-57686709D02*
G01*
X51478477Y-57686709D01*
X51478477Y-58336709D01*
X51328477Y-58336709D01*
X51328477Y-57686709D01*
G37*
D19*
X49793341Y-58836709D02*
G75*
G02*
X49913613Y-58836709I60136J0D01*
G01*
X49913613Y-58836709D02*
G75*
G02*
X49793341Y-58836709I-60136J0D01*
G01*
%TO.C,L2*%
D17*
X86890000Y-38284645D02*
X86890000Y-39488773D01*
X89610000Y-38284645D02*
X89610000Y-39488773D01*
%TO.C,C22*%
X98753080Y-36090000D02*
X98471920Y-36090000D01*
X98753080Y-37110000D02*
X98471920Y-37110000D01*
%TO.C,R10*%
X95224758Y-36027500D02*
X94750242Y-36027500D01*
X95224758Y-37072500D02*
X94750242Y-37072500D01*
%TO.C,C20*%
X93986374Y-66875301D02*
X94267534Y-66875301D01*
X93986374Y-67895301D02*
X94267534Y-67895301D01*
%TO.C,IC4*%
D20*
D16*
X95713477Y-57286709D02*
X95713476Y-57286709D01*
X95713476Y-57286709D01*
X95713476Y-57286709D01*
X95713476Y-57286709D01*
X95713476Y-57286709D01*
X95713476Y-57286709D01*
X95713476Y-57286709D01*
X95713476Y-57286708D01*
X95713476Y-57286708D01*
X95713476Y-57286708D01*
X95713476Y-57286708D01*
X95713476Y-57286708D01*
X95713477Y-57286708D01*
X95713477Y-57286708D01*
X95713477Y-57286708D01*
X95713477Y-57286708D01*
X95713477Y-57286708D01*
X95713477Y-57286708D01*
X95713477Y-57286708D01*
X95713477Y-57286708D01*
X95713477Y-57286708D01*
X95713477Y-57286708D01*
X95713477Y-57286708D01*
X95713477Y-57286708D01*
X95713478Y-57286708D01*
X95713478Y-57286708D01*
X95713478Y-57286708D01*
X95713478Y-57286708D01*
X95713478Y-57286708D01*
X95713478Y-57286708D01*
X95713478Y-57286709D01*
X95713478Y-57286709D01*
X95713478Y-57286709D01*
X95713478Y-57286709D01*
X95713478Y-57286709D01*
X95713478Y-57286709D01*
X95713478Y-57286709D01*
X95713477Y-57286709D01*
X95713477Y-57286709D02*
X95713478Y-57286709D01*
X95713478Y-57286709D01*
X95713478Y-57286709D01*
X95713478Y-57286709D01*
X95713478Y-57286709D01*
X95713478Y-57286709D01*
X95713478Y-57286710D01*
X95713478Y-57286710D01*
X95713478Y-57286710D01*
X95713478Y-57286710D01*
X95713478Y-57286710D01*
X95713478Y-57286710D01*
X95713478Y-57286710D01*
X95713477Y-57286710D01*
X95713477Y-57286710D01*
X95713477Y-57286710D01*
X95713477Y-57286710D01*
X95713477Y-57286710D01*
X95713477Y-57286710D01*
X95713477Y-57286710D01*
X95713477Y-57286710D01*
X95713477Y-57286710D01*
X95713477Y-57286710D01*
X95713477Y-57286710D01*
X95713477Y-57286710D01*
X95713476Y-57286710D01*
X95713476Y-57286710D01*
X95713476Y-57286710D01*
X95713476Y-57286710D01*
X95713476Y-57286710D01*
X95713476Y-57286710D01*
X95713476Y-57286709D01*
X95713476Y-57286709D01*
X95713476Y-57286709D01*
X95713476Y-57286709D01*
X95713476Y-57286709D01*
X95713476Y-57286709D01*
X95713477Y-57286709D01*
D20*
D16*
X95872789Y-57286709D02*
X95872788Y-57286709D01*
X95872788Y-57286709D01*
X95872788Y-57286709D01*
X95872788Y-57286709D01*
X95872788Y-57286709D01*
X95872788Y-57286709D01*
X95872788Y-57286709D01*
X95872788Y-57286708D01*
X95872788Y-57286708D01*
X95872788Y-57286708D01*
X95872788Y-57286708D01*
X95872788Y-57286708D01*
X95872789Y-57286708D01*
X95872789Y-57286708D01*
X95872789Y-57286708D01*
X95872789Y-57286708D01*
X95872789Y-57286708D01*
X95872789Y-57286708D01*
X95872789Y-57286708D01*
X95872789Y-57286708D01*
X95872789Y-57286708D01*
X95872789Y-57286708D01*
X95872789Y-57286708D01*
X95872789Y-57286708D01*
X95872790Y-57286708D01*
X95872790Y-57286708D01*
X95872790Y-57286708D01*
X95872790Y-57286708D01*
X95872790Y-57286708D01*
X95872790Y-57286708D01*
X95872790Y-57286709D01*
X95872790Y-57286709D01*
X95872790Y-57286709D01*
X95872790Y-57286709D01*
X95872790Y-57286709D01*
X95872790Y-57286709D01*
X95872790Y-57286709D01*
X95872789Y-57286709D01*
X95872789Y-57286709D02*
X95872790Y-57286709D01*
X95872790Y-57286709D01*
X95872790Y-57286709D01*
X95872790Y-57286709D01*
X95872790Y-57286709D01*
X95872790Y-57286709D01*
X95872790Y-57286710D01*
X95872790Y-57286710D01*
X95872790Y-57286710D01*
X95872790Y-57286710D01*
X95872790Y-57286710D01*
X95872790Y-57286710D01*
X95872790Y-57286710D01*
X95872789Y-57286710D01*
X95872789Y-57286710D01*
X95872789Y-57286710D01*
X95872789Y-57286710D01*
X95872789Y-57286710D01*
X95872789Y-57286710D01*
X95872789Y-57286710D01*
X95872789Y-57286710D01*
X95872789Y-57286710D01*
X95872789Y-57286710D01*
X95872789Y-57286710D01*
X95872789Y-57286710D01*
X95872788Y-57286710D01*
X95872788Y-57286710D01*
X95872788Y-57286710D01*
X95872788Y-57286710D01*
X95872788Y-57286710D01*
X95872788Y-57286710D01*
X95872788Y-57286709D01*
X95872788Y-57286709D01*
X95872788Y-57286709D01*
X95872788Y-57286709D01*
X95872788Y-57286709D01*
X95872788Y-57286709D01*
X95872789Y-57286709D01*
D20*
X95713477Y-57286709D02*
G75*
G02*
X95872789Y-57286709I79656J0D01*
G01*
X95872789Y-57286709D02*
G75*
G02*
X95713477Y-57286709I-79656J0D01*
G01*
%TO.C,L1*%
D17*
X79543477Y-74361430D02*
X79543477Y-74686988D01*
X80563477Y-74361430D02*
X80563477Y-74686988D01*
%TO.C,IC1*%
D20*
D16*
X61468852Y-59431466D02*
X61468851Y-59431466D01*
X61468851Y-59431466D01*
X61468851Y-59431466D01*
X61468851Y-59431466D01*
X61468851Y-59431466D01*
X61468851Y-59431466D01*
X61468851Y-59431466D01*
X61468851Y-59431465D01*
X61468851Y-59431465D01*
X61468851Y-59431465D01*
X61468851Y-59431465D01*
X61468851Y-59431465D01*
X61468852Y-59431465D01*
X61468852Y-59431465D01*
X61468852Y-59431465D01*
X61468852Y-59431465D01*
X61468852Y-59431465D01*
X61468852Y-59431465D01*
X61468852Y-59431465D01*
X61468852Y-59431465D01*
X61468852Y-59431465D01*
X61468852Y-59431465D01*
X61468852Y-59431465D01*
X61468852Y-59431465D01*
X61468853Y-59431465D01*
X61468853Y-59431465D01*
X61468853Y-59431465D01*
X61468853Y-59431465D01*
X61468853Y-59431465D01*
X61468853Y-59431465D01*
X61468853Y-59431466D01*
X61468853Y-59431466D01*
X61468853Y-59431466D01*
X61468853Y-59431466D01*
X61468853Y-59431466D01*
X61468853Y-59431466D01*
X61468853Y-59431466D01*
X61468852Y-59431466D01*
X61468852Y-59431466D02*
X61468853Y-59431466D01*
X61468853Y-59431466D01*
X61468853Y-59431466D01*
X61468853Y-59431466D01*
X61468853Y-59431466D01*
X61468853Y-59431466D01*
X61468853Y-59431467D01*
X61468853Y-59431467D01*
X61468853Y-59431467D01*
X61468853Y-59431467D01*
X61468853Y-59431467D01*
X61468853Y-59431467D01*
X61468853Y-59431467D01*
X61468852Y-59431467D01*
X61468852Y-59431467D01*
X61468852Y-59431467D01*
X61468852Y-59431467D01*
X61468852Y-59431467D01*
X61468852Y-59431467D01*
X61468852Y-59431467D01*
X61468852Y-59431467D01*
X61468852Y-59431467D01*
X61468852Y-59431467D01*
X61468852Y-59431467D01*
X61468852Y-59431467D01*
X61468851Y-59431467D01*
X61468851Y-59431467D01*
X61468851Y-59431467D01*
X61468851Y-59431467D01*
X61468851Y-59431467D01*
X61468851Y-59431467D01*
X61468851Y-59431466D01*
X61468851Y-59431466D01*
X61468851Y-59431466D01*
X61468851Y-59431466D01*
X61468851Y-59431466D01*
X61468851Y-59431466D01*
X61468852Y-59431466D01*
D20*
D16*
X61628164Y-59431466D02*
X61628163Y-59431466D01*
X61628163Y-59431466D01*
X61628163Y-59431466D01*
X61628163Y-59431466D01*
X61628163Y-59431466D01*
X61628163Y-59431466D01*
X61628163Y-59431466D01*
X61628163Y-59431465D01*
X61628163Y-59431465D01*
X61628163Y-59431465D01*
X61628163Y-59431465D01*
X61628163Y-59431465D01*
X61628164Y-59431465D01*
X61628164Y-59431465D01*
X61628164Y-59431465D01*
X61628164Y-59431465D01*
X61628164Y-59431465D01*
X61628164Y-59431465D01*
X61628164Y-59431465D01*
X61628164Y-59431465D01*
X61628164Y-59431465D01*
X61628164Y-59431465D01*
X61628164Y-59431465D01*
X61628164Y-59431465D01*
X61628165Y-59431465D01*
X61628165Y-59431465D01*
X61628165Y-59431465D01*
X61628165Y-59431465D01*
X61628165Y-59431465D01*
X61628165Y-59431465D01*
X61628165Y-59431466D01*
X61628165Y-59431466D01*
X61628165Y-59431466D01*
X61628165Y-59431466D01*
X61628165Y-59431466D01*
X61628165Y-59431466D01*
X61628165Y-59431466D01*
X61628164Y-59431466D01*
X61628164Y-59431466D02*
X61628165Y-59431466D01*
X61628165Y-59431466D01*
X61628165Y-59431466D01*
X61628165Y-59431466D01*
X61628165Y-59431466D01*
X61628165Y-59431466D01*
X61628165Y-59431467D01*
X61628165Y-59431467D01*
X61628165Y-59431467D01*
X61628165Y-59431467D01*
X61628165Y-59431467D01*
X61628165Y-59431467D01*
X61628165Y-59431467D01*
X61628164Y-59431467D01*
X61628164Y-59431467D01*
X61628164Y-59431467D01*
X61628164Y-59431467D01*
X61628164Y-59431467D01*
X61628164Y-59431467D01*
X61628164Y-59431467D01*
X61628164Y-59431467D01*
X61628164Y-59431467D01*
X61628164Y-59431467D01*
X61628164Y-59431467D01*
X61628164Y-59431467D01*
X61628163Y-59431467D01*
X61628163Y-59431467D01*
X61628163Y-59431467D01*
X61628163Y-59431467D01*
X61628163Y-59431467D01*
X61628163Y-59431467D01*
X61628163Y-59431466D01*
X61628163Y-59431466D01*
X61628163Y-59431466D01*
X61628163Y-59431466D01*
X61628163Y-59431466D01*
X61628163Y-59431466D01*
X61628164Y-59431466D01*
D20*
X61468852Y-59431466D02*
G75*
G02*
X61628164Y-59431466I79656J0D01*
G01*
X61628164Y-59431466D02*
G75*
G02*
X61468852Y-59431466I-79656J0D01*
G01*
%TO.C,R8*%
D17*
X83980977Y-69762742D02*
X83980977Y-70237258D01*
X85025977Y-69762742D02*
X85025977Y-70237258D01*
%TO.C,L4*%
X93366954Y-73785679D02*
X93366954Y-74584923D01*
X94486954Y-73785679D02*
X94486954Y-74584923D01*
%TO.C,R9*%
X85041219Y-67014209D02*
X85515735Y-67014209D01*
X85041219Y-68059209D02*
X85515735Y-68059209D01*
%TO.C,J2*%
X71870000Y-29266709D02*
X71870000Y-31866709D01*
X71870000Y-29266709D02*
X74530000Y-29266709D01*
X71870000Y-31866709D02*
X74530000Y-31866709D01*
X73200000Y-26666709D02*
X74530000Y-26666709D01*
X74530000Y-26666709D02*
X74530000Y-27996709D01*
X74530000Y-29266709D02*
X74530000Y-31866709D01*
%TO.C,R5*%
X57884454Y-68952489D02*
X57884454Y-69427005D01*
X58929454Y-68952489D02*
X58929454Y-69427005D01*
%TO.C,C4*%
X37687897Y-65625301D02*
X37969057Y-65625301D01*
X37687897Y-66645301D02*
X37969057Y-66645301D01*
%TO.C,FL1*%
D14*
D16*
X67190859Y-71753873D02*
X67190858Y-71753873D01*
X67190858Y-71753873D01*
X67190858Y-71753873D01*
X67190858Y-71753873D01*
X67190858Y-71753873D01*
X67190858Y-71753873D01*
X67190858Y-71753873D01*
X67190858Y-71753872D01*
X67190858Y-71753872D01*
X67190858Y-71753872D01*
X67190858Y-71753872D01*
X67190858Y-71753872D01*
X67190859Y-71753872D01*
X67190859Y-71753872D01*
X67190859Y-71753872D01*
X67190859Y-71753872D01*
X67190859Y-71753872D01*
X67190859Y-71753872D01*
X67190859Y-71753872D01*
X67190859Y-71753872D01*
X67190859Y-71753872D01*
X67190859Y-71753872D01*
X67190859Y-71753872D01*
X67190859Y-71753872D01*
X67190860Y-71753872D01*
X67190860Y-71753872D01*
X67190860Y-71753872D01*
X67190860Y-71753872D01*
X67190860Y-71753872D01*
X67190860Y-71753872D01*
X67190860Y-71753873D01*
X67190860Y-71753873D01*
X67190860Y-71753873D01*
X67190860Y-71753873D01*
X67190860Y-71753873D01*
X67190860Y-71753873D01*
X67190860Y-71753873D01*
X67190859Y-71753873D01*
X67190859Y-71753873D02*
X67190860Y-71753873D01*
X67190860Y-71753873D01*
X67190860Y-71753873D01*
X67190860Y-71753873D01*
X67190860Y-71753873D01*
X67190860Y-71753873D01*
X67190860Y-71753874D01*
X67190860Y-71753874D01*
X67190860Y-71753874D01*
X67190860Y-71753874D01*
X67190860Y-71753874D01*
X67190860Y-71753874D01*
X67190860Y-71753874D01*
X67190859Y-71753874D01*
X67190859Y-71753874D01*
X67190859Y-71753874D01*
X67190859Y-71753874D01*
X67190859Y-71753874D01*
X67190859Y-71753874D01*
X67190859Y-71753874D01*
X67190859Y-71753874D01*
X67190859Y-71753874D01*
X67190859Y-71753874D01*
X67190859Y-71753874D01*
X67190859Y-71753874D01*
X67190858Y-71753874D01*
X67190858Y-71753874D01*
X67190858Y-71753874D01*
X67190858Y-71753874D01*
X67190858Y-71753874D01*
X67190858Y-71753874D01*
X67190858Y-71753873D01*
X67190858Y-71753873D01*
X67190858Y-71753873D01*
X67190858Y-71753873D01*
X67190858Y-71753873D01*
X67190858Y-71753873D01*
X67190859Y-71753873D01*
D21*
D16*
X67305204Y-68449528D02*
X67305203Y-68449528D01*
X67305203Y-68449528D01*
X67305203Y-68449528D01*
X67305203Y-68449528D01*
X67305203Y-68449528D01*
X67305203Y-68449528D01*
X67305203Y-68449528D01*
X67305203Y-68449527D01*
X67305203Y-68449527D01*
X67305203Y-68449527D01*
X67305203Y-68449527D01*
X67305203Y-68449527D01*
X67305204Y-68449527D01*
X67305204Y-68449527D01*
X67305204Y-68449527D01*
X67305204Y-68449527D01*
X67305204Y-68449527D01*
X67305204Y-68449527D01*
X67305204Y-68449527D01*
X67305204Y-68449527D01*
X67305204Y-68449527D01*
X67305204Y-68449527D01*
X67305204Y-68449527D01*
X67305204Y-68449527D01*
X67305205Y-68449527D01*
X67305205Y-68449527D01*
X67305205Y-68449527D01*
X67305205Y-68449527D01*
X67305205Y-68449527D01*
X67305205Y-68449527D01*
X67305205Y-68449528D01*
X67305205Y-68449528D01*
X67305205Y-68449528D01*
X67305205Y-68449528D01*
X67305205Y-68449528D01*
X67305205Y-68449528D01*
X67305205Y-68449528D01*
X67305204Y-68449528D01*
X67305204Y-68449528D02*
X67305205Y-68449528D01*
X67305205Y-68449528D01*
X67305205Y-68449528D01*
X67305205Y-68449528D01*
X67305205Y-68449528D01*
X67305205Y-68449528D01*
X67305205Y-68449529D01*
X67305205Y-68449529D01*
X67305205Y-68449529D01*
X67305205Y-68449529D01*
X67305205Y-68449529D01*
X67305205Y-68449529D01*
X67305205Y-68449529D01*
X67305204Y-68449529D01*
X67305204Y-68449529D01*
X67305204Y-68449529D01*
X67305204Y-68449529D01*
X67305204Y-68449529D01*
X67305204Y-68449529D01*
X67305204Y-68449529D01*
X67305204Y-68449529D01*
X67305204Y-68449529D01*
X67305204Y-68449529D01*
X67305204Y-68449529D01*
X67305204Y-68449529D01*
X67305203Y-68449529D01*
X67305203Y-68449529D01*
X67305203Y-68449529D01*
X67305203Y-68449529D01*
X67305203Y-68449529D01*
X67305203Y-68449529D01*
X67305203Y-68449528D01*
X67305203Y-68449528D01*
X67305203Y-68449528D01*
X67305203Y-68449528D01*
X67305203Y-68449528D01*
X67305203Y-68449528D01*
X67305204Y-68449528D01*
D22*
X68145859Y-69218873D02*
X68145859Y-70863873D01*
X68145859Y-76463873D02*
X68145859Y-78108873D01*
X68145859Y-78108873D02*
X71790859Y-78108873D01*
X71790859Y-69218873D02*
X68145859Y-69218873D01*
X77035859Y-69218873D02*
X73390859Y-69218873D01*
X77035859Y-70863873D02*
X77035859Y-69218873D01*
X77035859Y-76463873D02*
X77035859Y-78108873D01*
X77035859Y-78108873D02*
X73390859Y-78108873D01*
D21*
X67305204Y-68449528D02*
G75*
G02*
X67876514Y-68449528I285655J0D01*
G01*
X67876514Y-68449528D02*
G75*
G02*
X67305204Y-68449528I-285655J0D01*
G01*
%TO.C,C11*%
D17*
X55893477Y-61325881D02*
X55893477Y-61044721D01*
X56913477Y-61325881D02*
X56913477Y-61044721D01*
%TO.C,C12*%
X66059420Y-56690000D02*
X66340580Y-56690000D01*
X66059420Y-57710000D02*
X66340580Y-57710000D01*
%TO.C,L5*%
X96564175Y-74675301D02*
X96889733Y-74675301D01*
X96564175Y-75695301D02*
X96889733Y-75695301D01*
%TO.C,TP1*%
X42103477Y-45785301D02*
G75*
G02*
X40703477Y-45785301I-700000J0D01*
G01*
X40703477Y-45785301D02*
G75*
G02*
X42103477Y-45785301I700000J0D01*
G01*
%TO.C,R4*%
X57880977Y-63977489D02*
X57880977Y-64452005D01*
X58925977Y-63977489D02*
X58925977Y-64452005D01*
%TO.C,TP5*%
X68703477Y-30985301D02*
G75*
G02*
X67303477Y-30985301I-700000J0D01*
G01*
X67303477Y-30985301D02*
G75*
G02*
X68703477Y-30985301I700000J0D01*
G01*
%TO.C,L3*%
X90366954Y-67985679D02*
X90366954Y-68784923D01*
X91486954Y-67985679D02*
X91486954Y-68784923D01*
%TO.C,C18*%
X84490000Y-36877289D02*
X84490000Y-36596129D01*
X85510000Y-36877289D02*
X85510000Y-36596129D01*
%TO.C,R7*%
X68941219Y-59862801D02*
X69415735Y-59862801D01*
X68941219Y-60907801D02*
X69415735Y-60907801D01*
%TO.C,TP6*%
X36303477Y-38985301D02*
G75*
G02*
X34903477Y-38985301I-700000J0D01*
G01*
X34903477Y-38985301D02*
G75*
G02*
X36303477Y-38985301I700000J0D01*
G01*
%TO.C,C1*%
X41344057Y-41275301D02*
X41062897Y-41275301D01*
X41344057Y-42295301D02*
X41062897Y-42295301D01*
D16*
%TO.C,G\u002A\u002A\u002A*%
G36*
X55483969Y-89088105D02*
G01*
X55518465Y-89118075D01*
X55569679Y-89165553D01*
X55634275Y-89227404D01*
X55708917Y-89300492D01*
X55767168Y-89358476D01*
X56053360Y-89645248D01*
X56032217Y-89716431D01*
X56011074Y-89787615D01*
X55724198Y-89488628D01*
X55635318Y-89395743D01*
X55567104Y-89323501D01*
X55516974Y-89268627D01*
X55482348Y-89227845D01*
X55460643Y-89197879D01*
X55449278Y-89175452D01*
X55445673Y-89157290D01*
X55447244Y-89140116D01*
X55447702Y-89137748D01*
X55458217Y-89099501D01*
X55469244Y-89078969D01*
X55469529Y-89078779D01*
X55483969Y-89088105D01*
G37*
G36*
X57348240Y-89641623D02*
G01*
X57339974Y-89678302D01*
X57334125Y-89696304D01*
X57333999Y-89696437D01*
X57316807Y-89702719D01*
X57273086Y-89716706D01*
X57208328Y-89736758D01*
X57128022Y-89761235D01*
X57037661Y-89788499D01*
X56942734Y-89816909D01*
X56848734Y-89844825D01*
X56761150Y-89870609D01*
X56685474Y-89892620D01*
X56627197Y-89909220D01*
X56591810Y-89918767D01*
X56583863Y-89920429D01*
X56574629Y-89906056D01*
X56577412Y-89868392D01*
X56577600Y-89867443D01*
X56585973Y-89830144D01*
X56591941Y-89811396D01*
X56592193Y-89811110D01*
X56608657Y-89805797D01*
X56652741Y-89792675D01*
X56719974Y-89773044D01*
X56805889Y-89748205D01*
X56906017Y-89719456D01*
X56977337Y-89699080D01*
X57358485Y-89590397D01*
X57348240Y-89641623D01*
G37*
G36*
X57511063Y-88874041D02*
G01*
X57502175Y-88918193D01*
X57488065Y-88984595D01*
X57469824Y-89068112D01*
X57448545Y-89163608D01*
X57448380Y-89164344D01*
X57380252Y-89467288D01*
X57029914Y-89562809D01*
X56925225Y-89591349D01*
X56830043Y-89617292D01*
X56749561Y-89639221D01*
X56688970Y-89655723D01*
X56653464Y-89665383D01*
X56647757Y-89666931D01*
X56624407Y-89667317D01*
X56623880Y-89644852D01*
X56624170Y-89643713D01*
X56630712Y-89617726D01*
X56643789Y-89565230D01*
X56661943Y-89492101D01*
X56683715Y-89404213D01*
X56704534Y-89320035D01*
X56776665Y-89028177D01*
X57143717Y-88940665D01*
X57249109Y-88915741D01*
X57342928Y-88893941D01*
X57420565Y-88876305D01*
X57477409Y-88863872D01*
X57508853Y-88857680D01*
X57513638Y-88857277D01*
X57511063Y-88874041D01*
G37*
G36*
X55706654Y-88380410D02*
G01*
X55743742Y-88410705D01*
X55795879Y-88456240D01*
X55858749Y-88512963D01*
X55928037Y-88576818D01*
X55999427Y-88643752D01*
X56068603Y-88709710D01*
X56131252Y-88770639D01*
X56183057Y-88822484D01*
X56219703Y-88861191D01*
X56236875Y-88882705D01*
X56237620Y-88884902D01*
X56233723Y-88906056D01*
X56223078Y-88952560D01*
X56207254Y-89018228D01*
X56187821Y-89096876D01*
X56166349Y-89182318D01*
X56144406Y-89268371D01*
X56123564Y-89348848D01*
X56105391Y-89417566D01*
X56091456Y-89468339D01*
X56083330Y-89494983D01*
X56082173Y-89497442D01*
X56070269Y-89486754D01*
X56038407Y-89455274D01*
X55989774Y-89406232D01*
X55927556Y-89342854D01*
X55854940Y-89268367D01*
X55797828Y-89209484D01*
X55516474Y-88918812D01*
X55596926Y-88644112D01*
X55623879Y-88554263D01*
X55648353Y-88476737D01*
X55668611Y-88416725D01*
X55682913Y-88379419D01*
X55688928Y-88369411D01*
X55706654Y-88380410D01*
G37*
G36*
X53013984Y-82723467D02*
G01*
X53018442Y-82759413D01*
X53018841Y-82781322D01*
X53025093Y-82858965D01*
X53041785Y-82953553D01*
X53065819Y-83051545D01*
X53094098Y-83139399D01*
X53109043Y-83175690D01*
X53158670Y-83256129D01*
X53225376Y-83312293D01*
X53315241Y-83348981D01*
X53335043Y-83354054D01*
X53382394Y-83366838D01*
X53412882Y-83378020D01*
X53419104Y-83382806D01*
X53404399Y-83391247D01*
X53366696Y-83403389D01*
X53335043Y-83411558D01*
X53240188Y-83445147D01*
X53169626Y-83497317D01*
X53117277Y-83572868D01*
X53109043Y-83589922D01*
X53079795Y-83667485D01*
X53053226Y-83762038D01*
X53032431Y-83860041D01*
X53020508Y-83947953D01*
X53018841Y-83984290D01*
X53016204Y-84032148D01*
X53009180Y-84049260D01*
X52999100Y-84037743D01*
X52987295Y-83999711D01*
X52975095Y-83937281D01*
X52970640Y-83907655D01*
X52944909Y-83760660D01*
X52911975Y-83643523D01*
X52869842Y-83553157D01*
X52816514Y-83486475D01*
X52749995Y-83440387D01*
X52668288Y-83411808D01*
X52647188Y-83407396D01*
X52601000Y-83394795D01*
X52588108Y-83381266D01*
X52608513Y-83367855D01*
X52647188Y-83358216D01*
X52732662Y-83333218D01*
X52802490Y-83291421D01*
X52858668Y-83229737D01*
X52903192Y-83145078D01*
X52938061Y-83034357D01*
X52965268Y-82894486D01*
X52970640Y-82857956D01*
X52982642Y-82786825D01*
X52994753Y-82739289D01*
X53005644Y-82717465D01*
X53013984Y-82723467D01*
G37*
G36*
X50423553Y-83681647D02*
G01*
X50432310Y-83722631D01*
X50441921Y-83781803D01*
X50446113Y-83812254D01*
X50471178Y-83961452D01*
X50504387Y-84080542D01*
X50547403Y-84172138D01*
X50601887Y-84238853D01*
X50669501Y-84283297D01*
X50751907Y-84308084D01*
X50762651Y-84309829D01*
X50813115Y-84320916D01*
X50831503Y-84333507D01*
X50817381Y-84346445D01*
X50780272Y-84356698D01*
X50677962Y-84390171D01*
X50595225Y-84444096D01*
X50540831Y-84509404D01*
X50517597Y-84561399D01*
X50493148Y-84636121D01*
X50470031Y-84723152D01*
X50450790Y-84812077D01*
X50437973Y-84892477D01*
X50434031Y-84946332D01*
X50429394Y-84983228D01*
X50418394Y-85000380D01*
X50417134Y-85000534D01*
X50405255Y-84986085D01*
X50400457Y-84952343D01*
X50395822Y-84894306D01*
X50383585Y-84816384D01*
X50366245Y-84730479D01*
X50346303Y-84648495D01*
X50326258Y-84582335D01*
X50318586Y-84562538D01*
X50267284Y-84475637D01*
X50196915Y-84413522D01*
X50102457Y-84371830D01*
X50097360Y-84370306D01*
X50046237Y-84353685D01*
X50011046Y-84339186D01*
X50000217Y-84331154D01*
X50014987Y-84322489D01*
X50052210Y-84313140D01*
X50071617Y-84309829D01*
X50155873Y-84287183D01*
X50225141Y-84245187D01*
X50281083Y-84181228D01*
X50325362Y-84092695D01*
X50359638Y-83976975D01*
X50385575Y-83831455D01*
X50388155Y-83812254D01*
X50397667Y-83747355D01*
X50406990Y-83697293D01*
X50414641Y-83669543D01*
X50417134Y-83666325D01*
X50423553Y-83681647D01*
G37*
G36*
X51476433Y-81634707D02*
G01*
X51481264Y-81652804D01*
X51489472Y-81696980D01*
X51499842Y-81760274D01*
X51509462Y-81824001D01*
X51548719Y-82044102D01*
X51597747Y-82232462D01*
X51656530Y-82389028D01*
X51725052Y-82513751D01*
X51745954Y-82542926D01*
X51827661Y-82622964D01*
X51938505Y-82686959D01*
X52078338Y-82734836D01*
X52176622Y-82755889D01*
X52247935Y-82771608D01*
X52286253Y-82788023D01*
X52293365Y-82799089D01*
X52276698Y-82815908D01*
X52226722Y-82831948D01*
X52176622Y-82841911D01*
X52029211Y-82875708D01*
X51908830Y-82923726D01*
X51810891Y-82989554D01*
X51730809Y-83076785D01*
X51663996Y-83189009D01*
X51627608Y-83271750D01*
X51602733Y-83345207D01*
X51575953Y-83442411D01*
X51549371Y-83553994D01*
X51525092Y-83670590D01*
X51505222Y-83782832D01*
X51493047Y-83870626D01*
X51482237Y-83934009D01*
X51469094Y-83964966D01*
X51455213Y-83964194D01*
X51442189Y-83932393D01*
X51431618Y-83870258D01*
X51428885Y-83842573D01*
X51412160Y-83710194D01*
X51384607Y-83565108D01*
X51349387Y-83421363D01*
X51309662Y-83293011D01*
X51298231Y-83261924D01*
X51233356Y-83131176D01*
X51149088Y-83023800D01*
X51048016Y-82942728D01*
X50989034Y-82911655D01*
X50942148Y-82892211D01*
X50894501Y-82875917D01*
X50838302Y-82860693D01*
X50765759Y-82844455D01*
X50669082Y-82825123D01*
X50654790Y-82822362D01*
X50625501Y-82810675D01*
X50617265Y-82799089D01*
X50631401Y-82783844D01*
X50654790Y-82775817D01*
X50755023Y-82755959D01*
X50830106Y-82739479D01*
X50887795Y-82724306D01*
X50935848Y-82708374D01*
X50982023Y-82689613D01*
X50988081Y-82686952D01*
X51080771Y-82631620D01*
X51168456Y-82553425D01*
X51240712Y-82462418D01*
X51265868Y-82419080D01*
X51296686Y-82346302D01*
X51328837Y-82249372D01*
X51360173Y-82137312D01*
X51388542Y-82019141D01*
X51411796Y-81903880D01*
X51427785Y-81800551D01*
X51434358Y-81718175D01*
X51434415Y-81711860D01*
X51439968Y-81667809D01*
X51453584Y-81638099D01*
X51470823Y-81630882D01*
X51476433Y-81634707D01*
G37*
G36*
X59002242Y-82910283D02*
G01*
X59130958Y-82917746D01*
X59241089Y-82931671D01*
X59339910Y-82953378D01*
X59434696Y-82984186D01*
X59532723Y-83025414D01*
X59556464Y-83036495D01*
X59655104Y-83095966D01*
X59754838Y-83178268D01*
X59846681Y-83274438D01*
X59921644Y-83375512D01*
X59953843Y-83432839D01*
X60021752Y-83609940D01*
X60062493Y-83805590D01*
X60076051Y-84018967D01*
X60062414Y-84249251D01*
X60021569Y-84495621D01*
X59974246Y-84686286D01*
X59886169Y-84957293D01*
X59770467Y-85242803D01*
X59628375Y-85540592D01*
X59461128Y-85848439D01*
X59269959Y-86164121D01*
X59056104Y-86485416D01*
X58820797Y-86810101D01*
X58725058Y-86935137D01*
X58623454Y-87064462D01*
X58517721Y-87196465D01*
X58410071Y-87328587D01*
X58302717Y-87458266D01*
X58197872Y-87582945D01*
X58097748Y-87700063D01*
X58004559Y-87807061D01*
X57920517Y-87901379D01*
X57847836Y-87980459D01*
X57788727Y-88041740D01*
X57745404Y-88082662D01*
X57720080Y-88100668D01*
X57716853Y-88101290D01*
X57695340Y-88091378D01*
X57654337Y-88065882D01*
X57600948Y-88029353D01*
X57571829Y-88008373D01*
X57517240Y-87966888D01*
X57474724Y-87931736D01*
X57450300Y-87908039D01*
X57446747Y-87901938D01*
X57457511Y-87885548D01*
X57487468Y-87848789D01*
X57533111Y-87795734D01*
X57590934Y-87730455D01*
X57657432Y-87657025D01*
X57659912Y-87654315D01*
X57832697Y-87462270D01*
X58006885Y-87262380D01*
X58179397Y-87058509D01*
X58347152Y-86854519D01*
X58507071Y-86654275D01*
X58656074Y-86461640D01*
X58791081Y-86280478D01*
X58909013Y-86114653D01*
X59006790Y-85968028D01*
X59017495Y-85951158D01*
X59187639Y-85668768D01*
X59336524Y-85395529D01*
X59463595Y-85133011D01*
X59568296Y-84882785D01*
X59650072Y-84646421D01*
X59708367Y-84425490D01*
X59742625Y-84221563D01*
X59752291Y-84036210D01*
X59742051Y-83903101D01*
X59707174Y-83745636D01*
X59651116Y-83613146D01*
X59572778Y-83503974D01*
X59471062Y-83416463D01*
X59387577Y-83368284D01*
X59260946Y-83314453D01*
X59131976Y-83277412D01*
X58991633Y-83255315D01*
X58830886Y-83246314D01*
X58789294Y-83245899D01*
X58600525Y-83252470D01*
X58406840Y-83273744D01*
X58205380Y-83310562D01*
X57993289Y-83363764D01*
X57767707Y-83434188D01*
X57525779Y-83522675D01*
X57264645Y-83630065D01*
X56981448Y-83757198D01*
X56868533Y-83810345D01*
X56540484Y-83966522D01*
X56201429Y-83966219D01*
X55862374Y-83965916D01*
X56012472Y-83881261D01*
X56339990Y-83702934D01*
X56663230Y-83539504D01*
X56978938Y-83392349D01*
X57283857Y-83262848D01*
X57574735Y-83152382D01*
X57848315Y-83062329D01*
X58101342Y-82994071D01*
X58111011Y-82991808D01*
X58243617Y-82961988D01*
X58354512Y-82940047D01*
X58453796Y-82924834D01*
X58551573Y-82915199D01*
X58657943Y-82909994D01*
X58783009Y-82908067D01*
X58847666Y-82907964D01*
X59002242Y-82910283D01*
G37*
G36*
X51162222Y-88164407D02*
G01*
X51164498Y-88184834D01*
X51168537Y-88232484D01*
X51173862Y-88301300D01*
X51179998Y-88385224D01*
X51183509Y-88435103D01*
X51201392Y-88692588D01*
X51089289Y-88860382D01*
X50915323Y-89133256D01*
X50757416Y-89406321D01*
X50617564Y-89675481D01*
X50497760Y-89936640D01*
X50400001Y-90185701D01*
X50326281Y-90418568D01*
X50321201Y-90437435D01*
X50297127Y-90549953D01*
X50279957Y-90675204D01*
X50270048Y-90804583D01*
X50267757Y-90929484D01*
X50273444Y-91041303D01*
X50287464Y-91131435D01*
X50291692Y-91147461D01*
X50347041Y-91295207D01*
X50420869Y-91417377D01*
X50515419Y-91515939D01*
X50632939Y-91592862D01*
X50775674Y-91650117D01*
X50900527Y-91681316D01*
X50974393Y-91693857D01*
X51048330Y-91701031D01*
X51132289Y-91703323D01*
X51236221Y-91701222D01*
X51275774Y-91699682D01*
X51509396Y-91679634D01*
X51753440Y-91638323D01*
X52011157Y-91574971D01*
X52285800Y-91488796D01*
X52530999Y-91398577D01*
X52716040Y-91321226D01*
X52923132Y-91225406D01*
X53148240Y-91113427D01*
X53387326Y-90987602D01*
X53636354Y-90850245D01*
X53891285Y-90703668D01*
X54148084Y-90550182D01*
X54402713Y-90392101D01*
X54651136Y-90231737D01*
X54889315Y-90071402D01*
X55072709Y-89942603D01*
X55283702Y-89791295D01*
X55412308Y-89920660D01*
X55540914Y-90050025D01*
X55443141Y-90122560D01*
X55363848Y-90179633D01*
X55261572Y-90250565D01*
X55141764Y-90331777D01*
X55009875Y-90419694D01*
X54871358Y-90510739D01*
X54731663Y-90601333D01*
X54596244Y-90687900D01*
X54470551Y-90766863D01*
X54360036Y-90834644D01*
X54334781Y-90849804D01*
X54035907Y-91025251D01*
X53758940Y-91181366D01*
X53500025Y-91320006D01*
X53255307Y-91443027D01*
X53020931Y-91552285D01*
X52793045Y-91649638D01*
X52567792Y-91736942D01*
X52341319Y-91816054D01*
X52301735Y-91829044D01*
X52098343Y-91892200D01*
X51916731Y-91941572D01*
X51749012Y-91978619D01*
X51587300Y-92004805D01*
X51423708Y-92021591D01*
X51250348Y-92030437D01*
X51209321Y-92031480D01*
X51089822Y-92033484D01*
X50996654Y-92033485D01*
X50922832Y-92031100D01*
X50861373Y-92025951D01*
X50805292Y-92017658D01*
X50750686Y-92006533D01*
X50611251Y-91971059D01*
X50497447Y-91931168D01*
X50401552Y-91882766D01*
X50315846Y-91821759D01*
X50232605Y-91744052D01*
X50209477Y-91719598D01*
X50117874Y-91599813D01*
X50039487Y-91454467D01*
X49977546Y-91289825D01*
X49964435Y-91244267D01*
X49943780Y-91138648D01*
X49931073Y-91010498D01*
X49926420Y-90869704D01*
X49929925Y-90726155D01*
X49941696Y-90589739D01*
X49956452Y-90495806D01*
X50019518Y-90241335D01*
X50111463Y-89970415D01*
X50232224Y-89683183D01*
X50381741Y-89379775D01*
X50559952Y-89060329D01*
X50703355Y-88824677D01*
X50750882Y-88750392D01*
X50805637Y-88667014D01*
X50864773Y-88578643D01*
X50925443Y-88489376D01*
X50984799Y-88403308D01*
X51039994Y-88324538D01*
X51088180Y-88257163D01*
X51126510Y-88205279D01*
X51152137Y-88172984D01*
X51162213Y-88164376D01*
X51162222Y-88164407D01*
G37*
G36*
X53076605Y-84964218D02*
G01*
X53141097Y-84989927D01*
X53218973Y-85029353D01*
X53296848Y-84989927D01*
X53357370Y-84964946D01*
X53419371Y-84953271D01*
X53491720Y-84954515D01*
X53583290Y-84968289D01*
X53620509Y-84975785D01*
X53688307Y-84987239D01*
X53776495Y-84998208D01*
X53872122Y-85007228D01*
X53938474Y-85011704D01*
X54136241Y-85022338D01*
X54136241Y-85853655D01*
X54136241Y-86684973D01*
X53965296Y-86685326D01*
X53866970Y-86682236D01*
X53755867Y-86673708D01*
X53651805Y-86661382D01*
X53624459Y-86657110D01*
X53514405Y-86641644D01*
X53432586Y-86637781D01*
X53375743Y-86646135D01*
X53340619Y-86667323D01*
X53323954Y-86701957D01*
X53322151Y-86714158D01*
X53316925Y-86768361D01*
X53209577Y-86768361D01*
X53102229Y-86768361D01*
X53102229Y-86710307D01*
X53098022Y-86669198D01*
X53080093Y-86648831D01*
X53056533Y-86640784D01*
X53018495Y-86638032D01*
X52959329Y-86641166D01*
X52890606Y-86649486D01*
X52877249Y-86651624D01*
X52807696Y-86660777D01*
X52716520Y-86669293D01*
X52615453Y-86676233D01*
X52516226Y-86680657D01*
X52514344Y-86680714D01*
X52285026Y-86687494D01*
X52285026Y-85854921D01*
X52285026Y-85852102D01*
X52451803Y-85852102D01*
X52451803Y-86520216D01*
X52572715Y-86509687D01*
X52653346Y-86500686D01*
X52745753Y-86487466D01*
X52824929Y-86473805D01*
X52870229Y-86466638D01*
X53318652Y-86466638D01*
X53401421Y-86456835D01*
X53465574Y-86455290D01*
X53548937Y-86461909D01*
X53630931Y-86474257D01*
X53706473Y-86487492D01*
X53777990Y-86498687D01*
X53832999Y-86505925D01*
X53844383Y-86507035D01*
X53895014Y-86511342D01*
X53934956Y-86514892D01*
X53940279Y-86515393D01*
X53947581Y-86514396D01*
X53953557Y-86507861D01*
X53958338Y-86492778D01*
X53962057Y-86466141D01*
X53964845Y-86424940D01*
X53966836Y-86366168D01*
X53968160Y-86286814D01*
X53968952Y-86183873D01*
X53969341Y-86054334D01*
X53969462Y-85895189D01*
X53969465Y-85851092D01*
X53969465Y-85183988D01*
X53866190Y-85183988D01*
X53800943Y-85180836D01*
X53717991Y-85172450D01*
X53632276Y-85160435D01*
X53607139Y-85156164D01*
X53511494Y-85141740D01*
X53441125Y-85137663D01*
X53389718Y-85143570D01*
X53389371Y-85143655D01*
X53327377Y-85158971D01*
X53323015Y-85812805D01*
X53318652Y-86466638D01*
X52870229Y-86466638D01*
X52898761Y-86462124D01*
X52970455Y-86455061D01*
X53025503Y-86454006D01*
X53029230Y-86454259D01*
X53102229Y-86460065D01*
X53102229Y-85806105D01*
X53102229Y-85152144D01*
X53041526Y-85140756D01*
X52993447Y-85138321D01*
X52923261Y-85143114D01*
X52841241Y-85154368D01*
X52827927Y-85156678D01*
X52743243Y-85169467D01*
X52654877Y-85179050D01*
X52578922Y-85183764D01*
X52563417Y-85183988D01*
X52451803Y-85183988D01*
X52451803Y-85852102D01*
X52285026Y-85852102D01*
X52285026Y-85183988D01*
X52285026Y-85022349D01*
X52497666Y-85010929D01*
X52590974Y-85004424D01*
X52683795Y-84995383D01*
X52764833Y-84985048D01*
X52818710Y-84975591D01*
X52923042Y-84956854D01*
X53006080Y-84952933D01*
X53076605Y-84964218D01*
G37*
G36*
X58585985Y-87749925D02*
G01*
X58583717Y-88131453D01*
X58564900Y-88484977D01*
X58529318Y-88811576D01*
X58476755Y-89112328D01*
X58406995Y-89388313D01*
X58319822Y-89640608D01*
X58215018Y-89870293D01*
X58131413Y-90017611D01*
X57944524Y-90288617D01*
X57733003Y-90537186D01*
X57496816Y-90763343D01*
X57235929Y-90967118D01*
X56950309Y-91148537D01*
X56639922Y-91307627D01*
X56478144Y-91377700D01*
X56399787Y-91408327D01*
X56301241Y-91444616D01*
X56186497Y-91485284D01*
X56059549Y-91529044D01*
X55924387Y-91574613D01*
X55785003Y-91620706D01*
X55645390Y-91666037D01*
X55509538Y-91709322D01*
X55381440Y-91749277D01*
X55265088Y-91784615D01*
X55164472Y-91814054D01*
X55083586Y-91836308D01*
X55026421Y-91850091D01*
X54997746Y-91854171D01*
X54976420Y-91849425D01*
X54928308Y-91836700D01*
X54858621Y-91817441D01*
X54772571Y-91793089D01*
X54675367Y-91765088D01*
X54661586Y-91761081D01*
X54553816Y-91729132D01*
X54436778Y-91693429D01*
X54314809Y-91655394D01*
X54192251Y-91616450D01*
X54073443Y-91578022D01*
X53962725Y-91541531D01*
X53864438Y-91508402D01*
X53782921Y-91480057D01*
X53722515Y-91457920D01*
X53687559Y-91443414D01*
X53681058Y-91439545D01*
X53689709Y-91427021D01*
X53722638Y-91401674D01*
X53774967Y-91366885D01*
X53841820Y-91326034D01*
X53861484Y-91314544D01*
X54055136Y-91202438D01*
X54346985Y-91303587D01*
X54440238Y-91335628D01*
X54522862Y-91363489D01*
X54589612Y-91385444D01*
X54635241Y-91399767D01*
X54654380Y-91404736D01*
X54659794Y-91388805D01*
X54664300Y-91343982D01*
X54667657Y-91274726D01*
X54669621Y-91185493D01*
X54670037Y-91117047D01*
X54670148Y-90829359D01*
X54989561Y-90620889D01*
X55081620Y-90560956D01*
X55164520Y-90507273D01*
X55234127Y-90462495D01*
X55286306Y-90429275D01*
X55316921Y-90410268D01*
X55323001Y-90406859D01*
X55326507Y-90421430D01*
X55329692Y-90465345D01*
X55332443Y-90534593D01*
X55334648Y-90625163D01*
X55336192Y-90733044D01*
X55336963Y-90854226D01*
X55337029Y-90903018D01*
X55337351Y-91028534D01*
X55338262Y-91142567D01*
X55339681Y-91241047D01*
X55341525Y-91319901D01*
X55343713Y-91375060D01*
X55346162Y-91402453D01*
X55347125Y-91404736D01*
X55379216Y-91398920D01*
X55437747Y-91382569D01*
X55518108Y-91357334D01*
X55615690Y-91324862D01*
X55725883Y-91286803D01*
X55844076Y-91244805D01*
X55965658Y-91200517D01*
X56086022Y-91155589D01*
X56200555Y-91111668D01*
X56304648Y-91070404D01*
X56393690Y-91033446D01*
X56431765Y-91016811D01*
X56718351Y-90871647D01*
X56991536Y-90698012D01*
X57253585Y-90494368D01*
X57413894Y-90350052D01*
X57493118Y-90277021D01*
X57555905Y-90224725D01*
X57607935Y-90188932D01*
X57654887Y-90165410D01*
X57668682Y-90160166D01*
X57707974Y-90145571D01*
X57735545Y-90130553D01*
X57755096Y-90108843D01*
X57770327Y-90074173D01*
X57784939Y-90020271D01*
X57802633Y-89940869D01*
X57805261Y-89928768D01*
X57822035Y-89872870D01*
X57849666Y-89801971D01*
X57882611Y-89730114D01*
X57887577Y-89720298D01*
X57972689Y-89532693D01*
X58049526Y-89319704D01*
X58115870Y-89088747D01*
X58169504Y-88847240D01*
X58196770Y-88686286D01*
X58205781Y-88614266D01*
X58215517Y-88517425D01*
X58225250Y-88404266D01*
X58234255Y-88283292D01*
X58241803Y-88163006D01*
X58242381Y-88152602D01*
X58262062Y-87794034D01*
X58421443Y-87599826D01*
X58580824Y-87405619D01*
X58585985Y-87749925D01*
G37*
G36*
X58589163Y-85236273D02*
G01*
X58589163Y-86255859D01*
X58476589Y-86407088D01*
X58424762Y-86475989D01*
X58374075Y-86542130D01*
X58331403Y-86596602D01*
X58309813Y-86623222D01*
X58255611Y-86688128D01*
X58255611Y-85619183D01*
X58255611Y-84550239D01*
X56797490Y-84550239D01*
X55339368Y-84550239D01*
X55347885Y-85821906D01*
X55349327Y-86025208D01*
X55350858Y-86219004D01*
X55352449Y-86400681D01*
X55354068Y-86567626D01*
X55355685Y-86717227D01*
X55357271Y-86846871D01*
X55358795Y-86953944D01*
X55360227Y-87035834D01*
X55361537Y-87089929D01*
X55362694Y-87113614D01*
X55362829Y-87114315D01*
X55370778Y-87118380D01*
X55393176Y-87121973D01*
X55431857Y-87125129D01*
X55488659Y-87127887D01*
X55565415Y-87130281D01*
X55663963Y-87132349D01*
X55786136Y-87134126D01*
X55933771Y-87135649D01*
X56108703Y-87136955D01*
X56312768Y-87138080D01*
X56547801Y-87139060D01*
X56624739Y-87139332D01*
X57880222Y-87143607D01*
X57721950Y-87318722D01*
X57647903Y-87399780D01*
X57565589Y-87488491D01*
X57485394Y-87573735D01*
X57421824Y-87640143D01*
X57279971Y-87786448D01*
X57101115Y-87660990D01*
X57007021Y-87597889D01*
X56935552Y-87556389D01*
X56887498Y-87536929D01*
X56875967Y-87535403D01*
X56840612Y-87537349D01*
X56778540Y-87542963D01*
X56693795Y-87551741D01*
X56590419Y-87563178D01*
X56472454Y-87576770D01*
X56343944Y-87592011D01*
X56208931Y-87608398D01*
X56071459Y-87625425D01*
X55935569Y-87642588D01*
X55805304Y-87659382D01*
X55684708Y-87675302D01*
X55577823Y-87689844D01*
X55488692Y-87702503D01*
X55421358Y-87712775D01*
X55379862Y-87720154D01*
X55367977Y-87723651D01*
X55361436Y-87742477D01*
X55346676Y-87790313D01*
X55324598Y-87864086D01*
X55296102Y-87960723D01*
X55262088Y-88077150D01*
X55223457Y-88210293D01*
X55181110Y-88357079D01*
X55135947Y-88514433D01*
X55121076Y-88566416D01*
X54884921Y-89392565D01*
X55021361Y-89529718D01*
X55157802Y-89666871D01*
X55001421Y-89781996D01*
X54896125Y-89858829D01*
X54809218Y-89920824D01*
X54742728Y-89966582D01*
X54698683Y-89994705D01*
X54679428Y-90003817D01*
X54677803Y-89987597D01*
X54676265Y-89940771D01*
X54674839Y-89866087D01*
X54673548Y-89766292D01*
X54672416Y-89644136D01*
X54671467Y-89502366D01*
X54670724Y-89343732D01*
X54670211Y-89170982D01*
X54669952Y-88986863D01*
X54669925Y-88903095D01*
X54669925Y-87802372D01*
X53209461Y-87802372D01*
X51748998Y-87802372D01*
X51759438Y-88040028D01*
X51781836Y-88380893D01*
X51818182Y-88693417D01*
X51869087Y-88979833D01*
X51935161Y-89242375D01*
X52017016Y-89483275D01*
X52115263Y-89704767D01*
X52230514Y-89909082D01*
X52299262Y-90011964D01*
X52395514Y-90134756D01*
X52514827Y-90265782D01*
X52650235Y-90398749D01*
X52794771Y-90527367D01*
X52941470Y-90645342D01*
X53083365Y-90746384D01*
X53175312Y-90803217D01*
X53223251Y-90831482D01*
X53257031Y-90852998D01*
X53269005Y-90862729D01*
X53255255Y-90872295D01*
X53218637Y-90893177D01*
X53166101Y-90921742D01*
X53104595Y-90954357D01*
X53041070Y-90987387D01*
X52982476Y-91017200D01*
X52935760Y-91040162D01*
X52907873Y-91052638D01*
X52903426Y-91053877D01*
X52886569Y-91044588D01*
X52848783Y-91020028D01*
X52796283Y-90984317D01*
X52754676Y-90955291D01*
X52543689Y-90794614D01*
X52353711Y-90623234D01*
X52178875Y-90435006D01*
X52013311Y-90223784D01*
X51902165Y-90062569D01*
X51787012Y-89866964D01*
X51688648Y-89654825D01*
X51606311Y-89423515D01*
X51539239Y-89170400D01*
X51486671Y-88892842D01*
X51447844Y-88588205D01*
X51435022Y-88446208D01*
X51432341Y-88395165D01*
X51429850Y-88312190D01*
X51427561Y-88198709D01*
X51425484Y-88056144D01*
X51423630Y-87885921D01*
X51422011Y-87689461D01*
X51420638Y-87468190D01*
X51419521Y-87223531D01*
X51419240Y-87135268D01*
X51751343Y-87135268D01*
X53210634Y-87135268D01*
X54669925Y-87135268D01*
X54669925Y-85842753D01*
X54669925Y-84550239D01*
X53210634Y-84550239D01*
X51751343Y-84550239D01*
X51751343Y-85842753D01*
X51751343Y-87135268D01*
X51419240Y-87135268D01*
X51418672Y-86956907D01*
X51418101Y-86669744D01*
X51417820Y-86363464D01*
X51417791Y-86223916D01*
X51417791Y-85842753D01*
X51417791Y-84216686D01*
X55003477Y-84216686D01*
X58589163Y-84216686D01*
X58589163Y-85236273D01*
G37*
G36*
X56879967Y-87698996D02*
G01*
X56908005Y-87717700D01*
X56957412Y-87752486D01*
X57024641Y-87800736D01*
X57106146Y-87859829D01*
X57198382Y-87927144D01*
X57297801Y-88000062D01*
X57400858Y-88075962D01*
X57504006Y-88152226D01*
X57603699Y-88226231D01*
X57696391Y-88295359D01*
X57778535Y-88356990D01*
X57846585Y-88408502D01*
X57896995Y-88447276D01*
X57926218Y-88470693D01*
X57932155Y-88476381D01*
X57930130Y-88495601D01*
X57921855Y-88543415D01*
X57908168Y-88615828D01*
X57889905Y-88708844D01*
X57867903Y-88818470D01*
X57842998Y-88940709D01*
X57816028Y-89071567D01*
X57787828Y-89207050D01*
X57759235Y-89343162D01*
X57731087Y-89475908D01*
X57704220Y-89601294D01*
X57679470Y-89715324D01*
X57657674Y-89814004D01*
X57639669Y-89893339D01*
X57626292Y-89949334D01*
X57618378Y-89977994D01*
X57617074Y-89980808D01*
X57600192Y-89987028D01*
X57555286Y-90001744D01*
X57486249Y-90023756D01*
X57396971Y-90051867D01*
X57291345Y-90084876D01*
X57173263Y-90121587D01*
X57046617Y-90160800D01*
X56915298Y-90201316D01*
X56783198Y-90241938D01*
X56654209Y-90281465D01*
X56532223Y-90318701D01*
X56421132Y-90352446D01*
X56324828Y-90381501D01*
X56247202Y-90404669D01*
X56192147Y-90420750D01*
X56163553Y-90428545D01*
X56162571Y-90428765D01*
X56148796Y-90425430D01*
X56125360Y-90410144D01*
X56090426Y-90381160D01*
X56042160Y-90336731D01*
X55978729Y-90275110D01*
X55903641Y-90199902D01*
X56303753Y-90199902D01*
X56303803Y-90203948D01*
X56322023Y-90199241D01*
X56368466Y-90185849D01*
X56439465Y-90164869D01*
X56531355Y-90137396D01*
X56640467Y-90104527D01*
X56763137Y-90067356D01*
X56887709Y-90029420D01*
X57019714Y-89988952D01*
X57141472Y-89951289D01*
X57249335Y-89917587D01*
X57339653Y-89888999D01*
X57408779Y-89866681D01*
X57453063Y-89851786D01*
X57468782Y-89845581D01*
X57473821Y-89828300D01*
X57484796Y-89782898D01*
X57500747Y-89713790D01*
X57520712Y-89625388D01*
X57543732Y-89522106D01*
X57568844Y-89408355D01*
X57595089Y-89288550D01*
X57621506Y-89167104D01*
X57647134Y-89048428D01*
X57671011Y-88936937D01*
X57692179Y-88837044D01*
X57709675Y-88753161D01*
X57722539Y-88689701D01*
X57729810Y-88651078D01*
X57731016Y-88641066D01*
X57714935Y-88643752D01*
X57670939Y-88653012D01*
X57603586Y-88667798D01*
X57517435Y-88687062D01*
X57417043Y-88709756D01*
X57306968Y-88734830D01*
X57191768Y-88761236D01*
X57076001Y-88787926D01*
X56964225Y-88813852D01*
X56860998Y-88837964D01*
X56770878Y-88859215D01*
X56698422Y-88876556D01*
X56648189Y-88888938D01*
X56624737Y-88895314D01*
X56623630Y-88895800D01*
X56617313Y-88913515D01*
X56604454Y-88959106D01*
X56586068Y-89028424D01*
X56563170Y-89117317D01*
X56536774Y-89221634D01*
X56507897Y-89337224D01*
X56477552Y-89459936D01*
X56446755Y-89585619D01*
X56416520Y-89710121D01*
X56387862Y-89829293D01*
X56361797Y-89938983D01*
X56339338Y-90035040D01*
X56321502Y-90113312D01*
X56309302Y-90169650D01*
X56303753Y-90199902D01*
X55903641Y-90199902D01*
X55898297Y-90194549D01*
X55799031Y-90093301D01*
X55679095Y-89969618D01*
X55662242Y-89952166D01*
X55557615Y-89843589D01*
X55457970Y-89739833D01*
X55366220Y-89643955D01*
X55285275Y-89559013D01*
X55218049Y-89488066D01*
X55167453Y-89434169D01*
X55136399Y-89400381D01*
X55131902Y-89395288D01*
X55068535Y-89322189D01*
X55081552Y-89277011D01*
X55273201Y-89277011D01*
X55285744Y-89295077D01*
X55318111Y-89332913D01*
X55367180Y-89387290D01*
X55429830Y-89454978D01*
X55502940Y-89532747D01*
X55583389Y-89617366D01*
X55668056Y-89705606D01*
X55753820Y-89794236D01*
X55837560Y-89880028D01*
X55916155Y-89959750D01*
X55986484Y-90030173D01*
X56045426Y-90088067D01*
X56089860Y-90130202D01*
X56116665Y-90153347D01*
X56123176Y-90156658D01*
X56129332Y-90138555D01*
X56142451Y-90091520D01*
X56161637Y-90019035D01*
X56185995Y-89924586D01*
X56214630Y-89811656D01*
X56246648Y-89683729D01*
X56281152Y-89544289D01*
X56294968Y-89488036D01*
X56456120Y-88830495D01*
X56417750Y-88792988D01*
X56388369Y-88765284D01*
X56340521Y-88721358D01*
X56277759Y-88664379D01*
X56203635Y-88597515D01*
X56121702Y-88523933D01*
X56035513Y-88446802D01*
X55948620Y-88369290D01*
X55864575Y-88294566D01*
X55786931Y-88225796D01*
X55719241Y-88166149D01*
X55665056Y-88118794D01*
X55627931Y-88086898D01*
X55611416Y-88073630D01*
X55610912Y-88073456D01*
X55603885Y-88091791D01*
X55589331Y-88137933D01*
X55568479Y-88207503D01*
X55542556Y-88296124D01*
X55512790Y-88399421D01*
X55480410Y-88513016D01*
X55446644Y-88632531D01*
X55412720Y-88753591D01*
X55379867Y-88871818D01*
X55349311Y-88982835D01*
X55322283Y-89082266D01*
X55300008Y-89165733D01*
X55283717Y-89228860D01*
X55274636Y-89267270D01*
X55273201Y-89277011D01*
X55081552Y-89277011D01*
X55279013Y-88591674D01*
X55322190Y-88441980D01*
X55362514Y-88302489D01*
X55399055Y-88176396D01*
X55430882Y-88066895D01*
X55449363Y-88003578D01*
X55807703Y-88003578D01*
X55820585Y-88016958D01*
X55854635Y-88049156D01*
X55906244Y-88096918D01*
X55971805Y-88156987D01*
X56047710Y-88226110D01*
X56130349Y-88301031D01*
X56216116Y-88378496D01*
X56301401Y-88455250D01*
X56382598Y-88528038D01*
X56456097Y-88593604D01*
X56518290Y-88648694D01*
X56565569Y-88690054D01*
X56594327Y-88714428D01*
X56601489Y-88719641D01*
X56618551Y-88716050D01*
X56664181Y-88705873D01*
X56734442Y-88690003D01*
X56825396Y-88669334D01*
X56933105Y-88644760D01*
X57053633Y-88617174D01*
X57118736Y-88602241D01*
X57244800Y-88573279D01*
X57360500Y-88546646D01*
X57461805Y-88523276D01*
X57544688Y-88504099D01*
X57605118Y-88490047D01*
X57639065Y-88482051D01*
X57644836Y-88480620D01*
X57635519Y-88470220D01*
X57602208Y-88442743D01*
X57548011Y-88400556D01*
X57476033Y-88346027D01*
X57389383Y-88281521D01*
X57291167Y-88209406D01*
X57238964Y-88171432D01*
X56818457Y-87866466D01*
X56310761Y-87928911D01*
X56185151Y-87944760D01*
X56071146Y-87959914D01*
X55972703Y-87973786D01*
X55893780Y-87985789D01*
X55838334Y-87995334D01*
X55810320Y-88001836D01*
X55807703Y-88003578D01*
X55449363Y-88003578D01*
X55457067Y-87977182D01*
X55476678Y-87910451D01*
X55488787Y-87869896D01*
X55492479Y-87858396D01*
X55510876Y-87854364D01*
X55558176Y-87847274D01*
X55630135Y-87837613D01*
X55722508Y-87825870D01*
X55831053Y-87812532D01*
X55951524Y-87798086D01*
X56079678Y-87783020D01*
X56211271Y-87767822D01*
X56342059Y-87752979D01*
X56467797Y-87738979D01*
X56584242Y-87726309D01*
X56687150Y-87715457D01*
X56772277Y-87706910D01*
X56835378Y-87701157D01*
X56872210Y-87698684D01*
X56879967Y-87698996D01*
G37*
%TO.C,C24*%
D17*
X97786374Y-72675301D02*
X98067534Y-72675301D01*
X97786374Y-73695301D02*
X98067534Y-73695301D01*
%TO.C,R3*%
X51277500Y-51862258D02*
X51277500Y-51387742D01*
X52322500Y-51862258D02*
X52322500Y-51387742D01*
%TO.C,R2*%
X41277500Y-50299451D02*
X41277500Y-50773967D01*
X42322500Y-50299451D02*
X42322500Y-50773967D01*
%TO.C,D1*%
X51065000Y-46865000D02*
X51065000Y-49150000D01*
X52535000Y-46865000D02*
X51065000Y-46865000D01*
X52535000Y-49150000D02*
X52535000Y-46865000D01*
%TO.C,C30*%
X90861954Y-60749721D02*
X90861954Y-61030881D01*
X91881954Y-60749721D02*
X91881954Y-61030881D01*
%TO.C,C8*%
X44893477Y-53644721D02*
X44893477Y-53925881D01*
X45913477Y-53644721D02*
X45913477Y-53925881D01*
%TO.C,TP2*%
X35703477Y-55385301D02*
G75*
G02*
X34303477Y-55385301I-700000J0D01*
G01*
X34303477Y-55385301D02*
G75*
G02*
X35703477Y-55385301I700000J0D01*
G01*
%TO.C,L6*%
X101090000Y-42975279D02*
X101090000Y-42649721D01*
X102110000Y-42975279D02*
X102110000Y-42649721D01*
%TO.C,C21*%
X94011374Y-69075301D02*
X94292534Y-69075301D01*
X94011374Y-70095301D02*
X94292534Y-70095301D01*
%TO.C,TP3*%
X55903477Y-53785301D02*
G75*
G02*
X54503477Y-53785301I-700000J0D01*
G01*
X54503477Y-53785301D02*
G75*
G02*
X55903477Y-53785301I700000J0D01*
G01*
%TO.C,C23*%
X101084664Y-39509453D02*
X101084664Y-39228293D01*
X102104664Y-39509453D02*
X102104664Y-39228293D01*
%TO.C,C25*%
X97786374Y-70675301D02*
X98067534Y-70675301D01*
X97786374Y-71695301D02*
X98067534Y-71695301D01*
%TO.C,J3*%
X37823603Y-32375301D02*
X39153603Y-32375301D01*
X37823603Y-33705301D02*
X37823603Y-32375301D01*
X40423603Y-32375301D02*
X43023603Y-32375301D01*
X40423603Y-35035301D02*
X40423603Y-32375301D01*
X40423603Y-35035301D02*
X43023603Y-35035301D01*
X43023603Y-35035301D02*
X43023603Y-32375301D01*
%TO.C,C26*%
X89416954Y-54325881D02*
X89416954Y-54044721D01*
X90436954Y-54325881D02*
X90436954Y-54044721D01*
%TO.C,C17*%
X81703006Y-36835199D02*
X81703006Y-36312695D01*
X83173006Y-36835199D02*
X83173006Y-36312695D01*
%TO.C,J1*%
X36173477Y-77835301D02*
X36173477Y-88055301D01*
X36173477Y-77835301D02*
X38833477Y-77835301D01*
X36173477Y-88055301D02*
X38833477Y-88055301D01*
X37503477Y-75235301D02*
X38833477Y-75235301D01*
X38833477Y-75235301D02*
X38833477Y-76565301D01*
X38833477Y-77835301D02*
X38833477Y-88055301D01*
%TO.C,C10*%
X47544057Y-65075301D02*
X47262897Y-65075301D01*
X47544057Y-66095301D02*
X47262897Y-66095301D01*
%TO.C,IC3*%
D23*
X98377500Y-42286709D02*
G75*
G02*
X98122500Y-42286709I-127500J0D01*
G01*
X98122500Y-42286709D02*
G75*
G02*
X98377500Y-42286709I127500J0D01*
G01*
%TO.C,C16*%
D17*
X84215580Y-39776709D02*
X83934420Y-39776709D01*
X84215580Y-40796709D02*
X83934420Y-40796709D01*
%TO.C,C7*%
X47544057Y-66875301D02*
X47262897Y-66875301D01*
X47544057Y-67895301D02*
X47262897Y-67895301D01*
%TO.C,C28*%
X96616954Y-68550881D02*
X96616954Y-68269721D01*
X97636954Y-68550881D02*
X97636954Y-68269721D01*
%TO.C,FL2*%
D22*
X68610000Y-35831709D02*
X72255000Y-35831709D01*
X68610000Y-37476709D02*
X68610000Y-35831709D01*
X68610000Y-43076709D02*
X68610000Y-44721709D01*
X68610000Y-44721709D02*
X72255000Y-44721709D01*
X73855000Y-44721709D02*
X77500000Y-44721709D01*
X77500000Y-35831709D02*
X73855000Y-35831709D01*
X77500000Y-37476709D02*
X77500000Y-35831709D01*
X77500000Y-44721709D02*
X77500000Y-43076709D01*
D21*
D16*
X78340655Y-45491054D02*
X78340654Y-45491054D01*
X78340654Y-45491054D01*
X78340654Y-45491054D01*
X78340654Y-45491054D01*
X78340654Y-45491054D01*
X78340654Y-45491054D01*
X78340654Y-45491054D01*
X78340654Y-45491053D01*
X78340654Y-45491053D01*
X78340654Y-45491053D01*
X78340654Y-45491053D01*
X78340654Y-45491053D01*
X78340655Y-45491053D01*
X78340655Y-45491053D01*
X78340655Y-45491053D01*
X78340655Y-45491053D01*
X78340655Y-45491053D01*
X78340655Y-45491053D01*
X78340655Y-45491053D01*
X78340655Y-45491053D01*
X78340655Y-45491053D01*
X78340655Y-45491053D01*
X78340655Y-45491053D01*
X78340655Y-45491053D01*
X78340656Y-45491053D01*
X78340656Y-45491053D01*
X78340656Y-45491053D01*
X78340656Y-45491053D01*
X78340656Y-45491053D01*
X78340656Y-45491053D01*
X78340656Y-45491054D01*
X78340656Y-45491054D01*
X78340656Y-45491054D01*
X78340656Y-45491054D01*
X78340656Y-45491054D01*
X78340656Y-45491054D01*
X78340656Y-45491054D01*
X78340655Y-45491054D01*
X78340655Y-45491054D02*
X78340656Y-45491054D01*
X78340656Y-45491054D01*
X78340656Y-45491054D01*
X78340656Y-45491054D01*
X78340656Y-45491054D01*
X78340656Y-45491054D01*
X78340656Y-45491055D01*
X78340656Y-45491055D01*
X78340656Y-45491055D01*
X78340656Y-45491055D01*
X78340656Y-45491055D01*
X78340656Y-45491055D01*
X78340656Y-45491055D01*
X78340655Y-45491055D01*
X78340655Y-45491055D01*
X78340655Y-45491055D01*
X78340655Y-45491055D01*
X78340655Y-45491055D01*
X78340655Y-45491055D01*
X78340655Y-45491055D01*
X78340655Y-45491055D01*
X78340655Y-45491055D01*
X78340655Y-45491055D01*
X78340655Y-45491055D01*
X78340655Y-45491055D01*
X78340654Y-45491055D01*
X78340654Y-45491055D01*
X78340654Y-45491055D01*
X78340654Y-45491055D01*
X78340654Y-45491055D01*
X78340654Y-45491055D01*
X78340654Y-45491054D01*
X78340654Y-45491054D01*
X78340654Y-45491054D01*
X78340654Y-45491054D01*
X78340654Y-45491054D01*
X78340654Y-45491054D01*
X78340655Y-45491054D01*
D14*
D16*
X78455000Y-42186709D02*
X78454999Y-42186709D01*
X78454999Y-42186709D01*
X78454999Y-42186709D01*
X78454999Y-42186709D01*
X78454999Y-42186709D01*
X78454999Y-42186709D01*
X78454999Y-42186709D01*
X78454999Y-42186708D01*
X78454999Y-42186708D01*
X78454999Y-42186708D01*
X78454999Y-42186708D01*
X78454999Y-42186708D01*
X78455000Y-42186708D01*
X78455000Y-42186708D01*
X78455000Y-42186708D01*
X78455000Y-42186708D01*
X78455000Y-42186708D01*
X78455000Y-42186708D01*
X78455000Y-42186708D01*
X78455000Y-42186708D01*
X78455000Y-42186708D01*
X78455000Y-42186708D01*
X78455000Y-42186708D01*
X78455000Y-42186708D01*
X78455001Y-42186708D01*
X78455001Y-42186708D01*
X78455001Y-42186708D01*
X78455001Y-42186708D01*
X78455001Y-42186708D01*
X78455001Y-42186708D01*
X78455001Y-42186709D01*
X78455001Y-42186709D01*
X78455001Y-42186709D01*
X78455001Y-42186709D01*
X78455001Y-42186709D01*
X78455001Y-42186709D01*
X78455001Y-42186709D01*
X78455000Y-42186709D01*
X78455000Y-42186709D02*
X78455001Y-42186709D01*
X78455001Y-42186709D01*
X78455001Y-42186709D01*
X78455001Y-42186709D01*
X78455001Y-42186709D01*
X78455001Y-42186709D01*
X78455001Y-42186710D01*
X78455001Y-42186710D01*
X78455001Y-42186710D01*
X78455001Y-42186710D01*
X78455001Y-42186710D01*
X78455001Y-42186710D01*
X78455001Y-42186710D01*
X78455000Y-42186710D01*
X78455000Y-42186710D01*
X78455000Y-42186710D01*
X78455000Y-42186710D01*
X78455000Y-42186710D01*
X78455000Y-42186710D01*
X78455000Y-42186710D01*
X78455000Y-42186710D01*
X78455000Y-42186710D01*
X78455000Y-42186710D01*
X78455000Y-42186710D01*
X78455000Y-42186710D01*
X78454999Y-42186710D01*
X78454999Y-42186710D01*
X78454999Y-42186710D01*
X78454999Y-42186710D01*
X78454999Y-42186710D01*
X78454999Y-42186710D01*
X78454999Y-42186709D01*
X78454999Y-42186709D01*
X78454999Y-42186709D01*
X78454999Y-42186709D01*
X78454999Y-42186709D01*
X78454999Y-42186709D01*
X78455000Y-42186709D01*
D21*
X77769345Y-45491054D02*
G75*
G02*
X78340655Y-45491054I285655J0D01*
G01*
X78340655Y-45491054D02*
G75*
G02*
X77769345Y-45491054I-285655J0D01*
G01*
%TO.C,C2*%
D17*
X49543477Y-74350881D02*
X49543477Y-74069721D01*
X50563477Y-74350881D02*
X50563477Y-74069721D01*
%TO.C,TP4*%
X50103477Y-51085301D02*
G75*
G02*
X48703477Y-51085301I-700000J0D01*
G01*
X48703477Y-51085301D02*
G75*
G02*
X50103477Y-51085301I700000J0D01*
G01*
%TO.C,C29*%
X89413477Y-57284420D02*
X89413477Y-57565580D01*
X90433477Y-57284420D02*
X90433477Y-57565580D01*
%TO.C,C27*%
X102262897Y-45490000D02*
X102544057Y-45490000D01*
X102262897Y-46510000D02*
X102544057Y-46510000D01*
%TO.C,C14*%
X69462897Y-56675301D02*
X69744057Y-56675301D01*
X69462897Y-57695301D02*
X69744057Y-57695301D01*
%TO.C,R11*%
X33280977Y-69622559D02*
X33280977Y-69148043D01*
X34325977Y-69622559D02*
X34325977Y-69148043D01*
%TO.C,C9*%
X46693477Y-53669721D02*
X46693477Y-53950881D01*
X47713477Y-53669721D02*
X47713477Y-53950881D01*
%TO.C,X1*%
X38388477Y-41700301D02*
X38168477Y-41700301D01*
X38388477Y-43920301D02*
X38168477Y-43920301D01*
D24*
X36660227Y-41310301D02*
G75*
G02*
X36396727Y-41310301I-131750J0D01*
G01*
X36396727Y-41310301D02*
G75*
G02*
X36660227Y-41310301I131750J0D01*
G01*
%TO.C,TP7*%
D17*
X43553477Y-22185301D02*
G75*
G02*
X41653477Y-22185301I-950000J0D01*
G01*
X41653477Y-22185301D02*
G75*
G02*
X43553477Y-22185301I950000J0D01*
G01*
%TO.C,C3*%
X36893477Y-54350881D02*
X36893477Y-54069721D01*
X37913477Y-54350881D02*
X37913477Y-54069721D01*
%TO.C,J4*%
X36123477Y-73895301D02*
X36123477Y-74015301D01*
X36123477Y-74015301D02*
X38783477Y-74015301D01*
X37453477Y-71355301D02*
X38783477Y-71355301D01*
X38783477Y-71355301D02*
X38783477Y-72685301D01*
X38783477Y-73895301D02*
X38783477Y-74015301D01*
%TO.C,R1*%
X47330977Y-72997559D02*
X47330977Y-72523043D01*
X48375977Y-72997559D02*
X48375977Y-72523043D01*
%TD*%
M02*
