%TF.GenerationSoftware,KiCad,Pcbnew,10.0.0*%
%TF.CreationDate,2026-10-04T12:28:16-04:00*%
%TF.ProjectId,Unified UHF,556e6966-6965-4642-9055-48462e6b6963,2026-08-14*%
%TF.SameCoordinates,Original*%
%TF.FileFunction,Legend,Top*%
%TF.FilePolarity,Positive*%
%FSLAX46Y46*%
G04 Gerber Fmt 4.6, Leading zero omitted, Abs format (unit mm)*
G04 Created by KiCad (PCBNEW 10.0.0) date 2026-10-04 12:28:16*
%MOMM*%
%LPD*%
G01*
G04 APERTURE LIST*
%ADD10C,0.150000*%
%ADD11C,0.254000*%
%ADD12C,0.300000*%
%ADD13C,0.400000*%
%ADD14C,0.100000*%
%ADD15C,0.152400*%
%ADD16C,0.000000*%
%ADD17C,0.120000*%
%ADD18C,0.250000*%
%ADD19C,0.200000*%
%ADD20C,0.255000*%
%ADD21C,0.127000*%
G04 APERTURE END LIST*
D10*
X32232049Y-82190120D02*
X32232049Y-81190120D01*
X32232049Y-81190120D02*
X32565382Y-81904405D01*
X32565382Y-81904405D02*
X32898715Y-81190120D01*
X32898715Y-81190120D02*
X32898715Y-82190120D01*
X33565382Y-81190120D02*
X33755858Y-81190120D01*
X33755858Y-81190120D02*
X33851096Y-81237739D01*
X33851096Y-81237739D02*
X33946334Y-81332977D01*
X33946334Y-81332977D02*
X33993953Y-81523453D01*
X33993953Y-81523453D02*
X33993953Y-81856786D01*
X33993953Y-81856786D02*
X33946334Y-82047262D01*
X33946334Y-82047262D02*
X33851096Y-82142501D01*
X33851096Y-82142501D02*
X33755858Y-82190120D01*
X33755858Y-82190120D02*
X33565382Y-82190120D01*
X33565382Y-82190120D02*
X33470144Y-82142501D01*
X33470144Y-82142501D02*
X33374906Y-82047262D01*
X33374906Y-82047262D02*
X33327287Y-81856786D01*
X33327287Y-81856786D02*
X33327287Y-81523453D01*
X33327287Y-81523453D02*
X33374906Y-81332977D01*
X33374906Y-81332977D02*
X33470144Y-81237739D01*
X33470144Y-81237739D02*
X33565382Y-81190120D01*
X34374906Y-82142501D02*
X34517763Y-82190120D01*
X34517763Y-82190120D02*
X34755858Y-82190120D01*
X34755858Y-82190120D02*
X34851096Y-82142501D01*
X34851096Y-82142501D02*
X34898715Y-82094881D01*
X34898715Y-82094881D02*
X34946334Y-81999643D01*
X34946334Y-81999643D02*
X34946334Y-81904405D01*
X34946334Y-81904405D02*
X34898715Y-81809167D01*
X34898715Y-81809167D02*
X34851096Y-81761548D01*
X34851096Y-81761548D02*
X34755858Y-81713929D01*
X34755858Y-81713929D02*
X34565382Y-81666310D01*
X34565382Y-81666310D02*
X34470144Y-81618691D01*
X34470144Y-81618691D02*
X34422525Y-81571072D01*
X34422525Y-81571072D02*
X34374906Y-81475834D01*
X34374906Y-81475834D02*
X34374906Y-81380596D01*
X34374906Y-81380596D02*
X34422525Y-81285358D01*
X34422525Y-81285358D02*
X34470144Y-81237739D01*
X34470144Y-81237739D02*
X34565382Y-81190120D01*
X34565382Y-81190120D02*
X34803477Y-81190120D01*
X34803477Y-81190120D02*
X34946334Y-81237739D01*
X35374906Y-82190120D02*
X35374906Y-81190120D01*
X32232049Y-84740120D02*
X32232049Y-83740120D01*
X32232049Y-83740120D02*
X32565382Y-84454405D01*
X32565382Y-84454405D02*
X32898715Y-83740120D01*
X32898715Y-83740120D02*
X32898715Y-84740120D01*
X33374906Y-84740120D02*
X33374906Y-83740120D01*
X33803477Y-84692501D02*
X33946334Y-84740120D01*
X33946334Y-84740120D02*
X34184429Y-84740120D01*
X34184429Y-84740120D02*
X34279667Y-84692501D01*
X34279667Y-84692501D02*
X34327286Y-84644881D01*
X34327286Y-84644881D02*
X34374905Y-84549643D01*
X34374905Y-84549643D02*
X34374905Y-84454405D01*
X34374905Y-84454405D02*
X34327286Y-84359167D01*
X34327286Y-84359167D02*
X34279667Y-84311548D01*
X34279667Y-84311548D02*
X34184429Y-84263929D01*
X34184429Y-84263929D02*
X33993953Y-84216310D01*
X33993953Y-84216310D02*
X33898715Y-84168691D01*
X33898715Y-84168691D02*
X33851096Y-84121072D01*
X33851096Y-84121072D02*
X33803477Y-84025834D01*
X33803477Y-84025834D02*
X33803477Y-83930596D01*
X33803477Y-83930596D02*
X33851096Y-83835358D01*
X33851096Y-83835358D02*
X33898715Y-83787739D01*
X33898715Y-83787739D02*
X33993953Y-83740120D01*
X33993953Y-83740120D02*
X34232048Y-83740120D01*
X34232048Y-83740120D02*
X34374905Y-83787739D01*
X34993953Y-83740120D02*
X35184429Y-83740120D01*
X35184429Y-83740120D02*
X35279667Y-83787739D01*
X35279667Y-83787739D02*
X35374905Y-83882977D01*
X35374905Y-83882977D02*
X35422524Y-84073453D01*
X35422524Y-84073453D02*
X35422524Y-84406786D01*
X35422524Y-84406786D02*
X35374905Y-84597262D01*
X35374905Y-84597262D02*
X35279667Y-84692501D01*
X35279667Y-84692501D02*
X35184429Y-84740120D01*
X35184429Y-84740120D02*
X34993953Y-84740120D01*
X34993953Y-84740120D02*
X34898715Y-84692501D01*
X34898715Y-84692501D02*
X34803477Y-84597262D01*
X34803477Y-84597262D02*
X34755858Y-84406786D01*
X34755858Y-84406786D02*
X34755858Y-84073453D01*
X34755858Y-84073453D02*
X34803477Y-83882977D01*
X34803477Y-83882977D02*
X34898715Y-83787739D01*
X34898715Y-83787739D02*
X34993953Y-83740120D01*
X32851096Y-76792501D02*
X32993953Y-76840120D01*
X32993953Y-76840120D02*
X33232048Y-76840120D01*
X33232048Y-76840120D02*
X33327286Y-76792501D01*
X33327286Y-76792501D02*
X33374905Y-76744881D01*
X33374905Y-76744881D02*
X33422524Y-76649643D01*
X33422524Y-76649643D02*
X33422524Y-76554405D01*
X33422524Y-76554405D02*
X33374905Y-76459167D01*
X33374905Y-76459167D02*
X33327286Y-76411548D01*
X33327286Y-76411548D02*
X33232048Y-76363929D01*
X33232048Y-76363929D02*
X33041572Y-76316310D01*
X33041572Y-76316310D02*
X32946334Y-76268691D01*
X32946334Y-76268691D02*
X32898715Y-76221072D01*
X32898715Y-76221072D02*
X32851096Y-76125834D01*
X32851096Y-76125834D02*
X32851096Y-76030596D01*
X32851096Y-76030596D02*
X32898715Y-75935358D01*
X32898715Y-75935358D02*
X32946334Y-75887739D01*
X32946334Y-75887739D02*
X33041572Y-75840120D01*
X33041572Y-75840120D02*
X33279667Y-75840120D01*
X33279667Y-75840120D02*
X33422524Y-75887739D01*
X34422524Y-76744881D02*
X34374905Y-76792501D01*
X34374905Y-76792501D02*
X34232048Y-76840120D01*
X34232048Y-76840120D02*
X34136810Y-76840120D01*
X34136810Y-76840120D02*
X33993953Y-76792501D01*
X33993953Y-76792501D02*
X33898715Y-76697262D01*
X33898715Y-76697262D02*
X33851096Y-76602024D01*
X33851096Y-76602024D02*
X33803477Y-76411548D01*
X33803477Y-76411548D02*
X33803477Y-76268691D01*
X33803477Y-76268691D02*
X33851096Y-76078215D01*
X33851096Y-76078215D02*
X33898715Y-75982977D01*
X33898715Y-75982977D02*
X33993953Y-75887739D01*
X33993953Y-75887739D02*
X34136810Y-75840120D01*
X34136810Y-75840120D02*
X34232048Y-75840120D01*
X34232048Y-75840120D02*
X34374905Y-75887739D01*
X34374905Y-75887739D02*
X34422524Y-75935358D01*
X34851096Y-76840120D02*
X34851096Y-75840120D01*
X35422524Y-76840120D02*
X34993953Y-76268691D01*
X35422524Y-75840120D02*
X34851096Y-76411548D01*
X33708238Y-87090120D02*
X33374905Y-86613929D01*
X33136810Y-87090120D02*
X33136810Y-86090120D01*
X33136810Y-86090120D02*
X33517762Y-86090120D01*
X33517762Y-86090120D02*
X33613000Y-86137739D01*
X33613000Y-86137739D02*
X33660619Y-86185358D01*
X33660619Y-86185358D02*
X33708238Y-86280596D01*
X33708238Y-86280596D02*
X33708238Y-86423453D01*
X33708238Y-86423453D02*
X33660619Y-86518691D01*
X33660619Y-86518691D02*
X33613000Y-86566310D01*
X33613000Y-86566310D02*
X33517762Y-86613929D01*
X33517762Y-86613929D02*
X33136810Y-86613929D01*
X34089191Y-87042501D02*
X34232048Y-87090120D01*
X34232048Y-87090120D02*
X34470143Y-87090120D01*
X34470143Y-87090120D02*
X34565381Y-87042501D01*
X34565381Y-87042501D02*
X34613000Y-86994881D01*
X34613000Y-86994881D02*
X34660619Y-86899643D01*
X34660619Y-86899643D02*
X34660619Y-86804405D01*
X34660619Y-86804405D02*
X34613000Y-86709167D01*
X34613000Y-86709167D02*
X34565381Y-86661548D01*
X34565381Y-86661548D02*
X34470143Y-86613929D01*
X34470143Y-86613929D02*
X34279667Y-86566310D01*
X34279667Y-86566310D02*
X34184429Y-86518691D01*
X34184429Y-86518691D02*
X34136810Y-86471072D01*
X34136810Y-86471072D02*
X34089191Y-86375834D01*
X34089191Y-86375834D02*
X34089191Y-86280596D01*
X34089191Y-86280596D02*
X34136810Y-86185358D01*
X34136810Y-86185358D02*
X34184429Y-86137739D01*
X34184429Y-86137739D02*
X34279667Y-86090120D01*
X34279667Y-86090120D02*
X34517762Y-86090120D01*
X34517762Y-86090120D02*
X34660619Y-86137739D01*
X34946334Y-86090120D02*
X35517762Y-86090120D01*
X35232048Y-87090120D02*
X35232048Y-86090120D01*
X32998715Y-85812501D02*
X35513001Y-85812501D01*
X34470143Y-79644881D02*
X34422524Y-79692501D01*
X34422524Y-79692501D02*
X34279667Y-79740120D01*
X34279667Y-79740120D02*
X34184429Y-79740120D01*
X34184429Y-79740120D02*
X34041572Y-79692501D01*
X34041572Y-79692501D02*
X33946334Y-79597262D01*
X33946334Y-79597262D02*
X33898715Y-79502024D01*
X33898715Y-79502024D02*
X33851096Y-79311548D01*
X33851096Y-79311548D02*
X33851096Y-79168691D01*
X33851096Y-79168691D02*
X33898715Y-78978215D01*
X33898715Y-78978215D02*
X33946334Y-78882977D01*
X33946334Y-78882977D02*
X34041572Y-78787739D01*
X34041572Y-78787739D02*
X34184429Y-78740120D01*
X34184429Y-78740120D02*
X34279667Y-78740120D01*
X34279667Y-78740120D02*
X34422524Y-78787739D01*
X34422524Y-78787739D02*
X34470143Y-78835358D01*
X34851096Y-79692501D02*
X34993953Y-79740120D01*
X34993953Y-79740120D02*
X35232048Y-79740120D01*
X35232048Y-79740120D02*
X35327286Y-79692501D01*
X35327286Y-79692501D02*
X35374905Y-79644881D01*
X35374905Y-79644881D02*
X35422524Y-79549643D01*
X35422524Y-79549643D02*
X35422524Y-79454405D01*
X35422524Y-79454405D02*
X35374905Y-79359167D01*
X35374905Y-79359167D02*
X35327286Y-79311548D01*
X35327286Y-79311548D02*
X35232048Y-79263929D01*
X35232048Y-79263929D02*
X35041572Y-79216310D01*
X35041572Y-79216310D02*
X34946334Y-79168691D01*
X34946334Y-79168691D02*
X34898715Y-79121072D01*
X34898715Y-79121072D02*
X34851096Y-79025834D01*
X34851096Y-79025834D02*
X34851096Y-78930596D01*
X34851096Y-78930596D02*
X34898715Y-78835358D01*
X34898715Y-78835358D02*
X34946334Y-78787739D01*
X34946334Y-78787739D02*
X35041572Y-78740120D01*
X35041572Y-78740120D02*
X35279667Y-78740120D01*
X35279667Y-78740120D02*
X35422524Y-78787739D01*
X33760620Y-78462501D02*
X35513001Y-78462501D01*
X50041572Y-56440120D02*
X50041572Y-57249643D01*
X50041572Y-57249643D02*
X50089191Y-57344881D01*
X50089191Y-57344881D02*
X50136810Y-57392501D01*
X50136810Y-57392501D02*
X50232048Y-57440120D01*
X50232048Y-57440120D02*
X50422524Y-57440120D01*
X50422524Y-57440120D02*
X50517762Y-57392501D01*
X50517762Y-57392501D02*
X50565381Y-57344881D01*
X50565381Y-57344881D02*
X50613000Y-57249643D01*
X50613000Y-57249643D02*
X50613000Y-56440120D01*
X51041572Y-56535358D02*
X51089191Y-56487739D01*
X51089191Y-56487739D02*
X51184429Y-56440120D01*
X51184429Y-56440120D02*
X51422524Y-56440120D01*
X51422524Y-56440120D02*
X51517762Y-56487739D01*
X51517762Y-56487739D02*
X51565381Y-56535358D01*
X51565381Y-56535358D02*
X51613000Y-56630596D01*
X51613000Y-56630596D02*
X51613000Y-56725834D01*
X51613000Y-56725834D02*
X51565381Y-56868691D01*
X51565381Y-56868691D02*
X50993953Y-57440120D01*
X50993953Y-57440120D02*
X51613000Y-57440120D01*
X69091572Y-30237739D02*
X68996334Y-30190120D01*
X68996334Y-30190120D02*
X68853477Y-30190120D01*
X68853477Y-30190120D02*
X68710620Y-30237739D01*
X68710620Y-30237739D02*
X68615382Y-30332977D01*
X68615382Y-30332977D02*
X68567763Y-30428215D01*
X68567763Y-30428215D02*
X68520144Y-30618691D01*
X68520144Y-30618691D02*
X68520144Y-30761548D01*
X68520144Y-30761548D02*
X68567763Y-30952024D01*
X68567763Y-30952024D02*
X68615382Y-31047262D01*
X68615382Y-31047262D02*
X68710620Y-31142501D01*
X68710620Y-31142501D02*
X68853477Y-31190120D01*
X68853477Y-31190120D02*
X68948715Y-31190120D01*
X68948715Y-31190120D02*
X69091572Y-31142501D01*
X69091572Y-31142501D02*
X69139191Y-31094881D01*
X69139191Y-31094881D02*
X69139191Y-30761548D01*
X69139191Y-30761548D02*
X68948715Y-30761548D01*
X69567763Y-31190120D02*
X69567763Y-30190120D01*
X69567763Y-30190120D02*
X70139191Y-31190120D01*
X70139191Y-31190120D02*
X70139191Y-30190120D01*
X70615382Y-31190120D02*
X70615382Y-30190120D01*
X70615382Y-30190120D02*
X70853477Y-30190120D01*
X70853477Y-30190120D02*
X70996334Y-30237739D01*
X70996334Y-30237739D02*
X71091572Y-30332977D01*
X71091572Y-30332977D02*
X71139191Y-30428215D01*
X71139191Y-30428215D02*
X71186810Y-30618691D01*
X71186810Y-30618691D02*
X71186810Y-30761548D01*
X71186810Y-30761548D02*
X71139191Y-30952024D01*
X71139191Y-30952024D02*
X71091572Y-31047262D01*
X71091572Y-31047262D02*
X70996334Y-31142501D01*
X70996334Y-31142501D02*
X70853477Y-31190120D01*
X70853477Y-31190120D02*
X70615382Y-31190120D01*
X69813000Y-27290120D02*
X69336810Y-27290120D01*
X69336810Y-27290120D02*
X69289191Y-27766310D01*
X69289191Y-27766310D02*
X69336810Y-27718691D01*
X69336810Y-27718691D02*
X69432048Y-27671072D01*
X69432048Y-27671072D02*
X69670143Y-27671072D01*
X69670143Y-27671072D02*
X69765381Y-27718691D01*
X69765381Y-27718691D02*
X69813000Y-27766310D01*
X69813000Y-27766310D02*
X69860619Y-27861548D01*
X69860619Y-27861548D02*
X69860619Y-28099643D01*
X69860619Y-28099643D02*
X69813000Y-28194881D01*
X69813000Y-28194881D02*
X69765381Y-28242501D01*
X69765381Y-28242501D02*
X69670143Y-28290120D01*
X69670143Y-28290120D02*
X69432048Y-28290120D01*
X69432048Y-28290120D02*
X69336810Y-28242501D01*
X69336810Y-28242501D02*
X69289191Y-28194881D01*
X70146334Y-27290120D02*
X70479667Y-28290120D01*
X70479667Y-28290120D02*
X70813000Y-27290120D01*
X76538095Y-57054819D02*
X77109523Y-57054819D01*
X76823809Y-58054819D02*
X76823809Y-57054819D01*
X77442857Y-58054819D02*
X77442857Y-57054819D01*
X77442857Y-57054819D02*
X77823809Y-57054819D01*
X77823809Y-57054819D02*
X77919047Y-57102438D01*
X77919047Y-57102438D02*
X77966666Y-57150057D01*
X77966666Y-57150057D02*
X78014285Y-57245295D01*
X78014285Y-57245295D02*
X78014285Y-57388152D01*
X78014285Y-57388152D02*
X77966666Y-57483390D01*
X77966666Y-57483390D02*
X77919047Y-57531009D01*
X77919047Y-57531009D02*
X77823809Y-57578628D01*
X77823809Y-57578628D02*
X77442857Y-57578628D01*
X78871428Y-57388152D02*
X78871428Y-58054819D01*
X78633333Y-57007200D02*
X78395238Y-57721485D01*
X78395238Y-57721485D02*
X79014285Y-57721485D01*
X38451899Y-31591987D02*
X38451899Y-30972940D01*
X38451899Y-30972940D02*
X38832851Y-31306273D01*
X38832851Y-31306273D02*
X38832851Y-31163416D01*
X38832851Y-31163416D02*
X38880470Y-31068178D01*
X38880470Y-31068178D02*
X38928089Y-31020559D01*
X38928089Y-31020559D02*
X39023327Y-30972940D01*
X39023327Y-30972940D02*
X39261422Y-30972940D01*
X39261422Y-30972940D02*
X39356660Y-31020559D01*
X39356660Y-31020559D02*
X39404280Y-31068178D01*
X39404280Y-31068178D02*
X39451899Y-31163416D01*
X39451899Y-31163416D02*
X39451899Y-31449130D01*
X39451899Y-31449130D02*
X39404280Y-31544368D01*
X39404280Y-31544368D02*
X39356660Y-31591987D01*
X38451899Y-30687225D02*
X39451899Y-30353892D01*
X39451899Y-30353892D02*
X38451899Y-30020559D01*
X38451899Y-29782463D02*
X38451899Y-29163416D01*
X38451899Y-29163416D02*
X38832851Y-29496749D01*
X38832851Y-29496749D02*
X38832851Y-29353892D01*
X38832851Y-29353892D02*
X38880470Y-29258654D01*
X38880470Y-29258654D02*
X38928089Y-29211035D01*
X38928089Y-29211035D02*
X39023327Y-29163416D01*
X39023327Y-29163416D02*
X39261422Y-29163416D01*
X39261422Y-29163416D02*
X39356660Y-29211035D01*
X39356660Y-29211035D02*
X39404280Y-29258654D01*
X39404280Y-29258654D02*
X39451899Y-29353892D01*
X39451899Y-29353892D02*
X39451899Y-29639606D01*
X39451899Y-29639606D02*
X39404280Y-29734844D01*
X39404280Y-29734844D02*
X39356660Y-29782463D01*
X41399518Y-31015797D02*
X41351899Y-31111035D01*
X41351899Y-31111035D02*
X41351899Y-31253892D01*
X41351899Y-31253892D02*
X41399518Y-31396749D01*
X41399518Y-31396749D02*
X41494756Y-31491987D01*
X41494756Y-31491987D02*
X41589994Y-31539606D01*
X41589994Y-31539606D02*
X41780470Y-31587225D01*
X41780470Y-31587225D02*
X41923327Y-31587225D01*
X41923327Y-31587225D02*
X42113803Y-31539606D01*
X42113803Y-31539606D02*
X42209041Y-31491987D01*
X42209041Y-31491987D02*
X42304280Y-31396749D01*
X42304280Y-31396749D02*
X42351899Y-31253892D01*
X42351899Y-31253892D02*
X42351899Y-31158654D01*
X42351899Y-31158654D02*
X42304280Y-31015797D01*
X42304280Y-31015797D02*
X42256660Y-30968178D01*
X42256660Y-30968178D02*
X41923327Y-30968178D01*
X41923327Y-30968178D02*
X41923327Y-31158654D01*
X42351899Y-30539606D02*
X41351899Y-30539606D01*
X41351899Y-30539606D02*
X42351899Y-29968178D01*
X42351899Y-29968178D02*
X41351899Y-29968178D01*
X42351899Y-29491987D02*
X41351899Y-29491987D01*
X41351899Y-29491987D02*
X41351899Y-29253892D01*
X41351899Y-29253892D02*
X41399518Y-29111035D01*
X41399518Y-29111035D02*
X41494756Y-29015797D01*
X41494756Y-29015797D02*
X41589994Y-28968178D01*
X41589994Y-28968178D02*
X41780470Y-28920559D01*
X41780470Y-28920559D02*
X41923327Y-28920559D01*
X41923327Y-28920559D02*
X42113803Y-28968178D01*
X42113803Y-28968178D02*
X42209041Y-29015797D01*
X42209041Y-29015797D02*
X42304280Y-29111035D01*
X42304280Y-29111035D02*
X42351899Y-29253892D01*
X42351899Y-29253892D02*
X42351899Y-29491987D01*
D11*
X61160237Y-64911027D02*
X61160237Y-63641027D01*
X62490714Y-64790074D02*
X62430238Y-64850551D01*
X62430238Y-64850551D02*
X62248809Y-64911027D01*
X62248809Y-64911027D02*
X62127857Y-64911027D01*
X62127857Y-64911027D02*
X61946428Y-64850551D01*
X61946428Y-64850551D02*
X61825476Y-64729598D01*
X61825476Y-64729598D02*
X61764999Y-64608646D01*
X61764999Y-64608646D02*
X61704523Y-64366741D01*
X61704523Y-64366741D02*
X61704523Y-64185312D01*
X61704523Y-64185312D02*
X61764999Y-63943408D01*
X61764999Y-63943408D02*
X61825476Y-63822455D01*
X61825476Y-63822455D02*
X61946428Y-63701503D01*
X61946428Y-63701503D02*
X62127857Y-63641027D01*
X62127857Y-63641027D02*
X62248809Y-63641027D01*
X62248809Y-63641027D02*
X62430238Y-63701503D01*
X62430238Y-63701503D02*
X62490714Y-63761979D01*
X63700238Y-64911027D02*
X62974523Y-64911027D01*
X63337380Y-64911027D02*
X63337380Y-63641027D01*
X63337380Y-63641027D02*
X63216428Y-63822455D01*
X63216428Y-63822455D02*
X63095476Y-63943408D01*
X63095476Y-63943408D02*
X62974523Y-64003884D01*
D12*
X68940225Y-80700828D02*
X69797368Y-80700828D01*
X69368796Y-82200828D02*
X69368796Y-80700828D01*
X70154510Y-80700828D02*
X71154510Y-82200828D01*
X71154510Y-80700828D02*
X70154510Y-82200828D01*
X73368795Y-81415114D02*
X73583081Y-81486542D01*
X73583081Y-81486542D02*
X73654510Y-81557971D01*
X73654510Y-81557971D02*
X73725938Y-81700828D01*
X73725938Y-81700828D02*
X73725938Y-81915114D01*
X73725938Y-81915114D02*
X73654510Y-82057971D01*
X73654510Y-82057971D02*
X73583081Y-82129400D01*
X73583081Y-82129400D02*
X73440224Y-82200828D01*
X73440224Y-82200828D02*
X72868795Y-82200828D01*
X72868795Y-82200828D02*
X72868795Y-80700828D01*
X72868795Y-80700828D02*
X73368795Y-80700828D01*
X73368795Y-80700828D02*
X73511653Y-80772257D01*
X73511653Y-80772257D02*
X73583081Y-80843685D01*
X73583081Y-80843685D02*
X73654510Y-80986542D01*
X73654510Y-80986542D02*
X73654510Y-81129400D01*
X73654510Y-81129400D02*
X73583081Y-81272257D01*
X73583081Y-81272257D02*
X73511653Y-81343685D01*
X73511653Y-81343685D02*
X73368795Y-81415114D01*
X73368795Y-81415114D02*
X72868795Y-81415114D01*
X74368795Y-82200828D02*
X74368795Y-80700828D01*
X74368795Y-80700828D02*
X74940224Y-80700828D01*
X74940224Y-80700828D02*
X75083081Y-80772257D01*
X75083081Y-80772257D02*
X75154510Y-80843685D01*
X75154510Y-80843685D02*
X75225938Y-80986542D01*
X75225938Y-80986542D02*
X75225938Y-81200828D01*
X75225938Y-81200828D02*
X75154510Y-81343685D01*
X75154510Y-81343685D02*
X75083081Y-81415114D01*
X75083081Y-81415114D02*
X74940224Y-81486542D01*
X74940224Y-81486542D02*
X74368795Y-81486542D01*
X76368795Y-81415114D02*
X75868795Y-81415114D01*
X75868795Y-82200828D02*
X75868795Y-80700828D01*
X75868795Y-80700828D02*
X76583081Y-80700828D01*
X70411653Y-48937537D02*
X69911653Y-48223251D01*
X69554510Y-48937537D02*
X69554510Y-47437537D01*
X69554510Y-47437537D02*
X70125939Y-47437537D01*
X70125939Y-47437537D02*
X70268796Y-47508966D01*
X70268796Y-47508966D02*
X70340225Y-47580394D01*
X70340225Y-47580394D02*
X70411653Y-47723251D01*
X70411653Y-47723251D02*
X70411653Y-47937537D01*
X70411653Y-47937537D02*
X70340225Y-48080394D01*
X70340225Y-48080394D02*
X70268796Y-48151823D01*
X70268796Y-48151823D02*
X70125939Y-48223251D01*
X70125939Y-48223251D02*
X69554510Y-48223251D01*
X70911653Y-47437537D02*
X71911653Y-48937537D01*
X71911653Y-47437537D02*
X70911653Y-48937537D01*
X74125938Y-48151823D02*
X74340224Y-48223251D01*
X74340224Y-48223251D02*
X74411653Y-48294680D01*
X74411653Y-48294680D02*
X74483081Y-48437537D01*
X74483081Y-48437537D02*
X74483081Y-48651823D01*
X74483081Y-48651823D02*
X74411653Y-48794680D01*
X74411653Y-48794680D02*
X74340224Y-48866109D01*
X74340224Y-48866109D02*
X74197367Y-48937537D01*
X74197367Y-48937537D02*
X73625938Y-48937537D01*
X73625938Y-48937537D02*
X73625938Y-47437537D01*
X73625938Y-47437537D02*
X74125938Y-47437537D01*
X74125938Y-47437537D02*
X74268796Y-47508966D01*
X74268796Y-47508966D02*
X74340224Y-47580394D01*
X74340224Y-47580394D02*
X74411653Y-47723251D01*
X74411653Y-47723251D02*
X74411653Y-47866109D01*
X74411653Y-47866109D02*
X74340224Y-48008966D01*
X74340224Y-48008966D02*
X74268796Y-48080394D01*
X74268796Y-48080394D02*
X74125938Y-48151823D01*
X74125938Y-48151823D02*
X73625938Y-48151823D01*
X75125938Y-48937537D02*
X75125938Y-47437537D01*
X75125938Y-47437537D02*
X75697367Y-47437537D01*
X75697367Y-47437537D02*
X75840224Y-47508966D01*
X75840224Y-47508966D02*
X75911653Y-47580394D01*
X75911653Y-47580394D02*
X75983081Y-47723251D01*
X75983081Y-47723251D02*
X75983081Y-47937537D01*
X75983081Y-47937537D02*
X75911653Y-48080394D01*
X75911653Y-48080394D02*
X75840224Y-48151823D01*
X75840224Y-48151823D02*
X75697367Y-48223251D01*
X75697367Y-48223251D02*
X75125938Y-48223251D01*
X77125938Y-48151823D02*
X76625938Y-48151823D01*
X76625938Y-48937537D02*
X76625938Y-47437537D01*
X76625938Y-47437537D02*
X77340224Y-47437537D01*
X90940225Y-77700828D02*
X91797368Y-77700828D01*
X91368796Y-79200828D02*
X91368796Y-77700828D01*
X92154510Y-77700828D02*
X93154510Y-79200828D01*
X93154510Y-77700828D02*
X92154510Y-79200828D01*
X94868795Y-79200828D02*
X94868795Y-77700828D01*
X94868795Y-77700828D02*
X95440224Y-77700828D01*
X95440224Y-77700828D02*
X95583081Y-77772257D01*
X95583081Y-77772257D02*
X95654510Y-77843685D01*
X95654510Y-77843685D02*
X95725938Y-77986542D01*
X95725938Y-77986542D02*
X95725938Y-78200828D01*
X95725938Y-78200828D02*
X95654510Y-78343685D01*
X95654510Y-78343685D02*
X95583081Y-78415114D01*
X95583081Y-78415114D02*
X95440224Y-78486542D01*
X95440224Y-78486542D02*
X94868795Y-78486542D01*
X96297367Y-78772257D02*
X97011653Y-78772257D01*
X96154510Y-79200828D02*
X96654510Y-77700828D01*
X96654510Y-77700828D02*
X97154510Y-79200828D01*
X94811653Y-32337537D02*
X94311653Y-31623251D01*
X93954510Y-32337537D02*
X93954510Y-30837537D01*
X93954510Y-30837537D02*
X94525939Y-30837537D01*
X94525939Y-30837537D02*
X94668796Y-30908966D01*
X94668796Y-30908966D02*
X94740225Y-30980394D01*
X94740225Y-30980394D02*
X94811653Y-31123251D01*
X94811653Y-31123251D02*
X94811653Y-31337537D01*
X94811653Y-31337537D02*
X94740225Y-31480394D01*
X94740225Y-31480394D02*
X94668796Y-31551823D01*
X94668796Y-31551823D02*
X94525939Y-31623251D01*
X94525939Y-31623251D02*
X93954510Y-31623251D01*
X95311653Y-30837537D02*
X96311653Y-32337537D01*
X96311653Y-30837537D02*
X95311653Y-32337537D01*
X98740224Y-32337537D02*
X98025938Y-32337537D01*
X98025938Y-32337537D02*
X98025938Y-30837537D01*
X99240224Y-32337537D02*
X99240224Y-30837537D01*
X99240224Y-30837537D02*
X100097367Y-32337537D01*
X100097367Y-32337537D02*
X100097367Y-30837537D01*
X100740225Y-31908966D02*
X101454511Y-31908966D01*
X100597368Y-32337537D02*
X101097368Y-30837537D01*
X101097368Y-30837537D02*
X101597368Y-32337537D01*
D13*
X47142824Y-96919739D02*
X47142824Y-94919739D01*
X47142824Y-94919739D02*
X47904729Y-94919739D01*
X47904729Y-94919739D02*
X48095205Y-95014977D01*
X48095205Y-95014977D02*
X48190443Y-95110215D01*
X48190443Y-95110215D02*
X48285681Y-95300691D01*
X48285681Y-95300691D02*
X48285681Y-95586405D01*
X48285681Y-95586405D02*
X48190443Y-95776881D01*
X48190443Y-95776881D02*
X48095205Y-95872120D01*
X48095205Y-95872120D02*
X47904729Y-95967358D01*
X47904729Y-95967358D02*
X47142824Y-95967358D01*
X48857110Y-94919739D02*
X49523776Y-96919739D01*
X49523776Y-96919739D02*
X50190443Y-94919739D01*
X50857110Y-96919739D02*
X50857110Y-94919739D01*
X50857110Y-94919739D02*
X51333300Y-94919739D01*
X51333300Y-94919739D02*
X51619015Y-95014977D01*
X51619015Y-95014977D02*
X51809491Y-95205453D01*
X51809491Y-95205453D02*
X51904729Y-95395929D01*
X51904729Y-95395929D02*
X51999967Y-95776881D01*
X51999967Y-95776881D02*
X51999967Y-96062596D01*
X51999967Y-96062596D02*
X51904729Y-96443548D01*
X51904729Y-96443548D02*
X51809491Y-96634024D01*
X51809491Y-96634024D02*
X51619015Y-96824501D01*
X51619015Y-96824501D02*
X51333300Y-96919739D01*
X51333300Y-96919739D02*
X50857110Y-96919739D01*
X52666634Y-94919739D02*
X53999967Y-96919739D01*
X53999967Y-94919739D02*
X52666634Y-96919739D01*
X56285682Y-94919739D02*
X56285682Y-96538786D01*
X56285682Y-96538786D02*
X56380920Y-96729262D01*
X56380920Y-96729262D02*
X56476158Y-96824501D01*
X56476158Y-96824501D02*
X56666634Y-96919739D01*
X56666634Y-96919739D02*
X57047587Y-96919739D01*
X57047587Y-96919739D02*
X57238063Y-96824501D01*
X57238063Y-96824501D02*
X57333301Y-96729262D01*
X57333301Y-96729262D02*
X57428539Y-96538786D01*
X57428539Y-96538786D02*
X57428539Y-94919739D01*
X58380920Y-96919739D02*
X58380920Y-94919739D01*
X58380920Y-95872120D02*
X59523777Y-95872120D01*
X59523777Y-96919739D02*
X59523777Y-94919739D01*
X61142825Y-95872120D02*
X60476158Y-95872120D01*
X60476158Y-96919739D02*
X60476158Y-94919739D01*
X60476158Y-94919739D02*
X61428539Y-94919739D01*
X64380921Y-95872120D02*
X64666635Y-95967358D01*
X64666635Y-95967358D02*
X64761873Y-96062596D01*
X64761873Y-96062596D02*
X64857111Y-96253072D01*
X64857111Y-96253072D02*
X64857111Y-96538786D01*
X64857111Y-96538786D02*
X64761873Y-96729262D01*
X64761873Y-96729262D02*
X64666635Y-96824501D01*
X64666635Y-96824501D02*
X64476159Y-96919739D01*
X64476159Y-96919739D02*
X63714254Y-96919739D01*
X63714254Y-96919739D02*
X63714254Y-94919739D01*
X63714254Y-94919739D02*
X64380921Y-94919739D01*
X64380921Y-94919739D02*
X64571397Y-95014977D01*
X64571397Y-95014977D02*
X64666635Y-95110215D01*
X64666635Y-95110215D02*
X64761873Y-95300691D01*
X64761873Y-95300691D02*
X64761873Y-95491167D01*
X64761873Y-95491167D02*
X64666635Y-95681643D01*
X64666635Y-95681643D02*
X64571397Y-95776881D01*
X64571397Y-95776881D02*
X64380921Y-95872120D01*
X64380921Y-95872120D02*
X63714254Y-95872120D01*
X66095206Y-94919739D02*
X66476159Y-94919739D01*
X66476159Y-94919739D02*
X66666635Y-95014977D01*
X66666635Y-95014977D02*
X66857111Y-95205453D01*
X66857111Y-95205453D02*
X66952349Y-95586405D01*
X66952349Y-95586405D02*
X66952349Y-96253072D01*
X66952349Y-96253072D02*
X66857111Y-96634024D01*
X66857111Y-96634024D02*
X66666635Y-96824501D01*
X66666635Y-96824501D02*
X66476159Y-96919739D01*
X66476159Y-96919739D02*
X66095206Y-96919739D01*
X66095206Y-96919739D02*
X65904730Y-96824501D01*
X65904730Y-96824501D02*
X65714254Y-96634024D01*
X65714254Y-96634024D02*
X65619016Y-96253072D01*
X65619016Y-96253072D02*
X65619016Y-95586405D01*
X65619016Y-95586405D02*
X65714254Y-95205453D01*
X65714254Y-95205453D02*
X65904730Y-95014977D01*
X65904730Y-95014977D02*
X66095206Y-94919739D01*
X67714254Y-96348310D02*
X68666635Y-96348310D01*
X67523778Y-96919739D02*
X68190444Y-94919739D01*
X68190444Y-94919739D02*
X68857111Y-96919739D01*
X70666635Y-96919739D02*
X69999968Y-95967358D01*
X69523778Y-96919739D02*
X69523778Y-94919739D01*
X69523778Y-94919739D02*
X70285683Y-94919739D01*
X70285683Y-94919739D02*
X70476159Y-95014977D01*
X70476159Y-95014977D02*
X70571397Y-95110215D01*
X70571397Y-95110215D02*
X70666635Y-95300691D01*
X70666635Y-95300691D02*
X70666635Y-95586405D01*
X70666635Y-95586405D02*
X70571397Y-95776881D01*
X70571397Y-95776881D02*
X70476159Y-95872120D01*
X70476159Y-95872120D02*
X70285683Y-95967358D01*
X70285683Y-95967358D02*
X69523778Y-95967358D01*
X71523778Y-96919739D02*
X71523778Y-94919739D01*
X71523778Y-94919739D02*
X71999968Y-94919739D01*
X71999968Y-94919739D02*
X72285683Y-95014977D01*
X72285683Y-95014977D02*
X72476159Y-95205453D01*
X72476159Y-95205453D02*
X72571397Y-95395929D01*
X72571397Y-95395929D02*
X72666635Y-95776881D01*
X72666635Y-95776881D02*
X72666635Y-96062596D01*
X72666635Y-96062596D02*
X72571397Y-96443548D01*
X72571397Y-96443548D02*
X72476159Y-96634024D01*
X72476159Y-96634024D02*
X72285683Y-96824501D01*
X72285683Y-96824501D02*
X71999968Y-96919739D01*
X71999968Y-96919739D02*
X71523778Y-96919739D01*
D10*
X36441572Y-57640120D02*
X36441572Y-58449643D01*
X36441572Y-58449643D02*
X36489191Y-58544881D01*
X36489191Y-58544881D02*
X36536810Y-58592501D01*
X36536810Y-58592501D02*
X36632048Y-58640120D01*
X36632048Y-58640120D02*
X36822524Y-58640120D01*
X36822524Y-58640120D02*
X36917762Y-58592501D01*
X36917762Y-58592501D02*
X36965381Y-58544881D01*
X36965381Y-58544881D02*
X37013000Y-58449643D01*
X37013000Y-58449643D02*
X37013000Y-57640120D01*
X38013000Y-58640120D02*
X37441572Y-58640120D01*
X37727286Y-58640120D02*
X37727286Y-57640120D01*
X37727286Y-57640120D02*
X37632048Y-57782977D01*
X37632048Y-57782977D02*
X37536810Y-57878215D01*
X37536810Y-57878215D02*
X37441572Y-57925834D01*
X46903476Y-63730481D02*
X46903476Y-63492386D01*
X47141571Y-63587624D02*
X46903476Y-63492386D01*
X46903476Y-63492386D02*
X46665381Y-63587624D01*
X47046333Y-63301910D02*
X46903476Y-63492386D01*
X46903476Y-63492386D02*
X46760619Y-63301910D01*
X35336810Y-66194881D02*
X35289191Y-66242501D01*
X35289191Y-66242501D02*
X35146334Y-66290120D01*
X35146334Y-66290120D02*
X35051096Y-66290120D01*
X35051096Y-66290120D02*
X34908239Y-66242501D01*
X34908239Y-66242501D02*
X34813001Y-66147262D01*
X34813001Y-66147262D02*
X34765382Y-66052024D01*
X34765382Y-66052024D02*
X34717763Y-65861548D01*
X34717763Y-65861548D02*
X34717763Y-65718691D01*
X34717763Y-65718691D02*
X34765382Y-65528215D01*
X34765382Y-65528215D02*
X34813001Y-65432977D01*
X34813001Y-65432977D02*
X34908239Y-65337739D01*
X34908239Y-65337739D02*
X35051096Y-65290120D01*
X35051096Y-65290120D02*
X35146334Y-65290120D01*
X35146334Y-65290120D02*
X35289191Y-65337739D01*
X35289191Y-65337739D02*
X35336810Y-65385358D01*
X36193953Y-65290120D02*
X36003477Y-65290120D01*
X36003477Y-65290120D02*
X35908239Y-65337739D01*
X35908239Y-65337739D02*
X35860620Y-65385358D01*
X35860620Y-65385358D02*
X35765382Y-65528215D01*
X35765382Y-65528215D02*
X35717763Y-65718691D01*
X35717763Y-65718691D02*
X35717763Y-66099643D01*
X35717763Y-66099643D02*
X35765382Y-66194881D01*
X35765382Y-66194881D02*
X35813001Y-66242501D01*
X35813001Y-66242501D02*
X35908239Y-66290120D01*
X35908239Y-66290120D02*
X36098715Y-66290120D01*
X36098715Y-66290120D02*
X36193953Y-66242501D01*
X36193953Y-66242501D02*
X36241572Y-66194881D01*
X36241572Y-66194881D02*
X36289191Y-66099643D01*
X36289191Y-66099643D02*
X36289191Y-65861548D01*
X36289191Y-65861548D02*
X36241572Y-65766310D01*
X36241572Y-65766310D02*
X36193953Y-65718691D01*
X36193953Y-65718691D02*
X36098715Y-65671072D01*
X36098715Y-65671072D02*
X35908239Y-65671072D01*
X35908239Y-65671072D02*
X35813001Y-65718691D01*
X35813001Y-65718691D02*
X35765382Y-65766310D01*
X35765382Y-65766310D02*
X35717763Y-65861548D01*
X90957142Y-53254819D02*
X90623809Y-52778628D01*
X90385714Y-53254819D02*
X90385714Y-52254819D01*
X90385714Y-52254819D02*
X90766666Y-52254819D01*
X90766666Y-52254819D02*
X90861904Y-52302438D01*
X90861904Y-52302438D02*
X90909523Y-52350057D01*
X90909523Y-52350057D02*
X90957142Y-52445295D01*
X90957142Y-52445295D02*
X90957142Y-52588152D01*
X90957142Y-52588152D02*
X90909523Y-52683390D01*
X90909523Y-52683390D02*
X90861904Y-52731009D01*
X90861904Y-52731009D02*
X90766666Y-52778628D01*
X90766666Y-52778628D02*
X90385714Y-52778628D01*
X91909523Y-53254819D02*
X91338095Y-53254819D01*
X91623809Y-53254819D02*
X91623809Y-52254819D01*
X91623809Y-52254819D02*
X91528571Y-52397676D01*
X91528571Y-52397676D02*
X91433333Y-52492914D01*
X91433333Y-52492914D02*
X91338095Y-52540533D01*
X92861904Y-53254819D02*
X92290476Y-53254819D01*
X92576190Y-53254819D02*
X92576190Y-52254819D01*
X92576190Y-52254819D02*
X92480952Y-52397676D01*
X92480952Y-52397676D02*
X92385714Y-52492914D01*
X92385714Y-52492914D02*
X92290476Y-52540533D01*
X69684580Y-65779566D02*
X69732200Y-65827185D01*
X69732200Y-65827185D02*
X69779819Y-65970042D01*
X69779819Y-65970042D02*
X69779819Y-66065280D01*
X69779819Y-66065280D02*
X69732200Y-66208137D01*
X69732200Y-66208137D02*
X69636961Y-66303375D01*
X69636961Y-66303375D02*
X69541723Y-66350994D01*
X69541723Y-66350994D02*
X69351247Y-66398613D01*
X69351247Y-66398613D02*
X69208390Y-66398613D01*
X69208390Y-66398613D02*
X69017914Y-66350994D01*
X69017914Y-66350994D02*
X68922676Y-66303375D01*
X68922676Y-66303375D02*
X68827438Y-66208137D01*
X68827438Y-66208137D02*
X68779819Y-66065280D01*
X68779819Y-66065280D02*
X68779819Y-65970042D01*
X68779819Y-65970042D02*
X68827438Y-65827185D01*
X68827438Y-65827185D02*
X68875057Y-65779566D01*
X69779819Y-64827185D02*
X69779819Y-65398613D01*
X69779819Y-65112899D02*
X68779819Y-65112899D01*
X68779819Y-65112899D02*
X68922676Y-65208137D01*
X68922676Y-65208137D02*
X69017914Y-65303375D01*
X69017914Y-65303375D02*
X69065533Y-65398613D01*
X68779819Y-64493851D02*
X68779819Y-63874804D01*
X68779819Y-63874804D02*
X69160771Y-64208137D01*
X69160771Y-64208137D02*
X69160771Y-64065280D01*
X69160771Y-64065280D02*
X69208390Y-63970042D01*
X69208390Y-63970042D02*
X69256009Y-63922423D01*
X69256009Y-63922423D02*
X69351247Y-63874804D01*
X69351247Y-63874804D02*
X69589342Y-63874804D01*
X69589342Y-63874804D02*
X69684580Y-63922423D01*
X69684580Y-63922423D02*
X69732200Y-63970042D01*
X69732200Y-63970042D02*
X69779819Y-64065280D01*
X69779819Y-64065280D02*
X69779819Y-64350994D01*
X69779819Y-64350994D02*
X69732200Y-64446232D01*
X69732200Y-64446232D02*
X69684580Y-64493851D01*
X36836810Y-61144881D02*
X36789191Y-61192501D01*
X36789191Y-61192501D02*
X36646334Y-61240120D01*
X36646334Y-61240120D02*
X36551096Y-61240120D01*
X36551096Y-61240120D02*
X36408239Y-61192501D01*
X36408239Y-61192501D02*
X36313001Y-61097262D01*
X36313001Y-61097262D02*
X36265382Y-61002024D01*
X36265382Y-61002024D02*
X36217763Y-60811548D01*
X36217763Y-60811548D02*
X36217763Y-60668691D01*
X36217763Y-60668691D02*
X36265382Y-60478215D01*
X36265382Y-60478215D02*
X36313001Y-60382977D01*
X36313001Y-60382977D02*
X36408239Y-60287739D01*
X36408239Y-60287739D02*
X36551096Y-60240120D01*
X36551096Y-60240120D02*
X36646334Y-60240120D01*
X36646334Y-60240120D02*
X36789191Y-60287739D01*
X36789191Y-60287739D02*
X36836810Y-60335358D01*
X37741572Y-60240120D02*
X37265382Y-60240120D01*
X37265382Y-60240120D02*
X37217763Y-60716310D01*
X37217763Y-60716310D02*
X37265382Y-60668691D01*
X37265382Y-60668691D02*
X37360620Y-60621072D01*
X37360620Y-60621072D02*
X37598715Y-60621072D01*
X37598715Y-60621072D02*
X37693953Y-60668691D01*
X37693953Y-60668691D02*
X37741572Y-60716310D01*
X37741572Y-60716310D02*
X37789191Y-60811548D01*
X37789191Y-60811548D02*
X37789191Y-61049643D01*
X37789191Y-61049643D02*
X37741572Y-61144881D01*
X37741572Y-61144881D02*
X37693953Y-61192501D01*
X37693953Y-61192501D02*
X37598715Y-61240120D01*
X37598715Y-61240120D02*
X37360620Y-61240120D01*
X37360620Y-61240120D02*
X37265382Y-61192501D01*
X37265382Y-61192501D02*
X37217763Y-61144881D01*
X94236016Y-64941117D02*
X94283636Y-64988736D01*
X94283636Y-64988736D02*
X94331255Y-65131593D01*
X94331255Y-65131593D02*
X94331255Y-65226831D01*
X94331255Y-65226831D02*
X94283636Y-65369688D01*
X94283636Y-65369688D02*
X94188397Y-65464926D01*
X94188397Y-65464926D02*
X94093159Y-65512545D01*
X94093159Y-65512545D02*
X93902683Y-65560164D01*
X93902683Y-65560164D02*
X93759826Y-65560164D01*
X93759826Y-65560164D02*
X93569350Y-65512545D01*
X93569350Y-65512545D02*
X93474112Y-65464926D01*
X93474112Y-65464926D02*
X93378874Y-65369688D01*
X93378874Y-65369688D02*
X93331255Y-65226831D01*
X93331255Y-65226831D02*
X93331255Y-65131593D01*
X93331255Y-65131593D02*
X93378874Y-64988736D01*
X93378874Y-64988736D02*
X93426493Y-64941117D01*
X94331255Y-63988736D02*
X94331255Y-64560164D01*
X94331255Y-64274450D02*
X93331255Y-64274450D01*
X93331255Y-64274450D02*
X93474112Y-64369688D01*
X93474112Y-64369688D02*
X93569350Y-64464926D01*
X93569350Y-64464926D02*
X93616969Y-64560164D01*
X94331255Y-63512545D02*
X94331255Y-63322069D01*
X94331255Y-63322069D02*
X94283636Y-63226831D01*
X94283636Y-63226831D02*
X94236016Y-63179212D01*
X94236016Y-63179212D02*
X94093159Y-63083974D01*
X94093159Y-63083974D02*
X93902683Y-63036355D01*
X93902683Y-63036355D02*
X93521731Y-63036355D01*
X93521731Y-63036355D02*
X93426493Y-63083974D01*
X93426493Y-63083974D02*
X93378874Y-63131593D01*
X93378874Y-63131593D02*
X93331255Y-63226831D01*
X93331255Y-63226831D02*
X93331255Y-63417307D01*
X93331255Y-63417307D02*
X93378874Y-63512545D01*
X93378874Y-63512545D02*
X93426493Y-63560164D01*
X93426493Y-63560164D02*
X93521731Y-63607783D01*
X93521731Y-63607783D02*
X93759826Y-63607783D01*
X93759826Y-63607783D02*
X93855064Y-63560164D01*
X93855064Y-63560164D02*
X93902683Y-63512545D01*
X93902683Y-63512545D02*
X93950302Y-63417307D01*
X93950302Y-63417307D02*
X93950302Y-63226831D01*
X93950302Y-63226831D02*
X93902683Y-63131593D01*
X93902683Y-63131593D02*
X93855064Y-63083974D01*
X93855064Y-63083974D02*
X93759826Y-63036355D01*
X86087142Y-75759580D02*
X86039523Y-75807200D01*
X86039523Y-75807200D02*
X85896666Y-75854819D01*
X85896666Y-75854819D02*
X85801428Y-75854819D01*
X85801428Y-75854819D02*
X85658571Y-75807200D01*
X85658571Y-75807200D02*
X85563333Y-75711961D01*
X85563333Y-75711961D02*
X85515714Y-75616723D01*
X85515714Y-75616723D02*
X85468095Y-75426247D01*
X85468095Y-75426247D02*
X85468095Y-75283390D01*
X85468095Y-75283390D02*
X85515714Y-75092914D01*
X85515714Y-75092914D02*
X85563333Y-74997676D01*
X85563333Y-74997676D02*
X85658571Y-74902438D01*
X85658571Y-74902438D02*
X85801428Y-74854819D01*
X85801428Y-74854819D02*
X85896666Y-74854819D01*
X85896666Y-74854819D02*
X86039523Y-74902438D01*
X86039523Y-74902438D02*
X86087142Y-74950057D01*
X87039523Y-75854819D02*
X86468095Y-75854819D01*
X86753809Y-75854819D02*
X86753809Y-74854819D01*
X86753809Y-74854819D02*
X86658571Y-74997676D01*
X86658571Y-74997676D02*
X86563333Y-75092914D01*
X86563333Y-75092914D02*
X86468095Y-75140533D01*
X87944285Y-74854819D02*
X87468095Y-74854819D01*
X87468095Y-74854819D02*
X87420476Y-75331009D01*
X87420476Y-75331009D02*
X87468095Y-75283390D01*
X87468095Y-75283390D02*
X87563333Y-75235771D01*
X87563333Y-75235771D02*
X87801428Y-75235771D01*
X87801428Y-75235771D02*
X87896666Y-75283390D01*
X87896666Y-75283390D02*
X87944285Y-75331009D01*
X87944285Y-75331009D02*
X87991904Y-75426247D01*
X87991904Y-75426247D02*
X87991904Y-75664342D01*
X87991904Y-75664342D02*
X87944285Y-75759580D01*
X87944285Y-75759580D02*
X87896666Y-75807200D01*
X87896666Y-75807200D02*
X87801428Y-75854819D01*
X87801428Y-75854819D02*
X87563333Y-75854819D01*
X87563333Y-75854819D02*
X87468095Y-75807200D01*
X87468095Y-75807200D02*
X87420476Y-75759580D01*
D11*
X88563714Y-76959619D02*
X88563714Y-75689619D01*
X89894191Y-76838666D02*
X89833715Y-76899143D01*
X89833715Y-76899143D02*
X89652286Y-76959619D01*
X89652286Y-76959619D02*
X89531334Y-76959619D01*
X89531334Y-76959619D02*
X89349905Y-76899143D01*
X89349905Y-76899143D02*
X89228953Y-76778190D01*
X89228953Y-76778190D02*
X89168476Y-76657238D01*
X89168476Y-76657238D02*
X89108000Y-76415333D01*
X89108000Y-76415333D02*
X89108000Y-76233904D01*
X89108000Y-76233904D02*
X89168476Y-75992000D01*
X89168476Y-75992000D02*
X89228953Y-75871047D01*
X89228953Y-75871047D02*
X89349905Y-75750095D01*
X89349905Y-75750095D02*
X89531334Y-75689619D01*
X89531334Y-75689619D02*
X89652286Y-75689619D01*
X89652286Y-75689619D02*
X89833715Y-75750095D01*
X89833715Y-75750095D02*
X89894191Y-75810571D01*
X90378000Y-75810571D02*
X90438476Y-75750095D01*
X90438476Y-75750095D02*
X90559429Y-75689619D01*
X90559429Y-75689619D02*
X90861810Y-75689619D01*
X90861810Y-75689619D02*
X90982762Y-75750095D01*
X90982762Y-75750095D02*
X91043238Y-75810571D01*
X91043238Y-75810571D02*
X91103715Y-75931523D01*
X91103715Y-75931523D02*
X91103715Y-76052476D01*
X91103715Y-76052476D02*
X91043238Y-76233904D01*
X91043238Y-76233904D02*
X90317524Y-76959619D01*
X90317524Y-76959619D02*
X91103715Y-76959619D01*
D10*
X74254819Y-54766666D02*
X73778628Y-55099999D01*
X74254819Y-55338094D02*
X73254819Y-55338094D01*
X73254819Y-55338094D02*
X73254819Y-54957142D01*
X73254819Y-54957142D02*
X73302438Y-54861904D01*
X73302438Y-54861904D02*
X73350057Y-54814285D01*
X73350057Y-54814285D02*
X73445295Y-54766666D01*
X73445295Y-54766666D02*
X73588152Y-54766666D01*
X73588152Y-54766666D02*
X73683390Y-54814285D01*
X73683390Y-54814285D02*
X73731009Y-54861904D01*
X73731009Y-54861904D02*
X73778628Y-54957142D01*
X73778628Y-54957142D02*
X73778628Y-55338094D01*
X73254819Y-53909523D02*
X73254819Y-54099999D01*
X73254819Y-54099999D02*
X73302438Y-54195237D01*
X73302438Y-54195237D02*
X73350057Y-54242856D01*
X73350057Y-54242856D02*
X73492914Y-54338094D01*
X73492914Y-54338094D02*
X73683390Y-54385713D01*
X73683390Y-54385713D02*
X74064342Y-54385713D01*
X74064342Y-54385713D02*
X74159580Y-54338094D01*
X74159580Y-54338094D02*
X74207200Y-54290475D01*
X74207200Y-54290475D02*
X74254819Y-54195237D01*
X74254819Y-54195237D02*
X74254819Y-54004761D01*
X74254819Y-54004761D02*
X74207200Y-53909523D01*
X74207200Y-53909523D02*
X74159580Y-53861904D01*
X74159580Y-53861904D02*
X74064342Y-53814285D01*
X74064342Y-53814285D02*
X73826247Y-53814285D01*
X73826247Y-53814285D02*
X73731009Y-53861904D01*
X73731009Y-53861904D02*
X73683390Y-53909523D01*
X73683390Y-53909523D02*
X73635771Y-54004761D01*
X73635771Y-54004761D02*
X73635771Y-54195237D01*
X73635771Y-54195237D02*
X73683390Y-54290475D01*
X73683390Y-54290475D02*
X73731009Y-54338094D01*
X73731009Y-54338094D02*
X73826247Y-54385713D01*
X78791905Y-73054819D02*
X79363333Y-73054819D01*
X79077619Y-74054819D02*
X79077619Y-73054819D01*
X79696667Y-74054819D02*
X79696667Y-73054819D01*
X79696667Y-73054819D02*
X80077619Y-73054819D01*
X80077619Y-73054819D02*
X80172857Y-73102438D01*
X80172857Y-73102438D02*
X80220476Y-73150057D01*
X80220476Y-73150057D02*
X80268095Y-73245295D01*
X80268095Y-73245295D02*
X80268095Y-73388152D01*
X80268095Y-73388152D02*
X80220476Y-73483390D01*
X80220476Y-73483390D02*
X80172857Y-73531009D01*
X80172857Y-73531009D02*
X80077619Y-73578628D01*
X80077619Y-73578628D02*
X79696667Y-73578628D01*
X81220476Y-74054819D02*
X80649048Y-74054819D01*
X80934762Y-74054819D02*
X80934762Y-73054819D01*
X80934762Y-73054819D02*
X80839524Y-73197676D01*
X80839524Y-73197676D02*
X80744286Y-73292914D01*
X80744286Y-73292914D02*
X80649048Y-73340533D01*
X81839524Y-73054819D02*
X81934762Y-73054819D01*
X81934762Y-73054819D02*
X82030000Y-73102438D01*
X82030000Y-73102438D02*
X82077619Y-73150057D01*
X82077619Y-73150057D02*
X82125238Y-73245295D01*
X82125238Y-73245295D02*
X82172857Y-73435771D01*
X82172857Y-73435771D02*
X82172857Y-73673866D01*
X82172857Y-73673866D02*
X82125238Y-73864342D01*
X82125238Y-73864342D02*
X82077619Y-73959580D01*
X82077619Y-73959580D02*
X82030000Y-74007200D01*
X82030000Y-74007200D02*
X81934762Y-74054819D01*
X81934762Y-74054819D02*
X81839524Y-74054819D01*
X81839524Y-74054819D02*
X81744286Y-74007200D01*
X81744286Y-74007200D02*
X81696667Y-73959580D01*
X81696667Y-73959580D02*
X81649048Y-73864342D01*
X81649048Y-73864342D02*
X81601429Y-73673866D01*
X81601429Y-73673866D02*
X81601429Y-73435771D01*
X81601429Y-73435771D02*
X81649048Y-73245295D01*
X81649048Y-73245295D02*
X81696667Y-73150057D01*
X81696667Y-73150057D02*
X81744286Y-73102438D01*
X81744286Y-73102438D02*
X81839524Y-73054819D01*
X88033333Y-36254819D02*
X87557143Y-36254819D01*
X87557143Y-36254819D02*
X87557143Y-35254819D01*
X88319048Y-35350057D02*
X88366667Y-35302438D01*
X88366667Y-35302438D02*
X88461905Y-35254819D01*
X88461905Y-35254819D02*
X88700000Y-35254819D01*
X88700000Y-35254819D02*
X88795238Y-35302438D01*
X88795238Y-35302438D02*
X88842857Y-35350057D01*
X88842857Y-35350057D02*
X88890476Y-35445295D01*
X88890476Y-35445295D02*
X88890476Y-35540533D01*
X88890476Y-35540533D02*
X88842857Y-35683390D01*
X88842857Y-35683390D02*
X88271429Y-36254819D01*
X88271429Y-36254819D02*
X88890476Y-36254819D01*
X97919642Y-35159580D02*
X97872023Y-35207200D01*
X97872023Y-35207200D02*
X97729166Y-35254819D01*
X97729166Y-35254819D02*
X97633928Y-35254819D01*
X97633928Y-35254819D02*
X97491071Y-35207200D01*
X97491071Y-35207200D02*
X97395833Y-35111961D01*
X97395833Y-35111961D02*
X97348214Y-35016723D01*
X97348214Y-35016723D02*
X97300595Y-34826247D01*
X97300595Y-34826247D02*
X97300595Y-34683390D01*
X97300595Y-34683390D02*
X97348214Y-34492914D01*
X97348214Y-34492914D02*
X97395833Y-34397676D01*
X97395833Y-34397676D02*
X97491071Y-34302438D01*
X97491071Y-34302438D02*
X97633928Y-34254819D01*
X97633928Y-34254819D02*
X97729166Y-34254819D01*
X97729166Y-34254819D02*
X97872023Y-34302438D01*
X97872023Y-34302438D02*
X97919642Y-34350057D01*
X98300595Y-34350057D02*
X98348214Y-34302438D01*
X98348214Y-34302438D02*
X98443452Y-34254819D01*
X98443452Y-34254819D02*
X98681547Y-34254819D01*
X98681547Y-34254819D02*
X98776785Y-34302438D01*
X98776785Y-34302438D02*
X98824404Y-34350057D01*
X98824404Y-34350057D02*
X98872023Y-34445295D01*
X98872023Y-34445295D02*
X98872023Y-34540533D01*
X98872023Y-34540533D02*
X98824404Y-34683390D01*
X98824404Y-34683390D02*
X98252976Y-35254819D01*
X98252976Y-35254819D02*
X98872023Y-35254819D01*
X99252976Y-34350057D02*
X99300595Y-34302438D01*
X99300595Y-34302438D02*
X99395833Y-34254819D01*
X99395833Y-34254819D02*
X99633928Y-34254819D01*
X99633928Y-34254819D02*
X99729166Y-34302438D01*
X99729166Y-34302438D02*
X99776785Y-34350057D01*
X99776785Y-34350057D02*
X99824404Y-34445295D01*
X99824404Y-34445295D02*
X99824404Y-34540533D01*
X99824404Y-34540533D02*
X99776785Y-34683390D01*
X99776785Y-34683390D02*
X99205357Y-35254819D01*
X99205357Y-35254819D02*
X99824404Y-35254819D01*
X94344642Y-35254819D02*
X94011309Y-34778628D01*
X93773214Y-35254819D02*
X93773214Y-34254819D01*
X93773214Y-34254819D02*
X94154166Y-34254819D01*
X94154166Y-34254819D02*
X94249404Y-34302438D01*
X94249404Y-34302438D02*
X94297023Y-34350057D01*
X94297023Y-34350057D02*
X94344642Y-34445295D01*
X94344642Y-34445295D02*
X94344642Y-34588152D01*
X94344642Y-34588152D02*
X94297023Y-34683390D01*
X94297023Y-34683390D02*
X94249404Y-34731009D01*
X94249404Y-34731009D02*
X94154166Y-34778628D01*
X94154166Y-34778628D02*
X93773214Y-34778628D01*
X95297023Y-35254819D02*
X94725595Y-35254819D01*
X95011309Y-35254819D02*
X95011309Y-34254819D01*
X95011309Y-34254819D02*
X94916071Y-34397676D01*
X94916071Y-34397676D02*
X94820833Y-34492914D01*
X94820833Y-34492914D02*
X94725595Y-34540533D01*
X95916071Y-34254819D02*
X96011309Y-34254819D01*
X96011309Y-34254819D02*
X96106547Y-34302438D01*
X96106547Y-34302438D02*
X96154166Y-34350057D01*
X96154166Y-34350057D02*
X96201785Y-34445295D01*
X96201785Y-34445295D02*
X96249404Y-34635771D01*
X96249404Y-34635771D02*
X96249404Y-34873866D01*
X96249404Y-34873866D02*
X96201785Y-35064342D01*
X96201785Y-35064342D02*
X96154166Y-35159580D01*
X96154166Y-35159580D02*
X96106547Y-35207200D01*
X96106547Y-35207200D02*
X96011309Y-35254819D01*
X96011309Y-35254819D02*
X95916071Y-35254819D01*
X95916071Y-35254819D02*
X95820833Y-35207200D01*
X95820833Y-35207200D02*
X95773214Y-35159580D01*
X95773214Y-35159580D02*
X95725595Y-35064342D01*
X95725595Y-35064342D02*
X95677976Y-34873866D01*
X95677976Y-34873866D02*
X95677976Y-34635771D01*
X95677976Y-34635771D02*
X95725595Y-34445295D01*
X95725595Y-34445295D02*
X95773214Y-34350057D01*
X95773214Y-34350057D02*
X95820833Y-34302438D01*
X95820833Y-34302438D02*
X95916071Y-34254819D01*
X60938095Y-43254819D02*
X61509523Y-43254819D01*
X61223809Y-44254819D02*
X61223809Y-43254819D01*
X61842857Y-44254819D02*
X61842857Y-43254819D01*
X61842857Y-43254819D02*
X62223809Y-43254819D01*
X62223809Y-43254819D02*
X62319047Y-43302438D01*
X62319047Y-43302438D02*
X62366666Y-43350057D01*
X62366666Y-43350057D02*
X62414285Y-43445295D01*
X62414285Y-43445295D02*
X62414285Y-43588152D01*
X62414285Y-43588152D02*
X62366666Y-43683390D01*
X62366666Y-43683390D02*
X62319047Y-43731009D01*
X62319047Y-43731009D02*
X62223809Y-43778628D01*
X62223809Y-43778628D02*
X61842857Y-43778628D01*
X63271428Y-43254819D02*
X63080952Y-43254819D01*
X63080952Y-43254819D02*
X62985714Y-43302438D01*
X62985714Y-43302438D02*
X62938095Y-43350057D01*
X62938095Y-43350057D02*
X62842857Y-43492914D01*
X62842857Y-43492914D02*
X62795238Y-43683390D01*
X62795238Y-43683390D02*
X62795238Y-44064342D01*
X62795238Y-44064342D02*
X62842857Y-44159580D01*
X62842857Y-44159580D02*
X62890476Y-44207200D01*
X62890476Y-44207200D02*
X62985714Y-44254819D01*
X62985714Y-44254819D02*
X63176190Y-44254819D01*
X63176190Y-44254819D02*
X63271428Y-44207200D01*
X63271428Y-44207200D02*
X63319047Y-44159580D01*
X63319047Y-44159580D02*
X63366666Y-44064342D01*
X63366666Y-44064342D02*
X63366666Y-43826247D01*
X63366666Y-43826247D02*
X63319047Y-43731009D01*
X63319047Y-43731009D02*
X63271428Y-43683390D01*
X63271428Y-43683390D02*
X63176190Y-43635771D01*
X63176190Y-43635771D02*
X62985714Y-43635771D01*
X62985714Y-43635771D02*
X62890476Y-43683390D01*
X62890476Y-43683390D02*
X62842857Y-43731009D01*
X62842857Y-43731009D02*
X62795238Y-43826247D01*
X54741572Y-68640120D02*
X55313000Y-68640120D01*
X55027286Y-69640120D02*
X55027286Y-68640120D01*
X55646334Y-69640120D02*
X55646334Y-68640120D01*
X55646334Y-68640120D02*
X56027286Y-68640120D01*
X56027286Y-68640120D02*
X56122524Y-68687739D01*
X56122524Y-68687739D02*
X56170143Y-68735358D01*
X56170143Y-68735358D02*
X56217762Y-68830596D01*
X56217762Y-68830596D02*
X56217762Y-68973453D01*
X56217762Y-68973453D02*
X56170143Y-69068691D01*
X56170143Y-69068691D02*
X56122524Y-69116310D01*
X56122524Y-69116310D02*
X56027286Y-69163929D01*
X56027286Y-69163929D02*
X55646334Y-69163929D01*
X56789191Y-69068691D02*
X56693953Y-69021072D01*
X56693953Y-69021072D02*
X56646334Y-68973453D01*
X56646334Y-68973453D02*
X56598715Y-68878215D01*
X56598715Y-68878215D02*
X56598715Y-68830596D01*
X56598715Y-68830596D02*
X56646334Y-68735358D01*
X56646334Y-68735358D02*
X56693953Y-68687739D01*
X56693953Y-68687739D02*
X56789191Y-68640120D01*
X56789191Y-68640120D02*
X56979667Y-68640120D01*
X56979667Y-68640120D02*
X57074905Y-68687739D01*
X57074905Y-68687739D02*
X57122524Y-68735358D01*
X57122524Y-68735358D02*
X57170143Y-68830596D01*
X57170143Y-68830596D02*
X57170143Y-68878215D01*
X57170143Y-68878215D02*
X57122524Y-68973453D01*
X57122524Y-68973453D02*
X57074905Y-69021072D01*
X57074905Y-69021072D02*
X56979667Y-69068691D01*
X56979667Y-69068691D02*
X56789191Y-69068691D01*
X56789191Y-69068691D02*
X56693953Y-69116310D01*
X56693953Y-69116310D02*
X56646334Y-69163929D01*
X56646334Y-69163929D02*
X56598715Y-69259167D01*
X56598715Y-69259167D02*
X56598715Y-69449643D01*
X56598715Y-69449643D02*
X56646334Y-69544881D01*
X56646334Y-69544881D02*
X56693953Y-69592501D01*
X56693953Y-69592501D02*
X56789191Y-69640120D01*
X56789191Y-69640120D02*
X56979667Y-69640120D01*
X56979667Y-69640120D02*
X57074905Y-69592501D01*
X57074905Y-69592501D02*
X57122524Y-69544881D01*
X57122524Y-69544881D02*
X57170143Y-69449643D01*
X57170143Y-69449643D02*
X57170143Y-69259167D01*
X57170143Y-69259167D02*
X57122524Y-69163929D01*
X57122524Y-69163929D02*
X57074905Y-69116310D01*
X57074905Y-69116310D02*
X56979667Y-69068691D01*
X96460619Y-66144881D02*
X96413000Y-66192501D01*
X96413000Y-66192501D02*
X96270143Y-66240120D01*
X96270143Y-66240120D02*
X96174905Y-66240120D01*
X96174905Y-66240120D02*
X96032048Y-66192501D01*
X96032048Y-66192501D02*
X95936810Y-66097262D01*
X95936810Y-66097262D02*
X95889191Y-66002024D01*
X95889191Y-66002024D02*
X95841572Y-65811548D01*
X95841572Y-65811548D02*
X95841572Y-65668691D01*
X95841572Y-65668691D02*
X95889191Y-65478215D01*
X95889191Y-65478215D02*
X95936810Y-65382977D01*
X95936810Y-65382977D02*
X96032048Y-65287739D01*
X96032048Y-65287739D02*
X96174905Y-65240120D01*
X96174905Y-65240120D02*
X96270143Y-65240120D01*
X96270143Y-65240120D02*
X96413000Y-65287739D01*
X96413000Y-65287739D02*
X96460619Y-65335358D01*
X96841572Y-65335358D02*
X96889191Y-65287739D01*
X96889191Y-65287739D02*
X96984429Y-65240120D01*
X96984429Y-65240120D02*
X97222524Y-65240120D01*
X97222524Y-65240120D02*
X97317762Y-65287739D01*
X97317762Y-65287739D02*
X97365381Y-65335358D01*
X97365381Y-65335358D02*
X97413000Y-65430596D01*
X97413000Y-65430596D02*
X97413000Y-65525834D01*
X97413000Y-65525834D02*
X97365381Y-65668691D01*
X97365381Y-65668691D02*
X96793953Y-66240120D01*
X96793953Y-66240120D02*
X97413000Y-66240120D01*
X98032048Y-65240120D02*
X98127286Y-65240120D01*
X98127286Y-65240120D02*
X98222524Y-65287739D01*
X98222524Y-65287739D02*
X98270143Y-65335358D01*
X98270143Y-65335358D02*
X98317762Y-65430596D01*
X98317762Y-65430596D02*
X98365381Y-65621072D01*
X98365381Y-65621072D02*
X98365381Y-65859167D01*
X98365381Y-65859167D02*
X98317762Y-66049643D01*
X98317762Y-66049643D02*
X98270143Y-66144881D01*
X98270143Y-66144881D02*
X98222524Y-66192501D01*
X98222524Y-66192501D02*
X98127286Y-66240120D01*
X98127286Y-66240120D02*
X98032048Y-66240120D01*
X98032048Y-66240120D02*
X97936810Y-66192501D01*
X97936810Y-66192501D02*
X97889191Y-66144881D01*
X97889191Y-66144881D02*
X97841572Y-66049643D01*
X97841572Y-66049643D02*
X97793953Y-65859167D01*
X97793953Y-65859167D02*
X97793953Y-65621072D01*
X97793953Y-65621072D02*
X97841572Y-65430596D01*
X97841572Y-65430596D02*
X97889191Y-65335358D01*
X97889191Y-65335358D02*
X97936810Y-65287739D01*
X97936810Y-65287739D02*
X98032048Y-65240120D01*
X96254819Y-50442857D02*
X95778628Y-50776190D01*
X96254819Y-51014285D02*
X95254819Y-51014285D01*
X95254819Y-51014285D02*
X95254819Y-50633333D01*
X95254819Y-50633333D02*
X95302438Y-50538095D01*
X95302438Y-50538095D02*
X95350057Y-50490476D01*
X95350057Y-50490476D02*
X95445295Y-50442857D01*
X95445295Y-50442857D02*
X95588152Y-50442857D01*
X95588152Y-50442857D02*
X95683390Y-50490476D01*
X95683390Y-50490476D02*
X95731009Y-50538095D01*
X95731009Y-50538095D02*
X95778628Y-50633333D01*
X95778628Y-50633333D02*
X95778628Y-51014285D01*
X96254819Y-49490476D02*
X96254819Y-50061904D01*
X96254819Y-49776190D02*
X95254819Y-49776190D01*
X95254819Y-49776190D02*
X95397676Y-49871428D01*
X95397676Y-49871428D02*
X95492914Y-49966666D01*
X95492914Y-49966666D02*
X95540533Y-50061904D01*
X95350057Y-49109523D02*
X95302438Y-49061904D01*
X95302438Y-49061904D02*
X95254819Y-48966666D01*
X95254819Y-48966666D02*
X95254819Y-48728571D01*
X95254819Y-48728571D02*
X95302438Y-48633333D01*
X95302438Y-48633333D02*
X95350057Y-48585714D01*
X95350057Y-48585714D02*
X95445295Y-48538095D01*
X95445295Y-48538095D02*
X95540533Y-48538095D01*
X95540533Y-48538095D02*
X95683390Y-48585714D01*
X95683390Y-48585714D02*
X96254819Y-49157142D01*
X96254819Y-49157142D02*
X96254819Y-48538095D01*
D11*
X92563714Y-54959619D02*
X92563714Y-53689619D01*
X93894191Y-54838666D02*
X93833715Y-54899143D01*
X93833715Y-54899143D02*
X93652286Y-54959619D01*
X93652286Y-54959619D02*
X93531334Y-54959619D01*
X93531334Y-54959619D02*
X93349905Y-54899143D01*
X93349905Y-54899143D02*
X93228953Y-54778190D01*
X93228953Y-54778190D02*
X93168476Y-54657238D01*
X93168476Y-54657238D02*
X93108000Y-54415333D01*
X93108000Y-54415333D02*
X93108000Y-54233904D01*
X93108000Y-54233904D02*
X93168476Y-53992000D01*
X93168476Y-53992000D02*
X93228953Y-53871047D01*
X93228953Y-53871047D02*
X93349905Y-53750095D01*
X93349905Y-53750095D02*
X93531334Y-53689619D01*
X93531334Y-53689619D02*
X93652286Y-53689619D01*
X93652286Y-53689619D02*
X93833715Y-53750095D01*
X93833715Y-53750095D02*
X93894191Y-53810571D01*
X94982762Y-54112952D02*
X94982762Y-54959619D01*
X94680381Y-53629143D02*
X94378000Y-54536285D01*
X94378000Y-54536285D02*
X95164191Y-54536285D01*
D10*
X83633333Y-72454819D02*
X83157143Y-72454819D01*
X83157143Y-72454819D02*
X83157143Y-71454819D01*
X84490476Y-72454819D02*
X83919048Y-72454819D01*
X84204762Y-72454819D02*
X84204762Y-71454819D01*
X84204762Y-71454819D02*
X84109524Y-71597676D01*
X84109524Y-71597676D02*
X84014286Y-71692914D01*
X84014286Y-71692914D02*
X83919048Y-71740533D01*
X90254819Y-70054957D02*
X89778628Y-70388290D01*
X90254819Y-70626385D02*
X89254819Y-70626385D01*
X89254819Y-70626385D02*
X89254819Y-70245433D01*
X89254819Y-70245433D02*
X89302438Y-70150195D01*
X89302438Y-70150195D02*
X89350057Y-70102576D01*
X89350057Y-70102576D02*
X89445295Y-70054957D01*
X89445295Y-70054957D02*
X89588152Y-70054957D01*
X89588152Y-70054957D02*
X89683390Y-70102576D01*
X89683390Y-70102576D02*
X89731009Y-70150195D01*
X89731009Y-70150195D02*
X89778628Y-70245433D01*
X89778628Y-70245433D02*
X89778628Y-70626385D01*
X89683390Y-69483528D02*
X89635771Y-69578766D01*
X89635771Y-69578766D02*
X89588152Y-69626385D01*
X89588152Y-69626385D02*
X89492914Y-69674004D01*
X89492914Y-69674004D02*
X89445295Y-69674004D01*
X89445295Y-69674004D02*
X89350057Y-69626385D01*
X89350057Y-69626385D02*
X89302438Y-69578766D01*
X89302438Y-69578766D02*
X89254819Y-69483528D01*
X89254819Y-69483528D02*
X89254819Y-69293052D01*
X89254819Y-69293052D02*
X89302438Y-69197814D01*
X89302438Y-69197814D02*
X89350057Y-69150195D01*
X89350057Y-69150195D02*
X89445295Y-69102576D01*
X89445295Y-69102576D02*
X89492914Y-69102576D01*
X89492914Y-69102576D02*
X89588152Y-69150195D01*
X89588152Y-69150195D02*
X89635771Y-69197814D01*
X89635771Y-69197814D02*
X89683390Y-69293052D01*
X89683390Y-69293052D02*
X89683390Y-69483528D01*
X89683390Y-69483528D02*
X89731009Y-69578766D01*
X89731009Y-69578766D02*
X89778628Y-69626385D01*
X89778628Y-69626385D02*
X89873866Y-69674004D01*
X89873866Y-69674004D02*
X90064342Y-69674004D01*
X90064342Y-69674004D02*
X90159580Y-69626385D01*
X90159580Y-69626385D02*
X90207200Y-69578766D01*
X90207200Y-69578766D02*
X90254819Y-69483528D01*
X90254819Y-69483528D02*
X90254819Y-69293052D01*
X90254819Y-69293052D02*
X90207200Y-69197814D01*
X90207200Y-69197814D02*
X90159580Y-69150195D01*
X90159580Y-69150195D02*
X90064342Y-69102576D01*
X90064342Y-69102576D02*
X89873866Y-69102576D01*
X89873866Y-69102576D02*
X89778628Y-69150195D01*
X89778628Y-69150195D02*
X89731009Y-69197814D01*
X89731009Y-69197814D02*
X89683390Y-69293052D01*
X97531810Y-77353411D02*
X97055620Y-77353411D01*
X97055620Y-77353411D02*
X97055620Y-76353411D01*
X98293715Y-76686744D02*
X98293715Y-77353411D01*
X98055620Y-76305792D02*
X97817525Y-77020077D01*
X97817525Y-77020077D02*
X98436572Y-77020077D01*
X58141572Y-53340120D02*
X58713000Y-53340120D01*
X58427286Y-54340120D02*
X58427286Y-53340120D01*
X59046334Y-54340120D02*
X59046334Y-53340120D01*
X59046334Y-53340120D02*
X59427286Y-53340120D01*
X59427286Y-53340120D02*
X59522524Y-53387739D01*
X59522524Y-53387739D02*
X59570143Y-53435358D01*
X59570143Y-53435358D02*
X59617762Y-53530596D01*
X59617762Y-53530596D02*
X59617762Y-53673453D01*
X59617762Y-53673453D02*
X59570143Y-53768691D01*
X59570143Y-53768691D02*
X59522524Y-53816310D01*
X59522524Y-53816310D02*
X59427286Y-53863929D01*
X59427286Y-53863929D02*
X59046334Y-53863929D01*
X60522524Y-53340120D02*
X60046334Y-53340120D01*
X60046334Y-53340120D02*
X59998715Y-53816310D01*
X59998715Y-53816310D02*
X60046334Y-53768691D01*
X60046334Y-53768691D02*
X60141572Y-53721072D01*
X60141572Y-53721072D02*
X60379667Y-53721072D01*
X60379667Y-53721072D02*
X60474905Y-53768691D01*
X60474905Y-53768691D02*
X60522524Y-53816310D01*
X60522524Y-53816310D02*
X60570143Y-53911548D01*
X60570143Y-53911548D02*
X60570143Y-54149643D01*
X60570143Y-54149643D02*
X60522524Y-54244881D01*
X60522524Y-54244881D02*
X60474905Y-54292501D01*
X60474905Y-54292501D02*
X60379667Y-54340120D01*
X60379667Y-54340120D02*
X60141572Y-54340120D01*
X60141572Y-54340120D02*
X60046334Y-54292501D01*
X60046334Y-54292501D02*
X59998715Y-54244881D01*
X89833333Y-66654819D02*
X89500000Y-66178628D01*
X89261905Y-66654819D02*
X89261905Y-65654819D01*
X89261905Y-65654819D02*
X89642857Y-65654819D01*
X89642857Y-65654819D02*
X89738095Y-65702438D01*
X89738095Y-65702438D02*
X89785714Y-65750057D01*
X89785714Y-65750057D02*
X89833333Y-65845295D01*
X89833333Y-65845295D02*
X89833333Y-65988152D01*
X89833333Y-65988152D02*
X89785714Y-66083390D01*
X89785714Y-66083390D02*
X89738095Y-66131009D01*
X89738095Y-66131009D02*
X89642857Y-66178628D01*
X89642857Y-66178628D02*
X89261905Y-66178628D01*
X90309524Y-66654819D02*
X90500000Y-66654819D01*
X90500000Y-66654819D02*
X90595238Y-66607200D01*
X90595238Y-66607200D02*
X90642857Y-66559580D01*
X90642857Y-66559580D02*
X90738095Y-66416723D01*
X90738095Y-66416723D02*
X90785714Y-66226247D01*
X90785714Y-66226247D02*
X90785714Y-65845295D01*
X90785714Y-65845295D02*
X90738095Y-65750057D01*
X90738095Y-65750057D02*
X90690476Y-65702438D01*
X90690476Y-65702438D02*
X90595238Y-65654819D01*
X90595238Y-65654819D02*
X90404762Y-65654819D01*
X90404762Y-65654819D02*
X90309524Y-65702438D01*
X90309524Y-65702438D02*
X90261905Y-65750057D01*
X90261905Y-65750057D02*
X90214286Y-65845295D01*
X90214286Y-65845295D02*
X90214286Y-66083390D01*
X90214286Y-66083390D02*
X90261905Y-66178628D01*
X90261905Y-66178628D02*
X90309524Y-66226247D01*
X90309524Y-66226247D02*
X90404762Y-66273866D01*
X90404762Y-66273866D02*
X90595238Y-66273866D01*
X90595238Y-66273866D02*
X90690476Y-66226247D01*
X90690476Y-66226247D02*
X90738095Y-66178628D01*
X90738095Y-66178628D02*
X90785714Y-66083390D01*
X60291773Y-69356413D02*
X59815582Y-69689746D01*
X60291773Y-69927841D02*
X59291773Y-69927841D01*
X59291773Y-69927841D02*
X59291773Y-69546889D01*
X59291773Y-69546889D02*
X59339392Y-69451651D01*
X59339392Y-69451651D02*
X59387011Y-69404032D01*
X59387011Y-69404032D02*
X59482249Y-69356413D01*
X59482249Y-69356413D02*
X59625106Y-69356413D01*
X59625106Y-69356413D02*
X59720344Y-69404032D01*
X59720344Y-69404032D02*
X59767963Y-69451651D01*
X59767963Y-69451651D02*
X59815582Y-69546889D01*
X59815582Y-69546889D02*
X59815582Y-69927841D01*
X59291773Y-68451651D02*
X59291773Y-68927841D01*
X59291773Y-68927841D02*
X59767963Y-68975460D01*
X59767963Y-68975460D02*
X59720344Y-68927841D01*
X59720344Y-68927841D02*
X59672725Y-68832603D01*
X59672725Y-68832603D02*
X59672725Y-68594508D01*
X59672725Y-68594508D02*
X59720344Y-68499270D01*
X59720344Y-68499270D02*
X59767963Y-68451651D01*
X59767963Y-68451651D02*
X59863201Y-68404032D01*
X59863201Y-68404032D02*
X60101296Y-68404032D01*
X60101296Y-68404032D02*
X60196534Y-68451651D01*
X60196534Y-68451651D02*
X60244154Y-68499270D01*
X60244154Y-68499270D02*
X60291773Y-68594508D01*
X60291773Y-68594508D02*
X60291773Y-68832603D01*
X60291773Y-68832603D02*
X60244154Y-68927841D01*
X60244154Y-68927841D02*
X60196534Y-68975460D01*
X36911810Y-67994881D02*
X36864191Y-68042501D01*
X36864191Y-68042501D02*
X36721334Y-68090120D01*
X36721334Y-68090120D02*
X36626096Y-68090120D01*
X36626096Y-68090120D02*
X36483239Y-68042501D01*
X36483239Y-68042501D02*
X36388001Y-67947262D01*
X36388001Y-67947262D02*
X36340382Y-67852024D01*
X36340382Y-67852024D02*
X36292763Y-67661548D01*
X36292763Y-67661548D02*
X36292763Y-67518691D01*
X36292763Y-67518691D02*
X36340382Y-67328215D01*
X36340382Y-67328215D02*
X36388001Y-67232977D01*
X36388001Y-67232977D02*
X36483239Y-67137739D01*
X36483239Y-67137739D02*
X36626096Y-67090120D01*
X36626096Y-67090120D02*
X36721334Y-67090120D01*
X36721334Y-67090120D02*
X36864191Y-67137739D01*
X36864191Y-67137739D02*
X36911810Y-67185358D01*
X37768953Y-67423453D02*
X37768953Y-68090120D01*
X37530858Y-67042501D02*
X37292763Y-67756786D01*
X37292763Y-67756786D02*
X37911810Y-67756786D01*
X106015382Y-47890120D02*
X106586810Y-47890120D01*
X106301096Y-48890120D02*
X106301096Y-47890120D01*
X106920144Y-48890120D02*
X106920144Y-47890120D01*
X106920144Y-47890120D02*
X107301096Y-47890120D01*
X107301096Y-47890120D02*
X107396334Y-47937739D01*
X107396334Y-47937739D02*
X107443953Y-47985358D01*
X107443953Y-47985358D02*
X107491572Y-48080596D01*
X107491572Y-48080596D02*
X107491572Y-48223453D01*
X107491572Y-48223453D02*
X107443953Y-48318691D01*
X107443953Y-48318691D02*
X107396334Y-48366310D01*
X107396334Y-48366310D02*
X107301096Y-48413929D01*
X107301096Y-48413929D02*
X106920144Y-48413929D01*
X108443953Y-48890120D02*
X107872525Y-48890120D01*
X108158239Y-48890120D02*
X108158239Y-47890120D01*
X108158239Y-47890120D02*
X108063001Y-48032977D01*
X108063001Y-48032977D02*
X107967763Y-48128215D01*
X107967763Y-48128215D02*
X107872525Y-48175834D01*
X108824906Y-47985358D02*
X108872525Y-47937739D01*
X108872525Y-47937739D02*
X108967763Y-47890120D01*
X108967763Y-47890120D02*
X109205858Y-47890120D01*
X109205858Y-47890120D02*
X109301096Y-47937739D01*
X109301096Y-47937739D02*
X109348715Y-47985358D01*
X109348715Y-47985358D02*
X109396334Y-48080596D01*
X109396334Y-48080596D02*
X109396334Y-48175834D01*
X109396334Y-48175834D02*
X109348715Y-48318691D01*
X109348715Y-48318691D02*
X108777287Y-48890120D01*
X108777287Y-48890120D02*
X109396334Y-48890120D01*
D11*
X71653478Y-73572953D02*
X71230144Y-73572953D01*
X71230144Y-74238191D02*
X71230144Y-72968191D01*
X71230144Y-72968191D02*
X71834906Y-72968191D01*
X72923477Y-74238191D02*
X72318715Y-74238191D01*
X72318715Y-74238191D02*
X72318715Y-72968191D01*
X74012049Y-74238191D02*
X73286334Y-74238191D01*
X73649191Y-74238191D02*
X73649191Y-72968191D01*
X73649191Y-72968191D02*
X73528239Y-73149619D01*
X73528239Y-73149619D02*
X73407287Y-73270572D01*
X73407287Y-73270572D02*
X73286334Y-73331048D01*
D10*
X55211649Y-61212181D02*
X55259269Y-61259800D01*
X55259269Y-61259800D02*
X55306888Y-61402657D01*
X55306888Y-61402657D02*
X55306888Y-61497895D01*
X55306888Y-61497895D02*
X55259269Y-61640752D01*
X55259269Y-61640752D02*
X55164030Y-61735990D01*
X55164030Y-61735990D02*
X55068792Y-61783609D01*
X55068792Y-61783609D02*
X54878316Y-61831228D01*
X54878316Y-61831228D02*
X54735459Y-61831228D01*
X54735459Y-61831228D02*
X54544983Y-61783609D01*
X54544983Y-61783609D02*
X54449745Y-61735990D01*
X54449745Y-61735990D02*
X54354507Y-61640752D01*
X54354507Y-61640752D02*
X54306888Y-61497895D01*
X54306888Y-61497895D02*
X54306888Y-61402657D01*
X54306888Y-61402657D02*
X54354507Y-61259800D01*
X54354507Y-61259800D02*
X54402126Y-61212181D01*
X55306888Y-60259800D02*
X55306888Y-60831228D01*
X55306888Y-60545514D02*
X54306888Y-60545514D01*
X54306888Y-60545514D02*
X54449745Y-60640752D01*
X54449745Y-60640752D02*
X54544983Y-60735990D01*
X54544983Y-60735990D02*
X54592602Y-60831228D01*
X55306888Y-59307419D02*
X55306888Y-59878847D01*
X55306888Y-59593133D02*
X54306888Y-59593133D01*
X54306888Y-59593133D02*
X54449745Y-59688371D01*
X54449745Y-59688371D02*
X54544983Y-59783609D01*
X54544983Y-59783609D02*
X54592602Y-59878847D01*
X66157142Y-59222871D02*
X66109523Y-59270491D01*
X66109523Y-59270491D02*
X65966666Y-59318110D01*
X65966666Y-59318110D02*
X65871428Y-59318110D01*
X65871428Y-59318110D02*
X65728571Y-59270491D01*
X65728571Y-59270491D02*
X65633333Y-59175252D01*
X65633333Y-59175252D02*
X65585714Y-59080014D01*
X65585714Y-59080014D02*
X65538095Y-58889538D01*
X65538095Y-58889538D02*
X65538095Y-58746681D01*
X65538095Y-58746681D02*
X65585714Y-58556205D01*
X65585714Y-58556205D02*
X65633333Y-58460967D01*
X65633333Y-58460967D02*
X65728571Y-58365729D01*
X65728571Y-58365729D02*
X65871428Y-58318110D01*
X65871428Y-58318110D02*
X65966666Y-58318110D01*
X65966666Y-58318110D02*
X66109523Y-58365729D01*
X66109523Y-58365729D02*
X66157142Y-58413348D01*
X67109523Y-59318110D02*
X66538095Y-59318110D01*
X66823809Y-59318110D02*
X66823809Y-58318110D01*
X66823809Y-58318110D02*
X66728571Y-58460967D01*
X66728571Y-58460967D02*
X66633333Y-58556205D01*
X66633333Y-58556205D02*
X66538095Y-58603824D01*
X67490476Y-58413348D02*
X67538095Y-58365729D01*
X67538095Y-58365729D02*
X67633333Y-58318110D01*
X67633333Y-58318110D02*
X67871428Y-58318110D01*
X67871428Y-58318110D02*
X67966666Y-58365729D01*
X67966666Y-58365729D02*
X68014285Y-58413348D01*
X68014285Y-58413348D02*
X68061904Y-58508586D01*
X68061904Y-58508586D02*
X68061904Y-58603824D01*
X68061904Y-58603824D02*
X68014285Y-58746681D01*
X68014285Y-58746681D02*
X67442857Y-59318110D01*
X67442857Y-59318110D02*
X68061904Y-59318110D01*
X100272914Y-77312747D02*
X99796724Y-77312747D01*
X99796724Y-77312747D02*
X99796724Y-76312747D01*
X101082438Y-76312747D02*
X100606248Y-76312747D01*
X100606248Y-76312747D02*
X100558629Y-76788937D01*
X100558629Y-76788937D02*
X100606248Y-76741318D01*
X100606248Y-76741318D02*
X100701486Y-76693699D01*
X100701486Y-76693699D02*
X100939581Y-76693699D01*
X100939581Y-76693699D02*
X101034819Y-76741318D01*
X101034819Y-76741318D02*
X101082438Y-76788937D01*
X101082438Y-76788937D02*
X101130057Y-76884175D01*
X101130057Y-76884175D02*
X101130057Y-77122270D01*
X101130057Y-77122270D02*
X101082438Y-77217508D01*
X101082438Y-77217508D02*
X101034819Y-77265128D01*
X101034819Y-77265128D02*
X100939581Y-77312747D01*
X100939581Y-77312747D02*
X100701486Y-77312747D01*
X100701486Y-77312747D02*
X100606248Y-77265128D01*
X100606248Y-77265128D02*
X100558629Y-77217508D01*
X40280604Y-47475675D02*
X40852032Y-47475675D01*
X40566318Y-48475675D02*
X40566318Y-47475675D01*
X41185366Y-48475675D02*
X41185366Y-47475675D01*
X41185366Y-47475675D02*
X41566318Y-47475675D01*
X41566318Y-47475675D02*
X41661556Y-47523294D01*
X41661556Y-47523294D02*
X41709175Y-47570913D01*
X41709175Y-47570913D02*
X41756794Y-47666151D01*
X41756794Y-47666151D02*
X41756794Y-47809008D01*
X41756794Y-47809008D02*
X41709175Y-47904246D01*
X41709175Y-47904246D02*
X41661556Y-47951865D01*
X41661556Y-47951865D02*
X41566318Y-47999484D01*
X41566318Y-47999484D02*
X41185366Y-47999484D01*
X42709175Y-48475675D02*
X42137747Y-48475675D01*
X42423461Y-48475675D02*
X42423461Y-47475675D01*
X42423461Y-47475675D02*
X42328223Y-47618532D01*
X42328223Y-47618532D02*
X42232985Y-47713770D01*
X42232985Y-47713770D02*
X42137747Y-47761389D01*
X60658296Y-63956413D02*
X60182105Y-64289746D01*
X60658296Y-64527841D02*
X59658296Y-64527841D01*
X59658296Y-64527841D02*
X59658296Y-64146889D01*
X59658296Y-64146889D02*
X59705915Y-64051651D01*
X59705915Y-64051651D02*
X59753534Y-64004032D01*
X59753534Y-64004032D02*
X59848772Y-63956413D01*
X59848772Y-63956413D02*
X59991629Y-63956413D01*
X59991629Y-63956413D02*
X60086867Y-64004032D01*
X60086867Y-64004032D02*
X60134486Y-64051651D01*
X60134486Y-64051651D02*
X60182105Y-64146889D01*
X60182105Y-64146889D02*
X60182105Y-64527841D01*
X59991629Y-63099270D02*
X60658296Y-63099270D01*
X59610677Y-63337365D02*
X60324962Y-63575460D01*
X60324962Y-63575460D02*
X60324962Y-62956413D01*
X93608296Y-68551967D02*
X93608296Y-69028157D01*
X93608296Y-69028157D02*
X92608296Y-69028157D01*
X92608296Y-68313871D02*
X92608296Y-67694824D01*
X92608296Y-67694824D02*
X92989248Y-68028157D01*
X92989248Y-68028157D02*
X92989248Y-67885300D01*
X92989248Y-67885300D02*
X93036867Y-67790062D01*
X93036867Y-67790062D02*
X93084486Y-67742443D01*
X93084486Y-67742443D02*
X93179724Y-67694824D01*
X93179724Y-67694824D02*
X93417819Y-67694824D01*
X93417819Y-67694824D02*
X93513057Y-67742443D01*
X93513057Y-67742443D02*
X93560677Y-67790062D01*
X93560677Y-67790062D02*
X93608296Y-67885300D01*
X93608296Y-67885300D02*
X93608296Y-68171014D01*
X93608296Y-68171014D02*
X93560677Y-68266252D01*
X93560677Y-68266252D02*
X93513057Y-68313871D01*
X85457142Y-33659580D02*
X85409523Y-33707200D01*
X85409523Y-33707200D02*
X85266666Y-33754819D01*
X85266666Y-33754819D02*
X85171428Y-33754819D01*
X85171428Y-33754819D02*
X85028571Y-33707200D01*
X85028571Y-33707200D02*
X84933333Y-33611961D01*
X84933333Y-33611961D02*
X84885714Y-33516723D01*
X84885714Y-33516723D02*
X84838095Y-33326247D01*
X84838095Y-33326247D02*
X84838095Y-33183390D01*
X84838095Y-33183390D02*
X84885714Y-32992914D01*
X84885714Y-32992914D02*
X84933333Y-32897676D01*
X84933333Y-32897676D02*
X85028571Y-32802438D01*
X85028571Y-32802438D02*
X85171428Y-32754819D01*
X85171428Y-32754819D02*
X85266666Y-32754819D01*
X85266666Y-32754819D02*
X85409523Y-32802438D01*
X85409523Y-32802438D02*
X85457142Y-32850057D01*
X86409523Y-33754819D02*
X85838095Y-33754819D01*
X86123809Y-33754819D02*
X86123809Y-32754819D01*
X86123809Y-32754819D02*
X86028571Y-32897676D01*
X86028571Y-32897676D02*
X85933333Y-32992914D01*
X85933333Y-32992914D02*
X85838095Y-33040533D01*
X86980952Y-33183390D02*
X86885714Y-33135771D01*
X86885714Y-33135771D02*
X86838095Y-33088152D01*
X86838095Y-33088152D02*
X86790476Y-32992914D01*
X86790476Y-32992914D02*
X86790476Y-32945295D01*
X86790476Y-32945295D02*
X86838095Y-32850057D01*
X86838095Y-32850057D02*
X86885714Y-32802438D01*
X86885714Y-32802438D02*
X86980952Y-32754819D01*
X86980952Y-32754819D02*
X87171428Y-32754819D01*
X87171428Y-32754819D02*
X87266666Y-32802438D01*
X87266666Y-32802438D02*
X87314285Y-32850057D01*
X87314285Y-32850057D02*
X87361904Y-32945295D01*
X87361904Y-32945295D02*
X87361904Y-32992914D01*
X87361904Y-32992914D02*
X87314285Y-33088152D01*
X87314285Y-33088152D02*
X87266666Y-33135771D01*
X87266666Y-33135771D02*
X87171428Y-33183390D01*
X87171428Y-33183390D02*
X86980952Y-33183390D01*
X86980952Y-33183390D02*
X86885714Y-33231009D01*
X86885714Y-33231009D02*
X86838095Y-33278628D01*
X86838095Y-33278628D02*
X86790476Y-33373866D01*
X86790476Y-33373866D02*
X86790476Y-33564342D01*
X86790476Y-33564342D02*
X86838095Y-33659580D01*
X86838095Y-33659580D02*
X86885714Y-33707200D01*
X86885714Y-33707200D02*
X86980952Y-33754819D01*
X86980952Y-33754819D02*
X87171428Y-33754819D01*
X87171428Y-33754819D02*
X87266666Y-33707200D01*
X87266666Y-33707200D02*
X87314285Y-33659580D01*
X87314285Y-33659580D02*
X87361904Y-33564342D01*
X87361904Y-33564342D02*
X87361904Y-33373866D01*
X87361904Y-33373866D02*
X87314285Y-33278628D01*
X87314285Y-33278628D02*
X87266666Y-33231009D01*
X87266666Y-33231009D02*
X87171428Y-33183390D01*
X74254819Y-60766666D02*
X73778628Y-61099999D01*
X74254819Y-61338094D02*
X73254819Y-61338094D01*
X73254819Y-61338094D02*
X73254819Y-60957142D01*
X73254819Y-60957142D02*
X73302438Y-60861904D01*
X73302438Y-60861904D02*
X73350057Y-60814285D01*
X73350057Y-60814285D02*
X73445295Y-60766666D01*
X73445295Y-60766666D02*
X73588152Y-60766666D01*
X73588152Y-60766666D02*
X73683390Y-60814285D01*
X73683390Y-60814285D02*
X73731009Y-60861904D01*
X73731009Y-60861904D02*
X73778628Y-60957142D01*
X73778628Y-60957142D02*
X73778628Y-61338094D01*
X73254819Y-60433332D02*
X73254819Y-59766666D01*
X73254819Y-59766666D02*
X74254819Y-60195237D01*
X42563057Y-41826967D02*
X42610677Y-41874586D01*
X42610677Y-41874586D02*
X42658296Y-42017443D01*
X42658296Y-42017443D02*
X42658296Y-42112681D01*
X42658296Y-42112681D02*
X42610677Y-42255538D01*
X42610677Y-42255538D02*
X42515438Y-42350776D01*
X42515438Y-42350776D02*
X42420200Y-42398395D01*
X42420200Y-42398395D02*
X42229724Y-42446014D01*
X42229724Y-42446014D02*
X42086867Y-42446014D01*
X42086867Y-42446014D02*
X41896391Y-42398395D01*
X41896391Y-42398395D02*
X41801153Y-42350776D01*
X41801153Y-42350776D02*
X41705915Y-42255538D01*
X41705915Y-42255538D02*
X41658296Y-42112681D01*
X41658296Y-42112681D02*
X41658296Y-42017443D01*
X41658296Y-42017443D02*
X41705915Y-41874586D01*
X41705915Y-41874586D02*
X41753534Y-41826967D01*
X42658296Y-40874586D02*
X42658296Y-41446014D01*
X42658296Y-41160300D02*
X41658296Y-41160300D01*
X41658296Y-41160300D02*
X41801153Y-41255538D01*
X41801153Y-41255538D02*
X41896391Y-41350776D01*
X41896391Y-41350776D02*
X41944010Y-41446014D01*
X99665382Y-62840120D02*
X100236810Y-62840120D01*
X99951096Y-63840120D02*
X99951096Y-62840120D01*
X100570144Y-63840120D02*
X100570144Y-62840120D01*
X100570144Y-62840120D02*
X100951096Y-62840120D01*
X100951096Y-62840120D02*
X101046334Y-62887739D01*
X101046334Y-62887739D02*
X101093953Y-62935358D01*
X101093953Y-62935358D02*
X101141572Y-63030596D01*
X101141572Y-63030596D02*
X101141572Y-63173453D01*
X101141572Y-63173453D02*
X101093953Y-63268691D01*
X101093953Y-63268691D02*
X101046334Y-63316310D01*
X101046334Y-63316310D02*
X100951096Y-63363929D01*
X100951096Y-63363929D02*
X100570144Y-63363929D01*
X102093953Y-63840120D02*
X101522525Y-63840120D01*
X101808239Y-63840120D02*
X101808239Y-62840120D01*
X101808239Y-62840120D02*
X101713001Y-62982977D01*
X101713001Y-62982977D02*
X101617763Y-63078215D01*
X101617763Y-63078215D02*
X101522525Y-63125834D01*
X102427287Y-62840120D02*
X103046334Y-62840120D01*
X103046334Y-62840120D02*
X102713001Y-63221072D01*
X102713001Y-63221072D02*
X102855858Y-63221072D01*
X102855858Y-63221072D02*
X102951096Y-63268691D01*
X102951096Y-63268691D02*
X102998715Y-63316310D01*
X102998715Y-63316310D02*
X103046334Y-63411548D01*
X103046334Y-63411548D02*
X103046334Y-63649643D01*
X103046334Y-63649643D02*
X102998715Y-63744881D01*
X102998715Y-63744881D02*
X102951096Y-63792501D01*
X102951096Y-63792501D02*
X102855858Y-63840120D01*
X102855858Y-63840120D02*
X102570144Y-63840120D01*
X102570144Y-63840120D02*
X102474906Y-63792501D01*
X102474906Y-63792501D02*
X102427287Y-63744881D01*
X104263057Y-74428158D02*
X104310677Y-74475777D01*
X104310677Y-74475777D02*
X104358296Y-74618634D01*
X104358296Y-74618634D02*
X104358296Y-74713872D01*
X104358296Y-74713872D02*
X104310677Y-74856729D01*
X104310677Y-74856729D02*
X104215438Y-74951967D01*
X104215438Y-74951967D02*
X104120200Y-74999586D01*
X104120200Y-74999586D02*
X103929724Y-75047205D01*
X103929724Y-75047205D02*
X103786867Y-75047205D01*
X103786867Y-75047205D02*
X103596391Y-74999586D01*
X103596391Y-74999586D02*
X103501153Y-74951967D01*
X103501153Y-74951967D02*
X103405915Y-74856729D01*
X103405915Y-74856729D02*
X103358296Y-74713872D01*
X103358296Y-74713872D02*
X103358296Y-74618634D01*
X103358296Y-74618634D02*
X103405915Y-74475777D01*
X103405915Y-74475777D02*
X103453534Y-74428158D01*
X103453534Y-74047205D02*
X103405915Y-73999586D01*
X103405915Y-73999586D02*
X103358296Y-73904348D01*
X103358296Y-73904348D02*
X103358296Y-73666253D01*
X103358296Y-73666253D02*
X103405915Y-73571015D01*
X103405915Y-73571015D02*
X103453534Y-73523396D01*
X103453534Y-73523396D02*
X103548772Y-73475777D01*
X103548772Y-73475777D02*
X103644010Y-73475777D01*
X103644010Y-73475777D02*
X103786867Y-73523396D01*
X103786867Y-73523396D02*
X104358296Y-74094824D01*
X104358296Y-74094824D02*
X104358296Y-73475777D01*
X103691629Y-72618634D02*
X104358296Y-72618634D01*
X103310677Y-72856729D02*
X104024962Y-73094824D01*
X104024962Y-73094824D02*
X104024962Y-72475777D01*
X95963057Y-62628158D02*
X96010677Y-62675777D01*
X96010677Y-62675777D02*
X96058296Y-62818634D01*
X96058296Y-62818634D02*
X96058296Y-62913872D01*
X96058296Y-62913872D02*
X96010677Y-63056729D01*
X96010677Y-63056729D02*
X95915438Y-63151967D01*
X95915438Y-63151967D02*
X95820200Y-63199586D01*
X95820200Y-63199586D02*
X95629724Y-63247205D01*
X95629724Y-63247205D02*
X95486867Y-63247205D01*
X95486867Y-63247205D02*
X95296391Y-63199586D01*
X95296391Y-63199586D02*
X95201153Y-63151967D01*
X95201153Y-63151967D02*
X95105915Y-63056729D01*
X95105915Y-63056729D02*
X95058296Y-62913872D01*
X95058296Y-62913872D02*
X95058296Y-62818634D01*
X95058296Y-62818634D02*
X95105915Y-62675777D01*
X95105915Y-62675777D02*
X95153534Y-62628158D01*
X95058296Y-62294824D02*
X95058296Y-61675777D01*
X95058296Y-61675777D02*
X95439248Y-62009110D01*
X95439248Y-62009110D02*
X95439248Y-61866253D01*
X95439248Y-61866253D02*
X95486867Y-61771015D01*
X95486867Y-61771015D02*
X95534486Y-61723396D01*
X95534486Y-61723396D02*
X95629724Y-61675777D01*
X95629724Y-61675777D02*
X95867819Y-61675777D01*
X95867819Y-61675777D02*
X95963057Y-61723396D01*
X95963057Y-61723396D02*
X96010677Y-61771015D01*
X96010677Y-61771015D02*
X96058296Y-61866253D01*
X96058296Y-61866253D02*
X96058296Y-62151967D01*
X96058296Y-62151967D02*
X96010677Y-62247205D01*
X96010677Y-62247205D02*
X95963057Y-62294824D01*
X95058296Y-61056729D02*
X95058296Y-60961491D01*
X95058296Y-60961491D02*
X95105915Y-60866253D01*
X95105915Y-60866253D02*
X95153534Y-60818634D01*
X95153534Y-60818634D02*
X95248772Y-60771015D01*
X95248772Y-60771015D02*
X95439248Y-60723396D01*
X95439248Y-60723396D02*
X95677343Y-60723396D01*
X95677343Y-60723396D02*
X95867819Y-60771015D01*
X95867819Y-60771015D02*
X95963057Y-60818634D01*
X95963057Y-60818634D02*
X96010677Y-60866253D01*
X96010677Y-60866253D02*
X96058296Y-60961491D01*
X96058296Y-60961491D02*
X96058296Y-61056729D01*
X96058296Y-61056729D02*
X96010677Y-61151967D01*
X96010677Y-61151967D02*
X95963057Y-61199586D01*
X95963057Y-61199586D02*
X95867819Y-61247205D01*
X95867819Y-61247205D02*
X95677343Y-61294824D01*
X95677343Y-61294824D02*
X95439248Y-61294824D01*
X95439248Y-61294824D02*
X95248772Y-61247205D01*
X95248772Y-61247205D02*
X95153534Y-61199586D01*
X95153534Y-61199586D02*
X95105915Y-61151967D01*
X95105915Y-61151967D02*
X95058296Y-61056729D01*
X54254819Y-51591666D02*
X53778628Y-51924999D01*
X54254819Y-52163094D02*
X53254819Y-52163094D01*
X53254819Y-52163094D02*
X53254819Y-51782142D01*
X53254819Y-51782142D02*
X53302438Y-51686904D01*
X53302438Y-51686904D02*
X53350057Y-51639285D01*
X53350057Y-51639285D02*
X53445295Y-51591666D01*
X53445295Y-51591666D02*
X53588152Y-51591666D01*
X53588152Y-51591666D02*
X53683390Y-51639285D01*
X53683390Y-51639285D02*
X53731009Y-51686904D01*
X53731009Y-51686904D02*
X53778628Y-51782142D01*
X53778628Y-51782142D02*
X53778628Y-52163094D01*
X53254819Y-51258332D02*
X53254819Y-50639285D01*
X53254819Y-50639285D02*
X53635771Y-50972618D01*
X53635771Y-50972618D02*
X53635771Y-50829761D01*
X53635771Y-50829761D02*
X53683390Y-50734523D01*
X53683390Y-50734523D02*
X53731009Y-50686904D01*
X53731009Y-50686904D02*
X53826247Y-50639285D01*
X53826247Y-50639285D02*
X54064342Y-50639285D01*
X54064342Y-50639285D02*
X54159580Y-50686904D01*
X54159580Y-50686904D02*
X54207200Y-50734523D01*
X54207200Y-50734523D02*
X54254819Y-50829761D01*
X54254819Y-50829761D02*
X54254819Y-51115475D01*
X54254819Y-51115475D02*
X54207200Y-51210713D01*
X54207200Y-51210713D02*
X54159580Y-51258332D01*
X40658296Y-50951967D02*
X40182105Y-51285300D01*
X40658296Y-51523395D02*
X39658296Y-51523395D01*
X39658296Y-51523395D02*
X39658296Y-51142443D01*
X39658296Y-51142443D02*
X39705915Y-51047205D01*
X39705915Y-51047205D02*
X39753534Y-50999586D01*
X39753534Y-50999586D02*
X39848772Y-50951967D01*
X39848772Y-50951967D02*
X39991629Y-50951967D01*
X39991629Y-50951967D02*
X40086867Y-50999586D01*
X40086867Y-50999586D02*
X40134486Y-51047205D01*
X40134486Y-51047205D02*
X40182105Y-51142443D01*
X40182105Y-51142443D02*
X40182105Y-51523395D01*
X39753534Y-50571014D02*
X39705915Y-50523395D01*
X39705915Y-50523395D02*
X39658296Y-50428157D01*
X39658296Y-50428157D02*
X39658296Y-50190062D01*
X39658296Y-50190062D02*
X39705915Y-50094824D01*
X39705915Y-50094824D02*
X39753534Y-50047205D01*
X39753534Y-50047205D02*
X39848772Y-49999586D01*
X39848772Y-49999586D02*
X39944010Y-49999586D01*
X39944010Y-49999586D02*
X40086867Y-50047205D01*
X40086867Y-50047205D02*
X40658296Y-50618633D01*
X40658296Y-50618633D02*
X40658296Y-49999586D01*
X54054819Y-49088094D02*
X53054819Y-49088094D01*
X53054819Y-49088094D02*
X53054819Y-48849999D01*
X53054819Y-48849999D02*
X53102438Y-48707142D01*
X53102438Y-48707142D02*
X53197676Y-48611904D01*
X53197676Y-48611904D02*
X53292914Y-48564285D01*
X53292914Y-48564285D02*
X53483390Y-48516666D01*
X53483390Y-48516666D02*
X53626247Y-48516666D01*
X53626247Y-48516666D02*
X53816723Y-48564285D01*
X53816723Y-48564285D02*
X53911961Y-48611904D01*
X53911961Y-48611904D02*
X54007200Y-48707142D01*
X54007200Y-48707142D02*
X54054819Y-48849999D01*
X54054819Y-48849999D02*
X54054819Y-49088094D01*
X54054819Y-47564285D02*
X54054819Y-48135713D01*
X54054819Y-47849999D02*
X53054819Y-47849999D01*
X53054819Y-47849999D02*
X53197676Y-47945237D01*
X53197676Y-47945237D02*
X53292914Y-48040475D01*
X53292914Y-48040475D02*
X53340533Y-48135713D01*
X46268057Y-51396967D02*
X46315677Y-51444586D01*
X46315677Y-51444586D02*
X46363296Y-51587443D01*
X46363296Y-51587443D02*
X46363296Y-51682681D01*
X46363296Y-51682681D02*
X46315677Y-51825538D01*
X46315677Y-51825538D02*
X46220438Y-51920776D01*
X46220438Y-51920776D02*
X46125200Y-51968395D01*
X46125200Y-51968395D02*
X45934724Y-52016014D01*
X45934724Y-52016014D02*
X45791867Y-52016014D01*
X45791867Y-52016014D02*
X45601391Y-51968395D01*
X45601391Y-51968395D02*
X45506153Y-51920776D01*
X45506153Y-51920776D02*
X45410915Y-51825538D01*
X45410915Y-51825538D02*
X45363296Y-51682681D01*
X45363296Y-51682681D02*
X45363296Y-51587443D01*
X45363296Y-51587443D02*
X45410915Y-51444586D01*
X45410915Y-51444586D02*
X45458534Y-51396967D01*
X45791867Y-50825538D02*
X45744248Y-50920776D01*
X45744248Y-50920776D02*
X45696629Y-50968395D01*
X45696629Y-50968395D02*
X45601391Y-51016014D01*
X45601391Y-51016014D02*
X45553772Y-51016014D01*
X45553772Y-51016014D02*
X45458534Y-50968395D01*
X45458534Y-50968395D02*
X45410915Y-50920776D01*
X45410915Y-50920776D02*
X45363296Y-50825538D01*
X45363296Y-50825538D02*
X45363296Y-50635062D01*
X45363296Y-50635062D02*
X45410915Y-50539824D01*
X45410915Y-50539824D02*
X45458534Y-50492205D01*
X45458534Y-50492205D02*
X45553772Y-50444586D01*
X45553772Y-50444586D02*
X45601391Y-50444586D01*
X45601391Y-50444586D02*
X45696629Y-50492205D01*
X45696629Y-50492205D02*
X45744248Y-50539824D01*
X45744248Y-50539824D02*
X45791867Y-50635062D01*
X45791867Y-50635062D02*
X45791867Y-50825538D01*
X45791867Y-50825538D02*
X45839486Y-50920776D01*
X45839486Y-50920776D02*
X45887105Y-50968395D01*
X45887105Y-50968395D02*
X45982343Y-51016014D01*
X45982343Y-51016014D02*
X46172819Y-51016014D01*
X46172819Y-51016014D02*
X46268057Y-50968395D01*
X46268057Y-50968395D02*
X46315677Y-50920776D01*
X46315677Y-50920776D02*
X46363296Y-50825538D01*
X46363296Y-50825538D02*
X46363296Y-50635062D01*
X46363296Y-50635062D02*
X46315677Y-50539824D01*
X46315677Y-50539824D02*
X46268057Y-50492205D01*
X46268057Y-50492205D02*
X46172819Y-50444586D01*
X46172819Y-50444586D02*
X45982343Y-50444586D01*
X45982343Y-50444586D02*
X45887105Y-50492205D01*
X45887105Y-50492205D02*
X45839486Y-50539824D01*
X45839486Y-50539824D02*
X45791867Y-50635062D01*
X33741572Y-56840120D02*
X34313000Y-56840120D01*
X34027286Y-57840120D02*
X34027286Y-56840120D01*
X34646334Y-57840120D02*
X34646334Y-56840120D01*
X34646334Y-56840120D02*
X35027286Y-56840120D01*
X35027286Y-56840120D02*
X35122524Y-56887739D01*
X35122524Y-56887739D02*
X35170143Y-56935358D01*
X35170143Y-56935358D02*
X35217762Y-57030596D01*
X35217762Y-57030596D02*
X35217762Y-57173453D01*
X35217762Y-57173453D02*
X35170143Y-57268691D01*
X35170143Y-57268691D02*
X35122524Y-57316310D01*
X35122524Y-57316310D02*
X35027286Y-57363929D01*
X35027286Y-57363929D02*
X34646334Y-57363929D01*
X35598715Y-56935358D02*
X35646334Y-56887739D01*
X35646334Y-56887739D02*
X35741572Y-56840120D01*
X35741572Y-56840120D02*
X35979667Y-56840120D01*
X35979667Y-56840120D02*
X36074905Y-56887739D01*
X36074905Y-56887739D02*
X36122524Y-56935358D01*
X36122524Y-56935358D02*
X36170143Y-57030596D01*
X36170143Y-57030596D02*
X36170143Y-57125834D01*
X36170143Y-57125834D02*
X36122524Y-57268691D01*
X36122524Y-57268691D02*
X35551096Y-57840120D01*
X35551096Y-57840120D02*
X36170143Y-57840120D01*
X103654819Y-42579166D02*
X103654819Y-43055356D01*
X103654819Y-43055356D02*
X102654819Y-43055356D01*
X102654819Y-41817261D02*
X102654819Y-42007737D01*
X102654819Y-42007737D02*
X102702438Y-42102975D01*
X102702438Y-42102975D02*
X102750057Y-42150594D01*
X102750057Y-42150594D02*
X102892914Y-42245832D01*
X102892914Y-42245832D02*
X103083390Y-42293451D01*
X103083390Y-42293451D02*
X103464342Y-42293451D01*
X103464342Y-42293451D02*
X103559580Y-42245832D01*
X103559580Y-42245832D02*
X103607200Y-42198213D01*
X103607200Y-42198213D02*
X103654819Y-42102975D01*
X103654819Y-42102975D02*
X103654819Y-41912499D01*
X103654819Y-41912499D02*
X103607200Y-41817261D01*
X103607200Y-41817261D02*
X103559580Y-41769642D01*
X103559580Y-41769642D02*
X103464342Y-41722023D01*
X103464342Y-41722023D02*
X103226247Y-41722023D01*
X103226247Y-41722023D02*
X103131009Y-41769642D01*
X103131009Y-41769642D02*
X103083390Y-41817261D01*
X103083390Y-41817261D02*
X103035771Y-41912499D01*
X103035771Y-41912499D02*
X103035771Y-42102975D01*
X103035771Y-42102975D02*
X103083390Y-42198213D01*
X103083390Y-42198213D02*
X103131009Y-42245832D01*
X103131009Y-42245832D02*
X103226247Y-42293451D01*
X96460619Y-71444881D02*
X96413000Y-71492501D01*
X96413000Y-71492501D02*
X96270143Y-71540120D01*
X96270143Y-71540120D02*
X96174905Y-71540120D01*
X96174905Y-71540120D02*
X96032048Y-71492501D01*
X96032048Y-71492501D02*
X95936810Y-71397262D01*
X95936810Y-71397262D02*
X95889191Y-71302024D01*
X95889191Y-71302024D02*
X95841572Y-71111548D01*
X95841572Y-71111548D02*
X95841572Y-70968691D01*
X95841572Y-70968691D02*
X95889191Y-70778215D01*
X95889191Y-70778215D02*
X95936810Y-70682977D01*
X95936810Y-70682977D02*
X96032048Y-70587739D01*
X96032048Y-70587739D02*
X96174905Y-70540120D01*
X96174905Y-70540120D02*
X96270143Y-70540120D01*
X96270143Y-70540120D02*
X96413000Y-70587739D01*
X96413000Y-70587739D02*
X96460619Y-70635358D01*
X96841572Y-70635358D02*
X96889191Y-70587739D01*
X96889191Y-70587739D02*
X96984429Y-70540120D01*
X96984429Y-70540120D02*
X97222524Y-70540120D01*
X97222524Y-70540120D02*
X97317762Y-70587739D01*
X97317762Y-70587739D02*
X97365381Y-70635358D01*
X97365381Y-70635358D02*
X97413000Y-70730596D01*
X97413000Y-70730596D02*
X97413000Y-70825834D01*
X97413000Y-70825834D02*
X97365381Y-70968691D01*
X97365381Y-70968691D02*
X96793953Y-71540120D01*
X96793953Y-71540120D02*
X97413000Y-71540120D01*
X98365381Y-71540120D02*
X97793953Y-71540120D01*
X98079667Y-71540120D02*
X98079667Y-70540120D01*
X98079667Y-70540120D02*
X97984429Y-70682977D01*
X97984429Y-70682977D02*
X97889191Y-70778215D01*
X97889191Y-70778215D02*
X97793953Y-70825834D01*
X55141572Y-51040120D02*
X55713000Y-51040120D01*
X55427286Y-52040120D02*
X55427286Y-51040120D01*
X56046334Y-52040120D02*
X56046334Y-51040120D01*
X56046334Y-51040120D02*
X56427286Y-51040120D01*
X56427286Y-51040120D02*
X56522524Y-51087739D01*
X56522524Y-51087739D02*
X56570143Y-51135358D01*
X56570143Y-51135358D02*
X56617762Y-51230596D01*
X56617762Y-51230596D02*
X56617762Y-51373453D01*
X56617762Y-51373453D02*
X56570143Y-51468691D01*
X56570143Y-51468691D02*
X56522524Y-51516310D01*
X56522524Y-51516310D02*
X56427286Y-51563929D01*
X56427286Y-51563929D02*
X56046334Y-51563929D01*
X56951096Y-51040120D02*
X57570143Y-51040120D01*
X57570143Y-51040120D02*
X57236810Y-51421072D01*
X57236810Y-51421072D02*
X57379667Y-51421072D01*
X57379667Y-51421072D02*
X57474905Y-51468691D01*
X57474905Y-51468691D02*
X57522524Y-51516310D01*
X57522524Y-51516310D02*
X57570143Y-51611548D01*
X57570143Y-51611548D02*
X57570143Y-51849643D01*
X57570143Y-51849643D02*
X57522524Y-51944881D01*
X57522524Y-51944881D02*
X57474905Y-51992501D01*
X57474905Y-51992501D02*
X57379667Y-52040120D01*
X57379667Y-52040120D02*
X57093953Y-52040120D01*
X57093953Y-52040120D02*
X56998715Y-51992501D01*
X56998715Y-51992501D02*
X56951096Y-51944881D01*
X103584580Y-39970021D02*
X103632200Y-40017640D01*
X103632200Y-40017640D02*
X103679819Y-40160497D01*
X103679819Y-40160497D02*
X103679819Y-40255735D01*
X103679819Y-40255735D02*
X103632200Y-40398592D01*
X103632200Y-40398592D02*
X103536961Y-40493830D01*
X103536961Y-40493830D02*
X103441723Y-40541449D01*
X103441723Y-40541449D02*
X103251247Y-40589068D01*
X103251247Y-40589068D02*
X103108390Y-40589068D01*
X103108390Y-40589068D02*
X102917914Y-40541449D01*
X102917914Y-40541449D02*
X102822676Y-40493830D01*
X102822676Y-40493830D02*
X102727438Y-40398592D01*
X102727438Y-40398592D02*
X102679819Y-40255735D01*
X102679819Y-40255735D02*
X102679819Y-40160497D01*
X102679819Y-40160497D02*
X102727438Y-40017640D01*
X102727438Y-40017640D02*
X102775057Y-39970021D01*
X102775057Y-39589068D02*
X102727438Y-39541449D01*
X102727438Y-39541449D02*
X102679819Y-39446211D01*
X102679819Y-39446211D02*
X102679819Y-39208116D01*
X102679819Y-39208116D02*
X102727438Y-39112878D01*
X102727438Y-39112878D02*
X102775057Y-39065259D01*
X102775057Y-39065259D02*
X102870295Y-39017640D01*
X102870295Y-39017640D02*
X102965533Y-39017640D01*
X102965533Y-39017640D02*
X103108390Y-39065259D01*
X103108390Y-39065259D02*
X103679819Y-39636687D01*
X103679819Y-39636687D02*
X103679819Y-39017640D01*
X102679819Y-38684306D02*
X102679819Y-38065259D01*
X102679819Y-38065259D02*
X103060771Y-38398592D01*
X103060771Y-38398592D02*
X103060771Y-38255735D01*
X103060771Y-38255735D02*
X103108390Y-38160497D01*
X103108390Y-38160497D02*
X103156009Y-38112878D01*
X103156009Y-38112878D02*
X103251247Y-38065259D01*
X103251247Y-38065259D02*
X103489342Y-38065259D01*
X103489342Y-38065259D02*
X103584580Y-38112878D01*
X103584580Y-38112878D02*
X103632200Y-38160497D01*
X103632200Y-38160497D02*
X103679819Y-38255735D01*
X103679819Y-38255735D02*
X103679819Y-38541449D01*
X103679819Y-38541449D02*
X103632200Y-38636687D01*
X103632200Y-38636687D02*
X103584580Y-38684306D01*
X104263057Y-71228158D02*
X104310677Y-71275777D01*
X104310677Y-71275777D02*
X104358296Y-71418634D01*
X104358296Y-71418634D02*
X104358296Y-71513872D01*
X104358296Y-71513872D02*
X104310677Y-71656729D01*
X104310677Y-71656729D02*
X104215438Y-71751967D01*
X104215438Y-71751967D02*
X104120200Y-71799586D01*
X104120200Y-71799586D02*
X103929724Y-71847205D01*
X103929724Y-71847205D02*
X103786867Y-71847205D01*
X103786867Y-71847205D02*
X103596391Y-71799586D01*
X103596391Y-71799586D02*
X103501153Y-71751967D01*
X103501153Y-71751967D02*
X103405915Y-71656729D01*
X103405915Y-71656729D02*
X103358296Y-71513872D01*
X103358296Y-71513872D02*
X103358296Y-71418634D01*
X103358296Y-71418634D02*
X103405915Y-71275777D01*
X103405915Y-71275777D02*
X103453534Y-71228158D01*
X103453534Y-70847205D02*
X103405915Y-70799586D01*
X103405915Y-70799586D02*
X103358296Y-70704348D01*
X103358296Y-70704348D02*
X103358296Y-70466253D01*
X103358296Y-70466253D02*
X103405915Y-70371015D01*
X103405915Y-70371015D02*
X103453534Y-70323396D01*
X103453534Y-70323396D02*
X103548772Y-70275777D01*
X103548772Y-70275777D02*
X103644010Y-70275777D01*
X103644010Y-70275777D02*
X103786867Y-70323396D01*
X103786867Y-70323396D02*
X104358296Y-70894824D01*
X104358296Y-70894824D02*
X104358296Y-70275777D01*
X103358296Y-69371015D02*
X103358296Y-69847205D01*
X103358296Y-69847205D02*
X103834486Y-69894824D01*
X103834486Y-69894824D02*
X103786867Y-69847205D01*
X103786867Y-69847205D02*
X103739248Y-69751967D01*
X103739248Y-69751967D02*
X103739248Y-69513872D01*
X103739248Y-69513872D02*
X103786867Y-69418634D01*
X103786867Y-69418634D02*
X103834486Y-69371015D01*
X103834486Y-69371015D02*
X103929724Y-69323396D01*
X103929724Y-69323396D02*
X104167819Y-69323396D01*
X104167819Y-69323396D02*
X104263057Y-69371015D01*
X104263057Y-69371015D02*
X104310677Y-69418634D01*
X104310677Y-69418634D02*
X104358296Y-69513872D01*
X104358296Y-69513872D02*
X104358296Y-69751967D01*
X104358296Y-69751967D02*
X104310677Y-69847205D01*
X104310677Y-69847205D02*
X104263057Y-69894824D01*
X98757142Y-52959580D02*
X98709523Y-53007200D01*
X98709523Y-53007200D02*
X98566666Y-53054819D01*
X98566666Y-53054819D02*
X98471428Y-53054819D01*
X98471428Y-53054819D02*
X98328571Y-53007200D01*
X98328571Y-53007200D02*
X98233333Y-52911961D01*
X98233333Y-52911961D02*
X98185714Y-52816723D01*
X98185714Y-52816723D02*
X98138095Y-52626247D01*
X98138095Y-52626247D02*
X98138095Y-52483390D01*
X98138095Y-52483390D02*
X98185714Y-52292914D01*
X98185714Y-52292914D02*
X98233333Y-52197676D01*
X98233333Y-52197676D02*
X98328571Y-52102438D01*
X98328571Y-52102438D02*
X98471428Y-52054819D01*
X98471428Y-52054819D02*
X98566666Y-52054819D01*
X98566666Y-52054819D02*
X98709523Y-52102438D01*
X98709523Y-52102438D02*
X98757142Y-52150057D01*
X99138095Y-52150057D02*
X99185714Y-52102438D01*
X99185714Y-52102438D02*
X99280952Y-52054819D01*
X99280952Y-52054819D02*
X99519047Y-52054819D01*
X99519047Y-52054819D02*
X99614285Y-52102438D01*
X99614285Y-52102438D02*
X99661904Y-52150057D01*
X99661904Y-52150057D02*
X99709523Y-52245295D01*
X99709523Y-52245295D02*
X99709523Y-52340533D01*
X99709523Y-52340533D02*
X99661904Y-52483390D01*
X99661904Y-52483390D02*
X99090476Y-53054819D01*
X99090476Y-53054819D02*
X99709523Y-53054819D01*
X100566666Y-52054819D02*
X100376190Y-52054819D01*
X100376190Y-52054819D02*
X100280952Y-52102438D01*
X100280952Y-52102438D02*
X100233333Y-52150057D01*
X100233333Y-52150057D02*
X100138095Y-52292914D01*
X100138095Y-52292914D02*
X100090476Y-52483390D01*
X100090476Y-52483390D02*
X100090476Y-52864342D01*
X100090476Y-52864342D02*
X100138095Y-52959580D01*
X100138095Y-52959580D02*
X100185714Y-53007200D01*
X100185714Y-53007200D02*
X100280952Y-53054819D01*
X100280952Y-53054819D02*
X100471428Y-53054819D01*
X100471428Y-53054819D02*
X100566666Y-53007200D01*
X100566666Y-53007200D02*
X100614285Y-52959580D01*
X100614285Y-52959580D02*
X100661904Y-52864342D01*
X100661904Y-52864342D02*
X100661904Y-52626247D01*
X100661904Y-52626247D02*
X100614285Y-52531009D01*
X100614285Y-52531009D02*
X100566666Y-52483390D01*
X100566666Y-52483390D02*
X100471428Y-52435771D01*
X100471428Y-52435771D02*
X100280952Y-52435771D01*
X100280952Y-52435771D02*
X100185714Y-52483390D01*
X100185714Y-52483390D02*
X100138095Y-52531009D01*
X100138095Y-52531009D02*
X100090476Y-52626247D01*
X79261905Y-45328110D02*
X79833333Y-45328110D01*
X79547619Y-46328110D02*
X79547619Y-45328110D01*
X80166667Y-46328110D02*
X80166667Y-45328110D01*
X80166667Y-45328110D02*
X80547619Y-45328110D01*
X80547619Y-45328110D02*
X80642857Y-45375729D01*
X80642857Y-45375729D02*
X80690476Y-45423348D01*
X80690476Y-45423348D02*
X80738095Y-45518586D01*
X80738095Y-45518586D02*
X80738095Y-45661443D01*
X80738095Y-45661443D02*
X80690476Y-45756681D01*
X80690476Y-45756681D02*
X80642857Y-45804300D01*
X80642857Y-45804300D02*
X80547619Y-45851919D01*
X80547619Y-45851919D02*
X80166667Y-45851919D01*
X81690476Y-46328110D02*
X81119048Y-46328110D01*
X81404762Y-46328110D02*
X81404762Y-45328110D01*
X81404762Y-45328110D02*
X81309524Y-45470967D01*
X81309524Y-45470967D02*
X81214286Y-45566205D01*
X81214286Y-45566205D02*
X81119048Y-45613824D01*
X82642857Y-46328110D02*
X82071429Y-46328110D01*
X82357143Y-46328110D02*
X82357143Y-45328110D01*
X82357143Y-45328110D02*
X82261905Y-45470967D01*
X82261905Y-45470967D02*
X82166667Y-45566205D01*
X82166667Y-45566205D02*
X82071429Y-45613824D01*
X81757142Y-33659580D02*
X81709523Y-33707200D01*
X81709523Y-33707200D02*
X81566666Y-33754819D01*
X81566666Y-33754819D02*
X81471428Y-33754819D01*
X81471428Y-33754819D02*
X81328571Y-33707200D01*
X81328571Y-33707200D02*
X81233333Y-33611961D01*
X81233333Y-33611961D02*
X81185714Y-33516723D01*
X81185714Y-33516723D02*
X81138095Y-33326247D01*
X81138095Y-33326247D02*
X81138095Y-33183390D01*
X81138095Y-33183390D02*
X81185714Y-32992914D01*
X81185714Y-32992914D02*
X81233333Y-32897676D01*
X81233333Y-32897676D02*
X81328571Y-32802438D01*
X81328571Y-32802438D02*
X81471428Y-32754819D01*
X81471428Y-32754819D02*
X81566666Y-32754819D01*
X81566666Y-32754819D02*
X81709523Y-32802438D01*
X81709523Y-32802438D02*
X81757142Y-32850057D01*
X82709523Y-33754819D02*
X82138095Y-33754819D01*
X82423809Y-33754819D02*
X82423809Y-32754819D01*
X82423809Y-32754819D02*
X82328571Y-32897676D01*
X82328571Y-32897676D02*
X82233333Y-32992914D01*
X82233333Y-32992914D02*
X82138095Y-33040533D01*
X83042857Y-32754819D02*
X83709523Y-32754819D01*
X83709523Y-32754819D02*
X83280952Y-33754819D01*
X49786684Y-65944881D02*
X49739065Y-65992501D01*
X49739065Y-65992501D02*
X49596208Y-66040120D01*
X49596208Y-66040120D02*
X49500970Y-66040120D01*
X49500970Y-66040120D02*
X49358113Y-65992501D01*
X49358113Y-65992501D02*
X49262875Y-65897262D01*
X49262875Y-65897262D02*
X49215256Y-65802024D01*
X49215256Y-65802024D02*
X49167637Y-65611548D01*
X49167637Y-65611548D02*
X49167637Y-65468691D01*
X49167637Y-65468691D02*
X49215256Y-65278215D01*
X49215256Y-65278215D02*
X49262875Y-65182977D01*
X49262875Y-65182977D02*
X49358113Y-65087739D01*
X49358113Y-65087739D02*
X49500970Y-65040120D01*
X49500970Y-65040120D02*
X49596208Y-65040120D01*
X49596208Y-65040120D02*
X49739065Y-65087739D01*
X49739065Y-65087739D02*
X49786684Y-65135358D01*
X50739065Y-66040120D02*
X50167637Y-66040120D01*
X50453351Y-66040120D02*
X50453351Y-65040120D01*
X50453351Y-65040120D02*
X50358113Y-65182977D01*
X50358113Y-65182977D02*
X50262875Y-65278215D01*
X50262875Y-65278215D02*
X50167637Y-65325834D01*
X51358113Y-65040120D02*
X51453351Y-65040120D01*
X51453351Y-65040120D02*
X51548589Y-65087739D01*
X51548589Y-65087739D02*
X51596208Y-65135358D01*
X51596208Y-65135358D02*
X51643827Y-65230596D01*
X51643827Y-65230596D02*
X51691446Y-65421072D01*
X51691446Y-65421072D02*
X51691446Y-65659167D01*
X51691446Y-65659167D02*
X51643827Y-65849643D01*
X51643827Y-65849643D02*
X51596208Y-65944881D01*
X51596208Y-65944881D02*
X51548589Y-65992501D01*
X51548589Y-65992501D02*
X51453351Y-66040120D01*
X51453351Y-66040120D02*
X51358113Y-66040120D01*
X51358113Y-66040120D02*
X51262875Y-65992501D01*
X51262875Y-65992501D02*
X51215256Y-65944881D01*
X51215256Y-65944881D02*
X51167637Y-65849643D01*
X51167637Y-65849643D02*
X51120018Y-65659167D01*
X51120018Y-65659167D02*
X51120018Y-65421072D01*
X51120018Y-65421072D02*
X51167637Y-65230596D01*
X51167637Y-65230596D02*
X51215256Y-65135358D01*
X51215256Y-65135358D02*
X51262875Y-65087739D01*
X51262875Y-65087739D02*
X51358113Y-65040120D01*
D11*
X94960237Y-45774318D02*
X94960237Y-44504318D01*
X96290714Y-45653365D02*
X96230238Y-45713842D01*
X96230238Y-45713842D02*
X96048809Y-45774318D01*
X96048809Y-45774318D02*
X95927857Y-45774318D01*
X95927857Y-45774318D02*
X95746428Y-45713842D01*
X95746428Y-45713842D02*
X95625476Y-45592889D01*
X95625476Y-45592889D02*
X95564999Y-45471937D01*
X95564999Y-45471937D02*
X95504523Y-45230032D01*
X95504523Y-45230032D02*
X95504523Y-45048603D01*
X95504523Y-45048603D02*
X95564999Y-44806699D01*
X95564999Y-44806699D02*
X95625476Y-44685746D01*
X95625476Y-44685746D02*
X95746428Y-44564794D01*
X95746428Y-44564794D02*
X95927857Y-44504318D01*
X95927857Y-44504318D02*
X96048809Y-44504318D01*
X96048809Y-44504318D02*
X96230238Y-44564794D01*
X96230238Y-44564794D02*
X96290714Y-44625270D01*
X96714047Y-44504318D02*
X97500238Y-44504318D01*
X97500238Y-44504318D02*
X97076904Y-44988127D01*
X97076904Y-44988127D02*
X97258333Y-44988127D01*
X97258333Y-44988127D02*
X97379285Y-45048603D01*
X97379285Y-45048603D02*
X97439761Y-45109080D01*
X97439761Y-45109080D02*
X97500238Y-45230032D01*
X97500238Y-45230032D02*
X97500238Y-45532413D01*
X97500238Y-45532413D02*
X97439761Y-45653365D01*
X97439761Y-45653365D02*
X97379285Y-45713842D01*
X97379285Y-45713842D02*
X97258333Y-45774318D01*
X97258333Y-45774318D02*
X96895476Y-45774318D01*
X96895476Y-45774318D02*
X96774523Y-45713842D01*
X96774523Y-45713842D02*
X96714047Y-45653365D01*
D10*
X83357142Y-42159580D02*
X83309523Y-42207200D01*
X83309523Y-42207200D02*
X83166666Y-42254819D01*
X83166666Y-42254819D02*
X83071428Y-42254819D01*
X83071428Y-42254819D02*
X82928571Y-42207200D01*
X82928571Y-42207200D02*
X82833333Y-42111961D01*
X82833333Y-42111961D02*
X82785714Y-42016723D01*
X82785714Y-42016723D02*
X82738095Y-41826247D01*
X82738095Y-41826247D02*
X82738095Y-41683390D01*
X82738095Y-41683390D02*
X82785714Y-41492914D01*
X82785714Y-41492914D02*
X82833333Y-41397676D01*
X82833333Y-41397676D02*
X82928571Y-41302438D01*
X82928571Y-41302438D02*
X83071428Y-41254819D01*
X83071428Y-41254819D02*
X83166666Y-41254819D01*
X83166666Y-41254819D02*
X83309523Y-41302438D01*
X83309523Y-41302438D02*
X83357142Y-41350057D01*
X84309523Y-42254819D02*
X83738095Y-42254819D01*
X84023809Y-42254819D02*
X84023809Y-41254819D01*
X84023809Y-41254819D02*
X83928571Y-41397676D01*
X83928571Y-41397676D02*
X83833333Y-41492914D01*
X83833333Y-41492914D02*
X83738095Y-41540533D01*
X85166666Y-41254819D02*
X84976190Y-41254819D01*
X84976190Y-41254819D02*
X84880952Y-41302438D01*
X84880952Y-41302438D02*
X84833333Y-41350057D01*
X84833333Y-41350057D02*
X84738095Y-41492914D01*
X84738095Y-41492914D02*
X84690476Y-41683390D01*
X84690476Y-41683390D02*
X84690476Y-42064342D01*
X84690476Y-42064342D02*
X84738095Y-42159580D01*
X84738095Y-42159580D02*
X84785714Y-42207200D01*
X84785714Y-42207200D02*
X84880952Y-42254819D01*
X84880952Y-42254819D02*
X85071428Y-42254819D01*
X85071428Y-42254819D02*
X85166666Y-42207200D01*
X85166666Y-42207200D02*
X85214285Y-42159580D01*
X85214285Y-42159580D02*
X85261904Y-42064342D01*
X85261904Y-42064342D02*
X85261904Y-41826247D01*
X85261904Y-41826247D02*
X85214285Y-41731009D01*
X85214285Y-41731009D02*
X85166666Y-41683390D01*
X85166666Y-41683390D02*
X85071428Y-41635771D01*
X85071428Y-41635771D02*
X84880952Y-41635771D01*
X84880952Y-41635771D02*
X84785714Y-41683390D01*
X84785714Y-41683390D02*
X84738095Y-41731009D01*
X84738095Y-41731009D02*
X84690476Y-41826247D01*
X103515382Y-50890120D02*
X104086810Y-50890120D01*
X103801096Y-51890120D02*
X103801096Y-50890120D01*
X104420144Y-51890120D02*
X104420144Y-50890120D01*
X104420144Y-50890120D02*
X104801096Y-50890120D01*
X104801096Y-50890120D02*
X104896334Y-50937739D01*
X104896334Y-50937739D02*
X104943953Y-50985358D01*
X104943953Y-50985358D02*
X104991572Y-51080596D01*
X104991572Y-51080596D02*
X104991572Y-51223453D01*
X104991572Y-51223453D02*
X104943953Y-51318691D01*
X104943953Y-51318691D02*
X104896334Y-51366310D01*
X104896334Y-51366310D02*
X104801096Y-51413929D01*
X104801096Y-51413929D02*
X104420144Y-51413929D01*
X105943953Y-51890120D02*
X105372525Y-51890120D01*
X105658239Y-51890120D02*
X105658239Y-50890120D01*
X105658239Y-50890120D02*
X105563001Y-51032977D01*
X105563001Y-51032977D02*
X105467763Y-51128215D01*
X105467763Y-51128215D02*
X105372525Y-51175834D01*
X106801096Y-51223453D02*
X106801096Y-51890120D01*
X106563001Y-50842501D02*
X106324906Y-51556786D01*
X106324906Y-51556786D02*
X106943953Y-51556786D01*
X49786684Y-67744881D02*
X49739065Y-67792501D01*
X49739065Y-67792501D02*
X49596208Y-67840120D01*
X49596208Y-67840120D02*
X49500970Y-67840120D01*
X49500970Y-67840120D02*
X49358113Y-67792501D01*
X49358113Y-67792501D02*
X49262875Y-67697262D01*
X49262875Y-67697262D02*
X49215256Y-67602024D01*
X49215256Y-67602024D02*
X49167637Y-67411548D01*
X49167637Y-67411548D02*
X49167637Y-67268691D01*
X49167637Y-67268691D02*
X49215256Y-67078215D01*
X49215256Y-67078215D02*
X49262875Y-66982977D01*
X49262875Y-66982977D02*
X49358113Y-66887739D01*
X49358113Y-66887739D02*
X49500970Y-66840120D01*
X49500970Y-66840120D02*
X49596208Y-66840120D01*
X49596208Y-66840120D02*
X49739065Y-66887739D01*
X49739065Y-66887739D02*
X49786684Y-66935358D01*
X50120018Y-66840120D02*
X50786684Y-66840120D01*
X50786684Y-66840120D02*
X50358113Y-67840120D01*
X60938095Y-76118110D02*
X61509523Y-76118110D01*
X61223809Y-77118110D02*
X61223809Y-76118110D01*
X61842857Y-77118110D02*
X61842857Y-76118110D01*
X61842857Y-76118110D02*
X62223809Y-76118110D01*
X62223809Y-76118110D02*
X62319047Y-76165729D01*
X62319047Y-76165729D02*
X62366666Y-76213348D01*
X62366666Y-76213348D02*
X62414285Y-76308586D01*
X62414285Y-76308586D02*
X62414285Y-76451443D01*
X62414285Y-76451443D02*
X62366666Y-76546681D01*
X62366666Y-76546681D02*
X62319047Y-76594300D01*
X62319047Y-76594300D02*
X62223809Y-76641919D01*
X62223809Y-76641919D02*
X61842857Y-76641919D01*
X62747619Y-76118110D02*
X63414285Y-76118110D01*
X63414285Y-76118110D02*
X62985714Y-77118110D01*
X102613057Y-69102750D02*
X102660677Y-69150369D01*
X102660677Y-69150369D02*
X102708296Y-69293226D01*
X102708296Y-69293226D02*
X102708296Y-69388464D01*
X102708296Y-69388464D02*
X102660677Y-69531321D01*
X102660677Y-69531321D02*
X102565438Y-69626559D01*
X102565438Y-69626559D02*
X102470200Y-69674178D01*
X102470200Y-69674178D02*
X102279724Y-69721797D01*
X102279724Y-69721797D02*
X102136867Y-69721797D01*
X102136867Y-69721797D02*
X101946391Y-69674178D01*
X101946391Y-69674178D02*
X101851153Y-69626559D01*
X101851153Y-69626559D02*
X101755915Y-69531321D01*
X101755915Y-69531321D02*
X101708296Y-69388464D01*
X101708296Y-69388464D02*
X101708296Y-69293226D01*
X101708296Y-69293226D02*
X101755915Y-69150369D01*
X101755915Y-69150369D02*
X101803534Y-69102750D01*
X101803534Y-68721797D02*
X101755915Y-68674178D01*
X101755915Y-68674178D02*
X101708296Y-68578940D01*
X101708296Y-68578940D02*
X101708296Y-68340845D01*
X101708296Y-68340845D02*
X101755915Y-68245607D01*
X101755915Y-68245607D02*
X101803534Y-68197988D01*
X101803534Y-68197988D02*
X101898772Y-68150369D01*
X101898772Y-68150369D02*
X101994010Y-68150369D01*
X101994010Y-68150369D02*
X102136867Y-68197988D01*
X102136867Y-68197988D02*
X102708296Y-68769416D01*
X102708296Y-68769416D02*
X102708296Y-68150369D01*
X102136867Y-67578940D02*
X102089248Y-67674178D01*
X102089248Y-67674178D02*
X102041629Y-67721797D01*
X102041629Y-67721797D02*
X101946391Y-67769416D01*
X101946391Y-67769416D02*
X101898772Y-67769416D01*
X101898772Y-67769416D02*
X101803534Y-67721797D01*
X101803534Y-67721797D02*
X101755915Y-67674178D01*
X101755915Y-67674178D02*
X101708296Y-67578940D01*
X101708296Y-67578940D02*
X101708296Y-67388464D01*
X101708296Y-67388464D02*
X101755915Y-67293226D01*
X101755915Y-67293226D02*
X101803534Y-67245607D01*
X101803534Y-67245607D02*
X101898772Y-67197988D01*
X101898772Y-67197988D02*
X101946391Y-67197988D01*
X101946391Y-67197988D02*
X102041629Y-67245607D01*
X102041629Y-67245607D02*
X102089248Y-67293226D01*
X102089248Y-67293226D02*
X102136867Y-67388464D01*
X102136867Y-67388464D02*
X102136867Y-67578940D01*
X102136867Y-67578940D02*
X102184486Y-67674178D01*
X102184486Y-67674178D02*
X102232105Y-67721797D01*
X102232105Y-67721797D02*
X102327343Y-67769416D01*
X102327343Y-67769416D02*
X102517819Y-67769416D01*
X102517819Y-67769416D02*
X102613057Y-67721797D01*
X102613057Y-67721797D02*
X102660677Y-67674178D01*
X102660677Y-67674178D02*
X102708296Y-67578940D01*
X102708296Y-67578940D02*
X102708296Y-67388464D01*
X102708296Y-67388464D02*
X102660677Y-67293226D01*
X102660677Y-67293226D02*
X102613057Y-67245607D01*
X102613057Y-67245607D02*
X102517819Y-67197988D01*
X102517819Y-67197988D02*
X102327343Y-67197988D01*
X102327343Y-67197988D02*
X102232105Y-67245607D01*
X102232105Y-67245607D02*
X102184486Y-67293226D01*
X102184486Y-67293226D02*
X102136867Y-67388464D01*
D11*
X72062619Y-40045789D02*
X71639285Y-40045789D01*
X71639285Y-40711027D02*
X71639285Y-39441027D01*
X71639285Y-39441027D02*
X72244047Y-39441027D01*
X73332618Y-40711027D02*
X72727856Y-40711027D01*
X72727856Y-40711027D02*
X72727856Y-39441027D01*
X73695475Y-39561979D02*
X73755951Y-39501503D01*
X73755951Y-39501503D02*
X73876904Y-39441027D01*
X73876904Y-39441027D02*
X74179285Y-39441027D01*
X74179285Y-39441027D02*
X74300237Y-39501503D01*
X74300237Y-39501503D02*
X74360713Y-39561979D01*
X74360713Y-39561979D02*
X74421190Y-39682931D01*
X74421190Y-39682931D02*
X74421190Y-39803884D01*
X74421190Y-39803884D02*
X74360713Y-39985312D01*
X74360713Y-39985312D02*
X73634999Y-40711027D01*
X73634999Y-40711027D02*
X74421190Y-40711027D01*
D10*
X52013057Y-74376967D02*
X52060677Y-74424586D01*
X52060677Y-74424586D02*
X52108296Y-74567443D01*
X52108296Y-74567443D02*
X52108296Y-74662681D01*
X52108296Y-74662681D02*
X52060677Y-74805538D01*
X52060677Y-74805538D02*
X51965438Y-74900776D01*
X51965438Y-74900776D02*
X51870200Y-74948395D01*
X51870200Y-74948395D02*
X51679724Y-74996014D01*
X51679724Y-74996014D02*
X51536867Y-74996014D01*
X51536867Y-74996014D02*
X51346391Y-74948395D01*
X51346391Y-74948395D02*
X51251153Y-74900776D01*
X51251153Y-74900776D02*
X51155915Y-74805538D01*
X51155915Y-74805538D02*
X51108296Y-74662681D01*
X51108296Y-74662681D02*
X51108296Y-74567443D01*
X51108296Y-74567443D02*
X51155915Y-74424586D01*
X51155915Y-74424586D02*
X51203534Y-74376967D01*
X51203534Y-73996014D02*
X51155915Y-73948395D01*
X51155915Y-73948395D02*
X51108296Y-73853157D01*
X51108296Y-73853157D02*
X51108296Y-73615062D01*
X51108296Y-73615062D02*
X51155915Y-73519824D01*
X51155915Y-73519824D02*
X51203534Y-73472205D01*
X51203534Y-73472205D02*
X51298772Y-73424586D01*
X51298772Y-73424586D02*
X51394010Y-73424586D01*
X51394010Y-73424586D02*
X51536867Y-73472205D01*
X51536867Y-73472205D02*
X52108296Y-74043633D01*
X52108296Y-74043633D02*
X52108296Y-73424586D01*
X47895049Y-48638712D02*
X48466477Y-48638712D01*
X48180763Y-49638712D02*
X48180763Y-48638712D01*
X48799811Y-49638712D02*
X48799811Y-48638712D01*
X48799811Y-48638712D02*
X49180763Y-48638712D01*
X49180763Y-48638712D02*
X49276001Y-48686331D01*
X49276001Y-48686331D02*
X49323620Y-48733950D01*
X49323620Y-48733950D02*
X49371239Y-48829188D01*
X49371239Y-48829188D02*
X49371239Y-48972045D01*
X49371239Y-48972045D02*
X49323620Y-49067283D01*
X49323620Y-49067283D02*
X49276001Y-49114902D01*
X49276001Y-49114902D02*
X49180763Y-49162521D01*
X49180763Y-49162521D02*
X48799811Y-49162521D01*
X50228382Y-48972045D02*
X50228382Y-49638712D01*
X49990287Y-48591093D02*
X49752192Y-49305378D01*
X49752192Y-49305378D02*
X50371239Y-49305378D01*
X91959580Y-58442857D02*
X92007200Y-58490476D01*
X92007200Y-58490476D02*
X92054819Y-58633333D01*
X92054819Y-58633333D02*
X92054819Y-58728571D01*
X92054819Y-58728571D02*
X92007200Y-58871428D01*
X92007200Y-58871428D02*
X91911961Y-58966666D01*
X91911961Y-58966666D02*
X91816723Y-59014285D01*
X91816723Y-59014285D02*
X91626247Y-59061904D01*
X91626247Y-59061904D02*
X91483390Y-59061904D01*
X91483390Y-59061904D02*
X91292914Y-59014285D01*
X91292914Y-59014285D02*
X91197676Y-58966666D01*
X91197676Y-58966666D02*
X91102438Y-58871428D01*
X91102438Y-58871428D02*
X91054819Y-58728571D01*
X91054819Y-58728571D02*
X91054819Y-58633333D01*
X91054819Y-58633333D02*
X91102438Y-58490476D01*
X91102438Y-58490476D02*
X91150057Y-58442857D01*
X91150057Y-58061904D02*
X91102438Y-58014285D01*
X91102438Y-58014285D02*
X91054819Y-57919047D01*
X91054819Y-57919047D02*
X91054819Y-57680952D01*
X91054819Y-57680952D02*
X91102438Y-57585714D01*
X91102438Y-57585714D02*
X91150057Y-57538095D01*
X91150057Y-57538095D02*
X91245295Y-57490476D01*
X91245295Y-57490476D02*
X91340533Y-57490476D01*
X91340533Y-57490476D02*
X91483390Y-57538095D01*
X91483390Y-57538095D02*
X92054819Y-58109523D01*
X92054819Y-58109523D02*
X92054819Y-57490476D01*
X92054819Y-57014285D02*
X92054819Y-56823809D01*
X92054819Y-56823809D02*
X92007200Y-56728571D01*
X92007200Y-56728571D02*
X91959580Y-56680952D01*
X91959580Y-56680952D02*
X91816723Y-56585714D01*
X91816723Y-56585714D02*
X91626247Y-56538095D01*
X91626247Y-56538095D02*
X91245295Y-56538095D01*
X91245295Y-56538095D02*
X91150057Y-56585714D01*
X91150057Y-56585714D02*
X91102438Y-56633333D01*
X91102438Y-56633333D02*
X91054819Y-56728571D01*
X91054819Y-56728571D02*
X91054819Y-56919047D01*
X91054819Y-56919047D02*
X91102438Y-57014285D01*
X91102438Y-57014285D02*
X91150057Y-57061904D01*
X91150057Y-57061904D02*
X91245295Y-57109523D01*
X91245295Y-57109523D02*
X91483390Y-57109523D01*
X91483390Y-57109523D02*
X91578628Y-57061904D01*
X91578628Y-57061904D02*
X91626247Y-57014285D01*
X91626247Y-57014285D02*
X91673866Y-56919047D01*
X91673866Y-56919047D02*
X91673866Y-56728571D01*
X91673866Y-56728571D02*
X91626247Y-56633333D01*
X91626247Y-56633333D02*
X91578628Y-56585714D01*
X91578628Y-56585714D02*
X91483390Y-56538095D01*
X104132142Y-44959580D02*
X104084523Y-45007200D01*
X104084523Y-45007200D02*
X103941666Y-45054819D01*
X103941666Y-45054819D02*
X103846428Y-45054819D01*
X103846428Y-45054819D02*
X103703571Y-45007200D01*
X103703571Y-45007200D02*
X103608333Y-44911961D01*
X103608333Y-44911961D02*
X103560714Y-44816723D01*
X103560714Y-44816723D02*
X103513095Y-44626247D01*
X103513095Y-44626247D02*
X103513095Y-44483390D01*
X103513095Y-44483390D02*
X103560714Y-44292914D01*
X103560714Y-44292914D02*
X103608333Y-44197676D01*
X103608333Y-44197676D02*
X103703571Y-44102438D01*
X103703571Y-44102438D02*
X103846428Y-44054819D01*
X103846428Y-44054819D02*
X103941666Y-44054819D01*
X103941666Y-44054819D02*
X104084523Y-44102438D01*
X104084523Y-44102438D02*
X104132142Y-44150057D01*
X104513095Y-44150057D02*
X104560714Y-44102438D01*
X104560714Y-44102438D02*
X104655952Y-44054819D01*
X104655952Y-44054819D02*
X104894047Y-44054819D01*
X104894047Y-44054819D02*
X104989285Y-44102438D01*
X104989285Y-44102438D02*
X105036904Y-44150057D01*
X105036904Y-44150057D02*
X105084523Y-44245295D01*
X105084523Y-44245295D02*
X105084523Y-44340533D01*
X105084523Y-44340533D02*
X105036904Y-44483390D01*
X105036904Y-44483390D02*
X104465476Y-45054819D01*
X104465476Y-45054819D02*
X105084523Y-45054819D01*
X105417857Y-44054819D02*
X106084523Y-44054819D01*
X106084523Y-44054819D02*
X105655952Y-45054819D01*
X69157142Y-56159580D02*
X69109523Y-56207200D01*
X69109523Y-56207200D02*
X68966666Y-56254819D01*
X68966666Y-56254819D02*
X68871428Y-56254819D01*
X68871428Y-56254819D02*
X68728571Y-56207200D01*
X68728571Y-56207200D02*
X68633333Y-56111961D01*
X68633333Y-56111961D02*
X68585714Y-56016723D01*
X68585714Y-56016723D02*
X68538095Y-55826247D01*
X68538095Y-55826247D02*
X68538095Y-55683390D01*
X68538095Y-55683390D02*
X68585714Y-55492914D01*
X68585714Y-55492914D02*
X68633333Y-55397676D01*
X68633333Y-55397676D02*
X68728571Y-55302438D01*
X68728571Y-55302438D02*
X68871428Y-55254819D01*
X68871428Y-55254819D02*
X68966666Y-55254819D01*
X68966666Y-55254819D02*
X69109523Y-55302438D01*
X69109523Y-55302438D02*
X69157142Y-55350057D01*
X70109523Y-56254819D02*
X69538095Y-56254819D01*
X69823809Y-56254819D02*
X69823809Y-55254819D01*
X69823809Y-55254819D02*
X69728571Y-55397676D01*
X69728571Y-55397676D02*
X69633333Y-55492914D01*
X69633333Y-55492914D02*
X69538095Y-55540533D01*
X70966666Y-55588152D02*
X70966666Y-56254819D01*
X70728571Y-55207200D02*
X70490476Y-55921485D01*
X70490476Y-55921485D02*
X71109523Y-55921485D01*
X47813057Y-51451967D02*
X47860677Y-51499586D01*
X47860677Y-51499586D02*
X47908296Y-51642443D01*
X47908296Y-51642443D02*
X47908296Y-51737681D01*
X47908296Y-51737681D02*
X47860677Y-51880538D01*
X47860677Y-51880538D02*
X47765438Y-51975776D01*
X47765438Y-51975776D02*
X47670200Y-52023395D01*
X47670200Y-52023395D02*
X47479724Y-52071014D01*
X47479724Y-52071014D02*
X47336867Y-52071014D01*
X47336867Y-52071014D02*
X47146391Y-52023395D01*
X47146391Y-52023395D02*
X47051153Y-51975776D01*
X47051153Y-51975776D02*
X46955915Y-51880538D01*
X46955915Y-51880538D02*
X46908296Y-51737681D01*
X46908296Y-51737681D02*
X46908296Y-51642443D01*
X46908296Y-51642443D02*
X46955915Y-51499586D01*
X46955915Y-51499586D02*
X47003534Y-51451967D01*
X47908296Y-50975776D02*
X47908296Y-50785300D01*
X47908296Y-50785300D02*
X47860677Y-50690062D01*
X47860677Y-50690062D02*
X47813057Y-50642443D01*
X47813057Y-50642443D02*
X47670200Y-50547205D01*
X47670200Y-50547205D02*
X47479724Y-50499586D01*
X47479724Y-50499586D02*
X47098772Y-50499586D01*
X47098772Y-50499586D02*
X47003534Y-50547205D01*
X47003534Y-50547205D02*
X46955915Y-50594824D01*
X46955915Y-50594824D02*
X46908296Y-50690062D01*
X46908296Y-50690062D02*
X46908296Y-50880538D01*
X46908296Y-50880538D02*
X46955915Y-50975776D01*
X46955915Y-50975776D02*
X47003534Y-51023395D01*
X47003534Y-51023395D02*
X47098772Y-51071014D01*
X47098772Y-51071014D02*
X47336867Y-51071014D01*
X47336867Y-51071014D02*
X47432105Y-51023395D01*
X47432105Y-51023395D02*
X47479724Y-50975776D01*
X47479724Y-50975776D02*
X47527343Y-50880538D01*
X47527343Y-50880538D02*
X47527343Y-50690062D01*
X47527343Y-50690062D02*
X47479724Y-50594824D01*
X47479724Y-50594824D02*
X47432105Y-50547205D01*
X47432105Y-50547205D02*
X47336867Y-50499586D01*
D14*
X39747430Y-43442720D02*
X40414096Y-44442720D01*
X40414096Y-43442720D02*
X39747430Y-44442720D01*
X41318858Y-44442720D02*
X40747430Y-44442720D01*
X41033144Y-44442720D02*
X41033144Y-43442720D01*
X41033144Y-43442720D02*
X40937906Y-43585577D01*
X40937906Y-43585577D02*
X40842668Y-43680815D01*
X40842668Y-43680815D02*
X40747430Y-43728434D01*
D10*
X38963057Y-54376967D02*
X39010677Y-54424586D01*
X39010677Y-54424586D02*
X39058296Y-54567443D01*
X39058296Y-54567443D02*
X39058296Y-54662681D01*
X39058296Y-54662681D02*
X39010677Y-54805538D01*
X39010677Y-54805538D02*
X38915438Y-54900776D01*
X38915438Y-54900776D02*
X38820200Y-54948395D01*
X38820200Y-54948395D02*
X38629724Y-54996014D01*
X38629724Y-54996014D02*
X38486867Y-54996014D01*
X38486867Y-54996014D02*
X38296391Y-54948395D01*
X38296391Y-54948395D02*
X38201153Y-54900776D01*
X38201153Y-54900776D02*
X38105915Y-54805538D01*
X38105915Y-54805538D02*
X38058296Y-54662681D01*
X38058296Y-54662681D02*
X38058296Y-54567443D01*
X38058296Y-54567443D02*
X38105915Y-54424586D01*
X38105915Y-54424586D02*
X38153534Y-54376967D01*
X38058296Y-54043633D02*
X38058296Y-53424586D01*
X38058296Y-53424586D02*
X38439248Y-53757919D01*
X38439248Y-53757919D02*
X38439248Y-53615062D01*
X38439248Y-53615062D02*
X38486867Y-53519824D01*
X38486867Y-53519824D02*
X38534486Y-53472205D01*
X38534486Y-53472205D02*
X38629724Y-53424586D01*
X38629724Y-53424586D02*
X38867819Y-53424586D01*
X38867819Y-53424586D02*
X38963057Y-53472205D01*
X38963057Y-53472205D02*
X39010677Y-53519824D01*
X39010677Y-53519824D02*
X39058296Y-53615062D01*
X39058296Y-53615062D02*
X39058296Y-53900776D01*
X39058296Y-53900776D02*
X39010677Y-53996014D01*
X39010677Y-53996014D02*
X38963057Y-54043633D01*
X34017762Y-72290120D02*
X34017762Y-73004405D01*
X34017762Y-73004405D02*
X33970143Y-73147262D01*
X33970143Y-73147262D02*
X33874905Y-73242501D01*
X33874905Y-73242501D02*
X33732048Y-73290120D01*
X33732048Y-73290120D02*
X33636810Y-73290120D01*
X34922524Y-72623453D02*
X34922524Y-73290120D01*
X34684429Y-72242501D02*
X34446334Y-72956786D01*
X34446334Y-72956786D02*
X35065381Y-72956786D01*
X46878296Y-72926967D02*
X46402105Y-73260300D01*
X46878296Y-73498395D02*
X45878296Y-73498395D01*
X45878296Y-73498395D02*
X45878296Y-73117443D01*
X45878296Y-73117443D02*
X45925915Y-73022205D01*
X45925915Y-73022205D02*
X45973534Y-72974586D01*
X45973534Y-72974586D02*
X46068772Y-72926967D01*
X46068772Y-72926967D02*
X46211629Y-72926967D01*
X46211629Y-72926967D02*
X46306867Y-72974586D01*
X46306867Y-72974586D02*
X46354486Y-73022205D01*
X46354486Y-73022205D02*
X46402105Y-73117443D01*
X46402105Y-73117443D02*
X46402105Y-73498395D01*
X46878296Y-71974586D02*
X46878296Y-72546014D01*
X46878296Y-72260300D02*
X45878296Y-72260300D01*
X45878296Y-72260300D02*
X46021153Y-72355538D01*
X46021153Y-72355538D02*
X46116391Y-72450776D01*
X46116391Y-72450776D02*
X46164010Y-72546014D01*
%TO.C,U1*%
D15*
X38671276Y-57206701D02*
X38671276Y-57629161D01*
X38671276Y-64048641D02*
X38671276Y-64471101D01*
X38671276Y-64471101D02*
X39093736Y-64471101D01*
X39093736Y-57206701D02*
X38671276Y-57206701D01*
X45513216Y-64471101D02*
X45935676Y-64471101D01*
X45935676Y-57206701D02*
X45513216Y-57206701D01*
X45935676Y-57629161D02*
X45935676Y-57206701D01*
X45935676Y-64471101D02*
X45935676Y-64048641D01*
D16*
G36*
X38239476Y-60779402D02*
G01*
X37985476Y-60779402D01*
X37985476Y-60398401D01*
X38239476Y-60398401D01*
X38239476Y-60779402D01*
G37*
G36*
X41243976Y-65156901D02*
G01*
X40862976Y-65156901D01*
X40862976Y-64902901D01*
X41243976Y-64902901D01*
X41243976Y-65156901D01*
G37*
G36*
X41743975Y-56774901D02*
G01*
X41362975Y-56774901D01*
X41362975Y-56520901D01*
X41743975Y-56520901D01*
X41743975Y-56774901D01*
G37*
G36*
X46621476Y-59279402D02*
G01*
X46367476Y-59279402D01*
X46367476Y-58898402D01*
X46621476Y-58898402D01*
X46621476Y-59279402D01*
G37*
%TO.C,C6*%
D17*
X35937897Y-63875301D02*
X36219057Y-63875301D01*
X35937897Y-64895301D02*
X36219057Y-64895301D01*
%TO.C,R11*%
X90656492Y-50651709D02*
X91131008Y-50651709D01*
X90656492Y-51696709D02*
X91131008Y-51696709D01*
%TO.C,C13*%
X67090000Y-64996129D02*
X67090000Y-65277289D01*
X68110000Y-64996129D02*
X68110000Y-65277289D01*
%TO.C,C5*%
X34893477Y-60725881D02*
X34893477Y-60444721D01*
X35913477Y-60725881D02*
X35913477Y-60444721D01*
%TO.C,C19*%
X91548936Y-64077221D02*
X91548936Y-64358381D01*
X92568936Y-64077221D02*
X92568936Y-64358381D01*
%TO.C,C15*%
X86589420Y-73226709D02*
X86870580Y-73226709D01*
X86589420Y-74246709D02*
X86870580Y-74246709D01*
%TO.C,IC2*%
D18*
X91680000Y-72286709D02*
G75*
G02*
X91430000Y-72286709I-125000J0D01*
G01*
X91430000Y-72286709D02*
G75*
G02*
X91680000Y-72286709I125000J0D01*
G01*
%TO.C,R6*%
D17*
X71277500Y-54451033D02*
X71277500Y-54925549D01*
X72322500Y-54451033D02*
X72322500Y-54925549D01*
%TO.C,U2*%
D14*
D16*
X50303477Y-58786709D02*
X50303476Y-58786709D01*
X50303476Y-58786709D01*
X50303476Y-58786709D01*
X50303476Y-58786709D01*
X50303476Y-58786709D01*
X50303476Y-58786709D01*
X50303476Y-58786709D01*
X50303476Y-58786708D01*
X50303476Y-58786708D01*
X50303476Y-58786708D01*
X50303476Y-58786708D01*
X50303476Y-58786708D01*
X50303477Y-58786708D01*
X50303477Y-58786708D01*
X50303477Y-58786708D01*
X50303477Y-58786708D01*
X50303477Y-58786708D01*
X50303477Y-58786708D01*
X50303477Y-58786708D01*
X50303477Y-58786708D01*
X50303477Y-58786708D01*
X50303477Y-58786708D01*
X50303477Y-58786708D01*
X50303477Y-58786708D01*
X50303478Y-58786708D01*
X50303478Y-58786708D01*
X50303478Y-58786708D01*
X50303478Y-58786708D01*
X50303478Y-58786708D01*
X50303478Y-58786708D01*
X50303478Y-58786709D01*
X50303478Y-58786709D01*
X50303478Y-58786709D01*
X50303478Y-58786709D01*
X50303478Y-58786709D01*
X50303478Y-58786709D01*
X50303478Y-58786709D01*
X50303477Y-58786709D01*
X50303477Y-58786709D02*
X50303478Y-58786709D01*
X50303478Y-58786709D01*
X50303478Y-58786709D01*
X50303478Y-58786709D01*
X50303478Y-58786709D01*
X50303478Y-58786709D01*
X50303478Y-58786710D01*
X50303478Y-58786710D01*
X50303478Y-58786710D01*
X50303478Y-58786710D01*
X50303478Y-58786710D01*
X50303478Y-58786710D01*
X50303478Y-58786710D01*
X50303477Y-58786710D01*
X50303477Y-58786710D01*
X50303477Y-58786710D01*
X50303477Y-58786710D01*
X50303477Y-58786710D01*
X50303477Y-58786710D01*
X50303477Y-58786710D01*
X50303477Y-58786710D01*
X50303477Y-58786710D01*
X50303477Y-58786710D01*
X50303477Y-58786710D01*
X50303477Y-58786710D01*
X50303476Y-58786710D01*
X50303476Y-58786710D01*
X50303476Y-58786710D01*
X50303476Y-58786710D01*
X50303476Y-58786710D01*
X50303476Y-58786710D01*
X50303476Y-58786709D01*
X50303476Y-58786709D01*
X50303476Y-58786709D01*
X50303476Y-58786709D01*
X50303476Y-58786709D01*
X50303476Y-58786709D01*
X50303477Y-58786709D01*
D14*
D16*
X50403477Y-58786709D02*
X50403476Y-58786709D01*
X50403476Y-58786709D01*
X50403476Y-58786709D01*
X50403476Y-58786709D01*
X50403476Y-58786709D01*
X50403476Y-58786709D01*
X50403476Y-58786709D01*
X50403476Y-58786708D01*
X50403476Y-58786708D01*
X50403476Y-58786708D01*
X50403476Y-58786708D01*
X50403476Y-58786708D01*
X50403477Y-58786708D01*
X50403477Y-58786708D01*
X50403477Y-58786708D01*
X50403477Y-58786708D01*
X50403477Y-58786708D01*
X50403477Y-58786708D01*
X50403477Y-58786708D01*
X50403477Y-58786708D01*
X50403477Y-58786708D01*
X50403477Y-58786708D01*
X50403477Y-58786708D01*
X50403477Y-58786708D01*
X50403478Y-58786708D01*
X50403478Y-58786708D01*
X50403478Y-58786708D01*
X50403478Y-58786708D01*
X50403478Y-58786708D01*
X50403478Y-58786708D01*
X50403478Y-58786709D01*
X50403478Y-58786709D01*
X50403478Y-58786709D01*
X50403478Y-58786709D01*
X50403478Y-58786709D01*
X50403478Y-58786709D01*
X50403478Y-58786709D01*
X50403477Y-58786709D01*
X50403477Y-58786709D02*
X50403478Y-58786709D01*
X50403478Y-58786709D01*
X50403478Y-58786709D01*
X50403478Y-58786709D01*
X50403478Y-58786709D01*
X50403478Y-58786709D01*
X50403478Y-58786710D01*
X50403478Y-58786710D01*
X50403478Y-58786710D01*
X50403478Y-58786710D01*
X50403478Y-58786710D01*
X50403478Y-58786710D01*
X50403478Y-58786710D01*
X50403477Y-58786710D01*
X50403477Y-58786710D01*
X50403477Y-58786710D01*
X50403477Y-58786710D01*
X50403477Y-58786710D01*
X50403477Y-58786710D01*
X50403477Y-58786710D01*
X50403477Y-58786710D01*
X50403477Y-58786710D01*
X50403477Y-58786710D01*
X50403477Y-58786710D01*
X50403477Y-58786710D01*
X50403476Y-58786710D01*
X50403476Y-58786710D01*
X50403476Y-58786710D01*
X50403476Y-58786710D01*
X50403476Y-58786710D01*
X50403476Y-58786710D01*
X50403476Y-58786709D01*
X50403476Y-58786709D01*
X50403476Y-58786709D01*
X50403476Y-58786709D01*
X50403476Y-58786709D01*
X50403476Y-58786709D01*
X50403477Y-58786709D01*
D14*
X50303477Y-58786709D02*
G75*
G02*
X50403477Y-58786709I50000J0D01*
G01*
X50403477Y-58786709D02*
G75*
G02*
X50303477Y-58786709I-50000J0D01*
G01*
%TO.C,TP10*%
D17*
X79580000Y-74986709D02*
X81480000Y-74986709D01*
X79580000Y-76886709D02*
X79580000Y-74986709D01*
X81480000Y-74986709D02*
X81480000Y-76886709D01*
X81480000Y-76886709D02*
X79580000Y-76886709D01*
%TO.C,L2*%
X86890000Y-38284645D02*
X86890000Y-39488773D01*
X89610000Y-38284645D02*
X89610000Y-39488773D01*
%TO.C,C22*%
X98753080Y-36090000D02*
X98471920Y-36090000D01*
X98753080Y-37110000D02*
X98471920Y-37110000D01*
%TO.C,R10*%
X95224758Y-36027500D02*
X94750242Y-36027500D01*
X95224758Y-37072500D02*
X94750242Y-37072500D01*
%TO.C,TP6*%
X61250000Y-44986709D02*
X63150000Y-44986709D01*
X61250000Y-46886709D02*
X61250000Y-44986709D01*
X63150000Y-44986709D02*
X63150000Y-46886709D01*
X63150000Y-46886709D02*
X61250000Y-46886709D01*
%TO.C,TP8*%
X55053477Y-65835301D02*
X56953477Y-65835301D01*
X55053477Y-67735301D02*
X55053477Y-65835301D01*
X56953477Y-65835301D02*
X56953477Y-67735301D01*
X56953477Y-67735301D02*
X55053477Y-67735301D01*
%TO.C,C20*%
X97662897Y-66875301D02*
X97944057Y-66875301D01*
X97662897Y-67895301D02*
X97944057Y-67895301D01*
%TO.C,R12*%
X93477500Y-50548967D02*
X93477500Y-50074451D01*
X94522500Y-50548967D02*
X94522500Y-50074451D01*
%TO.C,IC4*%
D14*
D16*
X99890000Y-56636709D02*
X99889999Y-56636709D01*
X99889999Y-56636709D01*
X99889999Y-56636709D01*
X99889999Y-56636709D01*
X99889999Y-56636709D01*
X99889999Y-56636709D01*
X99889999Y-56636709D01*
X99889999Y-56636708D01*
X99889999Y-56636708D01*
X99889999Y-56636708D01*
X99889999Y-56636708D01*
X99889999Y-56636708D01*
X99890000Y-56636708D01*
X99890000Y-56636708D01*
X99890000Y-56636708D01*
X99890000Y-56636708D01*
X99890000Y-56636708D01*
X99890000Y-56636708D01*
X99890000Y-56636708D01*
X99890000Y-56636708D01*
X99890000Y-56636708D01*
X99890000Y-56636708D01*
X99890000Y-56636708D01*
X99890000Y-56636708D01*
X99890001Y-56636708D01*
X99890001Y-56636708D01*
X99890001Y-56636708D01*
X99890001Y-56636708D01*
X99890001Y-56636708D01*
X99890001Y-56636708D01*
X99890001Y-56636709D01*
X99890001Y-56636709D01*
X99890001Y-56636709D01*
X99890001Y-56636709D01*
X99890001Y-56636709D01*
X99890001Y-56636709D01*
X99890001Y-56636709D01*
X99890000Y-56636709D01*
X99890000Y-56636709D02*
X99890001Y-56636709D01*
X99890001Y-56636709D01*
X99890001Y-56636709D01*
X99890001Y-56636709D01*
X99890001Y-56636709D01*
X99890001Y-56636709D01*
X99890001Y-56636710D01*
X99890001Y-56636710D01*
X99890001Y-56636710D01*
X99890001Y-56636710D01*
X99890001Y-56636710D01*
X99890001Y-56636710D01*
X99890001Y-56636710D01*
X99890000Y-56636710D01*
X99890000Y-56636710D01*
X99890000Y-56636710D01*
X99890000Y-56636710D01*
X99890000Y-56636710D01*
X99890000Y-56636710D01*
X99890000Y-56636710D01*
X99890000Y-56636710D01*
X99890000Y-56636710D01*
X99890000Y-56636710D01*
X99890000Y-56636710D01*
X99890000Y-56636710D01*
X99889999Y-56636710D01*
X99889999Y-56636710D01*
X99889999Y-56636710D01*
X99889999Y-56636710D01*
X99889999Y-56636710D01*
X99889999Y-56636710D01*
X99889999Y-56636709D01*
X99889999Y-56636709D01*
X99889999Y-56636709D01*
X99889999Y-56636709D01*
X99889999Y-56636709D01*
X99889999Y-56636709D01*
X99890000Y-56636709D01*
D14*
D16*
X99990000Y-56636709D02*
X99989999Y-56636709D01*
X99989999Y-56636709D01*
X99989999Y-56636709D01*
X99989999Y-56636709D01*
X99989999Y-56636709D01*
X99989999Y-56636709D01*
X99989999Y-56636709D01*
X99989999Y-56636708D01*
X99989999Y-56636708D01*
X99989999Y-56636708D01*
X99989999Y-56636708D01*
X99989999Y-56636708D01*
X99990000Y-56636708D01*
X99990000Y-56636708D01*
X99990000Y-56636708D01*
X99990000Y-56636708D01*
X99990000Y-56636708D01*
X99990000Y-56636708D01*
X99990000Y-56636708D01*
X99990000Y-56636708D01*
X99990000Y-56636708D01*
X99990000Y-56636708D01*
X99990000Y-56636708D01*
X99990000Y-56636708D01*
X99990001Y-56636708D01*
X99990001Y-56636708D01*
X99990001Y-56636708D01*
X99990001Y-56636708D01*
X99990001Y-56636708D01*
X99990001Y-56636708D01*
X99990001Y-56636709D01*
X99990001Y-56636709D01*
X99990001Y-56636709D01*
X99990001Y-56636709D01*
X99990001Y-56636709D01*
X99990001Y-56636709D01*
X99990001Y-56636709D01*
X99990000Y-56636709D01*
X99990000Y-56636709D02*
X99990001Y-56636709D01*
X99990001Y-56636709D01*
X99990001Y-56636709D01*
X99990001Y-56636709D01*
X99990001Y-56636709D01*
X99990001Y-56636709D01*
X99990001Y-56636710D01*
X99990001Y-56636710D01*
X99990001Y-56636710D01*
X99990001Y-56636710D01*
X99990001Y-56636710D01*
X99990001Y-56636710D01*
X99990001Y-56636710D01*
X99990000Y-56636710D01*
X99990000Y-56636710D01*
X99990000Y-56636710D01*
X99990000Y-56636710D01*
X99990000Y-56636710D01*
X99990000Y-56636710D01*
X99990000Y-56636710D01*
X99990000Y-56636710D01*
X99990000Y-56636710D01*
X99990000Y-56636710D01*
X99990000Y-56636710D01*
X99990000Y-56636710D01*
X99989999Y-56636710D01*
X99989999Y-56636710D01*
X99989999Y-56636710D01*
X99989999Y-56636710D01*
X99989999Y-56636710D01*
X99989999Y-56636710D01*
X99989999Y-56636709D01*
X99989999Y-56636709D01*
X99989999Y-56636709D01*
X99989999Y-56636709D01*
X99989999Y-56636709D01*
X99989999Y-56636709D01*
X99990000Y-56636709D01*
D14*
X99890000Y-56636709D02*
G75*
G02*
X99990000Y-56636709I50000J0D01*
G01*
X99990000Y-56636709D02*
G75*
G02*
X99890000Y-56636709I-50000J0D01*
G01*
%TO.C,L1*%
D17*
X83220000Y-74361430D02*
X83220000Y-74686988D01*
X84240000Y-74361430D02*
X84240000Y-74686988D01*
%TO.C,IC1*%
D14*
D16*
X61028164Y-60081466D02*
X61028163Y-60081466D01*
X61028163Y-60081466D01*
X61028163Y-60081466D01*
X61028163Y-60081466D01*
X61028163Y-60081466D01*
X61028163Y-60081466D01*
X61028163Y-60081466D01*
X61028163Y-60081465D01*
X61028163Y-60081465D01*
X61028163Y-60081465D01*
X61028163Y-60081465D01*
X61028163Y-60081465D01*
X61028164Y-60081465D01*
X61028164Y-60081465D01*
X61028164Y-60081465D01*
X61028164Y-60081465D01*
X61028164Y-60081465D01*
X61028164Y-60081465D01*
X61028164Y-60081465D01*
X61028164Y-60081465D01*
X61028164Y-60081465D01*
X61028164Y-60081465D01*
X61028164Y-60081465D01*
X61028164Y-60081465D01*
X61028165Y-60081465D01*
X61028165Y-60081465D01*
X61028165Y-60081465D01*
X61028165Y-60081465D01*
X61028165Y-60081465D01*
X61028165Y-60081465D01*
X61028165Y-60081466D01*
X61028165Y-60081466D01*
X61028165Y-60081466D01*
X61028165Y-60081466D01*
X61028165Y-60081466D01*
X61028165Y-60081466D01*
X61028165Y-60081466D01*
X61028164Y-60081466D01*
X61028164Y-60081466D02*
X61028165Y-60081466D01*
X61028165Y-60081466D01*
X61028165Y-60081466D01*
X61028165Y-60081466D01*
X61028165Y-60081466D01*
X61028165Y-60081466D01*
X61028165Y-60081467D01*
X61028165Y-60081467D01*
X61028165Y-60081467D01*
X61028165Y-60081467D01*
X61028165Y-60081467D01*
X61028165Y-60081467D01*
X61028165Y-60081467D01*
X61028164Y-60081467D01*
X61028164Y-60081467D01*
X61028164Y-60081467D01*
X61028164Y-60081467D01*
X61028164Y-60081467D01*
X61028164Y-60081467D01*
X61028164Y-60081467D01*
X61028164Y-60081467D01*
X61028164Y-60081467D01*
X61028164Y-60081467D01*
X61028164Y-60081467D01*
X61028164Y-60081467D01*
X61028163Y-60081467D01*
X61028163Y-60081467D01*
X61028163Y-60081467D01*
X61028163Y-60081467D01*
X61028163Y-60081467D01*
X61028163Y-60081467D01*
X61028163Y-60081466D01*
X61028163Y-60081466D01*
X61028163Y-60081466D01*
X61028163Y-60081466D01*
X61028163Y-60081466D01*
X61028163Y-60081466D01*
X61028164Y-60081466D01*
D14*
D16*
X61128164Y-60081466D02*
X61128163Y-60081466D01*
X61128163Y-60081466D01*
X61128163Y-60081466D01*
X61128163Y-60081466D01*
X61128163Y-60081466D01*
X61128163Y-60081466D01*
X61128163Y-60081466D01*
X61128163Y-60081465D01*
X61128163Y-60081465D01*
X61128163Y-60081465D01*
X61128163Y-60081465D01*
X61128163Y-60081465D01*
X61128164Y-60081465D01*
X61128164Y-60081465D01*
X61128164Y-60081465D01*
X61128164Y-60081465D01*
X61128164Y-60081465D01*
X61128164Y-60081465D01*
X61128164Y-60081465D01*
X61128164Y-60081465D01*
X61128164Y-60081465D01*
X61128164Y-60081465D01*
X61128164Y-60081465D01*
X61128164Y-60081465D01*
X61128165Y-60081465D01*
X61128165Y-60081465D01*
X61128165Y-60081465D01*
X61128165Y-60081465D01*
X61128165Y-60081465D01*
X61128165Y-60081465D01*
X61128165Y-60081466D01*
X61128165Y-60081466D01*
X61128165Y-60081466D01*
X61128165Y-60081466D01*
X61128165Y-60081466D01*
X61128165Y-60081466D01*
X61128165Y-60081466D01*
X61128164Y-60081466D01*
X61128164Y-60081466D02*
X61128165Y-60081466D01*
X61128165Y-60081466D01*
X61128165Y-60081466D01*
X61128165Y-60081466D01*
X61128165Y-60081466D01*
X61128165Y-60081466D01*
X61128165Y-60081467D01*
X61128165Y-60081467D01*
X61128165Y-60081467D01*
X61128165Y-60081467D01*
X61128165Y-60081467D01*
X61128165Y-60081467D01*
X61128165Y-60081467D01*
X61128164Y-60081467D01*
X61128164Y-60081467D01*
X61128164Y-60081467D01*
X61128164Y-60081467D01*
X61128164Y-60081467D01*
X61128164Y-60081467D01*
X61128164Y-60081467D01*
X61128164Y-60081467D01*
X61128164Y-60081467D01*
X61128164Y-60081467D01*
X61128164Y-60081467D01*
X61128164Y-60081467D01*
X61128163Y-60081467D01*
X61128163Y-60081467D01*
X61128163Y-60081467D01*
X61128163Y-60081467D01*
X61128163Y-60081467D01*
X61128163Y-60081467D01*
X61128163Y-60081466D01*
X61128163Y-60081466D01*
X61128163Y-60081466D01*
X61128163Y-60081466D01*
X61128163Y-60081466D01*
X61128163Y-60081466D01*
X61128164Y-60081466D01*
D14*
X61028164Y-60081466D02*
G75*
G02*
X61128164Y-60081466I50000J0D01*
G01*
X61128164Y-60081466D02*
G75*
G02*
X61028164Y-60081466I-50000J0D01*
G01*
%TO.C,R8*%
D17*
X87657500Y-69762742D02*
X87657500Y-70237258D01*
X88702500Y-69762742D02*
X88702500Y-70237258D01*
%TO.C,L4*%
X97043477Y-73785679D02*
X97043477Y-74584923D01*
X98163477Y-73785679D02*
X98163477Y-74584923D01*
%TO.C,TP5*%
X58453477Y-55135301D02*
X60353477Y-55135301D01*
X58453477Y-57035301D02*
X58453477Y-55135301D01*
X60353477Y-55135301D02*
X60353477Y-57035301D01*
X60353477Y-57035301D02*
X58453477Y-57035301D01*
%TO.C,R9*%
X88717742Y-67014209D02*
X89192258Y-67014209D01*
X88717742Y-68059209D02*
X89192258Y-68059209D01*
%TO.C,J2*%
X71870000Y-29266709D02*
X71870000Y-31866709D01*
X71870000Y-29266709D02*
X74530000Y-29266709D01*
X71870000Y-31866709D02*
X74530000Y-31866709D01*
X73200000Y-26666709D02*
X74530000Y-26666709D01*
X74530000Y-26666709D02*
X74530000Y-27996709D01*
X74530000Y-29266709D02*
X74530000Y-31866709D01*
%TO.C,R5*%
X57884454Y-68952489D02*
X57884454Y-69427005D01*
X58929454Y-68952489D02*
X58929454Y-69427005D01*
%TO.C,C4*%
X37687897Y-65625301D02*
X37969057Y-65625301D01*
X37687897Y-66645301D02*
X37969057Y-66645301D01*
%TO.C,TP12*%
X103650000Y-47450000D02*
X105550000Y-47450000D01*
X103650000Y-49350000D02*
X103650000Y-47450000D01*
X105550000Y-47450000D02*
X105550000Y-49350000D01*
X105550000Y-49350000D02*
X103650000Y-49350000D01*
%TO.C,FL1*%
D14*
D16*
X67090859Y-71753873D02*
X67090858Y-71753873D01*
X67090858Y-71753873D01*
X67090858Y-71753873D01*
X67090858Y-71753873D01*
X67090858Y-71753873D01*
X67090858Y-71753873D01*
X67090858Y-71753873D01*
X67090858Y-71753872D01*
X67090858Y-71753872D01*
X67090858Y-71753872D01*
X67090858Y-71753872D01*
X67090858Y-71753872D01*
X67090859Y-71753872D01*
X67090859Y-71753872D01*
X67090859Y-71753872D01*
X67090859Y-71753872D01*
X67090859Y-71753872D01*
X67090859Y-71753872D01*
X67090859Y-71753872D01*
X67090859Y-71753872D01*
X67090859Y-71753872D01*
X67090859Y-71753872D01*
X67090859Y-71753872D01*
X67090859Y-71753872D01*
X67090860Y-71753872D01*
X67090860Y-71753872D01*
X67090860Y-71753872D01*
X67090860Y-71753872D01*
X67090860Y-71753872D01*
X67090860Y-71753872D01*
X67090860Y-71753873D01*
X67090860Y-71753873D01*
X67090860Y-71753873D01*
X67090860Y-71753873D01*
X67090860Y-71753873D01*
X67090860Y-71753873D01*
X67090860Y-71753873D01*
X67090859Y-71753873D01*
X67090859Y-71753873D02*
X67090860Y-71753873D01*
X67090860Y-71753873D01*
X67090860Y-71753873D01*
X67090860Y-71753873D01*
X67090860Y-71753873D01*
X67090860Y-71753873D01*
X67090860Y-71753874D01*
X67090860Y-71753874D01*
X67090860Y-71753874D01*
X67090860Y-71753874D01*
X67090860Y-71753874D01*
X67090860Y-71753874D01*
X67090860Y-71753874D01*
X67090859Y-71753874D01*
X67090859Y-71753874D01*
X67090859Y-71753874D01*
X67090859Y-71753874D01*
X67090859Y-71753874D01*
X67090859Y-71753874D01*
X67090859Y-71753874D01*
X67090859Y-71753874D01*
X67090859Y-71753874D01*
X67090859Y-71753874D01*
X67090859Y-71753874D01*
X67090859Y-71753874D01*
X67090858Y-71753874D01*
X67090858Y-71753874D01*
X67090858Y-71753874D01*
X67090858Y-71753874D01*
X67090858Y-71753874D01*
X67090858Y-71753874D01*
X67090858Y-71753873D01*
X67090858Y-71753873D01*
X67090858Y-71753873D01*
X67090858Y-71753873D01*
X67090858Y-71753873D01*
X67090858Y-71753873D01*
X67090859Y-71753873D01*
D14*
D16*
X67190859Y-71753873D02*
X67190858Y-71753873D01*
X67190858Y-71753873D01*
X67190858Y-71753873D01*
X67190858Y-71753873D01*
X67190858Y-71753873D01*
X67190858Y-71753873D01*
X67190858Y-71753873D01*
X67190858Y-71753872D01*
X67190858Y-71753872D01*
X67190858Y-71753872D01*
X67190858Y-71753872D01*
X67190858Y-71753872D01*
X67190859Y-71753872D01*
X67190859Y-71753872D01*
X67190859Y-71753872D01*
X67190859Y-71753872D01*
X67190859Y-71753872D01*
X67190859Y-71753872D01*
X67190859Y-71753872D01*
X67190859Y-71753872D01*
X67190859Y-71753872D01*
X67190859Y-71753872D01*
X67190859Y-71753872D01*
X67190859Y-71753872D01*
X67190860Y-71753872D01*
X67190860Y-71753872D01*
X67190860Y-71753872D01*
X67190860Y-71753872D01*
X67190860Y-71753872D01*
X67190860Y-71753872D01*
X67190860Y-71753873D01*
X67190860Y-71753873D01*
X67190860Y-71753873D01*
X67190860Y-71753873D01*
X67190860Y-71753873D01*
X67190860Y-71753873D01*
X67190860Y-71753873D01*
X67190859Y-71753873D01*
X67190859Y-71753873D02*
X67190860Y-71753873D01*
X67190860Y-71753873D01*
X67190860Y-71753873D01*
X67190860Y-71753873D01*
X67190860Y-71753873D01*
X67190860Y-71753873D01*
X67190860Y-71753874D01*
X67190860Y-71753874D01*
X67190860Y-71753874D01*
X67190860Y-71753874D01*
X67190860Y-71753874D01*
X67190860Y-71753874D01*
X67190860Y-71753874D01*
X67190859Y-71753874D01*
X67190859Y-71753874D01*
X67190859Y-71753874D01*
X67190859Y-71753874D01*
X67190859Y-71753874D01*
X67190859Y-71753874D01*
X67190859Y-71753874D01*
X67190859Y-71753874D01*
X67190859Y-71753874D01*
X67190859Y-71753874D01*
X67190859Y-71753874D01*
X67190859Y-71753874D01*
X67190858Y-71753874D01*
X67190858Y-71753874D01*
X67190858Y-71753874D01*
X67190858Y-71753874D01*
X67190858Y-71753874D01*
X67190858Y-71753874D01*
X67190858Y-71753873D01*
X67190858Y-71753873D01*
X67190858Y-71753873D01*
X67190858Y-71753873D01*
X67190858Y-71753873D01*
X67190858Y-71753873D01*
X67190859Y-71753873D01*
D19*
X68145859Y-69218873D02*
X68145859Y-70863873D01*
X68145859Y-76463873D02*
X68145859Y-78108873D01*
X68145859Y-78108873D02*
X71790859Y-78108873D01*
X71790859Y-69218873D02*
X68145859Y-69218873D01*
X77035859Y-69218873D02*
X73390859Y-69218873D01*
X77035859Y-70863873D02*
X77035859Y-69218873D01*
X77035859Y-76463873D02*
X77035859Y-78108873D01*
X77035859Y-78108873D02*
X73390859Y-78108873D01*
D14*
X67090859Y-71753873D02*
G75*
G02*
X67190859Y-71753873I50000J0D01*
G01*
X67190859Y-71753873D02*
G75*
G02*
X67090859Y-71753873I-50000J0D01*
G01*
%TO.C,C11*%
D17*
X55893477Y-61325881D02*
X55893477Y-61044721D01*
X56913477Y-61325881D02*
X56913477Y-61044721D01*
%TO.C,C12*%
X66059420Y-56690000D02*
X66340580Y-56690000D01*
X66059420Y-57710000D02*
X66340580Y-57710000D01*
%TO.C,L5*%
X100240698Y-74675301D02*
X100566256Y-74675301D01*
X100240698Y-75695301D02*
X100566256Y-75695301D01*
%TO.C,TP1*%
X40453477Y-44835301D02*
X42353477Y-44835301D01*
X40453477Y-46735301D02*
X40453477Y-44835301D01*
X42353477Y-44835301D02*
X42353477Y-46735301D01*
X42353477Y-46735301D02*
X40453477Y-46735301D01*
%TO.C,R4*%
X57880977Y-63977489D02*
X57880977Y-64452005D01*
X58925977Y-63977489D02*
X58925977Y-64452005D01*
%TO.C,L3*%
X94043477Y-67985679D02*
X94043477Y-68784923D01*
X95163477Y-67985679D02*
X95163477Y-68784923D01*
%TO.C,C18*%
X84490000Y-36877289D02*
X84490000Y-36596129D01*
X85510000Y-36877289D02*
X85510000Y-36596129D01*
%TO.C,R7*%
X71277500Y-59987742D02*
X71277500Y-60462258D01*
X72322500Y-59987742D02*
X72322500Y-60462258D01*
%TO.C,C1*%
X40293477Y-41925881D02*
X40293477Y-41644721D01*
X41313477Y-41925881D02*
X41313477Y-41644721D01*
D16*
%TO.C,G\u002A\u002A\u002A*%
G36*
X55483969Y-89088105D02*
G01*
X55518465Y-89118075D01*
X55569679Y-89165553D01*
X55634275Y-89227404D01*
X55708917Y-89300492D01*
X55767168Y-89358476D01*
X56053360Y-89645248D01*
X56032217Y-89716431D01*
X56011074Y-89787615D01*
X55724198Y-89488628D01*
X55635318Y-89395743D01*
X55567104Y-89323501D01*
X55516974Y-89268627D01*
X55482348Y-89227845D01*
X55460643Y-89197879D01*
X55449278Y-89175452D01*
X55445673Y-89157290D01*
X55447244Y-89140116D01*
X55447702Y-89137748D01*
X55458217Y-89099501D01*
X55469244Y-89078969D01*
X55469529Y-89078779D01*
X55483969Y-89088105D01*
G37*
G36*
X57348240Y-89641623D02*
G01*
X57339974Y-89678302D01*
X57334125Y-89696304D01*
X57333999Y-89696437D01*
X57316807Y-89702719D01*
X57273086Y-89716706D01*
X57208328Y-89736758D01*
X57128022Y-89761235D01*
X57037661Y-89788499D01*
X56942734Y-89816909D01*
X56848734Y-89844825D01*
X56761150Y-89870609D01*
X56685474Y-89892620D01*
X56627197Y-89909220D01*
X56591810Y-89918767D01*
X56583863Y-89920429D01*
X56574629Y-89906056D01*
X56577412Y-89868392D01*
X56577600Y-89867443D01*
X56585973Y-89830144D01*
X56591941Y-89811396D01*
X56592193Y-89811110D01*
X56608657Y-89805797D01*
X56652741Y-89792675D01*
X56719974Y-89773044D01*
X56805889Y-89748205D01*
X56906017Y-89719456D01*
X56977337Y-89699080D01*
X57358485Y-89590397D01*
X57348240Y-89641623D01*
G37*
G36*
X57511063Y-88874041D02*
G01*
X57502175Y-88918193D01*
X57488065Y-88984595D01*
X57469824Y-89068112D01*
X57448545Y-89163608D01*
X57448380Y-89164344D01*
X57380252Y-89467288D01*
X57029914Y-89562809D01*
X56925225Y-89591349D01*
X56830043Y-89617292D01*
X56749561Y-89639221D01*
X56688970Y-89655723D01*
X56653464Y-89665383D01*
X56647757Y-89666931D01*
X56624407Y-89667317D01*
X56623880Y-89644852D01*
X56624170Y-89643713D01*
X56630712Y-89617726D01*
X56643789Y-89565230D01*
X56661943Y-89492101D01*
X56683715Y-89404213D01*
X56704534Y-89320035D01*
X56776665Y-89028177D01*
X57143717Y-88940665D01*
X57249109Y-88915741D01*
X57342928Y-88893941D01*
X57420565Y-88876305D01*
X57477409Y-88863872D01*
X57508853Y-88857680D01*
X57513638Y-88857277D01*
X57511063Y-88874041D01*
G37*
G36*
X55706654Y-88380410D02*
G01*
X55743742Y-88410705D01*
X55795879Y-88456240D01*
X55858749Y-88512963D01*
X55928037Y-88576818D01*
X55999427Y-88643752D01*
X56068603Y-88709710D01*
X56131252Y-88770639D01*
X56183057Y-88822484D01*
X56219703Y-88861191D01*
X56236875Y-88882705D01*
X56237620Y-88884902D01*
X56233723Y-88906056D01*
X56223078Y-88952560D01*
X56207254Y-89018228D01*
X56187821Y-89096876D01*
X56166349Y-89182318D01*
X56144406Y-89268371D01*
X56123564Y-89348848D01*
X56105391Y-89417566D01*
X56091456Y-89468339D01*
X56083330Y-89494983D01*
X56082173Y-89497442D01*
X56070269Y-89486754D01*
X56038407Y-89455274D01*
X55989774Y-89406232D01*
X55927556Y-89342854D01*
X55854940Y-89268367D01*
X55797828Y-89209484D01*
X55516474Y-88918812D01*
X55596926Y-88644112D01*
X55623879Y-88554263D01*
X55648353Y-88476737D01*
X55668611Y-88416725D01*
X55682913Y-88379419D01*
X55688928Y-88369411D01*
X55706654Y-88380410D01*
G37*
G36*
X53013984Y-82723467D02*
G01*
X53018442Y-82759413D01*
X53018841Y-82781322D01*
X53025093Y-82858965D01*
X53041785Y-82953553D01*
X53065819Y-83051545D01*
X53094098Y-83139399D01*
X53109043Y-83175690D01*
X53158670Y-83256129D01*
X53225376Y-83312293D01*
X53315241Y-83348981D01*
X53335043Y-83354054D01*
X53382394Y-83366838D01*
X53412882Y-83378020D01*
X53419104Y-83382806D01*
X53404399Y-83391247D01*
X53366696Y-83403389D01*
X53335043Y-83411558D01*
X53240188Y-83445147D01*
X53169626Y-83497317D01*
X53117277Y-83572868D01*
X53109043Y-83589922D01*
X53079795Y-83667485D01*
X53053226Y-83762038D01*
X53032431Y-83860041D01*
X53020508Y-83947953D01*
X53018841Y-83984290D01*
X53016204Y-84032148D01*
X53009180Y-84049260D01*
X52999100Y-84037743D01*
X52987295Y-83999711D01*
X52975095Y-83937281D01*
X52970640Y-83907655D01*
X52944909Y-83760660D01*
X52911975Y-83643523D01*
X52869842Y-83553157D01*
X52816514Y-83486475D01*
X52749995Y-83440387D01*
X52668288Y-83411808D01*
X52647188Y-83407396D01*
X52601000Y-83394795D01*
X52588108Y-83381266D01*
X52608513Y-83367855D01*
X52647188Y-83358216D01*
X52732662Y-83333218D01*
X52802490Y-83291421D01*
X52858668Y-83229737D01*
X52903192Y-83145078D01*
X52938061Y-83034357D01*
X52965268Y-82894486D01*
X52970640Y-82857956D01*
X52982642Y-82786825D01*
X52994753Y-82739289D01*
X53005644Y-82717465D01*
X53013984Y-82723467D01*
G37*
G36*
X50423553Y-83681647D02*
G01*
X50432310Y-83722631D01*
X50441921Y-83781803D01*
X50446113Y-83812254D01*
X50471178Y-83961452D01*
X50504387Y-84080542D01*
X50547403Y-84172138D01*
X50601887Y-84238853D01*
X50669501Y-84283297D01*
X50751907Y-84308084D01*
X50762651Y-84309829D01*
X50813115Y-84320916D01*
X50831503Y-84333507D01*
X50817381Y-84346445D01*
X50780272Y-84356698D01*
X50677962Y-84390171D01*
X50595225Y-84444096D01*
X50540831Y-84509404D01*
X50517597Y-84561399D01*
X50493148Y-84636121D01*
X50470031Y-84723152D01*
X50450790Y-84812077D01*
X50437973Y-84892477D01*
X50434031Y-84946332D01*
X50429394Y-84983228D01*
X50418394Y-85000380D01*
X50417134Y-85000534D01*
X50405255Y-84986085D01*
X50400457Y-84952343D01*
X50395822Y-84894306D01*
X50383585Y-84816384D01*
X50366245Y-84730479D01*
X50346303Y-84648495D01*
X50326258Y-84582335D01*
X50318586Y-84562538D01*
X50267284Y-84475637D01*
X50196915Y-84413522D01*
X50102457Y-84371830D01*
X50097360Y-84370306D01*
X50046237Y-84353685D01*
X50011046Y-84339186D01*
X50000217Y-84331154D01*
X50014987Y-84322489D01*
X50052210Y-84313140D01*
X50071617Y-84309829D01*
X50155873Y-84287183D01*
X50225141Y-84245187D01*
X50281083Y-84181228D01*
X50325362Y-84092695D01*
X50359638Y-83976975D01*
X50385575Y-83831455D01*
X50388155Y-83812254D01*
X50397667Y-83747355D01*
X50406990Y-83697293D01*
X50414641Y-83669543D01*
X50417134Y-83666325D01*
X50423553Y-83681647D01*
G37*
G36*
X51476433Y-81634707D02*
G01*
X51481264Y-81652804D01*
X51489472Y-81696980D01*
X51499842Y-81760274D01*
X51509462Y-81824001D01*
X51548719Y-82044102D01*
X51597747Y-82232462D01*
X51656530Y-82389028D01*
X51725052Y-82513751D01*
X51745954Y-82542926D01*
X51827661Y-82622964D01*
X51938505Y-82686959D01*
X52078338Y-82734836D01*
X52176622Y-82755889D01*
X52247935Y-82771608D01*
X52286253Y-82788023D01*
X52293365Y-82799089D01*
X52276698Y-82815908D01*
X52226722Y-82831948D01*
X52176622Y-82841911D01*
X52029211Y-82875708D01*
X51908830Y-82923726D01*
X51810891Y-82989554D01*
X51730809Y-83076785D01*
X51663996Y-83189009D01*
X51627608Y-83271750D01*
X51602733Y-83345207D01*
X51575953Y-83442411D01*
X51549371Y-83553994D01*
X51525092Y-83670590D01*
X51505222Y-83782832D01*
X51493047Y-83870626D01*
X51482237Y-83934009D01*
X51469094Y-83964966D01*
X51455213Y-83964194D01*
X51442189Y-83932393D01*
X51431618Y-83870258D01*
X51428885Y-83842573D01*
X51412160Y-83710194D01*
X51384607Y-83565108D01*
X51349387Y-83421363D01*
X51309662Y-83293011D01*
X51298231Y-83261924D01*
X51233356Y-83131176D01*
X51149088Y-83023800D01*
X51048016Y-82942728D01*
X50989034Y-82911655D01*
X50942148Y-82892211D01*
X50894501Y-82875917D01*
X50838302Y-82860693D01*
X50765759Y-82844455D01*
X50669082Y-82825123D01*
X50654790Y-82822362D01*
X50625501Y-82810675D01*
X50617265Y-82799089D01*
X50631401Y-82783844D01*
X50654790Y-82775817D01*
X50755023Y-82755959D01*
X50830106Y-82739479D01*
X50887795Y-82724306D01*
X50935848Y-82708374D01*
X50982023Y-82689613D01*
X50988081Y-82686952D01*
X51080771Y-82631620D01*
X51168456Y-82553425D01*
X51240712Y-82462418D01*
X51265868Y-82419080D01*
X51296686Y-82346302D01*
X51328837Y-82249372D01*
X51360173Y-82137312D01*
X51388542Y-82019141D01*
X51411796Y-81903880D01*
X51427785Y-81800551D01*
X51434358Y-81718175D01*
X51434415Y-81711860D01*
X51439968Y-81667809D01*
X51453584Y-81638099D01*
X51470823Y-81630882D01*
X51476433Y-81634707D01*
G37*
G36*
X59002242Y-82910283D02*
G01*
X59130958Y-82917746D01*
X59241089Y-82931671D01*
X59339910Y-82953378D01*
X59434696Y-82984186D01*
X59532723Y-83025414D01*
X59556464Y-83036495D01*
X59655104Y-83095966D01*
X59754838Y-83178268D01*
X59846681Y-83274438D01*
X59921644Y-83375512D01*
X59953843Y-83432839D01*
X60021752Y-83609940D01*
X60062493Y-83805590D01*
X60076051Y-84018967D01*
X60062414Y-84249251D01*
X60021569Y-84495621D01*
X59974246Y-84686286D01*
X59886169Y-84957293D01*
X59770467Y-85242803D01*
X59628375Y-85540592D01*
X59461128Y-85848439D01*
X59269959Y-86164121D01*
X59056104Y-86485416D01*
X58820797Y-86810101D01*
X58725058Y-86935137D01*
X58623454Y-87064462D01*
X58517721Y-87196465D01*
X58410071Y-87328587D01*
X58302717Y-87458266D01*
X58197872Y-87582945D01*
X58097748Y-87700063D01*
X58004559Y-87807061D01*
X57920517Y-87901379D01*
X57847836Y-87980459D01*
X57788727Y-88041740D01*
X57745404Y-88082662D01*
X57720080Y-88100668D01*
X57716853Y-88101290D01*
X57695340Y-88091378D01*
X57654337Y-88065882D01*
X57600948Y-88029353D01*
X57571829Y-88008373D01*
X57517240Y-87966888D01*
X57474724Y-87931736D01*
X57450300Y-87908039D01*
X57446747Y-87901938D01*
X57457511Y-87885548D01*
X57487468Y-87848789D01*
X57533111Y-87795734D01*
X57590934Y-87730455D01*
X57657432Y-87657025D01*
X57659912Y-87654315D01*
X57832697Y-87462270D01*
X58006885Y-87262380D01*
X58179397Y-87058509D01*
X58347152Y-86854519D01*
X58507071Y-86654275D01*
X58656074Y-86461640D01*
X58791081Y-86280478D01*
X58909013Y-86114653D01*
X59006790Y-85968028D01*
X59017495Y-85951158D01*
X59187639Y-85668768D01*
X59336524Y-85395529D01*
X59463595Y-85133011D01*
X59568296Y-84882785D01*
X59650072Y-84646421D01*
X59708367Y-84425490D01*
X59742625Y-84221563D01*
X59752291Y-84036210D01*
X59742051Y-83903101D01*
X59707174Y-83745636D01*
X59651116Y-83613146D01*
X59572778Y-83503974D01*
X59471062Y-83416463D01*
X59387577Y-83368284D01*
X59260946Y-83314453D01*
X59131976Y-83277412D01*
X58991633Y-83255315D01*
X58830886Y-83246314D01*
X58789294Y-83245899D01*
X58600525Y-83252470D01*
X58406840Y-83273744D01*
X58205380Y-83310562D01*
X57993289Y-83363764D01*
X57767707Y-83434188D01*
X57525779Y-83522675D01*
X57264645Y-83630065D01*
X56981448Y-83757198D01*
X56868533Y-83810345D01*
X56540484Y-83966522D01*
X56201429Y-83966219D01*
X55862374Y-83965916D01*
X56012472Y-83881261D01*
X56339990Y-83702934D01*
X56663230Y-83539504D01*
X56978938Y-83392349D01*
X57283857Y-83262848D01*
X57574735Y-83152382D01*
X57848315Y-83062329D01*
X58101342Y-82994071D01*
X58111011Y-82991808D01*
X58243617Y-82961988D01*
X58354512Y-82940047D01*
X58453796Y-82924834D01*
X58551573Y-82915199D01*
X58657943Y-82909994D01*
X58783009Y-82908067D01*
X58847666Y-82907964D01*
X59002242Y-82910283D01*
G37*
G36*
X51162222Y-88164407D02*
G01*
X51164498Y-88184834D01*
X51168537Y-88232484D01*
X51173862Y-88301300D01*
X51179998Y-88385224D01*
X51183509Y-88435103D01*
X51201392Y-88692588D01*
X51089289Y-88860382D01*
X50915323Y-89133256D01*
X50757416Y-89406321D01*
X50617564Y-89675481D01*
X50497760Y-89936640D01*
X50400001Y-90185701D01*
X50326281Y-90418568D01*
X50321201Y-90437435D01*
X50297127Y-90549953D01*
X50279957Y-90675204D01*
X50270048Y-90804583D01*
X50267757Y-90929484D01*
X50273444Y-91041303D01*
X50287464Y-91131435D01*
X50291692Y-91147461D01*
X50347041Y-91295207D01*
X50420869Y-91417377D01*
X50515419Y-91515939D01*
X50632939Y-91592862D01*
X50775674Y-91650117D01*
X50900527Y-91681316D01*
X50974393Y-91693857D01*
X51048330Y-91701031D01*
X51132289Y-91703323D01*
X51236221Y-91701222D01*
X51275774Y-91699682D01*
X51509396Y-91679634D01*
X51753440Y-91638323D01*
X52011157Y-91574971D01*
X52285800Y-91488796D01*
X52530999Y-91398577D01*
X52716040Y-91321226D01*
X52923132Y-91225406D01*
X53148240Y-91113427D01*
X53387326Y-90987602D01*
X53636354Y-90850245D01*
X53891285Y-90703668D01*
X54148084Y-90550182D01*
X54402713Y-90392101D01*
X54651136Y-90231737D01*
X54889315Y-90071402D01*
X55072709Y-89942603D01*
X55283702Y-89791295D01*
X55412308Y-89920660D01*
X55540914Y-90050025D01*
X55443141Y-90122560D01*
X55363848Y-90179633D01*
X55261572Y-90250565D01*
X55141764Y-90331777D01*
X55009875Y-90419694D01*
X54871358Y-90510739D01*
X54731663Y-90601333D01*
X54596244Y-90687900D01*
X54470551Y-90766863D01*
X54360036Y-90834644D01*
X54334781Y-90849804D01*
X54035907Y-91025251D01*
X53758940Y-91181366D01*
X53500025Y-91320006D01*
X53255307Y-91443027D01*
X53020931Y-91552285D01*
X52793045Y-91649638D01*
X52567792Y-91736942D01*
X52341319Y-91816054D01*
X52301735Y-91829044D01*
X52098343Y-91892200D01*
X51916731Y-91941572D01*
X51749012Y-91978619D01*
X51587300Y-92004805D01*
X51423708Y-92021591D01*
X51250348Y-92030437D01*
X51209321Y-92031480D01*
X51089822Y-92033484D01*
X50996654Y-92033485D01*
X50922832Y-92031100D01*
X50861373Y-92025951D01*
X50805292Y-92017658D01*
X50750686Y-92006533D01*
X50611251Y-91971059D01*
X50497447Y-91931168D01*
X50401552Y-91882766D01*
X50315846Y-91821759D01*
X50232605Y-91744052D01*
X50209477Y-91719598D01*
X50117874Y-91599813D01*
X50039487Y-91454467D01*
X49977546Y-91289825D01*
X49964435Y-91244267D01*
X49943780Y-91138648D01*
X49931073Y-91010498D01*
X49926420Y-90869704D01*
X49929925Y-90726155D01*
X49941696Y-90589739D01*
X49956452Y-90495806D01*
X50019518Y-90241335D01*
X50111463Y-89970415D01*
X50232224Y-89683183D01*
X50381741Y-89379775D01*
X50559952Y-89060329D01*
X50703355Y-88824677D01*
X50750882Y-88750392D01*
X50805637Y-88667014D01*
X50864773Y-88578643D01*
X50925443Y-88489376D01*
X50984799Y-88403308D01*
X51039994Y-88324538D01*
X51088180Y-88257163D01*
X51126510Y-88205279D01*
X51152137Y-88172984D01*
X51162213Y-88164376D01*
X51162222Y-88164407D01*
G37*
G36*
X53076605Y-84964218D02*
G01*
X53141097Y-84989927D01*
X53218973Y-85029353D01*
X53296848Y-84989927D01*
X53357370Y-84964946D01*
X53419371Y-84953271D01*
X53491720Y-84954515D01*
X53583290Y-84968289D01*
X53620509Y-84975785D01*
X53688307Y-84987239D01*
X53776495Y-84998208D01*
X53872122Y-85007228D01*
X53938474Y-85011704D01*
X54136241Y-85022338D01*
X54136241Y-85853655D01*
X54136241Y-86684973D01*
X53965296Y-86685326D01*
X53866970Y-86682236D01*
X53755867Y-86673708D01*
X53651805Y-86661382D01*
X53624459Y-86657110D01*
X53514405Y-86641644D01*
X53432586Y-86637781D01*
X53375743Y-86646135D01*
X53340619Y-86667323D01*
X53323954Y-86701957D01*
X53322151Y-86714158D01*
X53316925Y-86768361D01*
X53209577Y-86768361D01*
X53102229Y-86768361D01*
X53102229Y-86710307D01*
X53098022Y-86669198D01*
X53080093Y-86648831D01*
X53056533Y-86640784D01*
X53018495Y-86638032D01*
X52959329Y-86641166D01*
X52890606Y-86649486D01*
X52877249Y-86651624D01*
X52807696Y-86660777D01*
X52716520Y-86669293D01*
X52615453Y-86676233D01*
X52516226Y-86680657D01*
X52514344Y-86680714D01*
X52285026Y-86687494D01*
X52285026Y-85854921D01*
X52285026Y-85852102D01*
X52451803Y-85852102D01*
X52451803Y-86520216D01*
X52572715Y-86509687D01*
X52653346Y-86500686D01*
X52745753Y-86487466D01*
X52824929Y-86473805D01*
X52870229Y-86466638D01*
X53318652Y-86466638D01*
X53401421Y-86456835D01*
X53465574Y-86455290D01*
X53548937Y-86461909D01*
X53630931Y-86474257D01*
X53706473Y-86487492D01*
X53777990Y-86498687D01*
X53832999Y-86505925D01*
X53844383Y-86507035D01*
X53895014Y-86511342D01*
X53934956Y-86514892D01*
X53940279Y-86515393D01*
X53947581Y-86514396D01*
X53953557Y-86507861D01*
X53958338Y-86492778D01*
X53962057Y-86466141D01*
X53964845Y-86424940D01*
X53966836Y-86366168D01*
X53968160Y-86286814D01*
X53968952Y-86183873D01*
X53969341Y-86054334D01*
X53969462Y-85895189D01*
X53969465Y-85851092D01*
X53969465Y-85183988D01*
X53866190Y-85183988D01*
X53800943Y-85180836D01*
X53717991Y-85172450D01*
X53632276Y-85160435D01*
X53607139Y-85156164D01*
X53511494Y-85141740D01*
X53441125Y-85137663D01*
X53389718Y-85143570D01*
X53389371Y-85143655D01*
X53327377Y-85158971D01*
X53323015Y-85812805D01*
X53318652Y-86466638D01*
X52870229Y-86466638D01*
X52898761Y-86462124D01*
X52970455Y-86455061D01*
X53025503Y-86454006D01*
X53029230Y-86454259D01*
X53102229Y-86460065D01*
X53102229Y-85806105D01*
X53102229Y-85152144D01*
X53041526Y-85140756D01*
X52993447Y-85138321D01*
X52923261Y-85143114D01*
X52841241Y-85154368D01*
X52827927Y-85156678D01*
X52743243Y-85169467D01*
X52654877Y-85179050D01*
X52578922Y-85183764D01*
X52563417Y-85183988D01*
X52451803Y-85183988D01*
X52451803Y-85852102D01*
X52285026Y-85852102D01*
X52285026Y-85183988D01*
X52285026Y-85022349D01*
X52497666Y-85010929D01*
X52590974Y-85004424D01*
X52683795Y-84995383D01*
X52764833Y-84985048D01*
X52818710Y-84975591D01*
X52923042Y-84956854D01*
X53006080Y-84952933D01*
X53076605Y-84964218D01*
G37*
G36*
X58585985Y-87749925D02*
G01*
X58583717Y-88131453D01*
X58564900Y-88484977D01*
X58529318Y-88811576D01*
X58476755Y-89112328D01*
X58406995Y-89388313D01*
X58319822Y-89640608D01*
X58215018Y-89870293D01*
X58131413Y-90017611D01*
X57944524Y-90288617D01*
X57733003Y-90537186D01*
X57496816Y-90763343D01*
X57235929Y-90967118D01*
X56950309Y-91148537D01*
X56639922Y-91307627D01*
X56478144Y-91377700D01*
X56399787Y-91408327D01*
X56301241Y-91444616D01*
X56186497Y-91485284D01*
X56059549Y-91529044D01*
X55924387Y-91574613D01*
X55785003Y-91620706D01*
X55645390Y-91666037D01*
X55509538Y-91709322D01*
X55381440Y-91749277D01*
X55265088Y-91784615D01*
X55164472Y-91814054D01*
X55083586Y-91836308D01*
X55026421Y-91850091D01*
X54997746Y-91854171D01*
X54976420Y-91849425D01*
X54928308Y-91836700D01*
X54858621Y-91817441D01*
X54772571Y-91793089D01*
X54675367Y-91765088D01*
X54661586Y-91761081D01*
X54553816Y-91729132D01*
X54436778Y-91693429D01*
X54314809Y-91655394D01*
X54192251Y-91616450D01*
X54073443Y-91578022D01*
X53962725Y-91541531D01*
X53864438Y-91508402D01*
X53782921Y-91480057D01*
X53722515Y-91457920D01*
X53687559Y-91443414D01*
X53681058Y-91439545D01*
X53689709Y-91427021D01*
X53722638Y-91401674D01*
X53774967Y-91366885D01*
X53841820Y-91326034D01*
X53861484Y-91314544D01*
X54055136Y-91202438D01*
X54346985Y-91303587D01*
X54440238Y-91335628D01*
X54522862Y-91363489D01*
X54589612Y-91385444D01*
X54635241Y-91399767D01*
X54654380Y-91404736D01*
X54659794Y-91388805D01*
X54664300Y-91343982D01*
X54667657Y-91274726D01*
X54669621Y-91185493D01*
X54670037Y-91117047D01*
X54670148Y-90829359D01*
X54989561Y-90620889D01*
X55081620Y-90560956D01*
X55164520Y-90507273D01*
X55234127Y-90462495D01*
X55286306Y-90429275D01*
X55316921Y-90410268D01*
X55323001Y-90406859D01*
X55326507Y-90421430D01*
X55329692Y-90465345D01*
X55332443Y-90534593D01*
X55334648Y-90625163D01*
X55336192Y-90733044D01*
X55336963Y-90854226D01*
X55337029Y-90903018D01*
X55337351Y-91028534D01*
X55338262Y-91142567D01*
X55339681Y-91241047D01*
X55341525Y-91319901D01*
X55343713Y-91375060D01*
X55346162Y-91402453D01*
X55347125Y-91404736D01*
X55379216Y-91398920D01*
X55437747Y-91382569D01*
X55518108Y-91357334D01*
X55615690Y-91324862D01*
X55725883Y-91286803D01*
X55844076Y-91244805D01*
X55965658Y-91200517D01*
X56086022Y-91155589D01*
X56200555Y-91111668D01*
X56304648Y-91070404D01*
X56393690Y-91033446D01*
X56431765Y-91016811D01*
X56718351Y-90871647D01*
X56991536Y-90698012D01*
X57253585Y-90494368D01*
X57413894Y-90350052D01*
X57493118Y-90277021D01*
X57555905Y-90224725D01*
X57607935Y-90188932D01*
X57654887Y-90165410D01*
X57668682Y-90160166D01*
X57707974Y-90145571D01*
X57735545Y-90130553D01*
X57755096Y-90108843D01*
X57770327Y-90074173D01*
X57784939Y-90020271D01*
X57802633Y-89940869D01*
X57805261Y-89928768D01*
X57822035Y-89872870D01*
X57849666Y-89801971D01*
X57882611Y-89730114D01*
X57887577Y-89720298D01*
X57972689Y-89532693D01*
X58049526Y-89319704D01*
X58115870Y-89088747D01*
X58169504Y-88847240D01*
X58196770Y-88686286D01*
X58205781Y-88614266D01*
X58215517Y-88517425D01*
X58225250Y-88404266D01*
X58234255Y-88283292D01*
X58241803Y-88163006D01*
X58242381Y-88152602D01*
X58262062Y-87794034D01*
X58421443Y-87599826D01*
X58580824Y-87405619D01*
X58585985Y-87749925D01*
G37*
G36*
X58589163Y-85236273D02*
G01*
X58589163Y-86255859D01*
X58476589Y-86407088D01*
X58424762Y-86475989D01*
X58374075Y-86542130D01*
X58331403Y-86596602D01*
X58309813Y-86623222D01*
X58255611Y-86688128D01*
X58255611Y-85619183D01*
X58255611Y-84550239D01*
X56797490Y-84550239D01*
X55339368Y-84550239D01*
X55347885Y-85821906D01*
X55349327Y-86025208D01*
X55350858Y-86219004D01*
X55352449Y-86400681D01*
X55354068Y-86567626D01*
X55355685Y-86717227D01*
X55357271Y-86846871D01*
X55358795Y-86953944D01*
X55360227Y-87035834D01*
X55361537Y-87089929D01*
X55362694Y-87113614D01*
X55362829Y-87114315D01*
X55370778Y-87118380D01*
X55393176Y-87121973D01*
X55431857Y-87125129D01*
X55488659Y-87127887D01*
X55565415Y-87130281D01*
X55663963Y-87132349D01*
X55786136Y-87134126D01*
X55933771Y-87135649D01*
X56108703Y-87136955D01*
X56312768Y-87138080D01*
X56547801Y-87139060D01*
X56624739Y-87139332D01*
X57880222Y-87143607D01*
X57721950Y-87318722D01*
X57647903Y-87399780D01*
X57565589Y-87488491D01*
X57485394Y-87573735D01*
X57421824Y-87640143D01*
X57279971Y-87786448D01*
X57101115Y-87660990D01*
X57007021Y-87597889D01*
X56935552Y-87556389D01*
X56887498Y-87536929D01*
X56875967Y-87535403D01*
X56840612Y-87537349D01*
X56778540Y-87542963D01*
X56693795Y-87551741D01*
X56590419Y-87563178D01*
X56472454Y-87576770D01*
X56343944Y-87592011D01*
X56208931Y-87608398D01*
X56071459Y-87625425D01*
X55935569Y-87642588D01*
X55805304Y-87659382D01*
X55684708Y-87675302D01*
X55577823Y-87689844D01*
X55488692Y-87702503D01*
X55421358Y-87712775D01*
X55379862Y-87720154D01*
X55367977Y-87723651D01*
X55361436Y-87742477D01*
X55346676Y-87790313D01*
X55324598Y-87864086D01*
X55296102Y-87960723D01*
X55262088Y-88077150D01*
X55223457Y-88210293D01*
X55181110Y-88357079D01*
X55135947Y-88514433D01*
X55121076Y-88566416D01*
X54884921Y-89392565D01*
X55021361Y-89529718D01*
X55157802Y-89666871D01*
X55001421Y-89781996D01*
X54896125Y-89858829D01*
X54809218Y-89920824D01*
X54742728Y-89966582D01*
X54698683Y-89994705D01*
X54679428Y-90003817D01*
X54677803Y-89987597D01*
X54676265Y-89940771D01*
X54674839Y-89866087D01*
X54673548Y-89766292D01*
X54672416Y-89644136D01*
X54671467Y-89502366D01*
X54670724Y-89343732D01*
X54670211Y-89170982D01*
X54669952Y-88986863D01*
X54669925Y-88903095D01*
X54669925Y-87802372D01*
X53209461Y-87802372D01*
X51748998Y-87802372D01*
X51759438Y-88040028D01*
X51781836Y-88380893D01*
X51818182Y-88693417D01*
X51869087Y-88979833D01*
X51935161Y-89242375D01*
X52017016Y-89483275D01*
X52115263Y-89704767D01*
X52230514Y-89909082D01*
X52299262Y-90011964D01*
X52395514Y-90134756D01*
X52514827Y-90265782D01*
X52650235Y-90398749D01*
X52794771Y-90527367D01*
X52941470Y-90645342D01*
X53083365Y-90746384D01*
X53175312Y-90803217D01*
X53223251Y-90831482D01*
X53257031Y-90852998D01*
X53269005Y-90862729D01*
X53255255Y-90872295D01*
X53218637Y-90893177D01*
X53166101Y-90921742D01*
X53104595Y-90954357D01*
X53041070Y-90987387D01*
X52982476Y-91017200D01*
X52935760Y-91040162D01*
X52907873Y-91052638D01*
X52903426Y-91053877D01*
X52886569Y-91044588D01*
X52848783Y-91020028D01*
X52796283Y-90984317D01*
X52754676Y-90955291D01*
X52543689Y-90794614D01*
X52353711Y-90623234D01*
X52178875Y-90435006D01*
X52013311Y-90223784D01*
X51902165Y-90062569D01*
X51787012Y-89866964D01*
X51688648Y-89654825D01*
X51606311Y-89423515D01*
X51539239Y-89170400D01*
X51486671Y-88892842D01*
X51447844Y-88588205D01*
X51435022Y-88446208D01*
X51432341Y-88395165D01*
X51429850Y-88312190D01*
X51427561Y-88198709D01*
X51425484Y-88056144D01*
X51423630Y-87885921D01*
X51422011Y-87689461D01*
X51420638Y-87468190D01*
X51419521Y-87223531D01*
X51419240Y-87135268D01*
X51751343Y-87135268D01*
X53210634Y-87135268D01*
X54669925Y-87135268D01*
X54669925Y-85842753D01*
X54669925Y-84550239D01*
X53210634Y-84550239D01*
X51751343Y-84550239D01*
X51751343Y-85842753D01*
X51751343Y-87135268D01*
X51419240Y-87135268D01*
X51418672Y-86956907D01*
X51418101Y-86669744D01*
X51417820Y-86363464D01*
X51417791Y-86223916D01*
X51417791Y-85842753D01*
X51417791Y-84216686D01*
X55003477Y-84216686D01*
X58589163Y-84216686D01*
X58589163Y-85236273D01*
G37*
G36*
X56879967Y-87698996D02*
G01*
X56908005Y-87717700D01*
X56957412Y-87752486D01*
X57024641Y-87800736D01*
X57106146Y-87859829D01*
X57198382Y-87927144D01*
X57297801Y-88000062D01*
X57400858Y-88075962D01*
X57504006Y-88152226D01*
X57603699Y-88226231D01*
X57696391Y-88295359D01*
X57778535Y-88356990D01*
X57846585Y-88408502D01*
X57896995Y-88447276D01*
X57926218Y-88470693D01*
X57932155Y-88476381D01*
X57930130Y-88495601D01*
X57921855Y-88543415D01*
X57908168Y-88615828D01*
X57889905Y-88708844D01*
X57867903Y-88818470D01*
X57842998Y-88940709D01*
X57816028Y-89071567D01*
X57787828Y-89207050D01*
X57759235Y-89343162D01*
X57731087Y-89475908D01*
X57704220Y-89601294D01*
X57679470Y-89715324D01*
X57657674Y-89814004D01*
X57639669Y-89893339D01*
X57626292Y-89949334D01*
X57618378Y-89977994D01*
X57617074Y-89980808D01*
X57600192Y-89987028D01*
X57555286Y-90001744D01*
X57486249Y-90023756D01*
X57396971Y-90051867D01*
X57291345Y-90084876D01*
X57173263Y-90121587D01*
X57046617Y-90160800D01*
X56915298Y-90201316D01*
X56783198Y-90241938D01*
X56654209Y-90281465D01*
X56532223Y-90318701D01*
X56421132Y-90352446D01*
X56324828Y-90381501D01*
X56247202Y-90404669D01*
X56192147Y-90420750D01*
X56163553Y-90428545D01*
X56162571Y-90428765D01*
X56148796Y-90425430D01*
X56125360Y-90410144D01*
X56090426Y-90381160D01*
X56042160Y-90336731D01*
X55978729Y-90275110D01*
X55903641Y-90199902D01*
X56303753Y-90199902D01*
X56303803Y-90203948D01*
X56322023Y-90199241D01*
X56368466Y-90185849D01*
X56439465Y-90164869D01*
X56531355Y-90137396D01*
X56640467Y-90104527D01*
X56763137Y-90067356D01*
X56887709Y-90029420D01*
X57019714Y-89988952D01*
X57141472Y-89951289D01*
X57249335Y-89917587D01*
X57339653Y-89888999D01*
X57408779Y-89866681D01*
X57453063Y-89851786D01*
X57468782Y-89845581D01*
X57473821Y-89828300D01*
X57484796Y-89782898D01*
X57500747Y-89713790D01*
X57520712Y-89625388D01*
X57543732Y-89522106D01*
X57568844Y-89408355D01*
X57595089Y-89288550D01*
X57621506Y-89167104D01*
X57647134Y-89048428D01*
X57671011Y-88936937D01*
X57692179Y-88837044D01*
X57709675Y-88753161D01*
X57722539Y-88689701D01*
X57729810Y-88651078D01*
X57731016Y-88641066D01*
X57714935Y-88643752D01*
X57670939Y-88653012D01*
X57603586Y-88667798D01*
X57517435Y-88687062D01*
X57417043Y-88709756D01*
X57306968Y-88734830D01*
X57191768Y-88761236D01*
X57076001Y-88787926D01*
X56964225Y-88813852D01*
X56860998Y-88837964D01*
X56770878Y-88859215D01*
X56698422Y-88876556D01*
X56648189Y-88888938D01*
X56624737Y-88895314D01*
X56623630Y-88895800D01*
X56617313Y-88913515D01*
X56604454Y-88959106D01*
X56586068Y-89028424D01*
X56563170Y-89117317D01*
X56536774Y-89221634D01*
X56507897Y-89337224D01*
X56477552Y-89459936D01*
X56446755Y-89585619D01*
X56416520Y-89710121D01*
X56387862Y-89829293D01*
X56361797Y-89938983D01*
X56339338Y-90035040D01*
X56321502Y-90113312D01*
X56309302Y-90169650D01*
X56303753Y-90199902D01*
X55903641Y-90199902D01*
X55898297Y-90194549D01*
X55799031Y-90093301D01*
X55679095Y-89969618D01*
X55662242Y-89952166D01*
X55557615Y-89843589D01*
X55457970Y-89739833D01*
X55366220Y-89643955D01*
X55285275Y-89559013D01*
X55218049Y-89488066D01*
X55167453Y-89434169D01*
X55136399Y-89400381D01*
X55131902Y-89395288D01*
X55068535Y-89322189D01*
X55081552Y-89277011D01*
X55273201Y-89277011D01*
X55285744Y-89295077D01*
X55318111Y-89332913D01*
X55367180Y-89387290D01*
X55429830Y-89454978D01*
X55502940Y-89532747D01*
X55583389Y-89617366D01*
X55668056Y-89705606D01*
X55753820Y-89794236D01*
X55837560Y-89880028D01*
X55916155Y-89959750D01*
X55986484Y-90030173D01*
X56045426Y-90088067D01*
X56089860Y-90130202D01*
X56116665Y-90153347D01*
X56123176Y-90156658D01*
X56129332Y-90138555D01*
X56142451Y-90091520D01*
X56161637Y-90019035D01*
X56185995Y-89924586D01*
X56214630Y-89811656D01*
X56246648Y-89683729D01*
X56281152Y-89544289D01*
X56294968Y-89488036D01*
X56456120Y-88830495D01*
X56417750Y-88792988D01*
X56388369Y-88765284D01*
X56340521Y-88721358D01*
X56277759Y-88664379D01*
X56203635Y-88597515D01*
X56121702Y-88523933D01*
X56035513Y-88446802D01*
X55948620Y-88369290D01*
X55864575Y-88294566D01*
X55786931Y-88225796D01*
X55719241Y-88166149D01*
X55665056Y-88118794D01*
X55627931Y-88086898D01*
X55611416Y-88073630D01*
X55610912Y-88073456D01*
X55603885Y-88091791D01*
X55589331Y-88137933D01*
X55568479Y-88207503D01*
X55542556Y-88296124D01*
X55512790Y-88399421D01*
X55480410Y-88513016D01*
X55446644Y-88632531D01*
X55412720Y-88753591D01*
X55379867Y-88871818D01*
X55349311Y-88982835D01*
X55322283Y-89082266D01*
X55300008Y-89165733D01*
X55283717Y-89228860D01*
X55274636Y-89267270D01*
X55273201Y-89277011D01*
X55081552Y-89277011D01*
X55279013Y-88591674D01*
X55322190Y-88441980D01*
X55362514Y-88302489D01*
X55399055Y-88176396D01*
X55430882Y-88066895D01*
X55449363Y-88003578D01*
X55807703Y-88003578D01*
X55820585Y-88016958D01*
X55854635Y-88049156D01*
X55906244Y-88096918D01*
X55971805Y-88156987D01*
X56047710Y-88226110D01*
X56130349Y-88301031D01*
X56216116Y-88378496D01*
X56301401Y-88455250D01*
X56382598Y-88528038D01*
X56456097Y-88593604D01*
X56518290Y-88648694D01*
X56565569Y-88690054D01*
X56594327Y-88714428D01*
X56601489Y-88719641D01*
X56618551Y-88716050D01*
X56664181Y-88705873D01*
X56734442Y-88690003D01*
X56825396Y-88669334D01*
X56933105Y-88644760D01*
X57053633Y-88617174D01*
X57118736Y-88602241D01*
X57244800Y-88573279D01*
X57360500Y-88546646D01*
X57461805Y-88523276D01*
X57544688Y-88504099D01*
X57605118Y-88490047D01*
X57639065Y-88482051D01*
X57644836Y-88480620D01*
X57635519Y-88470220D01*
X57602208Y-88442743D01*
X57548011Y-88400556D01*
X57476033Y-88346027D01*
X57389383Y-88281521D01*
X57291167Y-88209406D01*
X57238964Y-88171432D01*
X56818457Y-87866466D01*
X56310761Y-87928911D01*
X56185151Y-87944760D01*
X56071146Y-87959914D01*
X55972703Y-87973786D01*
X55893780Y-87985789D01*
X55838334Y-87995334D01*
X55810320Y-88001836D01*
X55807703Y-88003578D01*
X55449363Y-88003578D01*
X55457067Y-87977182D01*
X55476678Y-87910451D01*
X55488787Y-87869896D01*
X55492479Y-87858396D01*
X55510876Y-87854364D01*
X55558176Y-87847274D01*
X55630135Y-87837613D01*
X55722508Y-87825870D01*
X55831053Y-87812532D01*
X55951524Y-87798086D01*
X56079678Y-87783020D01*
X56211271Y-87767822D01*
X56342059Y-87752979D01*
X56467797Y-87738979D01*
X56584242Y-87726309D01*
X56687150Y-87715457D01*
X56772277Y-87706910D01*
X56835378Y-87701157D01*
X56872210Y-87698684D01*
X56879967Y-87698996D01*
G37*
%TO.C,TP13*%
D17*
X100853477Y-60035301D02*
X102753477Y-60035301D01*
X100853477Y-61935301D02*
X100853477Y-60035301D01*
X102753477Y-60035301D02*
X102753477Y-61935301D01*
X102753477Y-61935301D02*
X100853477Y-61935301D01*
%TO.C,C24*%
X101462897Y-72675301D02*
X101744057Y-72675301D01*
X101462897Y-73695301D02*
X101744057Y-73695301D01*
%TO.C,C30*%
X93090000Y-60796129D02*
X93090000Y-61077289D01*
X94110000Y-60796129D02*
X94110000Y-61077289D01*
%TO.C,R3*%
X51277500Y-51862258D02*
X51277500Y-51387742D01*
X52322500Y-51862258D02*
X52322500Y-51387742D01*
%TO.C,R2*%
X41277500Y-50299451D02*
X41277500Y-50773967D01*
X42322500Y-50299451D02*
X42322500Y-50773967D01*
%TO.C,D1*%
X51065000Y-46865000D02*
X51065000Y-49150000D01*
X52535000Y-46865000D02*
X51065000Y-46865000D01*
X52535000Y-49150000D02*
X52535000Y-46865000D01*
%TO.C,C8*%
X44893477Y-53644721D02*
X44893477Y-53925881D01*
X45913477Y-53644721D02*
X45913477Y-53925881D01*
%TO.C,TP2*%
X34053477Y-54435301D02*
X35953477Y-54435301D01*
X34053477Y-56335301D02*
X34053477Y-54435301D01*
X35953477Y-54435301D02*
X35953477Y-56335301D01*
X35953477Y-56335301D02*
X34053477Y-56335301D01*
%TO.C,L6*%
X101090000Y-42975279D02*
X101090000Y-42649721D01*
X102110000Y-42975279D02*
X102110000Y-42649721D01*
%TO.C,C21*%
X97687897Y-69075301D02*
X97969057Y-69075301D01*
X97687897Y-70095301D02*
X97969057Y-70095301D01*
%TO.C,TP3*%
X54253477Y-52835301D02*
X56153477Y-52835301D01*
X54253477Y-54735301D02*
X54253477Y-52835301D01*
X56153477Y-52835301D02*
X56153477Y-54735301D01*
X56153477Y-54735301D02*
X54253477Y-54735301D01*
%TO.C,C23*%
X101084664Y-39509453D02*
X101084664Y-39228293D01*
X102104664Y-39509453D02*
X102104664Y-39228293D01*
%TO.C,C25*%
X101462897Y-70675301D02*
X101744057Y-70675301D01*
X101462897Y-71695301D02*
X101744057Y-71695301D01*
%TO.C,J3*%
X37823603Y-32375301D02*
X39153603Y-32375301D01*
X37823603Y-33705301D02*
X37823603Y-32375301D01*
X40423603Y-32375301D02*
X43023603Y-32375301D01*
X40423603Y-35035301D02*
X40423603Y-32375301D01*
X40423603Y-35035301D02*
X43023603Y-35035301D01*
X43023603Y-35035301D02*
X43023603Y-32375301D01*
%TO.C,C26*%
X96259420Y-52090000D02*
X96540580Y-52090000D01*
X96259420Y-53110000D02*
X96540580Y-53110000D01*
%TO.C,TP11*%
X80050000Y-42650000D02*
X81950000Y-42650000D01*
X80050000Y-44550000D02*
X80050000Y-42650000D01*
X81950000Y-42650000D02*
X81950000Y-44550000D01*
X81950000Y-44550000D02*
X80050000Y-44550000D01*
%TO.C,C17*%
X81703006Y-36835199D02*
X81703006Y-36312695D01*
X83173006Y-36835199D02*
X83173006Y-36312695D01*
%TO.C,J1*%
X36173477Y-77835301D02*
X36173477Y-88055301D01*
X36173477Y-77835301D02*
X38833477Y-77835301D01*
X36173477Y-88055301D02*
X38833477Y-88055301D01*
X37503477Y-75235301D02*
X38833477Y-75235301D01*
X38833477Y-75235301D02*
X38833477Y-76565301D01*
X38833477Y-77835301D02*
X38833477Y-88055301D01*
%TO.C,TP9*%
X73673418Y-56426582D02*
X75573418Y-56426582D01*
X73673418Y-58326582D02*
X73673418Y-56426582D01*
X75573418Y-56426582D02*
X75573418Y-58326582D01*
X75573418Y-58326582D02*
X73673418Y-58326582D01*
%TO.C,C10*%
X47544057Y-65075301D02*
X47262897Y-65075301D01*
X47544057Y-66095301D02*
X47262897Y-66095301D01*
%TO.C,IC3*%
D20*
X98753000Y-42061709D02*
G75*
G02*
X98498000Y-42061709I-127500J0D01*
G01*
X98498000Y-42061709D02*
G75*
G02*
X98753000Y-42061709I127500J0D01*
G01*
%TO.C,C16*%
D17*
X84215580Y-39776709D02*
X83934420Y-39776709D01*
X84215580Y-40796709D02*
X83934420Y-40796709D01*
%TO.C,TP14*%
X103653477Y-52435301D02*
X105553477Y-52435301D01*
X103653477Y-54335301D02*
X103653477Y-52435301D01*
X105553477Y-52435301D02*
X105553477Y-54335301D01*
X105553477Y-54335301D02*
X103653477Y-54335301D01*
%TO.C,C7*%
X47544057Y-66875301D02*
X47262897Y-66875301D01*
X47544057Y-67895301D02*
X47262897Y-67895301D01*
%TO.C,TP7*%
X61250000Y-73450000D02*
X63150000Y-73450000D01*
X61250000Y-75350000D02*
X61250000Y-73450000D01*
X63150000Y-73450000D02*
X63150000Y-75350000D01*
X63150000Y-75350000D02*
X61250000Y-75350000D01*
%TO.C,C28*%
X100293477Y-68550881D02*
X100293477Y-68269721D01*
X101313477Y-68550881D02*
X101313477Y-68269721D01*
%TO.C,FL2*%
D19*
X68610000Y-35831709D02*
X72255000Y-35831709D01*
X68610000Y-37476709D02*
X68610000Y-35831709D01*
X68610000Y-43076709D02*
X68610000Y-44721709D01*
X68610000Y-44721709D02*
X72255000Y-44721709D01*
X73855000Y-44721709D02*
X77500000Y-44721709D01*
X77500000Y-35831709D02*
X73855000Y-35831709D01*
X77500000Y-37476709D02*
X77500000Y-35831709D01*
X77500000Y-44721709D02*
X77500000Y-43076709D01*
D14*
D16*
X78455000Y-42186709D02*
X78454999Y-42186709D01*
X78454999Y-42186709D01*
X78454999Y-42186709D01*
X78454999Y-42186709D01*
X78454999Y-42186709D01*
X78454999Y-42186709D01*
X78454999Y-42186709D01*
X78454999Y-42186708D01*
X78454999Y-42186708D01*
X78454999Y-42186708D01*
X78454999Y-42186708D01*
X78454999Y-42186708D01*
X78455000Y-42186708D01*
X78455000Y-42186708D01*
X78455000Y-42186708D01*
X78455000Y-42186708D01*
X78455000Y-42186708D01*
X78455000Y-42186708D01*
X78455000Y-42186708D01*
X78455000Y-42186708D01*
X78455000Y-42186708D01*
X78455000Y-42186708D01*
X78455000Y-42186708D01*
X78455000Y-42186708D01*
X78455001Y-42186708D01*
X78455001Y-42186708D01*
X78455001Y-42186708D01*
X78455001Y-42186708D01*
X78455001Y-42186708D01*
X78455001Y-42186708D01*
X78455001Y-42186709D01*
X78455001Y-42186709D01*
X78455001Y-42186709D01*
X78455001Y-42186709D01*
X78455001Y-42186709D01*
X78455001Y-42186709D01*
X78455001Y-42186709D01*
X78455000Y-42186709D01*
X78455000Y-42186709D02*
X78455001Y-42186709D01*
X78455001Y-42186709D01*
X78455001Y-42186709D01*
X78455001Y-42186709D01*
X78455001Y-42186709D01*
X78455001Y-42186709D01*
X78455001Y-42186710D01*
X78455001Y-42186710D01*
X78455001Y-42186710D01*
X78455001Y-42186710D01*
X78455001Y-42186710D01*
X78455001Y-42186710D01*
X78455001Y-42186710D01*
X78455000Y-42186710D01*
X78455000Y-42186710D01*
X78455000Y-42186710D01*
X78455000Y-42186710D01*
X78455000Y-42186710D01*
X78455000Y-42186710D01*
X78455000Y-42186710D01*
X78455000Y-42186710D01*
X78455000Y-42186710D01*
X78455000Y-42186710D01*
X78455000Y-42186710D01*
X78455000Y-42186710D01*
X78454999Y-42186710D01*
X78454999Y-42186710D01*
X78454999Y-42186710D01*
X78454999Y-42186710D01*
X78454999Y-42186710D01*
X78454999Y-42186710D01*
X78454999Y-42186709D01*
X78454999Y-42186709D01*
X78454999Y-42186709D01*
X78454999Y-42186709D01*
X78454999Y-42186709D01*
X78454999Y-42186709D01*
X78455000Y-42186709D01*
D14*
D16*
X78555000Y-42186709D02*
X78554999Y-42186709D01*
X78554999Y-42186709D01*
X78554999Y-42186709D01*
X78554999Y-42186709D01*
X78554999Y-42186709D01*
X78554999Y-42186709D01*
X78554999Y-42186709D01*
X78554999Y-42186708D01*
X78554999Y-42186708D01*
X78554999Y-42186708D01*
X78554999Y-42186708D01*
X78554999Y-42186708D01*
X78555000Y-42186708D01*
X78555000Y-42186708D01*
X78555000Y-42186708D01*
X78555000Y-42186708D01*
X78555000Y-42186708D01*
X78555000Y-42186708D01*
X78555000Y-42186708D01*
X78555000Y-42186708D01*
X78555000Y-42186708D01*
X78555000Y-42186708D01*
X78555000Y-42186708D01*
X78555000Y-42186708D01*
X78555001Y-42186708D01*
X78555001Y-42186708D01*
X78555001Y-42186708D01*
X78555001Y-42186708D01*
X78555001Y-42186708D01*
X78555001Y-42186708D01*
X78555001Y-42186709D01*
X78555001Y-42186709D01*
X78555001Y-42186709D01*
X78555001Y-42186709D01*
X78555001Y-42186709D01*
X78555001Y-42186709D01*
X78555001Y-42186709D01*
X78555000Y-42186709D01*
X78555000Y-42186709D02*
X78555001Y-42186709D01*
X78555001Y-42186709D01*
X78555001Y-42186709D01*
X78555001Y-42186709D01*
X78555001Y-42186709D01*
X78555001Y-42186709D01*
X78555001Y-42186710D01*
X78555001Y-42186710D01*
X78555001Y-42186710D01*
X78555001Y-42186710D01*
X78555001Y-42186710D01*
X78555001Y-42186710D01*
X78555001Y-42186710D01*
X78555000Y-42186710D01*
X78555000Y-42186710D01*
X78555000Y-42186710D01*
X78555000Y-42186710D01*
X78555000Y-42186710D01*
X78555000Y-42186710D01*
X78555000Y-42186710D01*
X78555000Y-42186710D01*
X78555000Y-42186710D01*
X78555000Y-42186710D01*
X78555000Y-42186710D01*
X78555000Y-42186710D01*
X78554999Y-42186710D01*
X78554999Y-42186710D01*
X78554999Y-42186710D01*
X78554999Y-42186710D01*
X78554999Y-42186710D01*
X78554999Y-42186710D01*
X78554999Y-42186709D01*
X78554999Y-42186709D01*
X78554999Y-42186709D01*
X78554999Y-42186709D01*
X78554999Y-42186709D01*
X78554999Y-42186709D01*
X78555000Y-42186709D01*
D14*
X78455000Y-42186709D02*
G75*
G02*
X78555000Y-42186709I50000J0D01*
G01*
X78555000Y-42186709D02*
G75*
G02*
X78455000Y-42186709I-50000J0D01*
G01*
%TO.C,C2*%
D17*
X49543477Y-74350881D02*
X49543477Y-74069721D01*
X50563477Y-74350881D02*
X50563477Y-74069721D01*
%TO.C,TP4*%
X48453477Y-50135301D02*
X50353477Y-50135301D01*
X48453477Y-52035301D02*
X48453477Y-50135301D01*
X50353477Y-50135301D02*
X50353477Y-52035301D01*
X50353477Y-52035301D02*
X48453477Y-52035301D01*
%TO.C,C29*%
X93090000Y-57284420D02*
X93090000Y-57565580D01*
X94110000Y-57284420D02*
X94110000Y-57565580D01*
%TO.C,C27*%
X104659420Y-45490000D02*
X104940580Y-45490000D01*
X104659420Y-46510000D02*
X104940580Y-46510000D01*
%TO.C,C14*%
X71165580Y-56890000D02*
X70884420Y-56890000D01*
X71165580Y-57910000D02*
X70884420Y-57910000D01*
%TO.C,C9*%
X46693477Y-53669721D02*
X46693477Y-53950881D01*
X47713477Y-53669721D02*
X47713477Y-53950881D01*
%TO.C,X1*%
X38388477Y-42900301D02*
X38168477Y-42900301D01*
X38388477Y-45120301D02*
X38168477Y-45120301D01*
D21*
X37678477Y-42210301D02*
G75*
G02*
X37478477Y-42210301I-100000J0D01*
G01*
X37478477Y-42210301D02*
G75*
G02*
X37678477Y-42210301I100000J0D01*
G01*
%TO.C,C3*%
D17*
X36893477Y-54350881D02*
X36893477Y-54069721D01*
X37913477Y-54350881D02*
X37913477Y-54069721D01*
%TO.C,J4*%
X36123477Y-73895301D02*
X36123477Y-74015301D01*
X36123477Y-74015301D02*
X38783477Y-74015301D01*
X37453477Y-71355301D02*
X38783477Y-71355301D01*
X38783477Y-71355301D02*
X38783477Y-72685301D01*
X38783477Y-73895301D02*
X38783477Y-74015301D01*
%TO.C,R1*%
X47330977Y-72997559D02*
X47330977Y-72523043D01*
X48375977Y-72997559D02*
X48375977Y-72523043D01*
%TD*%
M02*
