%TF.GenerationSoftware,KiCad,Pcbnew,10.0.0*%
%TF.CreationDate,2026-10-05T03:23:16-04:00*%
%TF.ProjectId,Unified UHF,556e6966-6965-4642-9055-48462e6b6963,2026-08-14*%
%TF.SameCoordinates,Original*%
%TF.FileFunction,Soldermask,Bot*%
%TF.FilePolarity,Negative*%
%FSLAX46Y46*%
G04 Gerber Fmt 4.6, Leading zero omitted, Abs format (unit mm)*
G04 Created by KiCad (PCBNEW 10.0.0) date 2026-10-05 03:23:16*
%MOMM*%
%LPD*%
G01*
G04 APERTURE LIST*
%ADD10C,0.200000*%
%ADD11C,6.000000*%
%ADD12C,1.700000*%
%ADD13R,1.700000X1.700000*%
%ADD14C,1.500000*%
%ADD15C,4.704000*%
%ADD16C,2.529000*%
G04 APERTURE END LIST*
D10*
X91403477Y-89385301D02*
X91403477Y-89385301D01*
G75*
G02*
X93403477Y-87385301I2000023J1D01*
G01*
X96003477Y-87385301D01*
G75*
G02*
X98003477Y-89385301I23J-1999999D01*
G01*
X98003477Y-92185300D01*
G75*
G02*
X96003477Y-94185300I-1999977J0D01*
G01*
X93403477Y-94185300D01*
G75*
G02*
X91403477Y-92185300I23J2000000D01*
G01*
X91403477Y-89385301D01*
G36*
X91403477Y-89385301D02*
G01*
X91403477Y-89385301D01*
G75*
G02*
X93403477Y-87385301I2000023J1D01*
G01*
X96003477Y-87385301D01*
G75*
G02*
X98003477Y-89385301I23J-1999999D01*
G01*
X98003477Y-92185300D01*
G75*
G02*
X96003477Y-94185300I-1999977J0D01*
G01*
X93403477Y-94185300D01*
G75*
G02*
X91403477Y-92185300I23J2000000D01*
G01*
X91403477Y-89385301D01*
G37*
X78203477Y-89385300D02*
X78203477Y-89385300D01*
G75*
G02*
X80203477Y-87385300I2000023J0D01*
G01*
X82803477Y-87385300D01*
G75*
G02*
X84803477Y-89385300I23J-2000000D01*
G01*
X84803477Y-92185301D01*
G75*
G02*
X82803477Y-94185301I-1999977J1D01*
G01*
X80203477Y-94185301D01*
G75*
G02*
X78203477Y-92185301I23J2000001D01*
G01*
X78203477Y-89385300D01*
G36*
X78203477Y-89385300D02*
G01*
X78203477Y-89385300D01*
G75*
G02*
X80203477Y-87385300I2000023J0D01*
G01*
X82803477Y-87385300D01*
G75*
G02*
X84803477Y-89385300I23J-2000000D01*
G01*
X84803477Y-92185301D01*
G75*
G02*
X82803477Y-94185301I-1999977J1D01*
G01*
X80203477Y-94185301D01*
G75*
G02*
X78203477Y-92185301I23J2000001D01*
G01*
X78203477Y-89385300D01*
G37*
D11*
%TO.C,H1*%
X35553477Y-22835301D03*
%TD*%
%TO.C,H2*%
X108553477Y-22835301D03*
%TD*%
%TO.C,H3*%
X35553477Y-95835301D03*
%TD*%
%TO.C,H4*%
X108553477Y-95835301D03*
%TD*%
D12*
%TO.C,J1*%
X37503477Y-86725301D03*
X37503477Y-84185301D03*
X37503477Y-81645301D03*
X37503477Y-79105301D03*
D13*
X37503477Y-76565301D03*
%TD*%
D12*
%TO.C,J2*%
X73200000Y-30536709D03*
D13*
X73200000Y-27996709D03*
%TD*%
D12*
%TO.C,J3*%
X41693603Y-33705301D03*
D13*
X39153603Y-33705301D03*
%TD*%
%TO.C,J4*%
X37453477Y-72685301D03*
%TD*%
D14*
%TO.C,TP7*%
X42603477Y-22185301D03*
%TD*%
D15*
%TO.C,J5*%
X94313477Y-90841709D03*
X82093477Y-90841709D03*
D16*
X88203477Y-90841709D03*
%TD*%
M02*
