M48
; DRILL file KiCad 10.0.0 date 2026-10-05T03:23:20
; FORMAT={-:-/ absolute / metric / decimal}
; #@! TF.CreationDate,2026-10-05T03:23:20-04:00
; #@! TF.GenerationSoftware,Kicad,Pcbnew,10.0.0
; #@! TF.FileFunction,Plated,1,2,PTH
FMAT,2
METRIC
; #@! TA.AperFunction,Plated,PTH,ViaDrill
T1C0.200
; #@! TA.AperFunction,Plated,PTH,ViaDrill
T2C0.300
; #@! TA.AperFunction,Plated,PTH,ComponentDrill
T3C0.700
; #@! TA.AperFunction,Plated,PTH,ComponentDrill
T4C1.000
; #@! TA.AperFunction,Plated,PTH,ComponentDrill
T5C1.550
; #@! TA.AperFunction,Plated,PTH,ComponentDrill
T6C2.600
; #@! TA.AperFunction,Plated,PTH,ComponentDrill
T7C3.400
%
G90
G05
T1
X49.518Y-59.837
X96.403Y-40.385
X96.403Y-41.185
X96.75Y-40.787
X97.203Y-40.385
X97.203Y-41.185
T2
X32.003Y-25.185
X32.003Y-26.185
X32.003Y-27.185
X32.003Y-28.185
X32.003Y-29.185
X32.003Y-30.185
X32.003Y-31.185
X32.003Y-32.185
X32.003Y-33.185
X32.003Y-34.185
X32.003Y-35.185
X32.003Y-36.185
X32.003Y-37.185
X32.003Y-38.185
X32.003Y-39.185
X32.003Y-40.185
X32.203Y-90.385
X32.203Y-91.385
X32.203Y-92.385
X33.003Y-26.185
X33.003Y-27.185
X33.003Y-28.185
X33.003Y-29.185
X33.003Y-30.185
X33.003Y-31.185
X33.003Y-32.185
X33.003Y-33.185
X33.003Y-34.185
X33.003Y-35.185
X33.003Y-36.185
X33.003Y-37.185
X33.003Y-38.185
X33.003Y-39.185
X33.203Y-90.385
X33.203Y-91.385
X33.203Y-92.385
X34.003Y-27.185
X34.003Y-28.185
X34.003Y-29.185
X34.003Y-30.185
X34.003Y-31.185
X34.003Y-32.185
X34.003Y-33.185
X34.003Y-34.185
X34.003Y-35.185
X34.003Y-36.185
X34.003Y-37.185
X34.003Y-38.185
X34.203Y-90.385
X34.203Y-91.385
X34.403Y-64.385
X34.828Y-70.21
X35.003Y-27.185
X35.003Y-28.185
X35.003Y-29.185
X35.003Y-30.185
X35.003Y-31.185
X35.003Y-32.185
X35.003Y-33.185
X35.003Y-34.185
X35.003Y-35.185
X35.003Y-36.185
X35.003Y-37.185
X35.003Y-45.385
X35.003Y-46.385
X35.003Y-47.385
X35.003Y-48.385
X35.003Y-49.385
X35.003Y-50.385
X35.203Y-42.385
X35.203Y-43.385
X35.203Y-44.385
X35.203Y-90.385
X35.203Y-91.385
X35.403Y-62.585
X35.791Y-66.185
X36.003Y-27.185
X36.003Y-28.185
X36.003Y-29.185
X36.003Y-30.185
X36.003Y-31.185
X36.003Y-32.185
X36.003Y-33.185
X36.003Y-34.185
X36.003Y-35.185
X36.003Y-36.185
X36.003Y-45.385
X36.003Y-46.385
X36.003Y-47.385
X36.003Y-48.385
X36.003Y-49.385
X36.003Y-50.385
X36.203Y-41.185
X36.203Y-42.185
X36.203Y-43.185
X36.203Y-44.185
X36.203Y-62.585
X36.203Y-90.385
X36.203Y-91.385
X36.803Y-61.585
X37.003Y-27.185
X37.003Y-28.185
X37.003Y-29.185
X37.003Y-30.185
X37.003Y-31.185
X37.003Y-32.185
X37.003Y-33.185
X37.003Y-34.185
X37.003Y-35.185
X37.003Y-40.385
X37.003Y-45.385
X37.003Y-46.385
X37.003Y-47.385
X37.003Y-48.385
X37.003Y-49.385
X37.003Y-50.385
X37.003Y-62.385
X37.203Y-90.385
X37.203Y-91.385
X37.403Y-55.985
X37.603Y-57.435
X37.603Y-61.585
X37.803Y-68.035
X38.003Y-27.185
X38.003Y-28.185
X38.003Y-29.185
X38.003Y-30.185
X38.003Y-31.185
X38.003Y-48.385
X38.003Y-49.385
X38.003Y-50.385
X38.203Y-90.385
X38.203Y-91.385
X38.203Y-92.385
X38.203Y-99.385
X38.603Y-19.185
X39.003Y-26.185
X39.003Y-27.185
X39.003Y-28.185
X39.003Y-29.185
X39.003Y-30.185
X39.003Y-31.185
X39.003Y-49.385
X39.003Y-50.385
X39.203Y-90.385
X39.203Y-91.385
X39.203Y-92.385
X39.203Y-93.385
X39.203Y-98.385
X39.203Y-99.385
X39.603Y-19.185
X39.603Y-20.185
X39.603Y-21.185
X39.603Y-22.185
X39.603Y-23.185
X39.603Y-24.185
X39.603Y-25.185
X40.003Y-26.185
X40.003Y-27.185
X40.003Y-28.185
X40.003Y-29.185
X40.003Y-30.185
X40.003Y-31.185
X40.003Y-50.385
X40.003Y-65.385
X40.203Y-90.385
X40.203Y-91.385
X40.203Y-92.385
X40.203Y-93.385
X40.203Y-94.385
X40.203Y-95.385
X40.203Y-96.385
X40.203Y-97.385
X40.203Y-98.385
X40.203Y-99.385
X40.253Y-58.785
X40.253Y-59.785
X40.253Y-60.785
X40.253Y-61.785
X40.253Y-62.685
X40.403Y-75.185
X40.603Y-19.185
X40.603Y-20.185
X40.603Y-21.185
X40.603Y-22.185
X40.603Y-23.185
X40.603Y-24.185
X40.603Y-25.185
X41.003Y-26.185
X41.003Y-27.185
X41.003Y-28.185
X41.003Y-29.185
X41.003Y-30.185
X41.003Y-31.185
X41.003Y-39.785
X41.003Y-43.585
X41.003Y-55.585
X41.203Y-86.385
X41.203Y-87.385
X41.203Y-88.385
X41.203Y-89.385
X41.203Y-90.385
X41.203Y-91.385
X41.203Y-92.385
X41.203Y-93.385
X41.203Y-94.385
X41.203Y-95.385
X41.203Y-96.385
X41.203Y-97.385
X41.203Y-98.385
X41.203Y-99.385
X41.253Y-58.785
X41.253Y-59.785
X41.253Y-60.785
X41.253Y-61.785
X41.253Y-62.685
X41.603Y-19.185
X41.603Y-20.185
X41.603Y-21.185
X41.603Y-23.185
X41.603Y-24.185
X41.603Y-25.185
X42.003Y-26.185
X42.003Y-27.185
X42.003Y-28.185
X42.003Y-29.185
X42.003Y-30.185
X42.003Y-31.185
X42.003Y-40.585
X42.003Y-43.585
X42.203Y-85.385
X42.203Y-86.385
X42.203Y-87.385
X42.203Y-88.385
X42.203Y-89.385
X42.203Y-90.385
X42.203Y-91.385
X42.203Y-92.385
X42.203Y-93.385
X42.203Y-94.385
X42.203Y-95.385
X42.203Y-96.385
X42.203Y-97.385
X42.203Y-98.385
X42.203Y-99.385
X42.253Y-58.785
X42.253Y-59.785
X42.253Y-61.785
X42.253Y-62.685
X42.303Y-60.839
X42.603Y-19.185
X42.603Y-20.185
X42.603Y-24.185
X42.603Y-25.185
X42.603Y-36.185
X43.003Y-26.185
X43.003Y-27.185
X43.003Y-28.185
X43.003Y-29.185
X43.003Y-30.185
X43.003Y-31.185
X43.203Y-85.385
X43.203Y-86.385
X43.203Y-87.385
X43.203Y-88.385
X43.203Y-89.385
X43.203Y-90.385
X43.203Y-91.385
X43.203Y-92.385
X43.203Y-93.385
X43.203Y-94.385
X43.203Y-95.385
X43.203Y-96.385
X43.203Y-97.385
X43.203Y-98.385
X43.203Y-99.385
X43.253Y-58.785
X43.253Y-59.785
X43.253Y-60.785
X43.253Y-61.785
X43.253Y-62.685
X43.603Y-19.185
X43.603Y-20.185
X43.603Y-21.185
X43.603Y-23.185
X43.603Y-24.185
X43.603Y-25.185
X43.603Y-33.185
X43.603Y-34.185
X43.603Y-35.185
X43.603Y-36.185
X43.603Y-37.185
X44.003Y-26.185
X44.003Y-27.185
X44.003Y-28.185
X44.003Y-29.185
X44.003Y-30.185
X44.003Y-31.185
X44.003Y-32.185
X44.203Y-58.735
X44.203Y-83.385
X44.203Y-84.385
X44.203Y-85.385
X44.203Y-86.385
X44.203Y-87.385
X44.203Y-88.385
X44.203Y-89.385
X44.203Y-90.385
X44.203Y-91.385
X44.203Y-92.385
X44.203Y-93.385
X44.203Y-94.385
X44.203Y-95.385
X44.203Y-96.385
X44.203Y-97.385
X44.203Y-98.385
X44.203Y-99.385
X44.253Y-59.785
X44.253Y-60.785
X44.253Y-61.785
X44.253Y-62.685
X44.603Y-19.185
X44.603Y-20.185
X44.603Y-21.185
X44.603Y-22.185
X44.603Y-23.185
X44.603Y-24.185
X44.603Y-25.185
X44.603Y-33.185
X44.603Y-34.185
X44.603Y-35.185
X44.603Y-36.185
X44.603Y-37.185
X44.603Y-38.185
X45.003Y-26.185
X45.003Y-27.185
X45.003Y-28.185
X45.003Y-29.185
X45.003Y-30.185
X45.003Y-31.185
X45.003Y-32.185
X45.203Y-82.385
X45.203Y-83.385
X45.203Y-84.385
X45.203Y-85.385
X45.203Y-86.385
X45.203Y-87.385
X45.203Y-88.385
X45.203Y-89.385
X45.203Y-90.385
X45.203Y-91.385
X45.203Y-92.385
X45.203Y-93.385
X45.203Y-94.385
X45.203Y-95.385
X45.203Y-96.385
X45.203Y-97.385
X45.203Y-98.385
X45.203Y-99.385
X45.603Y-19.185
X45.603Y-20.185
X45.603Y-21.185
X45.603Y-22.185
X45.603Y-23.185
X45.603Y-24.185
X45.603Y-25.185
X45.603Y-33.185
X45.603Y-34.185
X45.603Y-35.185
X45.603Y-36.185
X45.603Y-37.185
X45.603Y-38.185
X45.603Y-39.185
X46.003Y-26.185
X46.003Y-27.185
X46.003Y-28.185
X46.003Y-29.185
X46.003Y-30.185
X46.003Y-31.185
X46.003Y-32.185
X46.203Y-56.785
X46.203Y-81.385
X46.203Y-82.385
X46.203Y-83.385
X46.203Y-84.385
X46.203Y-85.385
X46.203Y-86.385
X46.203Y-87.385
X46.203Y-88.385
X46.203Y-89.385
X46.203Y-90.385
X46.203Y-91.385
X46.203Y-92.385
X46.203Y-93.385
X46.203Y-94.385
X46.203Y-95.385
X46.203Y-96.385
X46.203Y-97.385
X46.203Y-98.385
X46.203Y-99.385
X46.403Y-51.385
X46.603Y-19.185
X46.603Y-20.185
X46.603Y-21.185
X46.603Y-22.185
X46.603Y-23.185
X46.603Y-24.185
X46.603Y-25.185
X46.603Y-33.185
X46.603Y-34.185
X46.603Y-35.185
X46.603Y-36.185
X46.603Y-37.185
X46.603Y-38.185
X46.603Y-39.185
X46.603Y-40.185
X46.603Y-41.185
X46.603Y-42.185
X46.603Y-43.185
X46.603Y-44.185
X46.603Y-45.185
X46.603Y-46.185
X46.603Y-47.185
X46.603Y-48.185
X46.603Y-49.185
X46.603Y-50.185
X46.603Y-64.335
X46.628Y-68.76
X47.003Y-26.185
X47.003Y-27.185
X47.003Y-28.185
X47.003Y-29.185
X47.003Y-30.185
X47.003Y-31.185
X47.003Y-32.185
X47.203Y-51.385
X47.203Y-80.385
X47.203Y-81.385
X47.203Y-82.385
X47.203Y-83.385
X47.203Y-84.385
X47.203Y-85.385
X47.203Y-86.385
X47.203Y-87.385
X47.203Y-88.385
X47.203Y-89.385
X47.203Y-90.385
X47.203Y-91.385
X47.203Y-92.385
X47.203Y-93.385
X47.203Y-94.385
X47.203Y-95.385
X47.203Y-96.385
X47.203Y-97.385
X47.203Y-98.385
X47.203Y-99.385
X47.603Y-19.185
X47.603Y-20.185
X47.603Y-21.185
X47.603Y-22.185
X47.603Y-23.185
X47.603Y-24.185
X47.603Y-25.185
X47.603Y-33.185
X47.603Y-34.185
X47.603Y-35.185
X47.603Y-36.185
X47.603Y-37.185
X47.603Y-38.185
X47.603Y-39.185
X47.603Y-40.185
X47.603Y-41.185
X47.603Y-42.185
X47.603Y-43.185
X47.603Y-44.185
X47.603Y-45.185
X47.603Y-46.185
X47.603Y-47.185
X47.603Y-48.185
X47.603Y-49.185
X47.603Y-64.61
X47.8Y-62.985
X48.003Y-26.185
X48.003Y-27.185
X48.003Y-28.185
X48.003Y-29.185
X48.003Y-30.185
X48.003Y-31.185
X48.003Y-32.185
X48.203Y-68.385
X48.203Y-79.385
X48.203Y-80.385
X48.203Y-81.385
X48.203Y-82.385
X48.203Y-83.385
X48.203Y-84.385
X48.203Y-85.385
X48.203Y-86.385
X48.203Y-87.385
X48.203Y-88.385
X48.203Y-89.385
X48.203Y-90.385
X48.203Y-91.385
X48.203Y-92.385
X48.203Y-93.385
X48.203Y-94.385
X48.203Y-95.385
X48.203Y-96.385
X48.203Y-97.385
X48.203Y-98.385
X48.203Y-99.385
X48.603Y-19.185
X48.603Y-20.185
X48.603Y-21.185
X48.603Y-22.185
X48.603Y-23.185
X48.603Y-24.185
X48.603Y-25.185
X48.603Y-33.185
X48.603Y-34.185
X48.603Y-35.185
X48.603Y-36.185
X48.603Y-37.185
X48.603Y-38.185
X48.603Y-39.185
X48.603Y-40.185
X48.603Y-41.185
X48.603Y-42.185
X48.603Y-43.185
X48.603Y-44.185
X48.603Y-45.185
X48.603Y-46.185
X48.603Y-47.185
X48.603Y-48.185
X49.003Y-26.185
X49.003Y-27.185
X49.003Y-28.185
X49.003Y-29.185
X49.003Y-30.185
X49.003Y-31.185
X49.003Y-32.185
X49.203Y-78.385
X49.203Y-79.385
X49.203Y-80.385
X49.203Y-81.385
X49.203Y-82.385
X49.203Y-83.385
X49.203Y-84.385
X49.203Y-85.385
X49.203Y-86.385
X49.203Y-87.385
X49.203Y-88.385
X49.203Y-89.385
X49.203Y-90.385
X49.203Y-91.385
X49.203Y-92.385
X49.203Y-93.385
X49.203Y-94.385
X49.203Y-95.385
X49.203Y-96.385
X49.203Y-97.385
X49.203Y-98.385
X49.203Y-99.385
X49.603Y-19.185
X49.603Y-20.185
X49.603Y-21.185
X49.603Y-22.185
X49.603Y-23.185
X49.603Y-24.185
X49.603Y-25.185
X49.603Y-33.185
X49.603Y-34.185
X49.603Y-35.185
X49.603Y-36.185
X49.603Y-37.185
X49.603Y-38.185
X49.603Y-39.185
X49.603Y-40.185
X49.603Y-41.185
X49.603Y-42.185
X49.603Y-43.185
X49.603Y-44.185
X49.603Y-45.185
X49.603Y-46.185
X49.603Y-47.185
X49.603Y-48.185
X50.003Y-26.185
X50.003Y-27.185
X50.003Y-28.185
X50.003Y-29.185
X50.003Y-30.185
X50.003Y-31.185
X50.003Y-32.185
X50.003Y-62.285
X50.003Y-76.235
X50.203Y-57.585
X50.203Y-77.485
X50.203Y-78.385
X50.203Y-79.385
X50.203Y-80.385
X50.203Y-81.385
X50.203Y-82.385
X50.203Y-83.385
X50.203Y-84.385
X50.203Y-85.385
X50.203Y-86.385
X50.203Y-87.385
X50.203Y-88.385
X50.203Y-89.385
X50.203Y-90.385
X50.203Y-91.385
X50.203Y-92.385
X50.203Y-93.385
X50.203Y-94.385
X50.203Y-95.385
X50.203Y-96.385
X50.203Y-97.385
X50.203Y-98.385
X50.203Y-99.385
X50.603Y-19.185
X50.603Y-20.185
X50.603Y-21.185
X50.603Y-22.185
X50.603Y-23.185
X50.603Y-24.185
X50.603Y-25.185
X50.603Y-33.185
X50.603Y-34.185
X50.603Y-35.185
X50.603Y-36.185
X50.603Y-37.185
X50.603Y-38.185
X50.603Y-39.185
X50.603Y-40.185
X50.603Y-41.185
X50.603Y-42.185
X50.603Y-43.185
X50.603Y-44.185
X50.603Y-45.185
X50.603Y-46.185
X50.603Y-47.185
X51.003Y-26.185
X51.003Y-27.185
X51.003Y-28.185
X51.003Y-29.185
X51.003Y-30.185
X51.003Y-31.185
X51.003Y-32.185
X51.003Y-62.285
X51.003Y-63.185
X51.203Y-57.185
X51.203Y-57.985
X51.203Y-77.485
X51.203Y-78.385
X51.203Y-79.385
X51.203Y-80.385
X51.203Y-81.385
X51.203Y-82.385
X51.203Y-83.385
X51.203Y-84.385
X51.203Y-85.385
X51.203Y-86.385
X51.203Y-87.385
X51.203Y-88.385
X51.203Y-89.385
X51.203Y-90.385
X51.203Y-91.385
X51.203Y-92.385
X51.203Y-93.385
X51.203Y-94.385
X51.203Y-95.385
X51.203Y-96.385
X51.203Y-97.385
X51.203Y-98.385
X51.203Y-99.385
X51.603Y-19.185
X51.603Y-20.185
X51.603Y-21.185
X51.603Y-22.185
X51.603Y-23.185
X51.603Y-24.185
X51.603Y-25.185
X51.603Y-33.185
X51.603Y-34.185
X51.603Y-35.185
X51.603Y-36.185
X51.603Y-37.185
X51.603Y-38.185
X51.603Y-39.185
X51.603Y-40.185
X51.603Y-41.185
X51.603Y-42.185
X51.603Y-43.185
X51.603Y-44.185
X51.603Y-45.185
X51.8Y-46.538
X52.003Y-26.185
X52.003Y-27.185
X52.003Y-28.185
X52.003Y-29.185
X52.003Y-30.185
X52.003Y-31.185
X52.003Y-32.185
X52.003Y-62.285
X52.003Y-63.185
X52.003Y-64.085
X52.003Y-65.085
X52.003Y-65.985
X52.003Y-66.985
X52.003Y-67.885
X52.003Y-68.785
X52.003Y-69.885
X52.003Y-70.785
X52.003Y-71.785
X52.003Y-72.685
X52.003Y-73.585
X52.003Y-74.585
X52.003Y-75.585
X52.003Y-76.585
X52.203Y-57.185
X52.203Y-57.985
X52.203Y-77.485
X52.203Y-78.385
X52.203Y-79.385
X52.203Y-80.385
X52.203Y-81.385
X52.203Y-82.385
X52.203Y-83.385
X52.203Y-84.385
X52.203Y-85.385
X52.203Y-86.385
X52.203Y-87.385
X52.203Y-88.385
X52.203Y-89.385
X52.203Y-90.385
X52.203Y-91.385
X52.203Y-92.385
X52.203Y-93.385
X52.203Y-94.385
X52.203Y-95.385
X52.203Y-96.385
X52.203Y-97.385
X52.203Y-98.385
X52.203Y-99.385
X52.603Y-19.185
X52.603Y-20.185
X52.603Y-21.185
X52.603Y-22.185
X52.603Y-23.185
X52.603Y-24.185
X52.603Y-25.185
X52.603Y-33.185
X52.603Y-34.185
X52.603Y-35.185
X52.603Y-36.185
X52.603Y-37.185
X52.603Y-38.185
X52.603Y-39.185
X52.603Y-40.185
X52.603Y-41.185
X52.603Y-42.185
X52.603Y-43.185
X52.603Y-44.185
X52.603Y-45.185
X52.603Y-46.185
X53.003Y-26.185
X53.003Y-27.185
X53.003Y-28.185
X53.003Y-29.185
X53.003Y-30.185
X53.003Y-31.185
X53.003Y-32.185
X53.003Y-62.285
X53.003Y-63.185
X53.003Y-64.085
X53.003Y-65.085
X53.003Y-65.985
X53.003Y-66.985
X53.003Y-67.885
X53.003Y-68.785
X53.003Y-69.885
X53.003Y-70.785
X53.003Y-71.785
X53.003Y-72.685
X53.003Y-73.585
X53.003Y-74.585
X53.003Y-75.585
X53.003Y-76.585
X53.203Y-57.585
X53.203Y-77.485
X53.203Y-78.385
X53.203Y-79.385
X53.203Y-80.385
X53.203Y-81.385
X53.203Y-82.385
X53.203Y-83.385
X53.203Y-84.385
X53.203Y-85.385
X53.203Y-86.385
X53.203Y-87.385
X53.203Y-88.385
X53.203Y-89.385
X53.203Y-90.385
X53.203Y-91.385
X53.203Y-92.385
X53.203Y-93.385
X53.203Y-94.385
X53.203Y-95.385
X53.203Y-96.385
X53.203Y-97.385
X53.203Y-98.385
X53.203Y-99.385
X53.603Y-19.185
X53.603Y-20.185
X53.603Y-21.185
X53.603Y-22.185
X53.603Y-23.185
X53.603Y-24.185
X53.603Y-25.185
X53.603Y-33.185
X53.603Y-34.185
X53.603Y-35.185
X53.603Y-36.185
X53.603Y-37.185
X53.603Y-38.185
X53.603Y-39.185
X53.603Y-40.185
X53.603Y-41.185
X53.603Y-42.185
X53.603Y-43.185
X53.603Y-44.185
X53.603Y-45.185
X53.603Y-46.185
X53.603Y-47.185
X53.603Y-48.185
X53.603Y-49.185
X53.603Y-50.185
X53.603Y-51.185
X53.803Y-58.185
X54.003Y-26.185
X54.003Y-27.185
X54.003Y-28.185
X54.003Y-29.185
X54.003Y-30.185
X54.003Y-31.185
X54.003Y-32.185
X54.003Y-62.285
X54.003Y-63.185
X54.003Y-64.085
X54.003Y-65.085
X54.003Y-65.985
X54.003Y-66.985
X54.003Y-67.885
X54.003Y-68.785
X54.003Y-69.885
X54.003Y-70.785
X54.003Y-71.785
X54.003Y-72.685
X54.003Y-73.585
X54.003Y-74.585
X54.003Y-75.585
X54.003Y-76.585
X54.203Y-77.485
X54.203Y-78.385
X54.203Y-79.385
X54.203Y-80.385
X54.203Y-81.385
X54.203Y-82.385
X54.203Y-83.385
X54.203Y-84.385
X54.203Y-85.385
X54.203Y-86.385
X54.203Y-87.385
X54.203Y-88.385
X54.203Y-89.385
X54.203Y-90.385
X54.203Y-91.385
X54.203Y-92.385
X54.203Y-93.385
X54.203Y-94.385
X54.203Y-95.385
X54.203Y-96.385
X54.203Y-97.385
X54.203Y-98.385
X54.203Y-99.385
X54.403Y-58.985
X54.603Y-19.185
X54.603Y-20.185
X54.603Y-21.185
X54.603Y-22.185
X54.603Y-23.185
X54.603Y-24.185
X54.603Y-25.185
X54.603Y-33.185
X54.603Y-34.185
X54.603Y-35.185
X54.603Y-36.185
X54.603Y-37.185
X54.603Y-38.185
X54.603Y-39.185
X54.603Y-40.185
X54.603Y-41.185
X54.603Y-42.185
X54.603Y-43.185
X54.603Y-44.185
X54.603Y-45.185
X54.603Y-46.185
X54.603Y-47.185
X54.603Y-48.185
X54.603Y-49.185
X54.603Y-50.185
X54.603Y-51.185
X55.003Y-26.185
X55.003Y-27.185
X55.003Y-28.185
X55.003Y-29.185
X55.003Y-30.185
X55.003Y-31.185
X55.003Y-32.185
X55.003Y-62.285
X55.003Y-63.185
X55.003Y-64.085
X55.003Y-65.085
X55.003Y-65.985
X55.003Y-66.985
X55.003Y-67.885
X55.003Y-68.785
X55.003Y-69.885
X55.003Y-70.785
X55.003Y-71.785
X55.003Y-72.685
X55.003Y-73.585
X55.003Y-74.585
X55.003Y-75.585
X55.003Y-76.585
X55.203Y-77.485
X55.203Y-78.385
X55.203Y-79.385
X55.203Y-80.385
X55.203Y-81.385
X55.203Y-82.385
X55.203Y-83.385
X55.203Y-84.385
X55.203Y-85.385
X55.203Y-86.385
X55.203Y-87.385
X55.203Y-88.385
X55.203Y-89.385
X55.203Y-90.385
X55.203Y-91.385
X55.203Y-92.385
X55.203Y-93.385
X55.203Y-94.385
X55.203Y-95.385
X55.203Y-96.385
X55.203Y-97.385
X55.203Y-98.385
X55.203Y-99.385
X55.603Y-19.185
X55.603Y-20.185
X55.603Y-21.185
X55.603Y-22.185
X55.603Y-23.185
X55.603Y-24.185
X55.603Y-25.185
X55.603Y-33.185
X55.603Y-34.185
X55.603Y-35.185
X55.603Y-36.185
X55.603Y-37.185
X55.603Y-38.185
X55.603Y-39.185
X55.603Y-40.185
X55.603Y-41.185
X55.603Y-42.185
X55.603Y-43.185
X55.603Y-44.185
X55.603Y-45.185
X55.603Y-46.185
X55.603Y-47.185
X55.603Y-48.185
X55.603Y-49.185
X55.603Y-50.185
X55.603Y-51.185
X56.003Y-26.185
X56.003Y-27.185
X56.003Y-28.185
X56.003Y-29.185
X56.003Y-30.185
X56.003Y-31.185
X56.003Y-32.185
X56.003Y-64.085
X56.003Y-65.085
X56.003Y-65.985
X56.003Y-66.985
X56.003Y-67.885
X56.003Y-68.785
X56.003Y-69.885
X56.003Y-70.785
X56.003Y-71.785
X56.003Y-72.685
X56.003Y-73.585
X56.003Y-74.585
X56.003Y-75.585
X56.003Y-76.585
X56.203Y-77.485
X56.203Y-78.385
X56.203Y-79.385
X56.203Y-80.385
X56.203Y-81.385
X56.203Y-82.385
X56.203Y-83.385
X56.203Y-84.385
X56.203Y-85.385
X56.203Y-86.385
X56.203Y-87.385
X56.203Y-88.385
X56.203Y-89.385
X56.203Y-90.385
X56.203Y-91.385
X56.203Y-92.385
X56.203Y-93.385
X56.203Y-94.385
X56.203Y-95.385
X56.203Y-96.385
X56.203Y-97.385
X56.203Y-98.385
X56.203Y-99.385
X56.403Y-63.185
X56.603Y-19.185
X56.603Y-20.185
X56.603Y-21.185
X56.603Y-22.185
X56.603Y-23.185
X56.603Y-24.185
X56.603Y-25.185
X56.603Y-33.185
X56.603Y-34.185
X56.603Y-35.185
X56.603Y-36.185
X56.603Y-37.185
X56.603Y-38.185
X56.603Y-39.185
X56.603Y-40.185
X56.603Y-41.185
X56.603Y-42.185
X56.603Y-43.185
X56.603Y-44.185
X56.603Y-45.185
X56.603Y-46.185
X56.603Y-47.185
X56.603Y-48.185
X56.603Y-49.185
X56.603Y-50.185
X56.603Y-51.185
X57.003Y-26.185
X57.003Y-27.185
X57.003Y-28.185
X57.003Y-29.185
X57.003Y-30.185
X57.003Y-31.185
X57.003Y-32.185
X57.003Y-69.885
X57.003Y-70.785
X57.003Y-71.785
X57.003Y-72.685
X57.003Y-73.585
X57.003Y-74.585
X57.003Y-75.585
X57.003Y-76.585
X57.203Y-77.485
X57.203Y-78.385
X57.203Y-79.385
X57.203Y-80.385
X57.203Y-81.385
X57.203Y-82.385
X57.203Y-83.385
X57.203Y-84.385
X57.203Y-85.385
X57.203Y-86.385
X57.203Y-87.385
X57.203Y-88.385
X57.203Y-89.385
X57.203Y-90.385
X57.203Y-91.385
X57.203Y-92.385
X57.203Y-93.385
X57.203Y-94.385
X57.203Y-95.385
X57.203Y-96.385
X57.203Y-97.385
X57.203Y-98.385
X57.203Y-99.385
X57.603Y-19.185
X57.603Y-20.185
X57.603Y-21.185
X57.603Y-22.185
X57.603Y-23.185
X57.603Y-24.185
X57.603Y-25.185
X57.603Y-33.185
X57.603Y-34.185
X57.603Y-35.185
X57.603Y-36.185
X57.603Y-37.185
X57.603Y-38.185
X57.603Y-39.185
X57.603Y-40.185
X57.603Y-41.185
X57.603Y-42.185
X57.603Y-43.185
X57.603Y-44.185
X57.603Y-45.185
X57.603Y-46.185
X57.603Y-47.185
X57.603Y-48.185
X57.603Y-49.185
X57.603Y-50.185
X57.603Y-51.185
X57.603Y-52.185
X57.603Y-53.185
X57.603Y-54.185
X57.603Y-55.185
X57.603Y-56.185
X58.003Y-26.185
X58.003Y-27.185
X58.003Y-28.185
X58.003Y-29.185
X58.003Y-30.185
X58.003Y-31.185
X58.003Y-32.185
X58.003Y-72.685
X58.003Y-73.585
X58.003Y-74.585
X58.003Y-75.585
X58.003Y-76.585
X58.203Y-77.485
X58.203Y-78.385
X58.203Y-79.385
X58.203Y-80.385
X58.203Y-81.385
X58.203Y-82.385
X58.203Y-83.385
X58.203Y-84.385
X58.203Y-85.385
X58.203Y-86.385
X58.203Y-87.385
X58.203Y-88.385
X58.203Y-89.385
X58.203Y-90.385
X58.203Y-91.385
X58.203Y-92.385
X58.203Y-93.385
X58.203Y-94.385
X58.203Y-95.385
X58.203Y-96.385
X58.203Y-97.385
X58.203Y-98.385
X58.203Y-99.385
X58.403Y-59.385
X58.403Y-61.385
X58.407Y-71.265
X58.603Y-19.185
X58.603Y-20.185
X58.603Y-21.185
X58.603Y-22.185
X58.603Y-23.185
X58.603Y-24.185
X58.603Y-25.185
X58.603Y-33.185
X58.603Y-34.185
X58.603Y-35.185
X58.603Y-36.185
X58.603Y-37.185
X58.603Y-38.185
X58.603Y-39.185
X58.603Y-40.185
X58.603Y-41.185
X58.603Y-42.185
X58.603Y-43.185
X58.603Y-44.185
X58.603Y-45.185
X58.603Y-46.185
X58.603Y-47.185
X58.603Y-48.185
X58.603Y-49.185
X58.603Y-50.185
X58.603Y-51.185
X58.603Y-52.185
X58.603Y-53.185
X58.603Y-54.185
X58.603Y-55.185
X58.603Y-56.185
X58.603Y-57.185
X59.003Y-26.185
X59.003Y-27.185
X59.003Y-28.185
X59.003Y-29.185
X59.003Y-30.185
X59.003Y-31.185
X59.003Y-32.185
X59.003Y-72.685
X59.003Y-73.585
X59.003Y-74.585
X59.003Y-75.585
X59.003Y-76.585
X59.203Y-77.485
X59.203Y-78.385
X59.203Y-79.385
X59.203Y-80.385
X59.203Y-81.385
X59.203Y-82.385
X59.203Y-83.385
X59.203Y-84.385
X59.203Y-85.385
X59.203Y-86.385
X59.203Y-87.385
X59.203Y-88.385
X59.203Y-89.385
X59.203Y-90.385
X59.203Y-91.385
X59.203Y-92.385
X59.203Y-93.385
X59.203Y-94.385
X59.203Y-95.385
X59.203Y-96.385
X59.203Y-97.385
X59.203Y-98.385
X59.203Y-99.385
X59.603Y-19.185
X59.603Y-20.185
X59.603Y-21.185
X59.603Y-22.185
X59.603Y-23.185
X59.603Y-24.185
X59.603Y-25.185
X59.603Y-33.185
X59.603Y-34.185
X59.603Y-35.185
X59.603Y-36.185
X59.603Y-37.185
X59.603Y-38.185
X59.603Y-39.185
X59.603Y-40.185
X59.603Y-41.185
X59.603Y-42.185
X59.603Y-43.185
X59.603Y-44.185
X59.603Y-45.185
X59.603Y-46.185
X59.603Y-47.185
X59.603Y-48.185
X59.603Y-49.185
X59.603Y-50.185
X59.603Y-51.185
X59.603Y-52.185
X59.603Y-53.185
X59.603Y-54.185
X59.603Y-55.185
X59.603Y-56.185
X59.603Y-57.185
X60.003Y-26.185
X60.003Y-27.185
X60.003Y-28.185
X60.003Y-29.185
X60.003Y-30.185
X60.003Y-31.185
X60.003Y-32.185
X60.003Y-66.766
X60.003Y-69.885
X60.003Y-70.785
X60.003Y-71.785
X60.003Y-72.685
X60.003Y-73.585
X60.003Y-74.585
X60.003Y-75.585
X60.003Y-76.585
X60.203Y-77.485
X60.203Y-78.385
X60.203Y-79.385
X60.203Y-80.385
X60.203Y-81.385
X60.203Y-82.385
X60.203Y-83.385
X60.203Y-84.385
X60.203Y-85.385
X60.203Y-86.385
X60.203Y-87.385
X60.203Y-88.385
X60.203Y-89.385
X60.203Y-90.385
X60.203Y-91.385
X60.203Y-92.385
X60.203Y-93.385
X60.203Y-94.385
X60.203Y-95.385
X60.203Y-96.385
X60.203Y-97.385
X60.203Y-98.385
X60.203Y-99.385
X60.603Y-19.185
X60.603Y-20.185
X60.603Y-21.185
X60.603Y-22.185
X60.603Y-23.185
X60.603Y-24.185
X60.603Y-25.185
X60.603Y-33.185
X60.603Y-34.185
X60.603Y-35.185
X60.603Y-36.185
X60.603Y-37.185
X60.603Y-38.185
X60.603Y-39.185
X60.603Y-40.185
X60.603Y-41.185
X60.603Y-42.185
X60.603Y-43.185
X60.603Y-44.185
X61.003Y-26.185
X61.003Y-27.185
X61.003Y-28.185
X61.003Y-29.185
X61.003Y-30.185
X61.003Y-31.185
X61.003Y-32.185
X61.203Y-72.685
X61.203Y-73.585
X61.203Y-74.585
X61.203Y-75.585
X61.203Y-76.385
X61.203Y-77.385
X61.203Y-78.385
X61.203Y-79.385
X61.203Y-80.385
X61.203Y-81.385
X61.203Y-82.385
X61.203Y-83.385
X61.203Y-84.385
X61.203Y-85.385
X61.203Y-86.385
X61.203Y-87.385
X61.203Y-88.385
X61.203Y-89.385
X61.203Y-90.385
X61.203Y-91.385
X61.203Y-92.385
X61.203Y-93.385
X61.203Y-94.385
X61.203Y-95.385
X61.203Y-96.385
X61.203Y-97.385
X61.203Y-98.385
X61.203Y-99.385
X61.328Y-59.681
X61.378Y-61.381
X61.603Y-19.185
X61.603Y-20.185
X61.603Y-21.185
X61.603Y-22.185
X61.603Y-23.185
X61.603Y-24.185
X61.603Y-25.185
X61.603Y-33.185
X61.603Y-34.185
X61.603Y-35.185
X61.603Y-36.185
X61.603Y-37.185
X61.603Y-38.185
X61.603Y-39.185
X61.603Y-40.185
X61.603Y-41.185
X61.603Y-42.185
X61.603Y-43.185
X62.003Y-26.185
X62.003Y-27.185
X62.003Y-28.185
X62.003Y-29.185
X62.003Y-30.185
X62.003Y-31.185
X62.003Y-32.185
X62.203Y-73.585
X62.203Y-74.585
X62.203Y-75.585
X62.203Y-76.385
X62.203Y-77.385
X62.203Y-78.385
X62.203Y-79.385
X62.203Y-80.385
X62.203Y-81.385
X62.203Y-82.385
X62.203Y-83.385
X62.203Y-84.385
X62.203Y-85.385
X62.203Y-86.385
X62.203Y-87.385
X62.203Y-88.385
X62.203Y-89.385
X62.203Y-90.385
X62.203Y-91.385
X62.203Y-92.385
X62.203Y-93.385
X62.203Y-94.385
X62.203Y-95.385
X62.203Y-96.385
X62.203Y-97.385
X62.203Y-98.385
X62.203Y-99.385
X62.603Y-19.185
X62.603Y-20.185
X62.603Y-21.185
X62.603Y-22.185
X62.603Y-23.185
X62.603Y-24.185
X62.603Y-25.185
X62.603Y-33.185
X62.603Y-34.185
X62.603Y-35.185
X62.603Y-36.185
X62.603Y-37.185
X62.603Y-38.185
X62.603Y-39.185
X62.603Y-40.185
X62.603Y-41.185
X63.003Y-26.185
X63.003Y-27.185
X63.003Y-28.185
X63.003Y-29.185
X63.003Y-30.185
X63.003Y-31.185
X63.003Y-32.185
X63.203Y-74.585
X63.203Y-75.385
X63.203Y-76.385
X63.203Y-77.385
X63.203Y-78.385
X63.203Y-79.385
X63.203Y-80.385
X63.203Y-81.385
X63.203Y-82.385
X63.203Y-83.385
X63.203Y-84.385
X63.203Y-85.385
X63.203Y-86.385
X63.203Y-87.385
X63.203Y-88.385
X63.203Y-89.385
X63.203Y-90.385
X63.203Y-91.385
X63.203Y-92.385
X63.203Y-93.385
X63.203Y-94.385
X63.203Y-95.385
X63.203Y-96.385
X63.203Y-97.385
X63.203Y-98.385
X63.203Y-99.385
X63.4Y-66.737
X63.603Y-19.185
X63.603Y-20.185
X63.603Y-21.185
X63.603Y-22.185
X63.603Y-23.185
X63.603Y-24.185
X63.603Y-25.185
X64.003Y-26.185
X64.003Y-27.185
X64.003Y-28.185
X64.003Y-29.185
X64.003Y-30.185
X64.003Y-31.185
X64.203Y-68.385
X64.203Y-69.385
X64.203Y-70.385
X64.203Y-75.385
X64.203Y-76.385
X64.203Y-77.385
X64.203Y-78.385
X64.203Y-79.385
X64.203Y-80.385
X64.203Y-81.385
X64.203Y-82.385
X64.203Y-83.385
X64.203Y-84.385
X64.203Y-85.385
X64.203Y-86.385
X64.203Y-87.385
X64.203Y-88.385
X64.203Y-89.385
X64.203Y-90.385
X64.203Y-91.385
X64.203Y-92.385
X64.203Y-93.385
X64.203Y-94.385
X64.203Y-95.385
X64.203Y-96.385
X64.203Y-97.385
X64.203Y-98.385
X64.203Y-99.385
X64.603Y-19.185
X64.603Y-20.185
X64.603Y-21.185
X64.603Y-22.185
X64.603Y-23.185
X64.603Y-24.185
X64.603Y-25.185
X65.003Y-26.185
X65.003Y-27.185
X65.003Y-28.185
X65.003Y-29.185
X65.003Y-30.185
X65.203Y-68.385
X65.203Y-69.385
X65.203Y-70.385
X65.203Y-71.385
X65.203Y-75.385
X65.203Y-76.385
X65.203Y-77.385
X65.203Y-78.385
X65.203Y-79.385
X65.203Y-80.385
X65.203Y-81.385
X65.203Y-82.385
X65.203Y-83.385
X65.203Y-84.385
X65.203Y-85.385
X65.203Y-86.385
X65.203Y-87.385
X65.203Y-88.385
X65.203Y-89.385
X65.203Y-90.385
X65.203Y-91.385
X65.203Y-92.385
X65.203Y-93.385
X65.203Y-94.385
X65.203Y-95.385
X65.203Y-96.385
X65.203Y-97.385
X65.203Y-98.385
X65.203Y-99.385
X65.4Y-39.4
X65.4Y-45.0
X65.603Y-19.185
X65.603Y-20.185
X65.603Y-21.185
X65.603Y-22.185
X65.603Y-23.185
X65.603Y-24.185
X65.603Y-25.185
X66.003Y-26.185
X66.003Y-27.185
X66.003Y-28.185
X66.003Y-29.185
X66.003Y-67.185
X66.203Y-68.385
X66.203Y-69.385
X66.203Y-70.385
X66.203Y-71.385
X66.203Y-75.385
X66.203Y-76.385
X66.203Y-77.385
X66.203Y-78.385
X66.203Y-79.385
X66.203Y-80.385
X66.203Y-81.385
X66.203Y-82.385
X66.203Y-83.385
X66.203Y-84.385
X66.203Y-85.385
X66.203Y-86.385
X66.203Y-87.385
X66.203Y-88.385
X66.203Y-89.385
X66.203Y-90.385
X66.203Y-91.385
X66.203Y-92.385
X66.203Y-93.385
X66.203Y-94.385
X66.203Y-95.385
X66.203Y-96.385
X66.203Y-97.385
X66.203Y-98.385
X66.203Y-99.385
X66.603Y-19.185
X66.603Y-20.185
X66.603Y-21.185
X66.603Y-22.185
X66.603Y-23.185
X66.603Y-24.185
X66.603Y-25.185
X66.975Y-56.025
X67.003Y-26.185
X67.003Y-27.185
X67.003Y-28.185
X67.003Y-66.185
X67.003Y-67.185
X67.2Y-75.6
X67.203Y-68.385
X67.203Y-69.385
X67.203Y-70.385
X67.203Y-76.385
X67.203Y-77.185
X67.203Y-78.185
X67.203Y-79.185
X67.203Y-80.385
X67.203Y-81.385
X67.203Y-82.385
X67.203Y-83.385
X67.203Y-84.385
X67.203Y-85.385
X67.203Y-86.385
X67.203Y-87.385
X67.203Y-88.385
X67.203Y-89.385
X67.203Y-90.385
X67.203Y-91.385
X67.203Y-92.385
X67.203Y-93.385
X67.203Y-94.385
X67.203Y-95.385
X67.203Y-96.385
X67.203Y-97.385
X67.203Y-98.385
X67.203Y-99.385
X67.296Y-71.104
X67.603Y-19.185
X67.603Y-20.185
X67.603Y-21.185
X67.603Y-22.185
X67.603Y-23.185
X67.603Y-24.185
X67.603Y-25.185
X68.003Y-26.185
X68.003Y-27.185
X68.003Y-34.185
X68.003Y-35.185
X68.003Y-36.185
X68.003Y-43.785
X68.003Y-44.785
X68.003Y-45.585
X68.003Y-46.785
X68.003Y-66.185
X68.003Y-67.185
X68.203Y-68.385
X68.203Y-69.385
X68.203Y-70.185
X68.203Y-77.185
X68.203Y-78.185
X68.203Y-79.185
X68.203Y-80.385
X68.203Y-81.385
X68.203Y-82.385
X68.203Y-83.385
X68.203Y-84.385
X68.203Y-85.385
X68.203Y-86.385
X68.203Y-87.385
X68.203Y-88.385
X68.203Y-89.385
X68.203Y-90.385
X68.203Y-91.385
X68.203Y-92.385
X68.203Y-93.385
X68.203Y-94.385
X68.203Y-95.385
X68.203Y-96.385
X68.203Y-97.385
X68.203Y-98.385
X68.203Y-99.385
X68.526Y-70.785
X68.526Y-76.385
X68.603Y-19.185
X68.603Y-20.185
X68.603Y-21.185
X68.603Y-22.185
X68.603Y-23.185
X68.603Y-24.185
X68.603Y-25.185
X68.603Y-62.385
X68.99Y-37.585
X69.003Y-26.185
X69.003Y-33.185
X69.003Y-34.185
X69.003Y-35.185
X69.003Y-36.185
X69.003Y-43.785
X69.003Y-44.785
X69.003Y-45.585
X69.003Y-46.785
X69.003Y-47.785
X69.003Y-66.185
X69.003Y-67.185
X69.203Y-68.385
X69.203Y-69.385
X69.203Y-70.385
X69.203Y-77.185
X69.203Y-78.185
X69.203Y-79.185
X69.203Y-80.385
X69.203Y-81.385
X69.203Y-82.385
X69.203Y-83.385
X69.203Y-84.385
X69.203Y-85.385
X69.203Y-86.385
X69.203Y-87.385
X69.203Y-88.385
X69.203Y-89.385
X69.203Y-90.385
X69.203Y-91.385
X69.203Y-92.385
X69.203Y-93.385
X69.203Y-94.385
X69.203Y-95.385
X69.203Y-96.385
X69.203Y-97.385
X69.203Y-98.385
X69.203Y-99.385
X69.603Y-19.185
X69.603Y-20.185
X69.603Y-21.185
X69.603Y-22.185
X69.603Y-23.185
X69.603Y-24.185
X69.603Y-25.185
X69.8Y-43.2
X69.8Y-71.754
X69.8Y-75.574
X69.803Y-76.385
X70.003Y-32.185
X70.003Y-33.185
X70.003Y-34.185
X70.003Y-35.185
X70.003Y-36.185
X70.003Y-37.185
X70.003Y-43.985
X70.003Y-44.785
X70.003Y-45.585
X70.003Y-46.785
X70.003Y-47.785
X70.003Y-48.785
X70.003Y-66.185
X70.103Y-67.185
X70.203Y-38.367
X70.203Y-68.385
X70.203Y-69.385
X70.203Y-70.385
X70.203Y-77.185
X70.203Y-78.185
X70.203Y-79.185
X70.203Y-80.385
X70.203Y-81.385
X70.203Y-82.385
X70.203Y-83.385
X70.203Y-84.385
X70.203Y-85.385
X70.203Y-86.385
X70.203Y-87.385
X70.203Y-88.385
X70.203Y-89.385
X70.203Y-90.385
X70.203Y-91.385
X70.203Y-92.385
X70.203Y-93.385
X70.203Y-94.385
X70.203Y-95.385
X70.203Y-96.385
X70.203Y-97.385
X70.203Y-98.385
X70.203Y-99.385
X70.33Y-42.187
X70.403Y-61.985
X70.603Y-19.185
X70.603Y-20.185
X70.603Y-21.185
X70.603Y-22.185
X70.603Y-23.185
X70.603Y-24.185
X70.603Y-25.185
X70.603Y-71.785
X70.603Y-72.785
X70.603Y-73.785
X70.603Y-74.785
X70.603Y-75.785
X70.803Y-43.185
X71.003Y-31.185
X71.003Y-32.185
X71.003Y-33.185
X71.003Y-34.185
X71.003Y-35.185
X71.003Y-36.185
X71.003Y-37.185
X71.003Y-38.585
X71.003Y-39.585
X71.003Y-40.585
X71.003Y-41.585
X71.003Y-46.785
X71.003Y-47.785
X71.003Y-48.785
X71.003Y-49.785
X71.103Y-66.185
X71.103Y-67.185
X71.153Y-60.385
X71.203Y-43.985
X71.203Y-44.785
X71.203Y-45.585
X71.203Y-68.385
X71.203Y-70.385
X71.203Y-80.385
X71.203Y-81.385
X71.203Y-82.385
X71.203Y-83.385
X71.203Y-84.385
X71.203Y-85.385
X71.203Y-86.385
X71.203Y-87.385
X71.203Y-88.385
X71.203Y-89.385
X71.203Y-90.385
X71.203Y-91.385
X71.203Y-92.385
X71.203Y-93.385
X71.203Y-94.385
X71.203Y-95.385
X71.203Y-96.385
X71.203Y-97.385
X71.203Y-98.385
X71.203Y-99.385
X71.403Y-58.985
X71.403Y-61.985
X71.403Y-76.785
X71.403Y-79.185
X71.417Y-57.185
X71.521Y-77.729
X71.591Y-69.599
X71.603Y-19.185
X71.603Y-20.185
X71.603Y-21.185
X71.603Y-22.185
X71.603Y-23.185
X71.603Y-24.185
X71.603Y-25.185
X71.603Y-42.385
X71.603Y-71.785
X71.603Y-72.785
X71.603Y-73.785
X71.603Y-74.785
X71.603Y-75.785
X71.803Y-43.185
X72.003Y-33.185
X72.003Y-34.185
X72.003Y-35.185
X72.003Y-36.185
X72.003Y-37.185
X72.003Y-38.585
X72.003Y-39.585
X72.003Y-40.585
X72.003Y-41.585
X72.003Y-46.785
X72.003Y-47.785
X72.003Y-48.785
X72.003Y-49.785
X72.003Y-50.785
X72.103Y-66.185
X72.103Y-67.185
X72.2Y-44.342
X72.203Y-80.385
X72.203Y-81.385
X72.203Y-82.385
X72.203Y-83.385
X72.203Y-84.385
X72.203Y-85.385
X72.203Y-86.385
X72.203Y-87.385
X72.203Y-88.385
X72.203Y-89.385
X72.203Y-90.385
X72.203Y-91.385
X72.203Y-92.385
X72.203Y-93.385
X72.203Y-94.385
X72.203Y-95.385
X72.203Y-96.385
X72.203Y-97.385
X72.203Y-98.385
X72.203Y-99.385
X72.403Y-56.985
X72.403Y-57.985
X72.403Y-58.985
X72.403Y-59.985
X72.403Y-60.985
X72.403Y-61.985
X72.591Y-70.949
X72.591Y-76.299
X72.591Y-79.079
X72.6Y-68.2
X72.603Y-19.185
X72.603Y-20.185
X72.603Y-21.185
X72.603Y-22.185
X72.603Y-23.185
X72.603Y-24.185
X72.603Y-25.185
X72.603Y-42.385
X72.603Y-71.785
X72.603Y-72.785
X72.603Y-73.785
X72.603Y-74.785
X72.603Y-75.585
X73.003Y-34.185
X73.003Y-38.585
X73.003Y-39.585
X73.003Y-40.585
X73.003Y-41.585
X73.003Y-46.785
X73.003Y-47.785
X73.003Y-48.785
X73.003Y-49.785
X73.003Y-50.785
X73.055Y-37.6
X73.055Y-43.0
X73.103Y-66.185
X73.103Y-67.185
X73.2Y-33.0
X73.203Y-80.385
X73.203Y-81.385
X73.203Y-82.385
X73.203Y-83.385
X73.203Y-84.385
X73.203Y-85.385
X73.203Y-86.385
X73.203Y-87.385
X73.203Y-88.385
X73.203Y-89.385
X73.203Y-90.385
X73.203Y-91.385
X73.203Y-92.385
X73.203Y-93.385
X73.203Y-94.385
X73.203Y-95.385
X73.203Y-96.385
X73.203Y-97.385
X73.203Y-98.385
X73.203Y-99.385
X73.403Y-56.985
X73.403Y-57.985
X73.403Y-58.985
X73.403Y-59.985
X73.403Y-60.985
X73.403Y-61.985
X73.603Y-19.185
X73.603Y-20.185
X73.603Y-21.185
X73.603Y-22.185
X73.603Y-23.185
X73.603Y-24.185
X73.603Y-25.185
X73.603Y-42.385
X73.603Y-71.785
X73.603Y-72.785
X73.603Y-73.785
X73.603Y-74.785
X73.603Y-75.785
X73.603Y-76.785
X73.603Y-79.185
X73.691Y-69.599
X73.791Y-77.729
X73.803Y-68.385
X73.803Y-70.385
X74.003Y-38.585
X74.003Y-39.585
X74.003Y-40.585
X74.003Y-41.585
X74.003Y-46.785
X74.003Y-47.785
X74.003Y-48.785
X74.003Y-49.785
X74.003Y-50.785
X74.025Y-44.342
X74.103Y-66.185
X74.103Y-67.185
X74.203Y-33.185
X74.203Y-34.185
X74.203Y-35.185
X74.203Y-36.185
X74.203Y-37.185
X74.203Y-43.185
X74.203Y-45.585
X74.203Y-80.385
X74.203Y-81.385
X74.203Y-82.385
X74.203Y-83.385
X74.203Y-84.385
X74.203Y-85.385
X74.203Y-86.385
X74.203Y-87.385
X74.203Y-88.385
X74.203Y-89.385
X74.203Y-90.385
X74.203Y-91.385
X74.203Y-92.385
X74.203Y-93.385
X74.203Y-94.385
X74.203Y-95.385
X74.203Y-96.385
X74.203Y-97.385
X74.203Y-98.385
X74.203Y-99.385
X74.403Y-56.985
X74.403Y-57.985
X74.403Y-58.985
X74.403Y-59.985
X74.403Y-60.985
X74.603Y-19.185
X74.603Y-20.185
X74.603Y-21.185
X74.603Y-22.185
X74.603Y-23.185
X74.603Y-24.185
X74.603Y-25.185
X74.603Y-42.385
X74.603Y-71.785
X74.603Y-72.785
X74.603Y-73.785
X74.603Y-74.785
X74.603Y-75.785
X74.803Y-43.785
X74.803Y-44.785
X74.803Y-68.385
X74.803Y-69.385
X74.803Y-70.385
X74.803Y-76.985
X74.803Y-78.185
X74.803Y-79.185
X75.003Y-38.585
X75.003Y-39.585
X75.003Y-40.585
X75.003Y-41.585
X75.003Y-46.785
X75.003Y-47.785
X75.003Y-48.785
X75.003Y-49.785
X75.003Y-50.785
X75.103Y-66.185
X75.103Y-67.185
X75.203Y-31.185
X75.203Y-32.185
X75.203Y-33.185
X75.203Y-34.185
X75.203Y-35.185
X75.203Y-36.185
X75.203Y-37.185
X75.203Y-45.585
X75.203Y-80.385
X75.203Y-81.385
X75.203Y-82.385
X75.203Y-83.385
X75.203Y-84.385
X75.203Y-85.385
X75.203Y-86.385
X75.203Y-87.385
X75.203Y-88.385
X75.203Y-89.385
X75.203Y-90.385
X75.203Y-91.385
X75.203Y-92.385
X75.203Y-93.385
X75.203Y-94.385
X75.203Y-95.385
X75.203Y-96.385
X75.203Y-97.385
X75.203Y-98.385
X75.203Y-99.385
X75.316Y-71.754
X75.403Y-42.985
X75.403Y-56.985
X75.403Y-57.985
X75.403Y-58.985
X75.403Y-59.985
X75.403Y-75.574
X75.603Y-19.185
X75.603Y-20.185
X75.603Y-21.185
X75.603Y-22.185
X75.603Y-23.185
X75.603Y-24.185
X75.603Y-25.185
X75.68Y-42.187
X75.8Y-76.8
X75.803Y-43.785
X75.803Y-44.785
X75.803Y-68.385
X75.803Y-69.385
X75.803Y-70.385
X75.803Y-78.185
X75.803Y-79.185
X76.003Y-38.367
X76.003Y-46.785
X76.003Y-47.785
X76.003Y-48.785
X76.003Y-49.785
X76.003Y-50.785
X76.003Y-65.185
X76.003Y-66.185
X76.103Y-67.185
X76.203Y-32.185
X76.203Y-33.185
X76.203Y-34.185
X76.203Y-35.185
X76.203Y-36.185
X76.203Y-37.185
X76.203Y-45.585
X76.203Y-80.385
X76.203Y-81.385
X76.203Y-82.385
X76.203Y-83.385
X76.203Y-84.385
X76.203Y-85.385
X76.203Y-86.385
X76.203Y-87.385
X76.203Y-88.385
X76.203Y-89.385
X76.203Y-90.385
X76.203Y-91.385
X76.203Y-92.385
X76.203Y-93.385
X76.203Y-94.385
X76.203Y-95.385
X76.203Y-96.385
X76.203Y-97.385
X76.203Y-98.385
X76.203Y-99.385
X76.403Y-56.985
X76.403Y-57.985
X76.403Y-58.985
X76.6Y-43.4
X76.603Y-19.185
X76.603Y-20.185
X76.603Y-21.185
X76.603Y-22.185
X76.603Y-23.185
X76.603Y-24.185
X76.603Y-25.185
X76.656Y-70.985
X76.803Y-44.785
X76.803Y-68.385
X76.803Y-69.385
X76.803Y-70.385
X76.803Y-77.185
X76.803Y-78.185
X76.803Y-79.185
X77.003Y-46.785
X77.003Y-47.785
X77.003Y-48.785
X77.003Y-49.785
X77.003Y-50.785
X77.003Y-64.185
X77.003Y-65.185
X77.003Y-66.185
X77.003Y-67.185
X77.12Y-37.585
X77.203Y-26.185
X77.203Y-33.185
X77.203Y-34.185
X77.203Y-35.185
X77.203Y-36.185
X77.203Y-80.385
X77.203Y-81.385
X77.203Y-82.385
X77.203Y-83.385
X77.203Y-84.385
X77.203Y-85.385
X77.203Y-86.385
X77.203Y-87.385
X77.203Y-88.385
X77.203Y-89.385
X77.203Y-90.385
X77.203Y-91.385
X77.203Y-92.385
X77.203Y-93.385
X77.203Y-94.385
X77.203Y-95.385
X77.203Y-96.385
X77.203Y-97.385
X77.203Y-98.385
X77.203Y-99.385
X77.403Y-44.185
X77.403Y-45.585
X77.403Y-56.985
X77.403Y-57.985
X77.603Y-19.185
X77.603Y-20.185
X77.603Y-21.185
X77.603Y-22.185
X77.603Y-23.185
X77.603Y-24.185
X77.603Y-25.185
X77.8Y-68.4
X77.803Y-69.385
X77.803Y-70.385
X77.803Y-77.185
X77.803Y-78.185
X77.803Y-79.185
X77.903Y-67.185
X77.996Y-71.754
X78.003Y-43.385
X78.003Y-44.785
X78.003Y-46.785
X78.003Y-47.785
X78.003Y-48.785
X78.003Y-49.785
X78.003Y-50.785
X78.003Y-63.185
X78.003Y-64.185
X78.003Y-65.185
X78.003Y-66.185
X78.203Y-26.185
X78.203Y-27.185
X78.203Y-34.185
X78.203Y-35.185
X78.203Y-36.185
X78.203Y-37.185
X78.203Y-80.385
X78.203Y-81.385
X78.203Y-82.385
X78.203Y-83.385
X78.203Y-84.385
X78.203Y-85.385
X78.203Y-86.385
X78.203Y-87.385
X78.203Y-94.385
X78.203Y-95.385
X78.203Y-96.385
X78.203Y-97.385
X78.203Y-98.385
X78.203Y-99.385
X78.4Y-38.4
X78.403Y-56.985
X78.403Y-57.985
X78.603Y-19.185
X78.603Y-20.185
X78.603Y-21.185
X78.603Y-22.185
X78.603Y-23.185
X78.603Y-24.185
X78.603Y-25.185
X78.603Y-44.185
X79.003Y-46.785
X79.003Y-47.785
X79.003Y-48.785
X79.003Y-49.785
X79.003Y-50.785
X79.003Y-62.185
X79.003Y-63.185
X79.003Y-64.185
X79.003Y-65.185
X79.003Y-66.185
X79.003Y-67.185
X79.003Y-68.185
X79.003Y-69.185
X79.003Y-70.185
X79.003Y-71.185
X79.203Y-26.185
X79.203Y-27.185
X79.203Y-28.185
X79.203Y-78.385
X79.203Y-79.385
X79.203Y-80.385
X79.203Y-81.385
X79.203Y-82.385
X79.203Y-83.385
X79.203Y-84.385
X79.203Y-85.385
X79.203Y-86.385
X79.203Y-94.385
X79.203Y-95.385
X79.203Y-96.385
X79.203Y-97.385
X79.203Y-98.385
X79.203Y-99.385
X79.403Y-56.985
X79.403Y-57.985
X79.527Y-77.385
X79.603Y-19.185
X79.603Y-20.185
X79.603Y-21.185
X79.603Y-22.185
X79.603Y-23.185
X79.603Y-24.185
X79.603Y-25.185
X79.953Y-44.885
X79.953Y-45.885
X79.953Y-46.785
X80.003Y-42.785
X80.003Y-43.785
X80.003Y-43.785
X80.003Y-47.785
X80.003Y-48.785
X80.003Y-49.785
X80.003Y-50.785
X80.003Y-62.185
X80.003Y-63.185
X80.003Y-64.185
X80.003Y-65.185
X80.003Y-66.185
X80.003Y-67.185
X80.003Y-68.185
X80.003Y-69.185
X80.003Y-70.185
X80.003Y-71.185
X80.127Y-76.785
X80.203Y-26.185
X80.203Y-27.185
X80.203Y-28.185
X80.203Y-29.185
X80.203Y-78.385
X80.203Y-79.385
X80.203Y-80.385
X80.203Y-81.385
X80.203Y-82.385
X80.203Y-83.385
X80.203Y-84.385
X80.203Y-85.385
X80.203Y-86.385
X80.203Y-94.385
X80.203Y-95.385
X80.203Y-96.385
X80.203Y-97.385
X80.203Y-98.385
X80.203Y-99.385
X80.327Y-54.985
X80.403Y-56.985
X80.403Y-57.985
X80.527Y-77.385
X80.603Y-19.185
X80.603Y-20.185
X80.603Y-21.185
X80.603Y-22.185
X80.603Y-23.185
X80.603Y-24.185
X80.603Y-25.185
X80.953Y-44.885
X80.953Y-45.885
X80.953Y-46.785
X81.003Y-42.785
X81.003Y-43.785
X81.003Y-43.785
X81.003Y-47.785
X81.003Y-48.785
X81.003Y-49.785
X81.003Y-50.785
X81.003Y-62.185
X81.003Y-63.185
X81.003Y-64.185
X81.003Y-65.185
X81.003Y-66.185
X81.003Y-67.185
X81.003Y-68.185
X81.003Y-69.185
X81.003Y-70.185
X81.003Y-71.185
X81.203Y-26.185
X81.203Y-27.185
X81.203Y-28.185
X81.203Y-29.185
X81.203Y-30.185
X81.203Y-78.385
X81.203Y-79.385
X81.203Y-80.385
X81.203Y-81.385
X81.203Y-82.385
X81.203Y-83.385
X81.203Y-84.385
X81.203Y-85.385
X81.203Y-86.385
X81.203Y-94.385
X81.203Y-95.385
X81.203Y-96.385
X81.203Y-97.385
X81.203Y-98.385
X81.203Y-99.385
X81.403Y-56.985
X81.403Y-57.985
X81.527Y-76.385
X81.527Y-77.385
X81.603Y-19.185
X81.603Y-20.185
X81.603Y-21.185
X81.603Y-22.185
X81.603Y-23.185
X81.603Y-24.185
X81.603Y-25.185
X81.953Y-44.885
X81.953Y-45.885
X81.953Y-46.785
X82.003Y-42.785
X82.003Y-43.785
X82.003Y-43.785
X82.003Y-47.785
X82.003Y-48.785
X82.003Y-49.785
X82.003Y-50.785
X82.003Y-51.785
X82.003Y-62.185
X82.003Y-63.185
X82.003Y-64.185
X82.003Y-65.185
X82.003Y-66.185
X82.003Y-67.185
X82.003Y-68.185
X82.003Y-69.185
X82.003Y-70.185
X82.003Y-71.185
X82.203Y-26.185
X82.203Y-27.185
X82.203Y-28.185
X82.203Y-29.185
X82.203Y-30.185
X82.203Y-31.185
X82.203Y-78.385
X82.203Y-79.385
X82.203Y-80.385
X82.203Y-81.385
X82.203Y-82.385
X82.203Y-83.385
X82.203Y-84.385
X82.203Y-85.385
X82.203Y-86.385
X82.203Y-94.385
X82.203Y-95.385
X82.203Y-96.385
X82.203Y-97.385
X82.203Y-98.385
X82.203Y-99.385
X82.403Y-57.985
X82.503Y-34.085
X82.527Y-76.385
X82.527Y-77.385
X82.603Y-19.185
X82.603Y-20.185
X82.603Y-21.185
X82.603Y-22.185
X82.603Y-23.185
X82.603Y-24.185
X82.603Y-25.185
X83.003Y-42.785
X83.003Y-43.785
X83.003Y-43.785
X83.003Y-47.785
X83.003Y-48.785
X83.003Y-49.785
X83.003Y-50.785
X83.003Y-51.785
X83.053Y-44.885
X83.053Y-45.885
X83.053Y-46.785
X83.203Y-26.185
X83.203Y-27.185
X83.203Y-28.185
X83.203Y-29.185
X83.203Y-30.185
X83.203Y-31.185
X83.203Y-32.185
X83.203Y-33.185
X83.203Y-78.385
X83.203Y-79.385
X83.203Y-80.385
X83.203Y-81.385
X83.203Y-82.385
X83.203Y-83.385
X83.203Y-84.385
X83.203Y-85.385
X83.203Y-86.385
X83.203Y-94.385
X83.203Y-95.385
X83.203Y-96.385
X83.203Y-97.385
X83.203Y-98.385
X83.203Y-99.385
X83.403Y-52.785
X83.527Y-76.385
X83.527Y-77.385
X83.603Y-19.185
X83.603Y-20.185
X83.603Y-21.185
X83.603Y-22.185
X83.603Y-23.185
X83.603Y-24.185
X83.603Y-25.185
X84.003Y-42.785
X84.003Y-43.785
X84.003Y-43.785
X84.003Y-47.785
X84.003Y-48.785
X84.003Y-49.785
X84.003Y-50.785
X84.003Y-51.785
X84.053Y-44.885
X84.053Y-45.885
X84.053Y-46.785
X84.203Y-26.185
X84.203Y-27.185
X84.203Y-28.185
X84.203Y-29.185
X84.203Y-30.185
X84.203Y-31.185
X84.203Y-32.185
X84.203Y-33.185
X84.203Y-34.185
X84.203Y-78.385
X84.203Y-79.385
X84.203Y-80.385
X84.203Y-81.385
X84.203Y-82.385
X84.203Y-83.385
X84.203Y-84.385
X84.203Y-85.385
X84.203Y-86.385
X84.203Y-94.385
X84.203Y-95.385
X84.203Y-96.385
X84.203Y-97.385
X84.203Y-98.385
X84.203Y-99.385
X84.327Y-54.985
X84.403Y-52.785
X84.523Y-58.737
X84.523Y-61.467
X84.527Y-76.385
X84.527Y-77.385
X84.603Y-19.185
X84.603Y-20.185
X84.603Y-21.185
X84.603Y-22.185
X84.603Y-23.185
X84.603Y-24.185
X84.603Y-25.185
X85.003Y-42.785
X85.003Y-43.785
X85.003Y-43.785
X85.003Y-47.785
X85.003Y-48.785
X85.003Y-49.785
X85.003Y-50.785
X85.003Y-51.785
X85.053Y-44.885
X85.053Y-45.885
X85.053Y-46.785
X85.203Y-26.185
X85.203Y-27.185
X85.203Y-28.185
X85.203Y-29.185
X85.203Y-30.185
X85.203Y-31.185
X85.203Y-32.185
X85.203Y-33.185
X85.203Y-34.185
X85.203Y-78.385
X85.203Y-79.385
X85.203Y-80.385
X85.203Y-81.385
X85.203Y-82.385
X85.203Y-83.385
X85.203Y-84.385
X85.203Y-85.385
X85.203Y-86.385
X85.203Y-94.385
X85.203Y-95.385
X85.203Y-96.385
X85.203Y-97.385
X85.203Y-98.385
X85.203Y-99.385
X85.403Y-52.785
X85.527Y-76.385
X85.527Y-77.385
X85.603Y-19.185
X85.603Y-20.185
X85.603Y-21.185
X85.603Y-22.185
X85.603Y-23.185
X85.603Y-24.185
X85.603Y-25.185
X85.603Y-87.385
X85.603Y-88.385
X85.603Y-89.385
X85.603Y-90.385
X85.603Y-91.385
X85.603Y-92.385
X85.803Y-93.385
X85.953Y-44.885
X85.953Y-45.885
X85.953Y-46.785
X86.003Y-42.785
X86.003Y-43.785
X86.003Y-43.785
X86.003Y-47.785
X86.003Y-48.785
X86.003Y-49.785
X86.003Y-50.785
X86.003Y-51.785
X86.203Y-26.185
X86.203Y-27.185
X86.203Y-28.185
X86.203Y-29.185
X86.203Y-30.185
X86.203Y-31.185
X86.203Y-32.185
X86.203Y-33.185
X86.203Y-34.185
X86.203Y-35.185
X86.203Y-78.385
X86.203Y-79.385
X86.203Y-80.385
X86.203Y-81.385
X86.203Y-82.385
X86.203Y-83.385
X86.203Y-84.385
X86.203Y-85.385
X86.203Y-86.385
X86.203Y-94.385
X86.203Y-95.385
X86.203Y-96.385
X86.203Y-97.385
X86.203Y-98.385
X86.203Y-99.385
X86.403Y-52.785
X86.527Y-76.385
X86.527Y-77.385
X86.603Y-19.185
X86.603Y-20.185
X86.603Y-21.185
X86.603Y-22.185
X86.603Y-23.185
X86.603Y-24.185
X86.603Y-25.185
X86.803Y-93.385
X87.003Y-42.785
X87.003Y-43.785
X87.003Y-43.785
X87.003Y-47.785
X87.003Y-48.785
X87.003Y-49.785
X87.003Y-50.785
X87.003Y-51.785
X87.003Y-62.185
X87.053Y-44.885
X87.053Y-45.885
X87.053Y-46.785
X87.203Y-26.185
X87.203Y-27.185
X87.203Y-28.185
X87.203Y-29.185
X87.203Y-30.185
X87.203Y-31.185
X87.203Y-32.185
X87.203Y-33.185
X87.203Y-34.185
X87.203Y-35.185
X87.203Y-78.385
X87.203Y-79.385
X87.203Y-80.385
X87.203Y-81.385
X87.203Y-82.385
X87.203Y-83.385
X87.203Y-84.385
X87.203Y-85.385
X87.203Y-94.385
X87.203Y-95.385
X87.203Y-96.385
X87.203Y-97.385
X87.203Y-98.385
X87.203Y-99.385
X87.253Y-73.537
X87.403Y-52.785
X87.527Y-76.385
X87.527Y-77.385
X87.603Y-19.185
X87.603Y-20.185
X87.603Y-21.185
X87.603Y-22.185
X87.603Y-23.185
X87.603Y-24.185
X87.603Y-25.185
X87.803Y-93.385
X88.003Y-42.785
X88.003Y-43.785
X88.003Y-43.785
X88.003Y-47.785
X88.003Y-48.785
X88.003Y-49.785
X88.003Y-50.785
X88.003Y-51.785
X88.053Y-44.885
X88.053Y-45.885
X88.053Y-46.785
X88.203Y-26.185
X88.203Y-27.185
X88.203Y-28.185
X88.203Y-29.185
X88.203Y-30.185
X88.203Y-31.185
X88.203Y-32.185
X88.203Y-33.185
X88.203Y-34.185
X88.203Y-35.185
X88.203Y-75.287
X88.203Y-78.385
X88.203Y-79.385
X88.203Y-80.385
X88.203Y-81.385
X88.203Y-82.385
X88.203Y-83.385
X88.203Y-84.385
X88.203Y-94.385
X88.203Y-95.385
X88.203Y-96.385
X88.203Y-97.385
X88.203Y-98.385
X88.203Y-99.385
X88.277Y-72.235
X88.382Y-62.362
X88.403Y-52.785
X88.527Y-76.385
X88.527Y-77.385
X88.603Y-19.185
X88.603Y-20.185
X88.603Y-21.185
X88.603Y-22.185
X88.603Y-23.185
X88.603Y-24.185
X88.603Y-25.185
X88.803Y-93.385
X89.003Y-42.785
X89.003Y-43.785
X89.003Y-43.785
X89.003Y-47.785
X89.003Y-48.785
X89.003Y-49.785
X89.003Y-50.785
X89.003Y-51.785
X89.053Y-44.885
X89.053Y-45.885
X89.053Y-46.785
X89.203Y-26.185
X89.203Y-27.185
X89.203Y-28.185
X89.203Y-29.185
X89.203Y-30.185
X89.203Y-31.185
X89.203Y-32.185
X89.203Y-33.185
X89.203Y-34.185
X89.203Y-35.185
X89.203Y-78.385
X89.203Y-79.385
X89.203Y-80.385
X89.203Y-81.385
X89.203Y-82.385
X89.203Y-83.385
X89.203Y-94.385
X89.203Y-95.385
X89.203Y-96.385
X89.203Y-97.385
X89.203Y-98.385
X89.203Y-99.385
X89.327Y-73.385
X89.327Y-74.185
X89.363Y-70.95
X89.403Y-76.585
X89.527Y-77.385
X89.603Y-19.185
X89.603Y-20.185
X89.603Y-21.185
X89.603Y-22.185
X89.603Y-23.185
X89.603Y-24.185
X89.603Y-25.185
X89.803Y-93.385
X90.003Y-42.785
X90.003Y-43.785
X90.003Y-44.785
X90.003Y-45.785
X90.003Y-46.785
X90.003Y-47.785
X90.003Y-62.385
X90.003Y-63.385
X90.103Y-48.785
X90.103Y-49.785
X90.103Y-50.785
X90.103Y-51.785
X90.127Y-70.985
X90.127Y-73.385
X90.127Y-74.185
X90.127Y-76.585
X90.203Y-26.185
X90.203Y-27.185
X90.203Y-28.185
X90.203Y-29.185
X90.203Y-30.185
X90.203Y-31.185
X90.203Y-32.185
X90.203Y-33.185
X90.203Y-34.185
X90.203Y-35.185
X90.203Y-78.385
X90.203Y-79.385
X90.203Y-80.385
X90.203Y-81.385
X90.203Y-82.385
X90.203Y-94.385
X90.203Y-95.385
X90.203Y-96.385
X90.203Y-97.385
X90.203Y-98.385
X90.203Y-99.385
X90.527Y-77.385
X90.603Y-19.185
X90.603Y-20.185
X90.603Y-21.185
X90.603Y-22.185
X90.603Y-23.185
X90.603Y-24.185
X90.603Y-25.185
X90.603Y-64.385
X90.803Y-88.385
X90.803Y-89.385
X90.803Y-90.385
X90.803Y-91.385
X90.803Y-92.385
X90.803Y-93.385
X90.927Y-58.185
X90.927Y-76.385
X91.003Y-42.785
X91.003Y-43.785
X91.003Y-44.785
X91.003Y-45.785
X91.003Y-46.785
X91.003Y-46.785
X91.003Y-47.785
X91.003Y-47.785
X91.103Y-48.785
X91.103Y-49.785
X91.103Y-50.785
X91.103Y-50.785
X91.103Y-51.785
X91.103Y-51.785
X91.203Y-26.185
X91.203Y-27.185
X91.203Y-28.185
X91.203Y-29.185
X91.203Y-30.185
X91.203Y-31.185
X91.203Y-32.185
X91.203Y-33.185
X91.203Y-34.185
X91.203Y-35.185
X91.203Y-78.385
X91.203Y-79.385
X91.203Y-80.385
X91.203Y-81.385
X91.203Y-94.385
X91.203Y-95.385
X91.203Y-96.385
X91.203Y-97.385
X91.203Y-98.385
X91.203Y-99.385
X91.244Y-75.357
X91.277Y-72.335
X91.372Y-63.385
X91.403Y-87.185
X91.527Y-77.385
X91.603Y-19.185
X91.603Y-20.185
X91.603Y-21.185
X91.603Y-22.185
X91.603Y-23.185
X91.603Y-24.185
X91.603Y-25.185
X91.603Y-64.385
X91.603Y-65.385
X91.703Y-52.785
X91.903Y-42.785
X91.903Y-43.785
X91.903Y-44.785
X91.903Y-44.785
X91.903Y-45.785
X92.003Y-46.785
X92.003Y-47.785
X92.003Y-48.785
X92.003Y-48.785
X92.003Y-49.785
X92.103Y-50.785
X92.103Y-51.785
X92.123Y-73.6
X92.203Y-26.185
X92.203Y-27.185
X92.203Y-28.185
X92.203Y-29.185
X92.203Y-30.185
X92.203Y-31.185
X92.203Y-32.185
X92.203Y-33.185
X92.203Y-34.185
X92.203Y-35.185
X92.203Y-78.385
X92.203Y-79.385
X92.203Y-86.385
X92.203Y-94.385
X92.203Y-95.385
X92.203Y-96.385
X92.203Y-97.385
X92.203Y-98.385
X92.203Y-99.385
X92.403Y-80.385
X92.527Y-77.385
X92.603Y-19.185
X92.603Y-20.185
X92.603Y-21.185
X92.603Y-22.185
X92.603Y-23.185
X92.603Y-24.185
X92.603Y-25.185
X92.603Y-52.785
X92.603Y-62.385
X92.603Y-63.385
X92.603Y-64.385
X92.603Y-65.385
X92.903Y-42.785
X92.903Y-43.785
X92.903Y-44.785
X92.903Y-44.785
X92.903Y-45.785
X92.903Y-46.785
X92.903Y-47.785
X93.003Y-48.785
X93.003Y-48.785
X93.003Y-49.785
X93.003Y-50.785
X93.003Y-51.785
X93.203Y-26.185
X93.203Y-27.185
X93.203Y-28.185
X93.203Y-29.185
X93.203Y-30.185
X93.203Y-31.185
X93.203Y-32.185
X93.203Y-33.185
X93.203Y-34.185
X93.203Y-78.385
X93.203Y-79.385
X93.203Y-85.385
X93.203Y-86.385
X93.203Y-94.385
X93.203Y-95.385
X93.203Y-96.385
X93.203Y-97.385
X93.203Y-98.385
X93.203Y-99.385
X93.403Y-61.385
X93.527Y-77.385
X93.603Y-19.185
X93.603Y-20.185
X93.603Y-21.185
X93.603Y-22.185
X93.603Y-23.185
X93.603Y-24.185
X93.603Y-25.185
X93.603Y-52.785
X93.603Y-64.385
X93.603Y-65.385
X94.003Y-42.785
X94.003Y-43.785
X94.003Y-44.785
X94.003Y-45.785
X94.003Y-46.785
X94.003Y-47.785
X94.003Y-48.785
X94.003Y-49.785
X94.003Y-50.785
X94.003Y-51.785
X94.203Y-26.185
X94.203Y-27.185
X94.203Y-28.185
X94.203Y-29.185
X94.203Y-30.185
X94.203Y-31.185
X94.203Y-32.185
X94.203Y-33.185
X94.203Y-34.185
X94.203Y-78.385
X94.203Y-84.385
X94.203Y-85.385
X94.203Y-86.385
X94.203Y-94.385
X94.203Y-95.385
X94.203Y-96.385
X94.203Y-97.385
X94.203Y-98.385
X94.203Y-99.385
X94.273Y-55.297
X94.273Y-57.487
X94.527Y-77.385
X94.603Y-19.185
X94.603Y-20.185
X94.603Y-21.185
X94.603Y-22.185
X94.603Y-23.185
X94.603Y-24.185
X94.603Y-25.185
X94.927Y-66.385
X94.927Y-70.785
X95.003Y-43.785
X95.003Y-44.785
X95.003Y-45.785
X95.003Y-46.785
X95.003Y-47.785
X95.003Y-48.785
X95.003Y-49.785
X95.003Y-50.785
X95.003Y-51.785
X95.203Y-26.185
X95.203Y-27.185
X95.203Y-28.185
X95.203Y-29.185
X95.203Y-30.185
X95.203Y-31.185
X95.203Y-32.185
X95.203Y-33.185
X95.203Y-34.185
X95.203Y-83.385
X95.203Y-84.385
X95.203Y-85.385
X95.203Y-86.385
X95.203Y-94.385
X95.203Y-95.385
X95.203Y-96.385
X95.203Y-97.385
X95.203Y-98.385
X95.203Y-99.385
X95.213Y-54.0
X95.213Y-59.137
X95.353Y-42.185
X95.403Y-39.337
X95.603Y-19.185
X95.603Y-20.185
X95.603Y-21.185
X95.603Y-22.185
X95.603Y-23.185
X95.603Y-24.185
X95.603Y-25.185
X95.603Y-77.385
X95.8Y-38.0
X96.003Y-44.785
X96.003Y-45.785
X96.003Y-46.785
X96.003Y-47.785
X96.003Y-48.785
X96.003Y-49.785
X96.003Y-50.785
X96.003Y-51.785
X96.1Y-43.137
X96.203Y-26.185
X96.203Y-27.185
X96.203Y-28.185
X96.203Y-29.185
X96.203Y-30.185
X96.203Y-31.185
X96.203Y-32.185
X96.203Y-33.185
X96.203Y-34.185
X96.203Y-82.385
X96.203Y-83.385
X96.203Y-84.385
X96.203Y-85.385
X96.203Y-86.385
X96.203Y-94.385
X96.203Y-95.385
X96.203Y-96.385
X96.203Y-97.385
X96.203Y-98.385
X96.203Y-99.385
X96.603Y-19.185
X96.603Y-20.185
X96.603Y-21.185
X96.603Y-22.185
X96.603Y-23.185
X96.603Y-24.185
X96.603Y-25.185
X96.75Y-37.985
X96.75Y-43.637
X97.003Y-44.785
X97.003Y-45.785
X97.003Y-46.785
X97.003Y-47.785
X97.003Y-48.785
X97.003Y-49.785
X97.003Y-50.785
X97.003Y-51.785
X97.203Y-26.185
X97.203Y-27.185
X97.203Y-28.185
X97.203Y-29.185
X97.203Y-30.185
X97.203Y-31.185
X97.203Y-32.185
X97.203Y-33.185
X97.203Y-34.185
X97.203Y-81.385
X97.203Y-82.385
X97.203Y-83.385
X97.203Y-84.385
X97.203Y-85.385
X97.203Y-86.385
X97.203Y-94.385
X97.203Y-95.385
X97.203Y-96.385
X97.203Y-97.385
X97.203Y-98.385
X97.203Y-99.385
X97.4Y-43.287
X97.403Y-60.385
X97.403Y-61.385
X97.403Y-62.385
X97.6Y-37.997
X97.603Y-19.185
X97.603Y-20.185
X97.603Y-21.185
X97.603Y-22.185
X97.603Y-23.185
X97.603Y-24.185
X97.603Y-25.185
X97.923Y-54.385
X97.923Y-57.8
X98.003Y-43.785
X98.003Y-44.785
X98.003Y-45.785
X98.003Y-46.785
X98.003Y-47.785
X98.003Y-48.785
X98.003Y-49.785
X98.003Y-50.785
X98.003Y-51.785
X98.203Y-26.185
X98.203Y-27.185
X98.203Y-28.185
X98.203Y-29.185
X98.203Y-30.185
X98.203Y-31.185
X98.203Y-32.185
X98.203Y-33.185
X98.203Y-34.185
X98.203Y-39.385
X98.203Y-42.235
X98.203Y-80.385
X98.203Y-81.385
X98.203Y-82.385
X98.203Y-83.385
X98.203Y-84.385
X98.203Y-85.385
X98.203Y-86.385
X98.203Y-94.385
X98.203Y-95.385
X98.203Y-96.385
X98.203Y-97.385
X98.203Y-98.385
X98.203Y-99.385
X98.403Y-60.385
X98.403Y-61.385
X98.403Y-62.385
X98.403Y-63.385
X98.603Y-19.185
X98.603Y-20.185
X98.603Y-21.185
X98.603Y-22.185
X98.603Y-23.185
X98.603Y-24.185
X98.603Y-25.185
X98.702Y-74.36
X98.727Y-70.185
X99.003Y-43.785
X99.003Y-44.785
X99.003Y-45.785
X99.003Y-46.785
X99.003Y-47.785
X99.003Y-48.785
X99.003Y-49.785
X99.003Y-50.785
X99.203Y-26.185
X99.203Y-27.185
X99.203Y-28.185
X99.203Y-29.185
X99.203Y-30.185
X99.203Y-31.185
X99.203Y-32.185
X99.203Y-33.185
X99.203Y-34.185
X99.203Y-79.385
X99.203Y-80.385
X99.203Y-81.385
X99.203Y-82.385
X99.203Y-83.385
X99.203Y-84.385
X99.203Y-85.385
X99.203Y-86.385
X99.203Y-87.385
X99.203Y-88.385
X99.203Y-89.385
X99.203Y-90.385
X99.203Y-91.385
X99.203Y-92.385
X99.203Y-93.385
X99.203Y-94.385
X99.203Y-95.385
X99.203Y-96.385
X99.203Y-97.385
X99.203Y-98.385
X99.203Y-99.385
X99.403Y-59.385
X99.403Y-60.385
X99.403Y-61.385
X99.403Y-62.385
X99.403Y-63.385
X99.403Y-64.385
X99.403Y-65.385
X99.403Y-66.385
X99.403Y-67.385
X99.403Y-68.385
X99.403Y-69.385
X99.6Y-41.8
X99.603Y-19.185
X99.603Y-20.185
X99.603Y-21.185
X99.603Y-22.185
X99.603Y-23.185
X99.603Y-24.185
X99.603Y-25.185
X99.8Y-40.8
X100.203Y-26.185
X100.203Y-27.185
X100.203Y-28.185
X100.203Y-29.185
X100.203Y-30.185
X100.203Y-31.185
X100.203Y-32.185
X100.203Y-33.185
X100.203Y-34.185
X100.203Y-78.385
X100.203Y-79.385
X100.203Y-80.385
X100.203Y-81.385
X100.203Y-82.385
X100.203Y-83.385
X100.203Y-84.385
X100.203Y-85.385
X100.203Y-86.385
X100.203Y-87.385
X100.203Y-88.385
X100.203Y-89.385
X100.203Y-90.385
X100.203Y-91.385
X100.203Y-92.385
X100.203Y-93.385
X100.203Y-94.385
X100.203Y-95.385
X100.203Y-96.385
X100.203Y-97.385
X100.203Y-98.385
X100.203Y-99.385
X100.603Y-19.185
X100.603Y-20.185
X100.603Y-21.185
X100.603Y-22.185
X100.603Y-23.185
X100.603Y-24.185
X100.603Y-25.185
X100.803Y-54.385
X101.203Y-26.185
X101.203Y-27.185
X101.203Y-28.185
X101.203Y-29.185
X101.203Y-30.185
X101.203Y-31.185
X101.203Y-32.185
X101.203Y-33.185
X101.203Y-34.185
X101.203Y-35.185
X101.203Y-77.385
X101.203Y-78.385
X101.203Y-79.385
X101.203Y-80.385
X101.203Y-81.385
X101.203Y-82.385
X101.203Y-83.385
X101.203Y-84.385
X101.203Y-85.385
X101.203Y-86.385
X101.203Y-87.385
X101.203Y-88.385
X101.203Y-89.385
X101.203Y-90.385
X101.203Y-91.385
X101.203Y-92.385
X101.203Y-93.385
X101.203Y-94.385
X101.203Y-95.385
X101.203Y-96.385
X101.203Y-97.385
X101.203Y-98.385
X101.203Y-99.385
X101.603Y-19.185
X101.603Y-20.185
X101.603Y-21.185
X101.603Y-22.185
X101.603Y-23.185
X101.603Y-24.185
X101.603Y-25.185
X102.003Y-53.485
X102.003Y-54.485
X102.003Y-55.385
X102.203Y-26.185
X102.203Y-27.185
X102.203Y-28.185
X102.203Y-29.185
X102.203Y-30.185
X102.203Y-31.185
X102.203Y-32.185
X102.203Y-33.185
X102.203Y-34.185
X102.203Y-35.185
X102.203Y-36.185
X102.203Y-77.385
X102.203Y-78.385
X102.203Y-79.385
X102.203Y-80.385
X102.203Y-81.385
X102.203Y-82.385
X102.203Y-83.385
X102.203Y-84.385
X102.203Y-85.385
X102.203Y-86.385
X102.203Y-87.385
X102.203Y-88.385
X102.203Y-89.385
X102.203Y-90.385
X102.203Y-91.385
X102.203Y-92.385
X102.203Y-93.385
X102.203Y-94.385
X102.203Y-95.385
X102.203Y-96.385
X102.203Y-97.385
X102.203Y-98.385
X102.203Y-99.385
X102.603Y-19.185
X102.603Y-20.185
X102.603Y-21.185
X102.603Y-22.185
X102.603Y-23.185
X102.603Y-24.185
X102.603Y-25.185
X103.153Y-53.485
X103.153Y-54.485
X103.153Y-55.385
X103.203Y-26.185
X103.203Y-27.185
X103.203Y-28.185
X103.203Y-29.185
X103.203Y-30.185
X103.203Y-31.185
X103.203Y-32.185
X103.203Y-33.185
X103.203Y-34.185
X103.203Y-35.185
X103.203Y-36.185
X103.203Y-37.185
X103.203Y-52.385
X103.203Y-52.385
X103.203Y-56.385
X103.203Y-76.385
X103.203Y-77.385
X103.203Y-78.385
X103.203Y-79.385
X103.203Y-80.385
X103.203Y-81.385
X103.203Y-82.385
X103.203Y-83.385
X103.203Y-84.385
X103.203Y-85.385
X103.203Y-86.385
X103.203Y-87.385
X103.203Y-88.385
X103.203Y-89.385
X103.203Y-90.385
X103.203Y-91.385
X103.203Y-92.385
X103.203Y-93.385
X103.203Y-94.385
X103.203Y-95.385
X103.203Y-96.385
X103.203Y-97.385
X103.203Y-98.385
X103.203Y-99.385
X103.603Y-19.185
X103.603Y-20.185
X103.603Y-21.185
X103.603Y-22.185
X103.603Y-23.185
X103.603Y-24.185
X103.603Y-25.185
X104.153Y-53.485
X104.153Y-54.485
X104.153Y-55.385
X104.203Y-26.185
X104.203Y-27.185
X104.203Y-28.185
X104.203Y-29.185
X104.203Y-30.185
X104.203Y-31.185
X104.203Y-32.185
X104.203Y-33.185
X104.203Y-34.185
X104.203Y-35.185
X104.203Y-36.185
X104.203Y-37.185
X104.203Y-38.185
X104.203Y-39.185
X104.203Y-40.185
X104.203Y-41.185
X104.203Y-42.185
X104.203Y-43.185
X104.203Y-44.185
X104.203Y-45.185
X104.203Y-47.185
X104.203Y-48.185
X104.203Y-48.185
X104.203Y-49.185
X104.203Y-50.185
X104.203Y-50.185
X104.203Y-51.385
X104.203Y-52.385
X104.203Y-52.385
X104.203Y-56.385
X104.203Y-57.385
X104.203Y-58.385
X104.203Y-59.385
X104.203Y-60.385
X104.203Y-61.385
X104.203Y-62.385
X104.203Y-63.385
X104.203Y-64.385
X104.203Y-65.385
X104.203Y-66.385
X104.203Y-67.385
X104.203Y-68.385
X104.203Y-69.385
X104.203Y-70.385
X104.203Y-71.385
X104.203Y-72.385
X104.203Y-73.385
X104.203Y-74.385
X104.203Y-75.385
X104.203Y-76.385
X104.203Y-77.385
X104.203Y-78.385
X104.203Y-79.385
X104.203Y-80.385
X104.203Y-81.385
X104.203Y-82.385
X104.203Y-83.385
X104.203Y-84.385
X104.203Y-85.385
X104.203Y-86.385
X104.203Y-87.385
X104.203Y-88.385
X104.203Y-89.385
X104.203Y-90.385
X104.203Y-91.385
X104.203Y-92.385
X104.203Y-93.385
X104.203Y-94.385
X104.203Y-95.385
X104.203Y-96.385
X104.203Y-97.385
X104.203Y-98.385
X104.203Y-99.385
X104.403Y-45.985
X104.603Y-19.185
X104.603Y-20.185
X104.603Y-21.185
X104.603Y-24.185
X104.603Y-25.185
X105.153Y-53.485
X105.153Y-54.485
X105.153Y-55.385
X105.203Y-26.185
X105.203Y-27.185
X105.203Y-28.185
X105.203Y-29.185
X105.203Y-30.185
X105.203Y-31.185
X105.203Y-32.185
X105.203Y-33.185
X105.203Y-34.185
X105.203Y-35.185
X105.203Y-36.185
X105.203Y-37.185
X105.203Y-38.185
X105.203Y-39.185
X105.203Y-40.185
X105.203Y-41.185
X105.203Y-42.185
X105.203Y-43.185
X105.203Y-44.185
X105.203Y-45.185
X105.203Y-46.185
X105.203Y-47.185
X105.203Y-48.185
X105.203Y-48.185
X105.203Y-49.185
X105.203Y-50.185
X105.203Y-50.185
X105.203Y-51.385
X105.203Y-52.385
X105.203Y-52.385
X105.203Y-56.385
X105.203Y-57.385
X105.203Y-58.385
X105.203Y-59.385
X105.203Y-60.385
X105.203Y-61.385
X105.203Y-62.385
X105.203Y-63.385
X105.203Y-64.385
X105.203Y-65.385
X105.203Y-66.385
X105.203Y-67.385
X105.203Y-68.385
X105.203Y-69.385
X105.203Y-70.385
X105.203Y-71.385
X105.203Y-72.385
X105.203Y-73.385
X105.203Y-74.385
X105.203Y-75.385
X105.203Y-76.385
X105.203Y-77.385
X105.203Y-78.385
X105.203Y-79.385
X105.203Y-80.385
X105.203Y-81.385
X105.203Y-82.385
X105.203Y-83.385
X105.203Y-84.385
X105.203Y-85.385
X105.203Y-86.385
X105.203Y-87.385
X105.203Y-88.385
X105.203Y-89.385
X105.203Y-90.385
X105.203Y-91.385
X105.203Y-92.385
X105.203Y-93.385
X105.203Y-98.385
X105.203Y-99.385
X105.603Y-19.185
X106.153Y-53.485
X106.153Y-54.485
X106.153Y-55.385
X106.203Y-27.185
X106.203Y-28.185
X106.203Y-29.185
X106.203Y-30.185
X106.203Y-31.185
X106.203Y-32.185
X106.203Y-33.185
X106.203Y-34.185
X106.203Y-35.185
X106.203Y-36.185
X106.203Y-37.185
X106.203Y-37.185
X106.203Y-38.185
X106.203Y-39.185
X106.203Y-40.185
X106.203Y-41.185
X106.203Y-42.185
X106.203Y-42.185
X106.203Y-43.185
X106.203Y-44.185
X106.203Y-45.185
X106.203Y-46.185
X106.203Y-47.185
X106.203Y-48.185
X106.203Y-48.185
X106.203Y-49.185
X106.203Y-50.185
X106.203Y-50.185
X106.203Y-51.385
X106.203Y-52.385
X106.203Y-52.385
X106.203Y-56.385
X106.203Y-57.385
X106.203Y-58.385
X106.203Y-59.385
X106.203Y-60.385
X106.203Y-61.385
X106.203Y-62.385
X106.203Y-63.385
X106.203Y-64.385
X106.203Y-65.385
X106.203Y-66.385
X106.203Y-67.385
X106.203Y-68.385
X106.203Y-69.385
X106.203Y-70.385
X106.203Y-71.385
X106.203Y-72.385
X106.203Y-73.385
X106.203Y-74.385
X106.203Y-75.385
X106.203Y-76.385
X106.203Y-77.385
X106.203Y-78.385
X106.203Y-79.385
X106.203Y-80.385
X106.203Y-81.385
X106.203Y-82.385
X106.203Y-83.385
X106.203Y-84.385
X106.203Y-85.385
X106.203Y-86.385
X106.203Y-87.385
X106.203Y-88.385
X106.203Y-89.385
X106.203Y-90.385
X106.203Y-91.385
X106.203Y-92.385
X106.203Y-99.385
X107.153Y-53.485
X107.153Y-54.485
X107.153Y-55.385
X107.203Y-27.185
X107.203Y-28.185
X107.203Y-29.185
X107.203Y-30.185
X107.203Y-31.185
X107.203Y-32.185
X107.203Y-33.185
X107.203Y-34.185
X107.203Y-35.185
X107.203Y-36.185
X107.203Y-37.185
X107.203Y-37.185
X107.203Y-38.185
X107.203Y-39.185
X107.203Y-40.185
X107.203Y-41.185
X107.203Y-42.185
X107.203Y-42.185
X107.203Y-43.185
X107.203Y-44.185
X107.203Y-44.185
X107.203Y-45.185
X107.203Y-46.185
X107.203Y-47.185
X107.203Y-48.185
X107.203Y-48.185
X107.203Y-49.185
X107.203Y-50.185
X107.203Y-50.185
X107.203Y-51.385
X107.203Y-52.385
X107.203Y-52.385
X107.203Y-56.385
X107.203Y-57.385
X107.203Y-58.385
X107.203Y-59.385
X107.203Y-60.385
X107.203Y-61.385
X107.203Y-62.385
X107.203Y-63.385
X107.203Y-64.385
X107.203Y-65.385
X107.203Y-66.385
X107.203Y-67.385
X107.203Y-68.385
X107.203Y-69.385
X107.203Y-70.385
X107.203Y-71.385
X107.203Y-72.385
X107.203Y-73.385
X107.203Y-74.385
X107.203Y-75.385
X107.203Y-76.385
X107.203Y-77.385
X107.203Y-78.385
X107.203Y-79.385
X107.203Y-80.385
X107.203Y-81.385
X107.203Y-82.385
X107.203Y-83.385
X107.203Y-84.385
X107.203Y-85.385
X107.203Y-86.385
X107.203Y-87.385
X107.203Y-88.385
X107.203Y-89.385
X107.203Y-90.385
X107.203Y-91.385
X108.153Y-53.485
X108.153Y-54.485
X108.153Y-55.385
X108.203Y-27.185
X108.203Y-28.185
X108.203Y-29.185
X108.203Y-30.185
X108.203Y-31.185
X108.203Y-32.185
X108.203Y-33.185
X108.203Y-34.185
X108.203Y-35.185
X108.203Y-36.185
X108.203Y-37.185
X108.203Y-37.185
X108.203Y-38.185
X108.203Y-39.185
X108.203Y-40.185
X108.203Y-41.185
X108.203Y-42.185
X108.203Y-42.185
X108.203Y-43.185
X108.203Y-44.185
X108.203Y-44.185
X108.203Y-45.185
X108.203Y-46.185
X108.203Y-47.185
X108.203Y-48.185
X108.203Y-48.185
X108.203Y-49.185
X108.203Y-50.185
X108.203Y-50.185
X108.203Y-51.385
X108.203Y-52.385
X108.203Y-52.385
X108.203Y-56.385
X108.203Y-57.385
X108.203Y-58.385
X108.203Y-59.385
X108.203Y-60.385
X108.203Y-61.385
X108.203Y-62.385
X108.203Y-63.385
X108.203Y-64.385
X108.203Y-65.385
X108.203Y-66.385
X108.203Y-67.385
X108.203Y-68.385
X108.203Y-69.385
X108.203Y-70.385
X108.203Y-71.385
X108.203Y-72.385
X108.203Y-73.385
X108.203Y-74.385
X108.203Y-75.385
X108.203Y-76.385
X108.203Y-77.385
X108.203Y-78.385
X108.203Y-79.385
X108.203Y-80.385
X108.203Y-81.385
X108.203Y-82.385
X108.203Y-83.385
X108.203Y-84.385
X108.203Y-85.385
X108.203Y-86.385
X108.203Y-87.385
X108.203Y-88.385
X108.203Y-89.385
X108.203Y-90.385
X108.203Y-91.385
X109.153Y-53.485
X109.153Y-54.485
X109.153Y-55.385
X109.203Y-27.185
X109.203Y-28.185
X109.203Y-29.185
X109.203Y-30.185
X109.203Y-31.185
X109.203Y-32.185
X109.203Y-33.185
X109.203Y-34.185
X109.203Y-35.185
X109.203Y-36.185
X109.203Y-37.185
X109.203Y-37.185
X109.203Y-38.185
X109.203Y-39.185
X109.203Y-40.185
X109.203Y-41.185
X109.203Y-42.185
X109.203Y-42.185
X109.203Y-43.185
X109.203Y-44.185
X109.203Y-44.185
X109.203Y-45.185
X109.203Y-46.185
X109.203Y-47.185
X109.203Y-48.185
X109.203Y-48.185
X109.203Y-49.185
X109.203Y-50.185
X109.203Y-50.185
X109.203Y-51.385
X109.203Y-52.385
X109.203Y-52.385
X109.203Y-56.385
X109.203Y-57.385
X109.203Y-58.385
X109.203Y-59.385
X109.203Y-60.385
X109.203Y-61.385
X109.203Y-62.385
X109.203Y-63.385
X109.203Y-64.385
X109.203Y-65.385
X109.203Y-66.385
X109.203Y-67.385
X109.203Y-68.385
X109.203Y-69.385
X109.203Y-70.385
X109.203Y-71.385
X109.203Y-72.385
X109.203Y-73.385
X109.203Y-74.385
X109.203Y-75.385
X109.203Y-76.385
X109.203Y-77.385
X109.203Y-78.385
X109.203Y-79.385
X109.203Y-80.385
X109.203Y-81.385
X109.203Y-82.385
X109.203Y-83.385
X109.203Y-84.385
X109.203Y-85.385
X109.203Y-86.385
X109.203Y-87.385
X109.203Y-88.385
X109.203Y-89.385
X109.203Y-90.385
X109.203Y-91.385
X110.203Y-27.185
X110.203Y-28.185
X110.203Y-29.185
X110.203Y-30.185
X110.203Y-31.185
X110.203Y-32.185
X110.203Y-33.185
X110.203Y-34.185
X110.203Y-35.185
X110.203Y-36.185
X110.203Y-37.185
X110.203Y-37.185
X110.203Y-38.185
X110.203Y-39.185
X110.203Y-40.185
X110.203Y-41.185
X110.203Y-42.185
X110.203Y-42.185
X110.203Y-43.185
X110.203Y-44.185
X110.203Y-44.185
X110.203Y-45.185
X110.203Y-46.185
X110.203Y-47.185
X110.203Y-48.185
X110.203Y-48.185
X110.203Y-49.185
X110.203Y-50.185
X110.203Y-50.185
X110.203Y-51.385
X110.203Y-52.385
X110.203Y-52.385
X110.203Y-56.385
X110.203Y-57.385
X110.203Y-58.385
X110.203Y-59.385
X110.203Y-60.385
X110.203Y-61.385
X110.203Y-62.385
X110.203Y-63.385
X110.203Y-64.385
X110.203Y-65.385
X110.203Y-66.385
X110.203Y-67.385
X110.203Y-68.385
X110.203Y-69.385
X110.203Y-70.385
X110.203Y-71.385
X110.203Y-72.385
X110.203Y-73.385
X110.203Y-74.385
X110.203Y-75.385
X110.203Y-76.385
X110.203Y-77.385
X110.203Y-78.385
X110.203Y-79.385
X110.203Y-80.385
X110.203Y-81.385
X110.203Y-82.385
X110.203Y-83.385
X110.203Y-84.385
X110.203Y-85.385
X110.203Y-86.385
X110.203Y-87.385
X110.203Y-88.385
X110.203Y-89.385
X110.203Y-90.385
X110.203Y-91.385
X110.253Y-53.485
X110.253Y-54.485
X110.253Y-55.385
X111.203Y-26.185
X111.203Y-27.185
X111.203Y-28.185
X111.203Y-29.185
X111.203Y-30.185
X111.203Y-31.185
X111.203Y-32.185
X111.203Y-33.185
X111.203Y-34.185
X111.203Y-35.185
X111.203Y-36.185
X111.203Y-37.185
X111.203Y-37.185
X111.203Y-38.185
X111.203Y-39.185
X111.203Y-40.185
X111.203Y-41.185
X111.203Y-42.185
X111.203Y-42.185
X111.203Y-43.185
X111.203Y-44.185
X111.203Y-44.185
X111.203Y-45.185
X111.203Y-46.185
X111.203Y-47.185
X111.203Y-48.185
X111.203Y-48.185
X111.203Y-49.185
X111.203Y-50.185
X111.203Y-50.185
X111.203Y-51.385
X111.203Y-52.385
X111.203Y-52.385
X111.203Y-56.385
X111.203Y-57.385
X111.203Y-58.385
X111.203Y-59.385
X111.203Y-60.385
X111.203Y-61.385
X111.203Y-62.385
X111.203Y-63.385
X111.203Y-64.385
X111.203Y-65.385
X111.203Y-66.385
X111.203Y-67.385
X111.203Y-68.385
X111.203Y-69.385
X111.203Y-70.385
X111.203Y-71.385
X111.203Y-72.385
X111.203Y-73.385
X111.203Y-74.385
X111.203Y-75.385
X111.203Y-76.385
X111.203Y-77.385
X111.203Y-78.385
X111.203Y-79.385
X111.203Y-80.385
X111.203Y-81.385
X111.203Y-82.385
X111.203Y-83.385
X111.203Y-84.385
X111.203Y-85.385
X111.203Y-86.385
X111.203Y-87.385
X111.203Y-88.385
X111.203Y-89.385
X111.203Y-90.385
X111.203Y-91.385
X111.203Y-92.385
X111.253Y-53.485
X111.253Y-54.485
X111.253Y-55.385
X112.203Y-26.185
X112.203Y-27.185
X112.203Y-28.185
X112.203Y-29.185
X112.203Y-30.185
X112.203Y-31.185
X112.203Y-32.185
X112.203Y-33.185
X112.203Y-34.185
X112.203Y-35.185
X112.203Y-36.185
X112.203Y-37.185
X112.203Y-37.185
X112.203Y-38.185
X112.203Y-39.185
X112.203Y-40.185
X112.203Y-41.185
X112.203Y-42.185
X112.203Y-42.185
X112.203Y-43.185
X112.203Y-44.185
X112.203Y-44.185
X112.203Y-45.185
X112.203Y-46.185
X112.203Y-47.185
X112.203Y-48.185
X112.203Y-48.185
X112.203Y-49.185
X112.203Y-50.185
X112.203Y-50.185
X112.203Y-51.385
X112.203Y-52.385
X112.203Y-52.385
X112.203Y-56.385
X112.203Y-57.385
X112.203Y-58.385
X112.203Y-59.385
X112.203Y-60.385
X112.203Y-61.385
X112.203Y-62.385
X112.203Y-63.385
X112.203Y-64.385
X112.203Y-65.385
X112.203Y-66.385
X112.203Y-67.385
X112.203Y-68.385
X112.203Y-69.385
X112.203Y-70.385
X112.203Y-71.385
X112.203Y-72.385
X112.203Y-73.385
X112.203Y-74.385
X112.203Y-75.385
X112.203Y-76.385
X112.203Y-77.385
X112.203Y-78.385
X112.203Y-79.385
X112.203Y-80.385
X112.203Y-81.385
X112.203Y-82.385
X112.203Y-83.385
X112.203Y-84.385
X112.203Y-85.385
X112.203Y-86.385
X112.203Y-87.385
X112.203Y-88.385
X112.203Y-89.385
X112.203Y-90.385
X112.203Y-91.385
X112.203Y-92.385
X112.203Y-93.385
X112.253Y-53.485
X112.253Y-54.485
X112.253Y-55.385
T3
X42.603Y-22.185
T4
X37.453Y-72.685
X37.503Y-76.565
X37.503Y-79.105
X37.503Y-81.645
X37.503Y-84.185
X37.503Y-86.725
X39.154Y-33.705
X41.694Y-33.705
X73.2Y-27.997
X73.2Y-30.537
T5
X88.203Y-90.842
T6
X82.093Y-90.842
X94.313Y-90.842
T7
X35.553Y-22.835
X35.553Y-95.835
X108.553Y-22.835
X108.553Y-95.835
M30
