%TF.GenerationSoftware,KiCad,Pcbnew,10.0.0*%
%TF.CreationDate,2026-10-04T12:28:16-04:00*%
%TF.ProjectId,Unified UHF,556e6966-6965-4642-9055-48462e6b6963,2026-08-14*%
%TF.SameCoordinates,Original*%
%TF.FileFunction,Soldermask,Top*%
%TF.FilePolarity,Negative*%
%FSLAX46Y46*%
G04 Gerber Fmt 4.6, Leading zero omitted, Abs format (unit mm)*
G04 Created by KiCad (PCBNEW 10.0.0) date 2026-10-04 12:28:16*
%MOMM*%
%LPD*%
G01*
G04 APERTURE LIST*
G04 Aperture macros list*
%AMRoundRect*
0 Rectangle with rounded corners*
0 $1 Rounding radius*
0 $2 $3 $4 $5 $6 $7 $8 $9 X,Y pos of 4 corners*
0 Add a 4 corners polygon primitive as box body*
4,1,4,$2,$3,$4,$5,$6,$7,$8,$9,$2,$3,0*
0 Add four circle primitives for the rounded corners*
1,1,$1+$1,$2,$3*
1,1,$1+$1,$4,$5*
1,1,$1+$1,$6,$7*
1,1,$1+$1,$8,$9*
0 Add four rect primitives between the rounded corners*
20,1,$1+$1,$2,$3,$4,$5,0*
20,1,$1+$1,$4,$5,$6,$7,0*
20,1,$1+$1,$6,$7,$8,$9,0*
20,1,$1+$1,$8,$9,$2,$3,0*%
G04 Aperture macros list end*
%ADD10R,5.588000X5.588000*%
%ADD11R,0.812800X0.254000*%
%ADD12R,0.254000X0.812800*%
%ADD13RoundRect,0.225000X-0.225000X-0.250000X0.225000X-0.250000X0.225000X0.250000X-0.225000X0.250000X0*%
%ADD14RoundRect,0.200000X-0.200000X-0.275000X0.200000X-0.275000X0.200000X0.275000X-0.200000X0.275000X0*%
%ADD15RoundRect,0.225000X-0.250000X0.225000X-0.250000X-0.225000X0.250000X-0.225000X0.250000X0.225000X0*%
%ADD16RoundRect,0.225000X0.250000X-0.225000X0.250000X0.225000X-0.250000X0.225000X-0.250000X-0.225000X0*%
%ADD17R,0.450000X0.250000*%
%ADD18R,0.250000X0.450000*%
%ADD19R,1.700000X1.700000*%
%ADD20RoundRect,0.200000X-0.275000X0.200000X-0.275000X-0.200000X0.275000X-0.200000X0.275000X0.200000X0*%
%ADD21R,1.000000X0.360000*%
%ADD22R,1.500000X1.500000*%
%ADD23RoundRect,0.250000X-1.075000X0.375000X-1.075000X-0.375000X1.075000X-0.375000X1.075000X0.375000X0*%
%ADD24RoundRect,0.225000X0.225000X0.250000X-0.225000X0.250000X-0.225000X-0.250000X0.225000X-0.250000X0*%
%ADD25RoundRect,0.200000X0.200000X0.275000X-0.200000X0.275000X-0.200000X-0.275000X0.200000X-0.275000X0*%
%ADD26RoundRect,0.200000X0.275000X-0.200000X0.275000X0.200000X-0.275000X0.200000X-0.275000X-0.200000X0*%
%ADD27R,0.200000X0.200000*%
%ADD28R,0.200000X0.600000*%
%ADD29RoundRect,0.218750X-0.256250X0.218750X-0.256250X-0.218750X0.256250X-0.218750X0.256250X0.218750X0*%
%ADD30C,7.000000*%
%ADD31RoundRect,0.218750X-0.381250X0.218750X-0.381250X-0.218750X0.381250X-0.218750X0.381250X0.218750X0*%
%ADD32C,1.700000*%
%ADD33R,1.780000X1.020000*%
%ADD34R,1.020000X1.780000*%
%ADD35RoundRect,0.218750X-0.218750X-0.256250X0.218750X-0.256250X0.218750X0.256250X-0.218750X0.256250X0*%
%ADD36RoundRect,0.218750X0.256250X-0.218750X0.256250X0.218750X-0.256250X0.218750X-0.256250X-0.218750X0*%
%ADD37RoundRect,0.250000X0.475000X-0.250000X0.475000X0.250000X-0.475000X0.250000X-0.475000X-0.250000X0*%
%ADD38R,0.510000X0.250000*%
%ADD39R,0.250000X0.510000*%
%ADD40R,1.520000X1.520000*%
%ADD41R,0.900000X0.800000*%
%ADD42C,4.560000*%
%ADD43C,2.529000*%
G04 APERTURE END LIST*
D10*
%TO.C,U1*%
X42303476Y-60838901D03*
D11*
X45707076Y-63588901D03*
X45707076Y-63088902D03*
X45707076Y-62588900D03*
X45707076Y-62088901D03*
X45707076Y-61588902D03*
X45707076Y-61088901D03*
X45707076Y-60588901D03*
X45707076Y-60088900D03*
X45707076Y-59588901D03*
X45707076Y-59088902D03*
X45707076Y-58588900D03*
X45707076Y-58088901D03*
D12*
X45053476Y-57435301D03*
X44553477Y-57435301D03*
X44053475Y-57435301D03*
X43553476Y-57435301D03*
X43053477Y-57435301D03*
X42553476Y-57435301D03*
X42053476Y-57435301D03*
X41553475Y-57435301D03*
X41053476Y-57435301D03*
X40553477Y-57435301D03*
X40053475Y-57435301D03*
X39553476Y-57435301D03*
D11*
X38899876Y-58088901D03*
X38899876Y-58588900D03*
X38899876Y-59088902D03*
X38899876Y-59588901D03*
X38899876Y-60088900D03*
X38899876Y-60588901D03*
X38899876Y-61088901D03*
X38899876Y-61588902D03*
X38899876Y-62088901D03*
X38899876Y-62588900D03*
X38899876Y-63088902D03*
X38899876Y-63588901D03*
D12*
X39553476Y-64242501D03*
X40053476Y-64242501D03*
X40553476Y-64242501D03*
X41053476Y-64242501D03*
X41553476Y-64242501D03*
X42053476Y-64242501D03*
X42553476Y-64242501D03*
X43053476Y-64242501D03*
X43553476Y-64242501D03*
X44053476Y-64242501D03*
X44553476Y-64242501D03*
X45053476Y-64242501D03*
%TD*%
D13*
%TO.C,C6*%
X35303477Y-64385301D03*
X36853477Y-64385301D03*
%TD*%
D14*
%TO.C,R11*%
X90068750Y-51174209D03*
X91718750Y-51174209D03*
%TD*%
D15*
%TO.C,C13*%
X67600000Y-64361709D03*
X67600000Y-65911709D03*
%TD*%
D16*
%TO.C,C5*%
X35403477Y-61360301D03*
X35403477Y-59810301D03*
%TD*%
D15*
%TO.C,C19*%
X92058936Y-63442801D03*
X92058936Y-64992801D03*
%TD*%
D13*
%TO.C,C15*%
X85955000Y-73736709D03*
X87505000Y-73736709D03*
%TD*%
D17*
%TO.C,IC2*%
X92005000Y-73036709D03*
X92005000Y-73536709D03*
X92005000Y-74036709D03*
X92005000Y-74536709D03*
D18*
X92680000Y-75211709D03*
X93180000Y-75211709D03*
X93680000Y-75211709D03*
X94180000Y-75211709D03*
D17*
X94855000Y-74536709D03*
X94855000Y-74036709D03*
X94855000Y-73536709D03*
X94855000Y-73036709D03*
D18*
X94180000Y-72361709D03*
X93680000Y-72361709D03*
X93180000Y-72361709D03*
X92680000Y-72361709D03*
D19*
X93430000Y-73786709D03*
%TD*%
D20*
%TO.C,R6*%
X71800000Y-53863291D03*
X71800000Y-55513291D03*
%TD*%
D21*
%TO.C,U2*%
X50503477Y-59176709D03*
X50503477Y-59836709D03*
X50503477Y-60496709D03*
X52303477Y-60496709D03*
X52303477Y-59836709D03*
X52303477Y-59176709D03*
%TD*%
D22*
%TO.C,TP10*%
X80530000Y-75936709D03*
%TD*%
D23*
%TO.C,L2*%
X88250000Y-37486709D03*
X88250000Y-40286709D03*
%TD*%
D24*
%TO.C,C22*%
X99387500Y-36600000D03*
X97837500Y-36600000D03*
%TD*%
D25*
%TO.C,R10*%
X95812500Y-36550000D03*
X94162500Y-36550000D03*
%TD*%
D22*
%TO.C,TP6*%
X62200000Y-45936709D03*
%TD*%
%TO.C,TP8*%
X56003477Y-66785301D03*
%TD*%
D13*
%TO.C,C20*%
X97028477Y-67385301D03*
X98578477Y-67385301D03*
%TD*%
D26*
%TO.C,R12*%
X94000000Y-51136709D03*
X94000000Y-49486709D03*
%TD*%
D27*
%TO.C,IC4*%
X99290000Y-56636709D03*
X99290000Y-56236709D03*
X99290000Y-55836709D03*
X98890000Y-55636709D03*
X98490000Y-55836709D03*
X98490000Y-56236709D03*
X98490000Y-56636709D03*
X98890000Y-56836709D03*
D28*
X98890000Y-56236709D03*
%TD*%
D29*
%TO.C,L1*%
X83730000Y-73736709D03*
X83730000Y-75311709D03*
%TD*%
D27*
%TO.C,IC1*%
X61728164Y-60081466D03*
X61728164Y-60481466D03*
X61728164Y-60881466D03*
X62128164Y-61081466D03*
X62528164Y-60881466D03*
X62528164Y-60481466D03*
X62528164Y-60081466D03*
X62128164Y-59881466D03*
D28*
X62128164Y-60481466D03*
%TD*%
D20*
%TO.C,R8*%
X88180000Y-69175000D03*
X88180000Y-70825000D03*
%TD*%
D30*
%TO.C,H1*%
X35553477Y-22835301D03*
%TD*%
D31*
%TO.C,L4*%
X97603477Y-73122801D03*
X97603477Y-75247801D03*
%TD*%
D22*
%TO.C,TP5*%
X59403477Y-56085301D03*
%TD*%
D14*
%TO.C,R9*%
X88130000Y-67536709D03*
X89780000Y-67536709D03*
%TD*%
D19*
%TO.C,J2*%
X73200000Y-27996709D03*
D32*
X73200000Y-30536709D03*
%TD*%
D20*
%TO.C,R5*%
X58406954Y-68364747D03*
X58406954Y-70014747D03*
%TD*%
D13*
%TO.C,C4*%
X37053477Y-66135301D03*
X38603477Y-66135301D03*
%TD*%
D22*
%TO.C,TP12*%
X104600000Y-48400000D03*
%TD*%
D33*
%TO.C,FL1*%
X68525859Y-71753873D03*
X68525859Y-73663873D03*
X68525859Y-75573873D03*
D34*
X72590859Y-77728873D03*
D33*
X76655859Y-75573873D03*
X76655859Y-73663873D03*
X76655859Y-71753873D03*
D34*
X72590859Y-69598873D03*
%TD*%
D30*
%TO.C,H2*%
X108553477Y-22835301D03*
%TD*%
D16*
%TO.C,C11*%
X56403477Y-61960301D03*
X56403477Y-60410301D03*
%TD*%
D13*
%TO.C,C12*%
X65425000Y-57200000D03*
X66975000Y-57200000D03*
%TD*%
D35*
%TO.C,L5*%
X99615977Y-75185301D03*
X101190977Y-75185301D03*
%TD*%
D22*
%TO.C,TP1*%
X41403477Y-45785301D03*
%TD*%
D20*
%TO.C,R4*%
X58403477Y-63389747D03*
X58403477Y-65039747D03*
%TD*%
D31*
%TO.C,L3*%
X94603477Y-67322801D03*
X94603477Y-69447801D03*
%TD*%
D16*
%TO.C,C18*%
X85000000Y-37511709D03*
X85000000Y-35961709D03*
%TD*%
D20*
%TO.C,R7*%
X71800000Y-59400000D03*
X71800000Y-61050000D03*
%TD*%
D16*
%TO.C,C1*%
X40803477Y-42560301D03*
X40803477Y-41010301D03*
%TD*%
D22*
%TO.C,TP13*%
X101803477Y-60985301D03*
%TD*%
D13*
%TO.C,C24*%
X100828477Y-73185301D03*
X102378477Y-73185301D03*
%TD*%
D15*
%TO.C,C30*%
X93600000Y-60161709D03*
X93600000Y-61711709D03*
%TD*%
D26*
%TO.C,R3*%
X51800000Y-52450000D03*
X51800000Y-50800000D03*
%TD*%
D20*
%TO.C,R2*%
X41800000Y-49711709D03*
X41800000Y-51361709D03*
%TD*%
D29*
%TO.C,D1*%
X51800000Y-47562500D03*
X51800000Y-49137500D03*
%TD*%
D30*
%TO.C,H3*%
X35553477Y-95835301D03*
%TD*%
D15*
%TO.C,C8*%
X45403477Y-53010301D03*
X45403477Y-54560301D03*
%TD*%
D22*
%TO.C,TP2*%
X35003477Y-55385301D03*
%TD*%
D36*
%TO.C,L6*%
X101600000Y-43600000D03*
X101600000Y-42025000D03*
%TD*%
D13*
%TO.C,C21*%
X97053477Y-69585301D03*
X98603477Y-69585301D03*
%TD*%
D22*
%TO.C,TP3*%
X55203477Y-53785301D03*
%TD*%
D16*
%TO.C,C23*%
X101594664Y-40143873D03*
X101594664Y-38593873D03*
%TD*%
D13*
%TO.C,C25*%
X100828477Y-71185301D03*
X102378477Y-71185301D03*
%TD*%
D19*
%TO.C,J3*%
X39153603Y-33705301D03*
D32*
X41693603Y-33705301D03*
%TD*%
D13*
%TO.C,C26*%
X95625000Y-52600000D03*
X97175000Y-52600000D03*
%TD*%
D22*
%TO.C,TP11*%
X81000000Y-43600000D03*
%TD*%
D37*
%TO.C,C17*%
X82438006Y-37523947D03*
X82438006Y-35623947D03*
%TD*%
D19*
%TO.C,J1*%
X37503477Y-76565301D03*
D32*
X37503477Y-79105301D03*
X37503477Y-81645301D03*
X37503477Y-84185301D03*
X37503477Y-86725301D03*
%TD*%
D22*
%TO.C,TP9*%
X74623418Y-57376582D03*
%TD*%
D24*
%TO.C,C10*%
X48178477Y-65585301D03*
X46628477Y-65585301D03*
%TD*%
D38*
%TO.C,IC3*%
X98110000Y-41296709D03*
X98110000Y-40786709D03*
X98110000Y-40276709D03*
D39*
X97260000Y-39426709D03*
X96750000Y-39426709D03*
X96240000Y-39426709D03*
D38*
X95390000Y-40276709D03*
X95390000Y-40786709D03*
X95390000Y-41296709D03*
D39*
X96240000Y-42146709D03*
X96750000Y-42146709D03*
X97260000Y-42146709D03*
D40*
X96750000Y-40786709D03*
%TD*%
D24*
%TO.C,C16*%
X84850000Y-40286709D03*
X83300000Y-40286709D03*
%TD*%
D22*
%TO.C,TP14*%
X104603477Y-53385301D03*
%TD*%
D24*
%TO.C,C7*%
X48178477Y-67385301D03*
X46628477Y-67385301D03*
%TD*%
D30*
%TO.C,H4*%
X108553477Y-95835301D03*
%TD*%
D22*
%TO.C,TP7*%
X62200000Y-74400000D03*
%TD*%
D16*
%TO.C,C28*%
X100803477Y-69185301D03*
X100803477Y-67635301D03*
%TD*%
D33*
%TO.C,FL2*%
X77120000Y-42186709D03*
X77120000Y-40276709D03*
X77120000Y-38366709D03*
D34*
X73055000Y-36211709D03*
D33*
X68990000Y-38366709D03*
X68990000Y-40276709D03*
X68990000Y-42186709D03*
D34*
X73055000Y-44341709D03*
%TD*%
D16*
%TO.C,C2*%
X50053477Y-74985301D03*
X50053477Y-73435301D03*
%TD*%
D22*
%TO.C,TP4*%
X49403477Y-51085301D03*
%TD*%
D15*
%TO.C,C29*%
X93600000Y-56650000D03*
X93600000Y-58200000D03*
%TD*%
D13*
%TO.C,C27*%
X104025000Y-46000000D03*
X105575000Y-46000000D03*
%TD*%
D24*
%TO.C,C14*%
X71800000Y-57400000D03*
X70250000Y-57400000D03*
%TD*%
D15*
%TO.C,C9*%
X47203477Y-53035301D03*
X47203477Y-54585301D03*
%TD*%
D41*
%TO.C,X1*%
X37553477Y-42985301D03*
X37553477Y-45035301D03*
X39003477Y-45035301D03*
X39003477Y-42985301D03*
%TD*%
D16*
%TO.C,C3*%
X37403477Y-54985301D03*
X37403477Y-53435301D03*
%TD*%
D19*
%TO.C,J4*%
X37453477Y-72685301D03*
%TD*%
D26*
%TO.C,R1*%
X47853477Y-73585301D03*
X47853477Y-71935301D03*
%TD*%
D42*
%TO.C,J5*%
X94313477Y-90841709D03*
X82093477Y-90841709D03*
D43*
X88203477Y-90841709D03*
%TD*%
M02*
