%TF.GenerationSoftware,KiCad,Pcbnew,10.0.0*%
%TF.CreationDate,2026-10-05T11:34:41-04:00*%
%TF.ProjectId,Unified UHF,556e6966-6965-4642-9055-48462e6b6963,2026-08-14*%
%TF.SameCoordinates,Original*%
%TF.FileFunction,Soldermask,Top*%
%TF.FilePolarity,Negative*%
%FSLAX46Y46*%
G04 Gerber Fmt 4.6, Leading zero omitted, Abs format (unit mm)*
G04 Created by KiCad (PCBNEW 10.0.0) date 2026-10-05 11:34:41*
%MOMM*%
%LPD*%
G01*
G04 APERTURE LIST*
G04 Aperture macros list*
%AMRoundRect*
0 Rectangle with rounded corners*
0 $1 Rounding radius*
0 $2 $3 $4 $5 $6 $7 $8 $9 X,Y pos of 4 corners*
0 Add a 4 corners polygon primitive as box body*
4,1,4,$2,$3,$4,$5,$6,$7,$8,$9,$2,$3,0*
0 Add four circle primitives for the rounded corners*
1,1,$1+$1,$2,$3*
1,1,$1+$1,$4,$5*
1,1,$1+$1,$6,$7*
1,1,$1+$1,$8,$9*
0 Add four rect primitives between the rounded corners*
20,1,$1+$1,$2,$3,$4,$5,0*
20,1,$1+$1,$4,$5,$6,$7,0*
20,1,$1+$1,$6,$7,$8,$9,0*
20,1,$1+$1,$8,$9,$2,$3,0*%
G04 Aperture macros list end*
%ADD10RoundRect,0.075000X-0.331400X0.050000X-0.331400X-0.050000X0.331400X-0.050000X0.331400X0.050000X0*%
%ADD11RoundRect,0.075000X0.050000X0.331400X-0.050000X0.331400X-0.050000X-0.331400X0.050000X-0.331400X0*%
%ADD12R,5.500000X5.500000*%
%ADD13RoundRect,0.225000X-0.225000X-0.250000X0.225000X-0.250000X0.225000X0.250000X-0.225000X0.250000X0*%
%ADD14RoundRect,0.225000X0.250000X-0.225000X0.250000X0.225000X-0.250000X0.225000X-0.250000X-0.225000X0*%
%ADD15RoundRect,0.225000X-0.250000X0.225000X-0.250000X-0.225000X0.250000X-0.225000X0.250000X0.225000X0*%
%ADD16RoundRect,0.075000X0.275000X-0.050000X0.275000X0.050000X-0.275000X0.050000X-0.275000X-0.050000X0*%
%ADD17RoundRect,0.075000X-0.050000X-0.275000X0.050000X-0.275000X0.050000X0.275000X-0.050000X0.275000X0*%
%ADD18RoundRect,0.250000X-0.600000X-0.600000X0.600000X-0.600000X0.600000X0.600000X-0.600000X0.600000X0*%
%ADD19RoundRect,0.200000X-0.200000X-0.275000X0.200000X-0.275000X0.200000X0.275000X-0.200000X0.275000X0*%
%ADD20RoundRect,0.099000X-0.401000X0.066000X-0.401000X-0.066000X0.401000X-0.066000X0.401000X0.066000X0*%
%ADD21RoundRect,0.250000X-1.075000X0.375000X-1.075000X-0.375000X1.075000X-0.375000X1.075000X0.375000X0*%
%ADD22RoundRect,0.225000X0.225000X0.250000X-0.225000X0.250000X-0.225000X-0.250000X0.225000X-0.250000X0*%
%ADD23RoundRect,0.200000X0.200000X0.275000X-0.200000X0.275000X-0.200000X-0.275000X0.200000X-0.275000X0*%
%ADD24RoundRect,0.075000X0.050000X0.050000X-0.050000X0.050000X-0.050000X-0.050000X0.050000X-0.050000X0*%
%ADD25RoundRect,0.060000X0.040000X0.240000X-0.040000X0.240000X-0.040000X-0.240000X0.040000X-0.240000X0*%
%ADD26RoundRect,0.218750X-0.256250X0.218750X-0.256250X-0.218750X0.256250X-0.218750X0.256250X0.218750X0*%
%ADD27RoundRect,0.075000X-0.050000X-0.050000X0.050000X-0.050000X0.050000X0.050000X-0.050000X0.050000X0*%
%ADD28RoundRect,0.060000X-0.040000X-0.240000X0.040000X-0.240000X0.040000X0.240000X-0.040000X0.240000X0*%
%ADD29RoundRect,0.200000X-0.275000X0.200000X-0.275000X-0.200000X0.275000X-0.200000X0.275000X0.200000X0*%
%ADD30C,6.000000*%
%ADD31RoundRect,0.218750X-0.381250X0.218750X-0.381250X-0.218750X0.381250X-0.218750X0.381250X0.218750X0*%
%ADD32R,1.700000X1.700000*%
%ADD33C,1.700000*%
%ADD34RoundRect,0.204000X-0.686000X0.306000X-0.686000X-0.306000X0.686000X-0.306000X0.686000X0.306000X0*%
%ADD35RoundRect,0.204000X-0.306000X-0.686000X0.306000X-0.686000X0.306000X0.686000X-0.306000X0.686000X0*%
%ADD36RoundRect,0.218750X-0.218750X-0.256250X0.218750X-0.256250X0.218750X0.256250X-0.218750X0.256250X0*%
%ADD37C,1.000000*%
%ADD38RoundRect,0.200000X0.275000X-0.200000X0.275000X0.200000X-0.275000X0.200000X-0.275000X-0.200000X0*%
%ADD39RoundRect,0.218750X0.256250X-0.218750X0.256250X0.218750X-0.256250X0.218750X-0.256250X-0.218750X0*%
%ADD40RoundRect,0.250000X0.475000X-0.250000X0.475000X0.250000X-0.475000X0.250000X-0.475000X-0.250000X0*%
%ADD41RoundRect,0.075000X-0.350000X0.050000X-0.350000X-0.050000X0.350000X-0.050000X0.350000X0.050000X0*%
%ADD42RoundRect,0.075000X0.050000X0.350000X-0.050000X0.350000X-0.050000X-0.350000X0.050000X-0.350000X0*%
%ADD43RoundRect,0.241379X0.458621X0.458621X-0.458621X0.458621X-0.458621X-0.458621X0.458621X-0.458621X0*%
%ADD44RoundRect,0.204000X0.686000X-0.306000X0.686000X0.306000X-0.686000X0.306000X-0.686000X-0.306000X0*%
%ADD45RoundRect,0.204000X0.306000X0.686000X-0.306000X0.686000X-0.306000X-0.686000X0.306000X-0.686000X0*%
%ADD46R,0.900000X0.800000*%
%ADD47C,1.500000*%
%ADD48C,4.704000*%
%ADD49C,2.529000*%
G04 APERTURE END LIST*
D10*
%TO.C,U1*%
X45707076Y-63588901D03*
X45707076Y-63088902D03*
X45707076Y-62588900D03*
X45707076Y-62088901D03*
X45707076Y-61588902D03*
X45707076Y-61088901D03*
X45707076Y-60588901D03*
X45707076Y-60088900D03*
X45707076Y-59588901D03*
X45707076Y-59088902D03*
X45707076Y-58588900D03*
X45707076Y-58088901D03*
D11*
X45053476Y-57435301D03*
X44553477Y-57435301D03*
X44053475Y-57435301D03*
X43553476Y-57435301D03*
X43053477Y-57435301D03*
X42553476Y-57435301D03*
X42053476Y-57435301D03*
X41553475Y-57435301D03*
X41053476Y-57435301D03*
X40553477Y-57435301D03*
X40053475Y-57435301D03*
X39553476Y-57435301D03*
D10*
X38899876Y-58088901D03*
X38899876Y-58588900D03*
X38899876Y-59088902D03*
X38899876Y-59588901D03*
X38899876Y-60088900D03*
X38899876Y-60588901D03*
X38899876Y-61088901D03*
X38899876Y-61588902D03*
X38899876Y-62088901D03*
X38899876Y-62588900D03*
X38899876Y-63088902D03*
X38899876Y-63588901D03*
D11*
X39553476Y-64242501D03*
X40053476Y-64242501D03*
X40553476Y-64242501D03*
X41053476Y-64242501D03*
X41553476Y-64242501D03*
X42053476Y-64242501D03*
X42553476Y-64242501D03*
X43053476Y-64242501D03*
X43553476Y-64242501D03*
X44053476Y-64242501D03*
X44553476Y-64242501D03*
X45053476Y-64242501D03*
D12*
X42303476Y-60838901D03*
%TD*%
D13*
%TO.C,C6*%
X35303477Y-64385301D03*
X36853477Y-64385301D03*
%TD*%
D14*
%TO.C,C13*%
X67003477Y-64360301D03*
X67003477Y-62810301D03*
%TD*%
%TO.C,C5*%
X35403477Y-61360301D03*
X35403477Y-59810301D03*
%TD*%
D15*
%TO.C,C19*%
X88382413Y-63442801D03*
X88382413Y-64992801D03*
%TD*%
D13*
%TO.C,C15*%
X82278477Y-73736709D03*
X83828477Y-73736709D03*
%TD*%
D16*
%TO.C,IC2*%
X88203477Y-73036709D03*
X88203477Y-73536709D03*
X88203477Y-74036709D03*
X88203477Y-74536709D03*
D17*
X89003477Y-75336709D03*
X89503477Y-75336709D03*
X90003477Y-75336709D03*
X90503477Y-75336709D03*
D16*
X91303477Y-74536709D03*
X91303477Y-74036709D03*
X91303477Y-73536709D03*
X91303477Y-73036709D03*
D17*
X90503477Y-72236709D03*
X90003477Y-72236709D03*
X89503477Y-72236709D03*
X89003477Y-72236709D03*
D18*
X89753477Y-73786709D03*
%TD*%
D19*
%TO.C,R6*%
X65778477Y-53185301D03*
X67428477Y-53185301D03*
%TD*%
D20*
%TO.C,U2*%
X50503477Y-59176709D03*
X50503477Y-59836709D03*
X50503477Y-60496709D03*
X52303477Y-60496709D03*
X52303477Y-59836709D03*
X52303477Y-59176709D03*
%TD*%
D21*
%TO.C,L2*%
X88250000Y-37486709D03*
X88250000Y-40286709D03*
%TD*%
D22*
%TO.C,C22*%
X99387500Y-36600000D03*
X97837500Y-36600000D03*
%TD*%
D23*
%TO.C,R10*%
X95812500Y-36550000D03*
X94162500Y-36550000D03*
%TD*%
D13*
%TO.C,C20*%
X93351954Y-67385301D03*
X94901954Y-67385301D03*
%TD*%
D24*
%TO.C,IC4*%
X95613477Y-56636709D03*
X95613477Y-56236709D03*
X95613477Y-55836709D03*
X95213477Y-55636709D03*
X94813477Y-55836709D03*
X94813477Y-56236709D03*
X94813477Y-56636709D03*
X95213477Y-56836709D03*
D25*
X95213477Y-56236709D03*
%TD*%
D26*
%TO.C,L1*%
X80053477Y-73736709D03*
X80053477Y-75311709D03*
%TD*%
D27*
%TO.C,IC1*%
X61728164Y-60081466D03*
X61728164Y-60481466D03*
X61728164Y-60881466D03*
X62128164Y-61081466D03*
X62528164Y-60881466D03*
X62528164Y-60481466D03*
X62528164Y-60081466D03*
X62128164Y-59881466D03*
D28*
X62128164Y-60481466D03*
%TD*%
D29*
%TO.C,R8*%
X84503477Y-69175000D03*
X84503477Y-70825000D03*
%TD*%
D30*
%TO.C,H1*%
X35553477Y-22835301D03*
%TD*%
D31*
%TO.C,L4*%
X93926954Y-73122801D03*
X93926954Y-75247801D03*
%TD*%
D19*
%TO.C,R9*%
X84453477Y-67536709D03*
X86103477Y-67536709D03*
%TD*%
D32*
%TO.C,J2*%
X73200000Y-27996709D03*
D33*
X73200000Y-30536709D03*
%TD*%
D29*
%TO.C,R5*%
X58406954Y-68364747D03*
X58406954Y-70014747D03*
%TD*%
D13*
%TO.C,C4*%
X37053477Y-66135301D03*
X38603477Y-66135301D03*
%TD*%
D34*
%TO.C,FL1*%
X68525859Y-71753873D03*
X68525859Y-73663873D03*
X68525859Y-75573873D03*
D35*
X72590859Y-77728873D03*
D34*
X76655859Y-75573873D03*
X76655859Y-73663873D03*
X76655859Y-71753873D03*
D35*
X72590859Y-69598873D03*
%TD*%
D30*
%TO.C,H2*%
X108553477Y-22835301D03*
%TD*%
D14*
%TO.C,C11*%
X56403477Y-61960301D03*
X56403477Y-60410301D03*
%TD*%
D13*
%TO.C,C12*%
X65425000Y-57200000D03*
X66975000Y-57200000D03*
%TD*%
D36*
%TO.C,L5*%
X95939454Y-75185301D03*
X97514454Y-75185301D03*
%TD*%
D37*
%TO.C,TP1*%
X41403477Y-45785301D03*
%TD*%
D29*
%TO.C,R4*%
X58403477Y-63389747D03*
X58403477Y-65039747D03*
%TD*%
D37*
%TO.C,TP5*%
X68003477Y-30985301D03*
%TD*%
D31*
%TO.C,L3*%
X90926954Y-67322801D03*
X90926954Y-69447801D03*
%TD*%
D14*
%TO.C,C18*%
X85000000Y-37511709D03*
X85000000Y-35961709D03*
%TD*%
D19*
%TO.C,R7*%
X68353477Y-60385301D03*
X70003477Y-60385301D03*
%TD*%
D37*
%TO.C,TP6*%
X35603477Y-38985301D03*
%TD*%
D22*
%TO.C,C1*%
X41978477Y-41785301D03*
X40428477Y-41785301D03*
%TD*%
D13*
%TO.C,C24*%
X97151954Y-73185301D03*
X98701954Y-73185301D03*
%TD*%
D38*
%TO.C,R3*%
X51800000Y-52450000D03*
X51800000Y-50800000D03*
%TD*%
D29*
%TO.C,R2*%
X41800000Y-49711709D03*
X41800000Y-51361709D03*
%TD*%
D26*
%TO.C,D1*%
X51800000Y-47562500D03*
X51800000Y-49137500D03*
%TD*%
D30*
%TO.C,H3*%
X35553477Y-95835301D03*
%TD*%
D15*
%TO.C,C30*%
X91371954Y-60115301D03*
X91371954Y-61665301D03*
%TD*%
%TO.C,C8*%
X45403477Y-53010301D03*
X45403477Y-54560301D03*
%TD*%
D37*
%TO.C,TP2*%
X35003477Y-55385301D03*
%TD*%
D39*
%TO.C,L6*%
X101600000Y-43600000D03*
X101600000Y-42025000D03*
%TD*%
D13*
%TO.C,C21*%
X93376954Y-69585301D03*
X94926954Y-69585301D03*
%TD*%
D37*
%TO.C,TP3*%
X55203477Y-53785301D03*
%TD*%
D14*
%TO.C,C23*%
X101594664Y-40143873D03*
X101594664Y-38593873D03*
%TD*%
D13*
%TO.C,C25*%
X97151954Y-71185301D03*
X98701954Y-71185301D03*
%TD*%
D32*
%TO.C,J3*%
X39153603Y-33705301D03*
D33*
X41693603Y-33705301D03*
%TD*%
D14*
%TO.C,C26*%
X89926954Y-54960301D03*
X89926954Y-53410301D03*
%TD*%
D40*
%TO.C,C17*%
X82438006Y-37523947D03*
X82438006Y-35623947D03*
%TD*%
D32*
%TO.C,J1*%
X37503477Y-76565301D03*
D33*
X37503477Y-79105301D03*
X37503477Y-81645301D03*
X37503477Y-84185301D03*
X37503477Y-86725301D03*
%TD*%
D22*
%TO.C,C10*%
X48178477Y-65585301D03*
X46628477Y-65585301D03*
%TD*%
D41*
%TO.C,IC3*%
X98220000Y-41296709D03*
X98220000Y-40786709D03*
X98220000Y-40276709D03*
D42*
X97260000Y-39316709D03*
X96750000Y-39316709D03*
X96240000Y-39316709D03*
D41*
X95280000Y-40276709D03*
X95280000Y-40786709D03*
X95280000Y-41296709D03*
D42*
X96240000Y-42256709D03*
X96750000Y-42256709D03*
X97260000Y-42256709D03*
D43*
X96750000Y-40786709D03*
%TD*%
D22*
%TO.C,C16*%
X84850000Y-40286709D03*
X83300000Y-40286709D03*
%TD*%
%TO.C,C7*%
X48178477Y-67385301D03*
X46628477Y-67385301D03*
%TD*%
D30*
%TO.C,H4*%
X108553477Y-95835301D03*
%TD*%
D14*
%TO.C,C28*%
X97126954Y-69185301D03*
X97126954Y-67635301D03*
%TD*%
D44*
%TO.C,FL2*%
X77120000Y-42186709D03*
X77120000Y-40276709D03*
X77120000Y-38366709D03*
D45*
X73055000Y-36211709D03*
D44*
X68990000Y-38366709D03*
X68990000Y-40276709D03*
X68990000Y-42186709D03*
D45*
X73055000Y-44341709D03*
%TD*%
D14*
%TO.C,C2*%
X50053477Y-74985301D03*
X50053477Y-73435301D03*
%TD*%
D37*
%TO.C,TP4*%
X49403477Y-51085301D03*
%TD*%
D15*
%TO.C,C29*%
X89923477Y-56650000D03*
X89923477Y-58200000D03*
%TD*%
D13*
%TO.C,C27*%
X101628477Y-46000000D03*
X103178477Y-46000000D03*
%TD*%
%TO.C,C14*%
X68828477Y-57185301D03*
X70378477Y-57185301D03*
%TD*%
D38*
%TO.C,R11*%
X33803477Y-70210301D03*
X33803477Y-68560301D03*
%TD*%
D15*
%TO.C,C9*%
X47203477Y-53035301D03*
X47203477Y-54585301D03*
%TD*%
D46*
%TO.C,X1*%
X37553477Y-41785301D03*
X37553477Y-43835301D03*
X39003477Y-43835301D03*
X39003477Y-41785301D03*
%TD*%
D47*
%TO.C,TP7*%
X42603477Y-22185301D03*
%TD*%
D14*
%TO.C,C3*%
X37403477Y-54985301D03*
X37403477Y-53435301D03*
%TD*%
D32*
%TO.C,J4*%
X37453477Y-72685301D03*
%TD*%
D38*
%TO.C,R1*%
X47853477Y-73585301D03*
X47853477Y-71935301D03*
%TD*%
D48*
%TO.C,J5*%
X94313477Y-90841709D03*
X82093477Y-90841709D03*
D49*
X88203477Y-90841709D03*
%TD*%
M02*
